G75*
%MOIN*%
%OFA0B0*%
%FSLAX24Y24*%
%IPPOS*%
%LPD*%
%AMOC8*
5,1,8,0,0,1.08239X$1,22.5*
%
%ADD10C,0.0160*%
%ADD11C,0.0000*%
%ADD12OC8,0.0480*%
%ADD13OC8,0.0885*%
%ADD14C,0.0885*%
%ADD15C,0.0480*%
%ADD16OC8,0.0630*%
%ADD17C,0.0630*%
%ADD18OC8,0.0500*%
%ADD19C,0.0500*%
%ADD20C,0.0570*%
%ADD21C,0.0787*%
%ADD22C,0.0600*%
%ADD23OC8,0.0540*%
%ADD24C,0.0591*%
%ADD25C,0.0660*%
%ADD26OC8,0.0591*%
%ADD27C,0.0450*%
%ADD28C,0.0240*%
%ADD29R,0.0356X0.0356*%
%ADD30C,0.0320*%
D10*
X003260Y000595D02*
X003260Y032466D01*
X020505Y032466D01*
X020505Y000595D01*
X003260Y000595D01*
X004385Y007470D02*
X005135Y007470D01*
X005635Y007970D01*
X004635Y007970D02*
X004010Y008595D01*
X004010Y016595D01*
X005510Y018095D01*
X005510Y020345D01*
X005760Y020595D01*
X005760Y021345D01*
X006760Y022345D01*
X006760Y024345D01*
X008010Y025595D01*
X007010Y025595D02*
X006260Y024845D01*
X006260Y022845D01*
X005260Y021845D01*
X005260Y020845D01*
X004510Y020095D01*
X004510Y018095D01*
X003635Y017220D01*
X003635Y008220D01*
X004385Y007470D01*
X005010Y010970D02*
X008010Y010970D01*
X008010Y010470D01*
X008385Y010095D01*
X008385Y008345D01*
X009010Y007720D01*
X009010Y006470D01*
X010010Y006470D02*
X010010Y007720D01*
X009510Y008220D01*
X009510Y009970D01*
X009010Y010470D01*
X009010Y010970D01*
X009010Y011220D01*
X008385Y011845D01*
X008385Y012220D01*
X007885Y012720D01*
X007510Y012720D01*
X009010Y012720D02*
X009010Y012095D01*
X009385Y011720D01*
X010510Y011720D01*
X011010Y011220D01*
X011010Y010970D01*
X011010Y010470D01*
X010760Y010220D01*
X010260Y010220D01*
X010010Y009970D01*
X010010Y009470D01*
X012010Y010470D02*
X012260Y010220D01*
X014135Y010220D01*
X014510Y009845D01*
X014510Y008220D01*
X015010Y007720D01*
X015010Y006470D01*
X015010Y009470D02*
X015010Y009970D01*
X014010Y010970D01*
X014010Y011470D01*
X013510Y011970D01*
X013510Y012720D01*
X012010Y012720D02*
X012010Y010970D01*
X012010Y010470D01*
X015010Y010970D02*
X016010Y009970D01*
X016010Y009470D01*
X016010Y010970D02*
X016760Y010970D01*
X017135Y011345D01*
X017135Y013845D01*
X017760Y014470D01*
X017760Y015720D01*
X017260Y015720D01*
X016760Y015220D01*
X016260Y015220D01*
X016010Y015470D01*
X016010Y017095D01*
X015635Y017470D01*
X015010Y017470D01*
X013510Y015720D02*
X013010Y015720D01*
X012885Y015845D01*
X012885Y016345D01*
X012510Y016720D01*
X011760Y016720D01*
X011510Y016970D01*
X011510Y018095D01*
X011010Y018595D01*
X010010Y018595D02*
X009510Y018095D01*
X009510Y015470D01*
X009760Y015220D01*
X011760Y015220D01*
X012010Y015470D01*
X012010Y015720D01*
X015385Y011720D02*
X015010Y011345D01*
X015010Y010970D01*
X015385Y011720D02*
X016010Y011720D01*
X016510Y012220D01*
X016510Y012720D01*
X018635Y008470D02*
X018135Y007970D01*
X018635Y008470D02*
X019635Y008470D01*
X019760Y008595D01*
X019760Y009470D01*
X019510Y009720D01*
X019510Y020845D01*
X018260Y022095D01*
X016260Y022095D01*
X015010Y023345D01*
X015010Y025595D01*
X016010Y025595D02*
X016010Y023345D01*
X016260Y023095D01*
X017760Y023095D01*
X020135Y020720D01*
X020135Y008345D01*
X019760Y007970D01*
X019135Y007970D01*
X009010Y015720D02*
X008635Y015720D01*
X008510Y015845D01*
X008510Y018095D01*
X009010Y018595D01*
X008010Y018595D02*
X007510Y018095D01*
X007510Y015720D01*
X006260Y017845D02*
X005885Y017845D01*
X004510Y016470D01*
X004510Y015720D01*
X006260Y017845D02*
X007010Y018595D01*
X004510Y012720D02*
X004510Y011470D01*
X005010Y010970D01*
D11*
X010130Y022595D02*
X010132Y022645D01*
X010138Y022695D01*
X010148Y022744D01*
X010162Y022792D01*
X010179Y022839D01*
X010200Y022884D01*
X010225Y022928D01*
X010253Y022969D01*
X010285Y023008D01*
X010319Y023045D01*
X010356Y023079D01*
X010396Y023109D01*
X010438Y023136D01*
X010482Y023160D01*
X010528Y023181D01*
X010575Y023197D01*
X010623Y023210D01*
X010673Y023219D01*
X010722Y023224D01*
X010773Y023225D01*
X010823Y023222D01*
X010872Y023215D01*
X010921Y023204D01*
X010969Y023189D01*
X011015Y023171D01*
X011060Y023149D01*
X011103Y023123D01*
X011144Y023094D01*
X011183Y023062D01*
X011219Y023027D01*
X011251Y022989D01*
X011281Y022949D01*
X011308Y022906D01*
X011331Y022862D01*
X011350Y022816D01*
X011366Y022768D01*
X011378Y022719D01*
X011386Y022670D01*
X011390Y022620D01*
X011390Y022570D01*
X011386Y022520D01*
X011378Y022471D01*
X011366Y022422D01*
X011350Y022374D01*
X011331Y022328D01*
X011308Y022284D01*
X011281Y022241D01*
X011251Y022201D01*
X011219Y022163D01*
X011183Y022128D01*
X011144Y022096D01*
X011103Y022067D01*
X011060Y022041D01*
X011015Y022019D01*
X010969Y022001D01*
X010921Y021986D01*
X010872Y021975D01*
X010823Y021968D01*
X010773Y021965D01*
X010722Y021966D01*
X010673Y021971D01*
X010623Y021980D01*
X010575Y021993D01*
X010528Y022009D01*
X010482Y022030D01*
X010438Y022054D01*
X010396Y022081D01*
X010356Y022111D01*
X010319Y022145D01*
X010285Y022182D01*
X010253Y022221D01*
X010225Y022262D01*
X010200Y022306D01*
X010179Y022351D01*
X010162Y022398D01*
X010148Y022446D01*
X010138Y022495D01*
X010132Y022545D01*
X010130Y022595D01*
X018630Y001845D02*
X018632Y001895D01*
X018638Y001945D01*
X018648Y001994D01*
X018662Y002042D01*
X018679Y002089D01*
X018700Y002134D01*
X018725Y002178D01*
X018753Y002219D01*
X018785Y002258D01*
X018819Y002295D01*
X018856Y002329D01*
X018896Y002359D01*
X018938Y002386D01*
X018982Y002410D01*
X019028Y002431D01*
X019075Y002447D01*
X019123Y002460D01*
X019173Y002469D01*
X019222Y002474D01*
X019273Y002475D01*
X019323Y002472D01*
X019372Y002465D01*
X019421Y002454D01*
X019469Y002439D01*
X019515Y002421D01*
X019560Y002399D01*
X019603Y002373D01*
X019644Y002344D01*
X019683Y002312D01*
X019719Y002277D01*
X019751Y002239D01*
X019781Y002199D01*
X019808Y002156D01*
X019831Y002112D01*
X019850Y002066D01*
X019866Y002018D01*
X019878Y001969D01*
X019886Y001920D01*
X019890Y001870D01*
X019890Y001820D01*
X019886Y001770D01*
X019878Y001721D01*
X019866Y001672D01*
X019850Y001624D01*
X019831Y001578D01*
X019808Y001534D01*
X019781Y001491D01*
X019751Y001451D01*
X019719Y001413D01*
X019683Y001378D01*
X019644Y001346D01*
X019603Y001317D01*
X019560Y001291D01*
X019515Y001269D01*
X019469Y001251D01*
X019421Y001236D01*
X019372Y001225D01*
X019323Y001218D01*
X019273Y001215D01*
X019222Y001216D01*
X019173Y001221D01*
X019123Y001230D01*
X019075Y001243D01*
X019028Y001259D01*
X018982Y001280D01*
X018938Y001304D01*
X018896Y001331D01*
X018856Y001361D01*
X018819Y001395D01*
X018785Y001432D01*
X018753Y001471D01*
X018725Y001512D01*
X018700Y001556D01*
X018679Y001601D01*
X018662Y001648D01*
X018648Y001696D01*
X018638Y001745D01*
X018632Y001795D01*
X018630Y001845D01*
D12*
X017760Y017095D03*
X016760Y017095D03*
X016260Y021095D03*
X013260Y021095D03*
X013010Y027845D03*
X011760Y027845D03*
X009760Y027845D03*
X009760Y031845D03*
X011760Y031845D03*
X016010Y027845D03*
X017010Y027845D03*
X020010Y027845D03*
X007760Y008970D03*
X007760Y006970D03*
D13*
X005570Y027915D03*
X004290Y029765D03*
X008520Y028125D03*
D14*
X006830Y030785D03*
X007380Y031775D03*
D15*
X012770Y031970D02*
X013250Y031970D01*
X013250Y030970D02*
X012770Y030970D01*
X012770Y029970D02*
X013250Y029970D01*
X013250Y028970D02*
X012770Y028970D01*
X015770Y028970D02*
X016250Y028970D01*
X016250Y029970D02*
X015770Y029970D01*
X015770Y030970D02*
X016250Y030970D01*
X016250Y031970D02*
X015770Y031970D01*
X015010Y017710D02*
X015010Y017230D01*
X015510Y016200D02*
X015510Y015720D01*
X016510Y015720D02*
X016510Y016200D01*
X017760Y015960D02*
X017760Y015480D01*
X017760Y012960D02*
X017760Y012480D01*
X016510Y012720D02*
X016510Y012240D01*
X016010Y011210D02*
X016010Y010730D01*
X016010Y009710D02*
X016010Y009230D01*
X015010Y009230D02*
X015010Y009710D01*
X015010Y010730D02*
X015010Y011210D01*
X015510Y012240D02*
X015510Y012720D01*
X014510Y012720D02*
X014510Y012240D01*
X014010Y011210D02*
X014010Y010730D01*
X014010Y009710D02*
X014010Y009230D01*
X013010Y009230D02*
X013010Y009710D01*
X013010Y010730D02*
X013010Y011210D01*
X013510Y012240D02*
X013510Y012720D01*
X012010Y012720D02*
X012010Y012240D01*
X012010Y011210D02*
X012010Y010730D01*
X012010Y009710D02*
X012010Y009230D01*
X011010Y009230D02*
X011010Y009710D01*
X011010Y010730D02*
X011010Y011210D01*
X011010Y012240D02*
X011010Y012720D01*
X010010Y012720D02*
X010010Y012240D01*
X010010Y011210D02*
X010010Y010730D01*
X010010Y009710D02*
X010010Y009230D01*
X009010Y009230D02*
X009010Y009710D01*
X009010Y010730D02*
X009010Y011210D01*
X009010Y012240D02*
X009010Y012720D01*
X008010Y011210D02*
X008010Y010730D01*
X007510Y012240D02*
X007510Y012720D01*
X006510Y012720D02*
X006510Y012240D01*
X005510Y012240D02*
X005510Y012720D01*
X004510Y012720D02*
X004510Y012240D01*
X004510Y015720D02*
X004510Y016200D01*
X005510Y016200D02*
X005510Y015720D01*
X006510Y015720D02*
X006510Y016200D01*
X007010Y017230D02*
X007010Y017710D01*
X008010Y017710D02*
X008010Y017230D01*
X007510Y016200D02*
X007510Y015720D01*
X009010Y015720D02*
X009010Y016200D01*
X009010Y017230D02*
X009010Y017710D01*
X010010Y017710D02*
X010010Y017230D01*
X010010Y016200D02*
X010010Y015720D01*
X011010Y015720D02*
X011010Y016200D01*
X011010Y017230D02*
X011010Y017710D01*
X012010Y017710D02*
X012010Y017230D01*
X012010Y016200D02*
X012010Y015720D01*
X013010Y017230D02*
X013010Y017710D01*
X014010Y017710D02*
X014010Y017230D01*
X014510Y016200D02*
X014510Y015720D01*
X013510Y015720D02*
X013510Y016200D01*
X014010Y006710D02*
X014010Y006230D01*
X015010Y006230D02*
X015010Y006710D01*
X016010Y006710D02*
X016010Y006230D01*
X013010Y006230D02*
X013010Y006710D01*
X012010Y006710D02*
X012010Y006230D01*
X011010Y006230D02*
X011010Y006710D01*
X010010Y006710D02*
X010010Y006230D01*
X009010Y006230D02*
X009010Y006710D01*
D16*
X010760Y030345D03*
D17*
X010760Y029345D03*
D18*
X019010Y026495D03*
X019010Y023195D03*
X015660Y004595D03*
D19*
X014860Y004595D03*
X019010Y023995D03*
X019010Y025695D03*
D20*
X017010Y025595D03*
X017010Y024595D03*
X017010Y023595D03*
X017010Y022595D03*
X017010Y021595D03*
X017010Y020595D03*
X017010Y019595D03*
X016010Y019595D03*
X015010Y019595D03*
X014010Y019595D03*
X013010Y019595D03*
X012010Y019595D03*
X011010Y019595D03*
X010010Y019595D03*
X009010Y019595D03*
X008010Y019595D03*
X007010Y019595D03*
X006010Y019595D03*
X005010Y019595D03*
X004010Y019595D03*
X004010Y025595D03*
X005010Y025595D03*
X006010Y025595D03*
X007010Y025595D03*
X008010Y025595D03*
X009010Y025595D03*
X010010Y025595D03*
X011010Y025595D03*
X012010Y025595D03*
X013010Y025595D03*
X014010Y025595D03*
X015010Y025595D03*
X016010Y025595D03*
D21*
X008605Y003489D02*
X008605Y002701D01*
X007778Y001205D02*
X006991Y001205D01*
X006203Y002701D02*
X006203Y003489D01*
D22*
X010760Y003545D02*
X010760Y004145D01*
X011760Y004145D02*
X011760Y003545D01*
X012760Y003545D02*
X012760Y004145D01*
D23*
X018135Y006970D03*
X018135Y007970D03*
X018135Y008970D03*
X019135Y008970D03*
X019135Y007970D03*
X019135Y006970D03*
X005635Y006970D03*
X005635Y007970D03*
X005635Y008970D03*
X004635Y008970D03*
X004635Y007970D03*
X004635Y006970D03*
D24*
X010775Y001890D02*
X010775Y001300D01*
X011760Y001300D02*
X011760Y001890D01*
X012744Y001890D02*
X012744Y001300D01*
D25*
X013010Y005345D03*
X009010Y005345D03*
D26*
X009010Y018595D03*
X010010Y018595D03*
X011010Y018595D03*
X012010Y018595D03*
X013010Y018595D03*
X014010Y018595D03*
X015010Y018595D03*
X016010Y018595D03*
X017010Y018595D03*
X017010Y026595D03*
X016010Y026595D03*
X015010Y026595D03*
X014010Y026595D03*
X013010Y026595D03*
X012010Y026595D03*
X011010Y026595D03*
X010010Y026595D03*
X009010Y026595D03*
X008010Y026595D03*
X007010Y026595D03*
X006010Y026595D03*
X005010Y026595D03*
X004010Y026595D03*
X004010Y018595D03*
X005010Y018595D03*
X006010Y018595D03*
X007010Y018595D03*
X008010Y018595D03*
D27*
X017760Y029595D03*
X017760Y030595D03*
X017760Y031595D03*
D28*
X018260Y031595D01*
X019260Y030595D01*
X019260Y027595D01*
X019760Y027095D01*
X019760Y023595D01*
X019360Y023195D01*
X019010Y023195D01*
X018660Y023195D01*
X018260Y023595D01*
X018260Y028095D01*
X017010Y029345D01*
X017010Y029595D01*
X016635Y029970D01*
X016010Y029970D01*
X014510Y030470D02*
X016010Y031970D01*
X014510Y030470D02*
X014510Y023095D01*
X014151Y023014D02*
X011506Y023014D01*
X011480Y023076D02*
X011609Y022764D01*
X011609Y022426D01*
X011480Y022114D01*
X011241Y021874D01*
X010929Y021745D01*
X010590Y021745D01*
X010278Y021874D01*
X010039Y022114D01*
X009910Y022426D01*
X009910Y022764D01*
X010039Y023076D01*
X010278Y023316D01*
X010590Y023445D01*
X010929Y023445D01*
X011241Y023316D01*
X011480Y023076D01*
X011304Y023253D02*
X014151Y023253D01*
X014151Y023348D02*
X014151Y022842D01*
X014257Y022737D01*
X014762Y022737D01*
X014868Y022842D01*
X014868Y023119D01*
X016112Y021875D01*
X016208Y021835D01*
X016606Y021835D01*
X016545Y021687D01*
X016545Y021503D01*
X016614Y021334D01*
X016433Y021515D01*
X016086Y021515D01*
X015840Y021269D01*
X015840Y020921D01*
X016086Y020675D01*
X016433Y020675D01*
X016614Y020856D01*
X016545Y020687D01*
X016545Y020503D01*
X016615Y020332D01*
X016746Y020201D01*
X016917Y020130D01*
X017102Y020130D01*
X017273Y020201D01*
X017404Y020332D01*
X017475Y020503D01*
X017475Y020687D01*
X017404Y020858D01*
X017273Y020989D01*
X017102Y021060D01*
X016917Y021060D01*
X016746Y020989D01*
X016680Y020923D01*
X016680Y021267D01*
X016746Y021201D01*
X016917Y021130D01*
X017102Y021130D01*
X017273Y021201D01*
X017404Y021332D01*
X017475Y021503D01*
X017475Y021687D01*
X017413Y021835D01*
X018152Y021835D01*
X019250Y020737D01*
X019250Y009668D01*
X019289Y009573D01*
X019500Y009362D01*
X019500Y009298D01*
X019337Y009460D01*
X019135Y009460D01*
X019135Y008970D01*
X019135Y008970D01*
X019135Y009460D01*
X018932Y009460D01*
X018645Y009173D01*
X018645Y008970D01*
X018645Y008767D01*
X018682Y008730D01*
X018583Y008730D01*
X018494Y008693D01*
X018585Y008784D01*
X018585Y009156D01*
X018321Y009420D01*
X017948Y009420D01*
X017685Y009156D01*
X017685Y008784D01*
X017948Y008520D01*
X018317Y008520D01*
X018217Y008420D01*
X017948Y008420D01*
X017685Y008156D01*
X017685Y007784D01*
X017948Y007520D01*
X018321Y007520D01*
X018585Y007784D01*
X018585Y008052D01*
X018685Y008152D01*
X018685Y007784D01*
X018948Y007520D01*
X019321Y007520D01*
X019511Y007710D01*
X019811Y007710D01*
X019907Y007750D01*
X020205Y007750D01*
X020205Y007512D02*
X015270Y007512D01*
X015270Y007750D02*
X017718Y007750D01*
X017685Y007989D02*
X015109Y007989D01*
X015230Y007867D02*
X014770Y008328D01*
X014770Y008876D01*
X014772Y008874D01*
X014926Y008810D01*
X015093Y008810D01*
X015247Y008874D01*
X015366Y008992D01*
X015430Y009146D01*
X015430Y009794D01*
X015366Y009948D01*
X015254Y010060D01*
X015230Y010117D01*
X015157Y010190D01*
X015037Y010310D01*
X015093Y010310D01*
X015241Y010371D01*
X015659Y009953D01*
X015653Y009948D01*
X015590Y009794D01*
X015590Y009146D01*
X015653Y008992D01*
X015772Y008874D01*
X015926Y008810D01*
X016093Y008810D01*
X016247Y008874D01*
X016366Y008992D01*
X016430Y009146D01*
X016430Y009794D01*
X016366Y009948D01*
X016254Y010060D01*
X016230Y010117D01*
X016157Y010190D01*
X016037Y010310D01*
X016093Y010310D01*
X016247Y010374D01*
X016366Y010492D01*
X016430Y010646D01*
X016430Y010710D01*
X016811Y010710D01*
X016907Y010750D01*
X017282Y011125D01*
X017355Y011198D01*
X017395Y011293D01*
X017395Y012200D01*
X017409Y012180D01*
X017460Y012129D01*
X017518Y012087D01*
X017583Y012054D01*
X017652Y012031D01*
X017723Y012020D01*
X017760Y012020D01*
X017796Y012020D01*
X017867Y012031D01*
X017936Y012054D01*
X018001Y012087D01*
X018059Y012129D01*
X018110Y012180D01*
X018153Y012239D01*
X018186Y012303D01*
X018208Y012372D01*
X018220Y012444D01*
X018220Y012720D01*
X018220Y012996D01*
X018208Y013068D01*
X018186Y013137D01*
X018153Y013201D01*
X018110Y013260D01*
X018059Y013311D01*
X018001Y013353D01*
X017936Y013386D01*
X017867Y013409D01*
X017796Y013420D01*
X017760Y013420D01*
X017760Y012720D01*
X018220Y012720D01*
X017760Y012720D01*
X017760Y012720D01*
X017760Y012720D01*
X017760Y012020D01*
X017760Y012720D01*
X017760Y012720D01*
X017760Y013420D01*
X017723Y013420D01*
X017652Y013409D01*
X017583Y013386D01*
X017518Y013353D01*
X017460Y013311D01*
X017409Y013260D01*
X017395Y013240D01*
X017395Y013737D01*
X017907Y014250D01*
X017980Y014323D01*
X018020Y014418D01*
X018020Y015146D01*
X018116Y015242D01*
X018180Y015396D01*
X018180Y016044D01*
X018116Y016198D01*
X017997Y016316D01*
X017843Y016380D01*
X017676Y016380D01*
X017522Y016316D01*
X017403Y016198D01*
X017340Y016044D01*
X017340Y015980D01*
X017208Y015980D01*
X017112Y015940D01*
X017039Y015867D01*
X016930Y015758D01*
X016930Y016284D01*
X016866Y016438D01*
X016747Y016556D01*
X016593Y016620D01*
X016426Y016620D01*
X016272Y016556D01*
X016270Y016554D01*
X016270Y017147D01*
X016230Y017242D01*
X016157Y017315D01*
X015782Y017690D01*
X015686Y017730D01*
X015430Y017730D01*
X015430Y017794D01*
X015366Y017948D01*
X015247Y018066D01*
X015118Y018120D01*
X015206Y018120D01*
X015485Y018398D01*
X015485Y018792D01*
X015206Y019070D01*
X014813Y019070D01*
X014534Y018792D01*
X014534Y018398D01*
X014813Y018120D01*
X014901Y018120D01*
X014772Y018066D01*
X014653Y017948D01*
X014590Y017794D01*
X014590Y017689D01*
X014554Y017724D01*
X014444Y017770D01*
X014430Y017770D01*
X014430Y017794D01*
X014366Y017948D01*
X014247Y018066D01*
X014118Y018120D01*
X014206Y018120D01*
X014485Y018398D01*
X014485Y018792D01*
X014206Y019070D01*
X013813Y019070D01*
X013534Y018792D01*
X013534Y018398D01*
X013813Y018120D01*
X013901Y018120D01*
X013772Y018066D01*
X013653Y017948D01*
X013590Y017794D01*
X013590Y017689D01*
X013554Y017724D01*
X013444Y017770D01*
X013430Y017770D01*
X013430Y017794D01*
X013366Y017948D01*
X013247Y018066D01*
X013118Y018120D01*
X013206Y018120D01*
X013485Y018398D01*
X013485Y018792D01*
X013206Y019070D01*
X012813Y019070D01*
X012534Y018792D01*
X012534Y018398D01*
X012813Y018120D01*
X012901Y018120D01*
X012772Y018066D01*
X012653Y017948D01*
X012590Y017794D01*
X012590Y017146D01*
X012653Y016992D01*
X012772Y016874D01*
X012926Y016810D01*
X013093Y016810D01*
X013228Y016866D01*
X013255Y016800D01*
X013340Y016716D01*
X013435Y016620D01*
X013426Y016620D01*
X013272Y016556D01*
X013153Y016438D01*
X013140Y016407D01*
X013105Y016492D01*
X012730Y016867D01*
X012657Y016940D01*
X012561Y016980D01*
X012353Y016980D01*
X012366Y016992D01*
X012430Y017146D01*
X012430Y017794D01*
X012366Y017948D01*
X012247Y018066D01*
X012118Y018120D01*
X012206Y018120D01*
X012485Y018398D01*
X012485Y018792D01*
X012206Y019070D01*
X011813Y019070D01*
X011534Y018792D01*
X011534Y018438D01*
X011485Y018487D01*
X011485Y018792D01*
X011206Y019070D01*
X010813Y019070D01*
X010534Y018792D01*
X010534Y018398D01*
X010813Y018120D01*
X010901Y018120D01*
X010772Y018066D01*
X010653Y017948D01*
X010590Y017794D01*
X010590Y017146D01*
X010653Y016992D01*
X010710Y016936D01*
X010710Y016494D01*
X010653Y016438D01*
X010590Y016284D01*
X010590Y015636D01*
X010653Y015482D01*
X010656Y015480D01*
X010363Y015480D01*
X010366Y015482D01*
X010430Y015636D01*
X010430Y016284D01*
X010366Y016438D01*
X010310Y016494D01*
X010310Y016936D01*
X010366Y016992D01*
X010430Y017146D01*
X010430Y017794D01*
X010366Y017948D01*
X010247Y018066D01*
X010118Y018120D01*
X010206Y018120D01*
X010485Y018398D01*
X010485Y018792D01*
X010206Y019070D01*
X009813Y019070D01*
X009534Y018792D01*
X009534Y018487D01*
X009485Y018438D01*
X009485Y018792D01*
X009206Y019070D01*
X008813Y019070D01*
X008534Y018792D01*
X008534Y018487D01*
X008485Y018438D01*
X008485Y018792D01*
X008206Y019070D01*
X007813Y019070D01*
X007534Y018792D01*
X007534Y018487D01*
X007485Y018438D01*
X007485Y018792D01*
X007206Y019070D01*
X006813Y019070D01*
X006534Y018792D01*
X006534Y018487D01*
X006485Y018438D01*
X006485Y018792D01*
X006206Y019070D01*
X005813Y019070D01*
X005770Y019027D01*
X005770Y019191D01*
X005917Y019130D01*
X006102Y019130D01*
X006273Y019201D01*
X006404Y019332D01*
X006475Y019503D01*
X006475Y019687D01*
X006404Y019858D01*
X006273Y019989D01*
X006102Y020060D01*
X005917Y020060D01*
X005770Y019999D01*
X005770Y020237D01*
X005980Y020448D01*
X006020Y020543D01*
X006020Y021237D01*
X006980Y022198D01*
X007020Y022293D01*
X007020Y024237D01*
X007914Y025131D01*
X007917Y025130D01*
X008102Y025130D01*
X008273Y025201D01*
X008404Y025332D01*
X008475Y025503D01*
X008475Y025687D01*
X008404Y025858D01*
X008273Y025989D01*
X008102Y026060D01*
X007917Y026060D01*
X007746Y025989D01*
X007615Y025858D01*
X007545Y025687D01*
X007545Y025503D01*
X007546Y025499D01*
X007422Y025375D01*
X007475Y025503D01*
X007475Y025687D01*
X007404Y025858D01*
X007273Y025989D01*
X007102Y026060D01*
X006917Y026060D01*
X006746Y025989D01*
X006615Y025858D01*
X006545Y025687D01*
X006545Y025503D01*
X006546Y025499D01*
X006422Y025375D01*
X006475Y025503D01*
X006475Y025687D01*
X006404Y025858D01*
X006273Y025989D01*
X006102Y026060D01*
X005917Y026060D01*
X005746Y025989D01*
X005615Y025858D01*
X005545Y025687D01*
X005545Y025554D01*
X005462Y025471D01*
X005475Y025503D01*
X005475Y025687D01*
X005404Y025858D01*
X005273Y025989D01*
X005102Y026060D01*
X004917Y026060D01*
X004746Y025989D01*
X004615Y025858D01*
X004545Y025687D01*
X004545Y025503D01*
X004615Y025332D01*
X004746Y025201D01*
X004917Y025130D01*
X005102Y025130D01*
X005133Y025143D01*
X003840Y023849D01*
X003755Y023765D01*
X003710Y023655D01*
X003710Y022906D01*
X003651Y022848D01*
X003651Y022342D01*
X003757Y022237D01*
X004262Y022237D01*
X004368Y022342D01*
X004368Y022848D01*
X004310Y022906D01*
X004310Y023471D01*
X005969Y025130D01*
X006102Y025130D01*
X006230Y025183D01*
X006112Y025065D01*
X006039Y024992D01*
X006000Y024897D01*
X006000Y022953D01*
X005112Y022065D01*
X005039Y021992D01*
X005000Y021897D01*
X005000Y020953D01*
X004362Y020315D01*
X004289Y020242D01*
X004250Y020147D01*
X004250Y020039D01*
X004203Y020063D01*
X004128Y020088D01*
X004049Y020100D01*
X004010Y020100D01*
X004010Y019595D01*
X004250Y019595D01*
X004250Y019595D01*
X004010Y019595D01*
X004010Y019595D01*
X004010Y018595D01*
X004010Y018595D01*
X004010Y018080D01*
X004127Y018080D01*
X003560Y017513D01*
X003560Y018316D01*
X003796Y018080D01*
X004010Y018080D01*
X004010Y018595D01*
X004010Y018595D01*
X004010Y019090D01*
X004010Y019595D01*
X004010Y019595D01*
X004010Y019595D01*
X004010Y020100D01*
X003970Y020100D01*
X003891Y020088D01*
X003816Y020063D01*
X003745Y020027D01*
X003681Y019980D01*
X003624Y019924D01*
X003578Y019860D01*
X003560Y019824D01*
X003560Y025466D01*
X003615Y025332D01*
X003746Y025201D01*
X003917Y025130D01*
X004102Y025130D01*
X004273Y025201D01*
X004404Y025332D01*
X004475Y025503D01*
X004475Y025687D01*
X004404Y025858D01*
X004273Y025989D01*
X004102Y026060D01*
X003917Y026060D01*
X003746Y025989D01*
X003615Y025858D01*
X003560Y025724D01*
X003560Y026373D01*
X003813Y026120D01*
X004206Y026120D01*
X004485Y026398D01*
X004485Y026792D01*
X004310Y026967D01*
X004310Y027220D01*
X014210Y027220D01*
X014210Y027067D01*
X014206Y027070D01*
X013813Y027070D01*
X013534Y026792D01*
X013534Y026398D01*
X013813Y026120D01*
X014206Y026120D01*
X014210Y026123D01*
X014210Y026015D01*
X014102Y026060D01*
X013917Y026060D01*
X013746Y025989D01*
X013615Y025858D01*
X013545Y025687D01*
X013545Y025503D01*
X013615Y025332D01*
X013746Y025201D01*
X013917Y025130D01*
X014102Y025130D01*
X014210Y025175D01*
X014210Y023406D01*
X014151Y023348D01*
X014210Y023491D02*
X007020Y023491D01*
X007020Y023253D02*
X010215Y023253D01*
X010013Y023014D02*
X007020Y023014D01*
X007020Y022776D02*
X009914Y022776D01*
X009910Y022537D02*
X007020Y022537D01*
X007020Y022299D02*
X009962Y022299D01*
X010093Y022060D02*
X006842Y022060D01*
X006604Y021822D02*
X010406Y021822D01*
X011113Y021822D02*
X016600Y021822D01*
X016545Y021583D02*
X006365Y021583D01*
X006127Y021345D02*
X012915Y021345D01*
X012840Y021269D02*
X013086Y021515D01*
X013433Y021515D01*
X013680Y021269D01*
X013680Y020921D01*
X013433Y020675D01*
X013086Y020675D01*
X012840Y020921D01*
X012840Y021269D01*
X012840Y021106D02*
X006020Y021106D01*
X006020Y020868D02*
X012893Y020868D01*
X012917Y020060D02*
X012746Y019989D01*
X012615Y019858D01*
X012545Y019687D01*
X012545Y019503D01*
X012615Y019332D01*
X012746Y019201D01*
X012917Y019130D01*
X013102Y019130D01*
X013273Y019201D01*
X013404Y019332D01*
X013475Y019503D01*
X013475Y019687D01*
X013404Y019858D01*
X013273Y019989D01*
X013102Y020060D01*
X012917Y020060D01*
X013349Y019914D02*
X013670Y019914D01*
X013615Y019858D02*
X013746Y019989D01*
X013917Y020060D01*
X014102Y020060D01*
X014273Y019989D01*
X014404Y019858D01*
X014475Y019687D01*
X014475Y019503D01*
X014404Y019332D01*
X014273Y019201D01*
X014102Y019130D01*
X013917Y019130D01*
X013746Y019201D01*
X013615Y019332D01*
X013545Y019503D01*
X013545Y019687D01*
X013615Y019858D01*
X013545Y019675D02*
X013475Y019675D01*
X013447Y019437D02*
X013572Y019437D01*
X013753Y019198D02*
X013266Y019198D01*
X013317Y018960D02*
X013702Y018960D01*
X013534Y018721D02*
X013485Y018721D01*
X013485Y018483D02*
X013534Y018483D01*
X013688Y018244D02*
X013331Y018244D01*
X013308Y018006D02*
X013711Y018006D01*
X013590Y017767D02*
X013451Y017767D01*
X013385Y017470D02*
X013010Y017470D01*
X012711Y018006D02*
X012308Y018006D01*
X012331Y018244D02*
X012688Y018244D01*
X012534Y018483D02*
X012485Y018483D01*
X012485Y018721D02*
X012534Y018721D01*
X012702Y018960D02*
X012317Y018960D01*
X012266Y019198D02*
X012753Y019198D01*
X012572Y019437D02*
X012447Y019437D01*
X012475Y019503D02*
X012404Y019332D01*
X012273Y019201D01*
X012102Y019130D01*
X011917Y019130D01*
X011746Y019201D01*
X011615Y019332D01*
X011545Y019503D01*
X011545Y019687D01*
X011615Y019858D01*
X011746Y019989D01*
X011917Y020060D01*
X012102Y020060D01*
X012273Y019989D01*
X012404Y019858D01*
X012475Y019687D01*
X012475Y019503D01*
X012475Y019675D02*
X012545Y019675D01*
X012670Y019914D02*
X012349Y019914D01*
X011753Y019198D02*
X011266Y019198D01*
X011273Y019201D02*
X011102Y019130D01*
X010917Y019130D01*
X010746Y019201D01*
X010615Y019332D01*
X010545Y019503D01*
X010545Y019687D01*
X010615Y019858D01*
X010746Y019989D01*
X010917Y020060D01*
X011102Y020060D01*
X011273Y019989D01*
X011404Y019858D01*
X011475Y019687D01*
X011475Y019503D01*
X011404Y019332D01*
X011273Y019201D01*
X011317Y018960D02*
X011702Y018960D01*
X011534Y018721D02*
X011485Y018721D01*
X011490Y018483D02*
X011534Y018483D01*
X011572Y019437D02*
X011447Y019437D01*
X011475Y019675D02*
X011545Y019675D01*
X011670Y019914D02*
X011349Y019914D01*
X010670Y019914D02*
X010349Y019914D01*
X010404Y019858D02*
X010273Y019989D01*
X010102Y020060D01*
X009917Y020060D01*
X009746Y019989D01*
X009615Y019858D01*
X009545Y019687D01*
X009545Y019503D01*
X009615Y019332D01*
X009746Y019201D01*
X009917Y019130D01*
X010102Y019130D01*
X010273Y019201D01*
X010404Y019332D01*
X010475Y019503D01*
X010475Y019687D01*
X010404Y019858D01*
X010475Y019675D02*
X010545Y019675D01*
X010572Y019437D02*
X010447Y019437D01*
X010266Y019198D02*
X010753Y019198D01*
X010702Y018960D02*
X010317Y018960D01*
X010485Y018721D02*
X010534Y018721D01*
X010534Y018483D02*
X010485Y018483D01*
X010331Y018244D02*
X010688Y018244D01*
X010711Y018006D02*
X010308Y018006D01*
X010430Y017767D02*
X010590Y017767D01*
X010590Y017529D02*
X010430Y017529D01*
X010430Y017290D02*
X010590Y017290D01*
X010629Y017052D02*
X010390Y017052D01*
X010310Y016813D02*
X010710Y016813D01*
X010710Y016575D02*
X010310Y016575D01*
X010408Y016336D02*
X010611Y016336D01*
X010590Y016098D02*
X010430Y016098D01*
X010430Y015859D02*
X010590Y015859D01*
X010596Y015621D02*
X010423Y015621D01*
X010010Y015720D02*
X010010Y017470D01*
X009529Y018483D02*
X009485Y018483D01*
X009485Y018721D02*
X009534Y018721D01*
X009702Y018960D02*
X009317Y018960D01*
X009266Y019198D02*
X009753Y019198D01*
X009572Y019437D02*
X009447Y019437D01*
X009475Y019503D02*
X009404Y019332D01*
X009273Y019201D01*
X009102Y019130D01*
X008917Y019130D01*
X008746Y019201D01*
X008615Y019332D01*
X008545Y019503D01*
X008545Y019687D01*
X008615Y019858D01*
X008746Y019989D01*
X008917Y020060D01*
X009102Y020060D01*
X009273Y019989D01*
X009404Y019858D01*
X009475Y019687D01*
X009475Y019503D01*
X009475Y019675D02*
X009545Y019675D01*
X009670Y019914D02*
X009349Y019914D01*
X008753Y019198D02*
X008266Y019198D01*
X008273Y019201D02*
X008404Y019332D01*
X008475Y019503D01*
X008475Y019687D01*
X008404Y019858D01*
X008273Y019989D01*
X008102Y020060D01*
X007917Y020060D01*
X007746Y019989D01*
X007615Y019858D01*
X007545Y019687D01*
X007545Y019503D01*
X007615Y019332D01*
X007746Y019201D01*
X007917Y019130D01*
X008102Y019130D01*
X008273Y019201D01*
X008317Y018960D02*
X008702Y018960D01*
X008534Y018721D02*
X008485Y018721D01*
X008485Y018483D02*
X008529Y018483D01*
X008572Y019437D02*
X008447Y019437D01*
X008475Y019675D02*
X008545Y019675D01*
X008670Y019914D02*
X008349Y019914D01*
X007753Y019198D02*
X007266Y019198D01*
X007273Y019201D02*
X007404Y019332D01*
X007475Y019503D01*
X007475Y019687D01*
X007404Y019858D01*
X007273Y019989D01*
X007102Y020060D01*
X006917Y020060D01*
X006746Y019989D01*
X006615Y019858D01*
X006545Y019687D01*
X006545Y019503D01*
X006615Y019332D01*
X006746Y019201D01*
X006917Y019130D01*
X007102Y019130D01*
X007273Y019201D01*
X007317Y018960D02*
X007702Y018960D01*
X007534Y018721D02*
X007485Y018721D01*
X007485Y018483D02*
X007529Y018483D01*
X007572Y019437D02*
X007447Y019437D01*
X007475Y019675D02*
X007545Y019675D01*
X007670Y019914D02*
X007349Y019914D01*
X006670Y019914D02*
X006349Y019914D01*
X006475Y019675D02*
X006545Y019675D01*
X006572Y019437D02*
X006447Y019437D01*
X006266Y019198D02*
X006753Y019198D01*
X006702Y018960D02*
X006317Y018960D01*
X006485Y018721D02*
X006534Y018721D01*
X006529Y018483D02*
X006485Y018483D01*
X006200Y017585D02*
X005992Y017585D01*
X004855Y016448D01*
X004866Y016438D01*
X004930Y016284D01*
X004930Y015636D01*
X004866Y015482D01*
X004747Y015364D01*
X004593Y015300D01*
X004426Y015300D01*
X004272Y015364D01*
X004270Y015366D01*
X004270Y013074D01*
X004272Y013076D01*
X004426Y013140D01*
X004593Y013140D01*
X004747Y013076D01*
X004866Y012958D01*
X004930Y012804D01*
X004930Y012156D01*
X004866Y012002D01*
X004770Y011906D01*
X004770Y011578D01*
X005117Y011230D01*
X007590Y011230D01*
X007590Y011294D01*
X007653Y011448D01*
X007772Y011566D01*
X007926Y011630D01*
X008093Y011630D01*
X008247Y011566D01*
X008366Y011448D01*
X008430Y011294D01*
X008430Y010646D01*
X008366Y010492D01*
X008360Y010487D01*
X008532Y010315D01*
X008605Y010242D01*
X008645Y010147D01*
X008645Y009926D01*
X008653Y009948D01*
X008772Y010066D01*
X008926Y010130D01*
X008982Y010130D01*
X008862Y010250D01*
X008789Y010323D01*
X008765Y010380D01*
X008653Y010492D01*
X008590Y010646D01*
X008590Y011272D01*
X008164Y011698D01*
X008125Y011793D01*
X008125Y012112D01*
X007930Y012307D01*
X007930Y012156D01*
X007866Y012002D01*
X007747Y011884D01*
X007593Y011820D01*
X007426Y011820D01*
X007272Y011884D01*
X007153Y012002D01*
X007090Y012156D01*
X007090Y012804D01*
X007153Y012958D01*
X007272Y013076D01*
X007426Y013140D01*
X007593Y013140D01*
X007747Y013076D01*
X007843Y012980D01*
X007936Y012980D01*
X008032Y012940D01*
X008532Y012440D01*
X008590Y012383D01*
X008590Y012804D01*
X008653Y012958D01*
X008772Y013076D01*
X008926Y013140D01*
X009093Y013140D01*
X009247Y013076D01*
X009366Y012958D01*
X009430Y012804D01*
X009430Y012156D01*
X009396Y012076D01*
X009492Y011980D01*
X009676Y011980D01*
X009653Y012002D01*
X009590Y012156D01*
X009590Y012804D01*
X009653Y012958D01*
X009772Y013076D01*
X009926Y013140D01*
X010093Y013140D01*
X010247Y013076D01*
X010366Y012958D01*
X010430Y012804D01*
X010430Y012156D01*
X010366Y012002D01*
X010343Y011980D01*
X010561Y011980D01*
X010657Y011940D01*
X010967Y011630D01*
X011093Y011630D01*
X011247Y011566D01*
X011366Y011448D01*
X011430Y011294D01*
X011430Y010646D01*
X011366Y010492D01*
X011254Y010380D01*
X011230Y010323D01*
X011157Y010250D01*
X011037Y010130D01*
X011093Y010130D01*
X011247Y010066D01*
X011366Y009948D01*
X011430Y009794D01*
X011430Y009146D01*
X011366Y008992D01*
X011247Y008874D01*
X011093Y008810D01*
X010926Y008810D01*
X010772Y008874D01*
X010653Y008992D01*
X010590Y009146D01*
X010590Y009794D01*
X010653Y009948D01*
X010666Y009960D01*
X010367Y009960D01*
X010360Y009953D01*
X010366Y009948D01*
X010430Y009794D01*
X010430Y009146D01*
X010366Y008992D01*
X010247Y008874D01*
X010093Y008810D01*
X009926Y008810D01*
X009772Y008874D01*
X009770Y008876D01*
X009770Y008328D01*
X010230Y007867D01*
X010270Y007772D01*
X010270Y007044D01*
X010366Y006948D01*
X010430Y006794D01*
X010430Y006146D01*
X010366Y005992D01*
X010247Y005874D01*
X010093Y005810D01*
X009926Y005810D01*
X009772Y005874D01*
X009653Y005992D01*
X009590Y006146D01*
X009590Y006794D01*
X009653Y006948D01*
X009750Y007044D01*
X009750Y007612D01*
X009362Y008000D01*
X009289Y008073D01*
X009250Y008168D01*
X009250Y008876D01*
X009247Y008874D01*
X009093Y008810D01*
X008926Y008810D01*
X008772Y008874D01*
X008653Y008992D01*
X008645Y009014D01*
X008645Y008453D01*
X009157Y007940D01*
X009230Y007867D01*
X009270Y007772D01*
X009270Y007044D01*
X009366Y006948D01*
X009430Y006794D01*
X009430Y006146D01*
X009366Y005992D01*
X009247Y005874D01*
X009156Y005836D01*
X009298Y005777D01*
X009442Y005634D01*
X009520Y005446D01*
X009520Y005244D01*
X009442Y005056D01*
X009298Y004913D01*
X009111Y004835D01*
X008908Y004835D01*
X008721Y004913D01*
X008685Y004949D01*
X008685Y004844D01*
X009384Y004145D01*
X010280Y004145D01*
X010280Y004240D01*
X010353Y004417D01*
X010488Y004552D01*
X010664Y004625D01*
X010855Y004625D01*
X011031Y004552D01*
X011166Y004417D01*
X011240Y004240D01*
X011240Y003450D01*
X011166Y003273D01*
X011031Y003138D01*
X010855Y003065D01*
X010664Y003065D01*
X010488Y003138D01*
X010353Y003273D01*
X010280Y003450D01*
X010280Y003545D01*
X009200Y003545D01*
X009179Y003554D01*
X009179Y002587D01*
X009091Y002376D01*
X008930Y002215D01*
X008719Y002128D01*
X008491Y002128D01*
X008280Y002215D01*
X008119Y002376D01*
X008031Y002587D01*
X008031Y003603D01*
X008119Y003814D01*
X008280Y003975D01*
X008491Y004062D01*
X008618Y004062D01*
X008215Y004466D01*
X008130Y004550D01*
X008085Y004660D01*
X008085Y006644D01*
X007950Y006510D01*
X007760Y006510D01*
X007760Y006970D01*
X007760Y006970D01*
X007760Y006970D01*
X007760Y007430D01*
X007875Y007430D01*
X007590Y007716D01*
X007505Y007800D01*
X007460Y007910D01*
X007460Y008676D01*
X007340Y008796D01*
X007340Y009144D01*
X007586Y009390D01*
X007933Y009390D01*
X008125Y009199D01*
X008125Y009987D01*
X007789Y010323D01*
X007765Y010380D01*
X007653Y010492D01*
X007590Y010646D01*
X007590Y010710D01*
X004958Y010710D01*
X004862Y010750D01*
X004789Y010823D01*
X004289Y011323D01*
X004270Y011370D01*
X004270Y009241D01*
X004448Y009420D01*
X004821Y009420D01*
X005085Y009156D01*
X005085Y008784D01*
X004821Y008520D01*
X004452Y008520D01*
X004552Y008420D01*
X004821Y008420D01*
X005085Y008156D01*
X005085Y007788D01*
X005185Y007888D01*
X005185Y008156D01*
X005448Y008420D01*
X005821Y008420D01*
X006085Y008156D01*
X006085Y007784D01*
X005821Y007520D01*
X005552Y007520D01*
X005452Y007420D01*
X005821Y007420D01*
X005971Y007270D01*
X006135Y007270D01*
X006526Y007661D01*
X006526Y007848D01*
X006585Y007906D01*
X006585Y009659D01*
X006526Y009717D01*
X006526Y010223D01*
X006632Y010328D01*
X007137Y010328D01*
X007243Y010223D01*
X007243Y009717D01*
X007185Y009659D01*
X007185Y007906D01*
X007243Y007848D01*
X007243Y007342D01*
X007137Y007237D01*
X006951Y007237D01*
X006514Y006800D01*
X006429Y006716D01*
X006319Y006670D01*
X005971Y006670D01*
X005821Y006520D01*
X005448Y006520D01*
X005185Y006784D01*
X005185Y007156D01*
X005275Y007247D01*
X005186Y007210D01*
X005087Y007210D01*
X005125Y007173D01*
X005125Y006970D01*
X004635Y006970D01*
X004635Y006970D01*
X005125Y006970D01*
X005125Y006767D01*
X004837Y006480D01*
X004635Y006480D01*
X004635Y006970D01*
X004635Y006970D01*
X004635Y006480D01*
X004432Y006480D01*
X004145Y006767D01*
X004145Y006970D01*
X004635Y006970D01*
X004635Y006970D01*
X004145Y006970D01*
X004145Y007173D01*
X004229Y007258D01*
X004164Y007323D01*
X003560Y007927D01*
X003560Y000895D01*
X006498Y000895D01*
X006417Y001091D01*
X006417Y001319D01*
X006504Y001530D01*
X006666Y001692D01*
X006877Y001779D01*
X007892Y001779D01*
X008103Y001692D01*
X008265Y001530D01*
X008352Y001319D01*
X008352Y001091D01*
X008271Y000895D01*
X010510Y000895D01*
X010506Y000897D01*
X010372Y001031D01*
X010300Y001205D01*
X010300Y001985D01*
X010372Y002159D01*
X010506Y002293D01*
X010681Y002366D01*
X010870Y002366D01*
X011044Y002293D01*
X011178Y002159D01*
X011251Y001985D01*
X011251Y001205D01*
X011178Y001031D01*
X011044Y000897D01*
X011040Y000895D01*
X011495Y000895D01*
X011490Y000897D01*
X011357Y001031D01*
X011284Y001205D01*
X011284Y001985D01*
X011357Y002159D01*
X011420Y002222D01*
X011420Y002288D01*
X011471Y002413D01*
X011971Y002913D01*
X012067Y003008D01*
X012192Y003060D01*
X013494Y003060D01*
X014520Y004086D01*
X014520Y004327D01*
X014495Y004351D01*
X014430Y004509D01*
X014430Y004681D01*
X014495Y004839D01*
X014616Y004960D01*
X014774Y005025D01*
X014809Y005025D01*
X015670Y005886D01*
X015670Y005976D01*
X015653Y005992D01*
X015590Y006146D01*
X015590Y006794D01*
X015653Y006948D01*
X015772Y007066D01*
X015926Y007130D01*
X016093Y007130D01*
X016247Y007066D01*
X016366Y006948D01*
X016430Y006794D01*
X016430Y006146D01*
X016366Y005992D01*
X016350Y005976D01*
X016350Y005677D01*
X016298Y005552D01*
X016202Y005457D01*
X015810Y005065D01*
X015854Y005065D01*
X016130Y004790D01*
X016130Y004595D01*
X015660Y004595D01*
X015660Y004595D01*
X016130Y004595D01*
X016130Y004400D01*
X015854Y004125D01*
X015660Y004125D01*
X015660Y004595D01*
X015660Y004595D01*
X015660Y004125D01*
X015465Y004125D01*
X015228Y004362D01*
X015224Y004351D01*
X015200Y004327D01*
X015200Y003877D01*
X015148Y003752D01*
X015052Y003657D01*
X013827Y002432D01*
X013702Y002380D01*
X012904Y002380D01*
X012942Y002368D01*
X013014Y002331D01*
X013079Y002283D01*
X013137Y002226D01*
X013184Y002160D01*
X013221Y002088D01*
X013246Y002011D01*
X013259Y001931D01*
X013259Y001595D01*
X012744Y001595D01*
X012744Y001595D01*
X013259Y001595D01*
X013259Y001259D01*
X013246Y001179D01*
X013221Y001102D01*
X013184Y001030D01*
X013137Y000964D01*
X013079Y000907D01*
X013063Y000895D01*
X020205Y000895D01*
X020205Y008047D01*
X019907Y007750D01*
X020146Y007989D02*
X020205Y007989D01*
X020205Y007273D02*
X019468Y007273D01*
X019585Y007156D02*
X019321Y007420D01*
X018948Y007420D01*
X018685Y007156D01*
X018685Y006784D01*
X018948Y006520D01*
X019321Y006520D01*
X019585Y006784D01*
X019585Y007156D01*
X019585Y007035D02*
X020205Y007035D01*
X020205Y006796D02*
X019585Y006796D01*
X019358Y006558D02*
X020205Y006558D01*
X020205Y006319D02*
X016430Y006319D01*
X016430Y006558D02*
X017911Y006558D01*
X017948Y006520D02*
X018321Y006520D01*
X018585Y006784D01*
X018585Y007156D01*
X018321Y007420D01*
X017948Y007420D01*
X017685Y007156D01*
X017685Y006784D01*
X017948Y006520D01*
X017685Y006796D02*
X016428Y006796D01*
X016279Y007035D02*
X017685Y007035D01*
X017801Y007273D02*
X015270Y007273D01*
X015270Y007044D02*
X015270Y007772D01*
X015230Y007867D01*
X014870Y008227D02*
X017755Y008227D01*
X017764Y008704D02*
X014770Y008704D01*
X014770Y008466D02*
X018262Y008466D01*
X018505Y008704D02*
X018520Y008704D01*
X018585Y008943D02*
X018645Y008943D01*
X018645Y008970D02*
X019135Y008970D01*
X019135Y008970D01*
X018645Y008970D01*
X018653Y009181D02*
X018560Y009181D01*
X018321Y009420D02*
X018891Y009420D01*
X019135Y009420D02*
X019135Y009420D01*
X019135Y009181D02*
X019135Y009181D01*
X019378Y009420D02*
X019442Y009420D01*
X019254Y009658D02*
X016430Y009658D01*
X016430Y009420D02*
X017948Y009420D01*
X017709Y009181D02*
X016430Y009181D01*
X016316Y008943D02*
X017685Y008943D01*
X018585Y007989D02*
X018685Y007989D01*
X018718Y007750D02*
X018551Y007750D01*
X018468Y007273D02*
X018801Y007273D01*
X018685Y007035D02*
X018585Y007035D01*
X018585Y006796D02*
X018685Y006796D01*
X018911Y006558D02*
X018358Y006558D01*
X020205Y006081D02*
X016402Y006081D01*
X016350Y005842D02*
X020205Y005842D01*
X020205Y005604D02*
X016319Y005604D01*
X016110Y005365D02*
X020205Y005365D01*
X020205Y005127D02*
X015872Y005127D01*
X016031Y004888D02*
X020205Y004888D01*
X020205Y004650D02*
X016130Y004650D01*
X016130Y004411D02*
X020205Y004411D01*
X020205Y004173D02*
X015902Y004173D01*
X015660Y004173D02*
X015660Y004173D01*
X015660Y004411D02*
X015660Y004411D01*
X015417Y004173D02*
X015200Y004173D01*
X015200Y003934D02*
X020205Y003934D01*
X020205Y003696D02*
X015091Y003696D01*
X014852Y003457D02*
X020205Y003457D01*
X020205Y003219D02*
X014614Y003219D01*
X014375Y002980D02*
X020205Y002980D01*
X020205Y002742D02*
X014137Y002742D01*
X013898Y002503D02*
X018716Y002503D01*
X018778Y002566D02*
X018539Y002326D01*
X018410Y002014D01*
X018410Y001676D01*
X018539Y001364D01*
X018778Y001124D01*
X019090Y000995D01*
X019429Y000995D01*
X019741Y001124D01*
X019980Y001364D01*
X020109Y001676D01*
X020109Y002014D01*
X019980Y002326D01*
X019741Y002566D01*
X019429Y002695D01*
X019090Y002695D01*
X018778Y002566D01*
X018513Y002265D02*
X013098Y002265D01*
X013241Y002026D02*
X018415Y002026D01*
X018410Y001788D02*
X013259Y001788D01*
X013259Y001549D02*
X018462Y001549D01*
X018592Y001311D02*
X013259Y001311D01*
X013206Y001072D02*
X018905Y001072D01*
X019614Y001072D02*
X020205Y001072D01*
X020205Y001311D02*
X019927Y001311D01*
X020057Y001549D02*
X020205Y001549D01*
X020205Y001788D02*
X020109Y001788D01*
X020104Y002026D02*
X020205Y002026D01*
X020205Y002265D02*
X020006Y002265D01*
X020205Y002503D02*
X019803Y002503D01*
X015740Y007035D02*
X015279Y007035D01*
X015270Y007044D02*
X015366Y006948D01*
X015430Y006794D01*
X015430Y006146D01*
X015366Y005992D01*
X015247Y005874D01*
X015093Y005810D01*
X014926Y005810D01*
X014772Y005874D01*
X014653Y005992D01*
X014590Y006146D01*
X014590Y006794D01*
X014653Y006948D01*
X014750Y007044D01*
X014750Y007612D01*
X014289Y008073D01*
X014250Y008168D01*
X014250Y008876D01*
X014247Y008874D01*
X014093Y008810D01*
X013926Y008810D01*
X013772Y008874D01*
X013653Y008992D01*
X013590Y009146D01*
X013590Y009794D01*
X013653Y009948D01*
X013666Y009960D01*
X013396Y009960D01*
X013403Y009951D01*
X013436Y009887D01*
X013458Y009818D01*
X013470Y009746D01*
X013470Y009470D01*
X013010Y009470D01*
X013010Y009470D01*
X013470Y009470D01*
X013470Y009194D01*
X013458Y009122D01*
X013436Y009053D01*
X013403Y008989D01*
X013360Y008930D01*
X013309Y008879D01*
X013251Y008837D01*
X013186Y008804D01*
X013117Y008781D01*
X013046Y008770D01*
X013010Y008770D01*
X013010Y009470D01*
X013010Y009470D01*
X013010Y008770D01*
X012973Y008770D01*
X012902Y008781D01*
X012833Y008804D01*
X012768Y008837D01*
X012710Y008879D01*
X012659Y008930D01*
X012616Y008989D01*
X012583Y009053D01*
X012561Y009122D01*
X012550Y009194D01*
X012550Y009470D01*
X013010Y009470D01*
X013010Y009470D01*
X012550Y009470D01*
X012550Y009746D01*
X012561Y009818D01*
X012583Y009887D01*
X012616Y009951D01*
X012623Y009960D01*
X012396Y009960D01*
X012403Y009951D01*
X012436Y009887D01*
X012458Y009818D01*
X012470Y009746D01*
X012470Y009470D01*
X012010Y009470D01*
X012010Y009470D01*
X012470Y009470D01*
X012470Y009194D01*
X012458Y009122D01*
X012436Y009053D01*
X012403Y008989D01*
X012360Y008930D01*
X012309Y008879D01*
X012251Y008837D01*
X012186Y008804D01*
X012117Y008781D01*
X012046Y008770D01*
X012010Y008770D01*
X012010Y009470D01*
X012010Y009470D01*
X012010Y008770D01*
X011973Y008770D01*
X011902Y008781D01*
X011833Y008804D01*
X011768Y008837D01*
X011710Y008879D01*
X011659Y008930D01*
X011616Y008989D01*
X011583Y009053D01*
X011561Y009122D01*
X011550Y009194D01*
X011550Y009470D01*
X012010Y009470D01*
X012010Y009470D01*
X011550Y009470D01*
X011550Y009746D01*
X011561Y009818D01*
X011583Y009887D01*
X011616Y009951D01*
X011659Y010010D01*
X011710Y010061D01*
X011768Y010103D01*
X011833Y010136D01*
X011902Y010159D01*
X011946Y010166D01*
X011789Y010323D01*
X011765Y010380D01*
X011653Y010492D01*
X011590Y010646D01*
X011590Y011294D01*
X011653Y011448D01*
X011750Y011544D01*
X011750Y011906D01*
X011653Y012002D01*
X011590Y012156D01*
X011590Y012804D01*
X011653Y012958D01*
X011772Y013076D01*
X011926Y013140D01*
X012093Y013140D01*
X012247Y013076D01*
X012366Y012958D01*
X012430Y012804D01*
X012430Y012156D01*
X012366Y012002D01*
X012270Y011906D01*
X012270Y011544D01*
X012366Y011448D01*
X012430Y011294D01*
X012430Y010646D01*
X012366Y010492D01*
X012360Y010487D01*
X012367Y010480D01*
X012666Y010480D01*
X012653Y010492D01*
X012590Y010646D01*
X012590Y011294D01*
X012653Y011448D01*
X012772Y011566D01*
X012926Y011630D01*
X013093Y011630D01*
X013247Y011566D01*
X013366Y011448D01*
X013430Y011294D01*
X013430Y010646D01*
X013366Y010492D01*
X013353Y010480D01*
X013666Y010480D01*
X013653Y010492D01*
X013590Y010646D01*
X013590Y011294D01*
X013653Y011448D01*
X013659Y011453D01*
X013289Y011823D01*
X013258Y011897D01*
X013153Y012002D01*
X013090Y012156D01*
X013090Y012804D01*
X013153Y012958D01*
X013272Y013076D01*
X013426Y013140D01*
X013593Y013140D01*
X013747Y013076D01*
X013866Y012958D01*
X013930Y012804D01*
X013930Y012156D01*
X013866Y012002D01*
X013855Y011992D01*
X014157Y011690D01*
X014230Y011617D01*
X014254Y011560D01*
X014366Y011448D01*
X014430Y011294D01*
X014430Y010918D01*
X014590Y010758D01*
X014590Y011294D01*
X014653Y011448D01*
X014772Y011566D01*
X014926Y011630D01*
X014927Y011630D01*
X015226Y011929D01*
X015153Y012002D01*
X015090Y012156D01*
X015090Y012804D01*
X015153Y012958D01*
X015272Y013076D01*
X015426Y013140D01*
X015593Y013140D01*
X015747Y013076D01*
X015866Y012958D01*
X015930Y012804D01*
X015930Y012156D01*
X015866Y012002D01*
X015843Y011980D01*
X015902Y011980D01*
X016090Y012168D01*
X016090Y012804D01*
X016153Y012958D01*
X016272Y013076D01*
X016426Y013140D01*
X016593Y013140D01*
X016747Y013076D01*
X016866Y012958D01*
X016875Y012936D01*
X016875Y013897D01*
X016914Y013992D01*
X017500Y014578D01*
X017500Y015146D01*
X017403Y015242D01*
X017340Y015396D01*
X017340Y015432D01*
X016980Y015073D01*
X016980Y015073D01*
X016907Y015000D01*
X016811Y014960D01*
X016208Y014960D01*
X016112Y015000D01*
X016039Y015073D01*
X015789Y015323D01*
X015765Y015381D01*
X015747Y015364D01*
X015593Y015300D01*
X015426Y015300D01*
X015272Y015364D01*
X015216Y015420D01*
X015075Y015420D01*
X014965Y015466D01*
X014890Y015540D01*
X014866Y015482D01*
X014747Y015364D01*
X014593Y015300D01*
X014426Y015300D01*
X014272Y015364D01*
X014216Y015420D01*
X014075Y015420D01*
X013965Y015466D01*
X013890Y015540D01*
X013866Y015482D01*
X013747Y015364D01*
X013593Y015300D01*
X013426Y015300D01*
X013272Y015364D01*
X013176Y015460D01*
X012958Y015460D01*
X012862Y015500D01*
X012737Y015625D01*
X012664Y015698D01*
X012625Y015793D01*
X012625Y016237D01*
X012402Y016460D01*
X012343Y016460D01*
X012366Y016438D01*
X012430Y016284D01*
X012430Y015636D01*
X012366Y015482D01*
X012247Y015364D01*
X012247Y015364D01*
X012230Y015323D01*
X011980Y015073D01*
X011907Y015000D01*
X011811Y014960D01*
X009708Y014960D01*
X009612Y015000D01*
X009362Y015250D01*
X009289Y015323D01*
X009265Y015381D01*
X009247Y015364D01*
X009093Y015300D01*
X008926Y015300D01*
X008772Y015364D01*
X008676Y015460D01*
X008583Y015460D01*
X008487Y015500D01*
X008414Y015573D01*
X008310Y015677D01*
X008310Y015410D01*
X008264Y015300D01*
X008179Y015216D01*
X008179Y015216D01*
X008014Y015050D01*
X008014Y015050D01*
X007929Y014966D01*
X007819Y014920D01*
X006700Y014920D01*
X006590Y014966D01*
X006505Y015050D01*
X006255Y015300D01*
X006210Y015410D01*
X006210Y015426D01*
X006153Y015482D01*
X006090Y015636D01*
X006090Y016284D01*
X006153Y016438D01*
X006272Y016556D01*
X006426Y016620D01*
X006593Y016620D01*
X006747Y016556D01*
X006866Y016438D01*
X006930Y016284D01*
X006930Y015636D01*
X006882Y015522D01*
X006884Y015520D01*
X007138Y015520D01*
X007090Y015636D01*
X007090Y016284D01*
X007153Y016438D01*
X007250Y016534D01*
X007250Y016876D01*
X007247Y016874D01*
X007093Y016810D01*
X006926Y016810D01*
X006772Y016874D01*
X006653Y016992D01*
X006596Y017132D01*
X005876Y016412D01*
X005930Y016284D01*
X005930Y015636D01*
X005866Y015482D01*
X005747Y015364D01*
X005593Y015300D01*
X005426Y015300D01*
X005272Y015364D01*
X005153Y015482D01*
X005090Y015636D01*
X005090Y016284D01*
X005153Y016438D01*
X005210Y016494D01*
X005210Y016530D01*
X005255Y016640D01*
X005340Y016724D01*
X006200Y017585D01*
X006144Y017529D02*
X005936Y017529D01*
X005905Y017290D02*
X005697Y017290D01*
X005667Y017052D02*
X005459Y017052D01*
X005428Y016813D02*
X005220Y016813D01*
X005228Y016575D02*
X004982Y016575D01*
X004908Y016336D02*
X005111Y016336D01*
X005090Y016098D02*
X004930Y016098D01*
X004930Y015859D02*
X005090Y015859D01*
X005096Y015621D02*
X004923Y015621D01*
X004765Y015382D02*
X005254Y015382D01*
X005510Y015720D02*
X005510Y016470D01*
X006510Y017470D01*
X007010Y017470D01*
X006629Y017052D02*
X006515Y017052D01*
X006277Y016813D02*
X006919Y016813D01*
X007100Y016813D02*
X007250Y016813D01*
X007250Y016575D02*
X006703Y016575D01*
X006908Y016336D02*
X007111Y016336D01*
X007090Y016098D02*
X006930Y016098D01*
X006930Y015859D02*
X007090Y015859D01*
X007096Y015621D02*
X006923Y015621D01*
X006760Y015220D02*
X007760Y015220D01*
X008010Y015470D01*
X008010Y017470D01*
X008310Y015621D02*
X008366Y015621D01*
X008298Y015382D02*
X008754Y015382D01*
X008107Y015144D02*
X009468Y015144D01*
X011010Y015720D02*
X011010Y017470D01*
X012430Y017529D02*
X012590Y017529D01*
X012590Y017767D02*
X012430Y017767D01*
X012430Y017290D02*
X012590Y017290D01*
X012629Y017052D02*
X012390Y017052D01*
X012784Y016813D02*
X012919Y016813D01*
X013100Y016813D02*
X013250Y016813D01*
X013316Y016575D02*
X013023Y016575D01*
X012526Y016336D02*
X012408Y016336D01*
X012430Y016098D02*
X012625Y016098D01*
X012625Y015859D02*
X012430Y015859D01*
X012423Y015621D02*
X012741Y015621D01*
X012265Y015382D02*
X013254Y015382D01*
X013765Y015382D02*
X014254Y015382D01*
X014135Y015720D02*
X014010Y015845D01*
X014010Y016470D01*
X013510Y016970D01*
X013510Y017345D01*
X013385Y017470D01*
X014010Y017470D02*
X014385Y017470D01*
X014510Y017345D01*
X014510Y016970D01*
X015010Y016470D01*
X015010Y015845D01*
X015135Y015720D01*
X015510Y015720D01*
X015254Y015382D02*
X014765Y015382D01*
X014510Y015720D02*
X014135Y015720D01*
X014451Y017767D02*
X014590Y017767D01*
X014711Y018006D02*
X014308Y018006D01*
X014331Y018244D02*
X014688Y018244D01*
X014534Y018483D02*
X014485Y018483D01*
X014485Y018721D02*
X014534Y018721D01*
X014702Y018960D02*
X014317Y018960D01*
X014266Y019198D02*
X014753Y019198D01*
X014746Y019201D02*
X014917Y019130D01*
X015102Y019130D01*
X015273Y019201D01*
X015404Y019332D01*
X015475Y019503D01*
X015475Y019687D01*
X015404Y019858D01*
X015273Y019989D01*
X015102Y020060D01*
X014917Y020060D01*
X014746Y019989D01*
X014615Y019858D01*
X014545Y019687D01*
X014545Y019503D01*
X014615Y019332D01*
X014746Y019201D01*
X014572Y019437D02*
X014447Y019437D01*
X014475Y019675D02*
X014545Y019675D01*
X014670Y019914D02*
X014349Y019914D01*
X013626Y020868D02*
X015893Y020868D01*
X015840Y021106D02*
X013680Y021106D01*
X013604Y021345D02*
X015915Y021345D01*
X015927Y022060D02*
X011427Y022060D01*
X011557Y022299D02*
X015688Y022299D01*
X015450Y022537D02*
X011609Y022537D01*
X011605Y022776D02*
X014218Y022776D01*
X014801Y022776D02*
X015211Y022776D01*
X014973Y023014D02*
X014868Y023014D01*
X015270Y023453D02*
X015270Y025199D01*
X015273Y025201D01*
X015404Y025332D01*
X015475Y025503D01*
X015475Y025687D01*
X015404Y025858D01*
X015273Y025989D01*
X015102Y026060D01*
X014917Y026060D01*
X014810Y026015D01*
X014810Y026123D01*
X014813Y026120D01*
X015206Y026120D01*
X015485Y026398D01*
X015485Y026792D01*
X015206Y027070D01*
X014813Y027070D01*
X014810Y027067D01*
X014810Y027220D01*
X017960Y027220D01*
X017960Y023535D01*
X018005Y023425D01*
X018405Y023025D01*
X018490Y022941D01*
X018600Y022895D01*
X018701Y022895D01*
X018831Y022765D01*
X019188Y022765D01*
X019318Y022895D01*
X019419Y022895D01*
X019529Y022941D01*
X019614Y023025D01*
X020014Y023425D01*
X020060Y023535D01*
X020060Y027155D01*
X020032Y027220D01*
X020205Y027220D01*
X020205Y021018D01*
X017980Y023242D01*
X017980Y023242D01*
X017907Y023315D01*
X017811Y023355D01*
X017413Y023355D01*
X017475Y023503D01*
X017475Y023687D01*
X017404Y023858D01*
X017273Y023989D01*
X017102Y024060D01*
X016917Y024060D01*
X016746Y023989D01*
X016615Y023858D01*
X016545Y023687D01*
X016545Y023503D01*
X016606Y023355D01*
X016367Y023355D01*
X016270Y023453D01*
X016270Y025199D01*
X016273Y025201D01*
X016404Y025332D01*
X016475Y025503D01*
X016475Y025687D01*
X016404Y025858D01*
X016273Y025989D01*
X016102Y026060D01*
X015917Y026060D01*
X015746Y025989D01*
X015615Y025858D01*
X015545Y025687D01*
X015545Y025503D01*
X015615Y025332D01*
X015746Y025201D01*
X015750Y025199D01*
X015750Y023293D01*
X015789Y023198D01*
X015862Y023125D01*
X016112Y022875D01*
X016208Y022835D01*
X016565Y022835D01*
X016542Y022789D01*
X016517Y022713D01*
X016505Y022635D01*
X016505Y022595D01*
X016505Y022555D01*
X016517Y022477D01*
X016542Y022401D01*
X016565Y022355D01*
X016367Y022355D01*
X015270Y023453D01*
X015270Y023491D02*
X015750Y023491D01*
X015750Y023730D02*
X015270Y023730D01*
X015270Y023968D02*
X015750Y023968D01*
X015750Y024207D02*
X015270Y024207D01*
X015270Y024445D02*
X015750Y024445D01*
X015750Y024684D02*
X015270Y024684D01*
X015270Y024922D02*
X015750Y024922D01*
X015750Y025161D02*
X015270Y025161D01*
X015432Y025399D02*
X015587Y025399D01*
X015545Y025638D02*
X015475Y025638D01*
X015386Y025876D02*
X015633Y025876D01*
X015813Y026120D02*
X015534Y026398D01*
X015534Y026792D01*
X015813Y027070D01*
X016206Y027070D01*
X016485Y026792D01*
X016485Y026398D01*
X016206Y026120D01*
X015813Y026120D01*
X015579Y026353D02*
X015440Y026353D01*
X015485Y026592D02*
X015534Y026592D01*
X015572Y026830D02*
X015447Y026830D01*
X015208Y027069D02*
X015811Y027069D01*
X016208Y027069D02*
X016811Y027069D01*
X016813Y027070D02*
X016534Y026792D01*
X016534Y026398D01*
X016813Y026120D01*
X017206Y026120D01*
X017485Y026398D01*
X017485Y026792D01*
X017206Y027070D01*
X016813Y027070D01*
X016572Y026830D02*
X016447Y026830D01*
X016485Y026592D02*
X016534Y026592D01*
X016579Y026353D02*
X016440Y026353D01*
X016746Y025989D02*
X016615Y025858D01*
X016545Y025687D01*
X016545Y025503D01*
X016615Y025332D01*
X016746Y025201D01*
X016917Y025130D01*
X017102Y025130D01*
X017273Y025201D01*
X017404Y025332D01*
X017475Y025503D01*
X017475Y025687D01*
X017404Y025858D01*
X017273Y025989D01*
X017102Y026060D01*
X016917Y026060D01*
X016746Y025989D01*
X016633Y025876D02*
X016386Y025876D01*
X016475Y025638D02*
X016545Y025638D01*
X016587Y025399D02*
X016432Y025399D01*
X016270Y025161D02*
X016843Y025161D01*
X016917Y025060D02*
X016746Y024989D01*
X016615Y024858D01*
X016545Y024687D01*
X016545Y024503D01*
X016615Y024332D01*
X016746Y024201D01*
X016917Y024130D01*
X017102Y024130D01*
X017273Y024201D01*
X017404Y024332D01*
X017475Y024503D01*
X017475Y024687D01*
X017404Y024858D01*
X017273Y024989D01*
X017102Y025060D01*
X016917Y025060D01*
X016679Y024922D02*
X016270Y024922D01*
X016270Y024684D02*
X016545Y024684D01*
X016568Y024445D02*
X016270Y024445D01*
X016270Y024207D02*
X016740Y024207D01*
X016725Y023968D02*
X016270Y023968D01*
X016270Y023730D02*
X016562Y023730D01*
X016549Y023491D02*
X016270Y023491D01*
X015973Y023014D02*
X015708Y023014D01*
X015766Y023253D02*
X015470Y023253D01*
X015947Y022776D02*
X016537Y022776D01*
X016505Y022595D02*
X017010Y022595D01*
X017515Y022595D01*
X017515Y022635D01*
X017502Y022713D01*
X017478Y022789D01*
X017454Y022835D01*
X017652Y022835D01*
X018132Y022355D01*
X017454Y022355D01*
X017478Y022401D01*
X017502Y022477D01*
X017515Y022555D01*
X017515Y022595D01*
X017010Y022595D01*
X017010Y022595D01*
X016505Y022595D01*
X016507Y022537D02*
X016185Y022537D01*
X016604Y021345D02*
X016610Y021345D01*
X016680Y021106D02*
X018881Y021106D01*
X019119Y020868D02*
X017395Y020868D01*
X017475Y020629D02*
X019250Y020629D01*
X019250Y020391D02*
X017428Y020391D01*
X017155Y020152D02*
X019250Y020152D01*
X019250Y019914D02*
X017349Y019914D01*
X017404Y019858D02*
X017273Y019989D01*
X017102Y020060D01*
X016917Y020060D01*
X016746Y019989D01*
X016615Y019858D01*
X016545Y019687D01*
X016545Y019503D01*
X016615Y019332D01*
X016746Y019201D01*
X016917Y019130D01*
X017102Y019130D01*
X017273Y019201D01*
X017404Y019332D01*
X017475Y019503D01*
X017475Y019687D01*
X017404Y019858D01*
X017475Y019675D02*
X019250Y019675D01*
X019250Y019437D02*
X017447Y019437D01*
X017266Y019198D02*
X019250Y019198D01*
X019250Y018960D02*
X017317Y018960D01*
X017206Y019070D02*
X016813Y019070D01*
X016534Y018792D01*
X016534Y018398D01*
X016813Y018120D01*
X017206Y018120D01*
X017485Y018398D01*
X017485Y018792D01*
X017206Y019070D01*
X017485Y018721D02*
X019250Y018721D01*
X019250Y018483D02*
X017485Y018483D01*
X017331Y018244D02*
X019250Y018244D01*
X019250Y018006D02*
X015308Y018006D01*
X015331Y018244D02*
X015688Y018244D01*
X015813Y018120D02*
X015534Y018398D01*
X015534Y018792D01*
X015813Y019070D01*
X016206Y019070D01*
X016485Y018792D01*
X016485Y018398D01*
X016206Y018120D01*
X015813Y018120D01*
X015534Y018483D02*
X015485Y018483D01*
X015485Y018721D02*
X015534Y018721D01*
X015702Y018960D02*
X015317Y018960D01*
X015266Y019198D02*
X015753Y019198D01*
X015746Y019201D02*
X015917Y019130D01*
X016102Y019130D01*
X016273Y019201D01*
X016404Y019332D01*
X016475Y019503D01*
X016475Y019687D01*
X016404Y019858D01*
X016273Y019989D01*
X016102Y020060D01*
X015917Y020060D01*
X015746Y019989D01*
X015615Y019858D01*
X015545Y019687D01*
X015545Y019503D01*
X015615Y019332D01*
X015746Y019201D01*
X015572Y019437D02*
X015447Y019437D01*
X015475Y019675D02*
X015545Y019675D01*
X015670Y019914D02*
X015349Y019914D01*
X016349Y019914D02*
X016670Y019914D01*
X016545Y019675D02*
X016475Y019675D01*
X016447Y019437D02*
X016572Y019437D01*
X016753Y019198D02*
X016266Y019198D01*
X016317Y018960D02*
X016702Y018960D01*
X016534Y018721D02*
X016485Y018721D01*
X016485Y018483D02*
X016534Y018483D01*
X016688Y018244D02*
X016331Y018244D01*
X016569Y017555D02*
X016300Y017286D01*
X016300Y017095D01*
X016300Y016904D01*
X016569Y016635D01*
X016760Y016635D01*
X016950Y016635D01*
X017220Y016904D01*
X017220Y017095D01*
X017220Y017286D01*
X016950Y017555D01*
X016760Y017555D01*
X016760Y017095D01*
X017220Y017095D01*
X016760Y017095D01*
X016760Y017095D01*
X016760Y016635D01*
X016760Y017095D01*
X016760Y017095D01*
X016760Y017095D01*
X016760Y017555D01*
X016569Y017555D01*
X016542Y017529D02*
X015944Y017529D01*
X016182Y017290D02*
X016304Y017290D01*
X016300Y017095D02*
X016760Y017095D01*
X016300Y017095D01*
X016300Y017052D02*
X016270Y017052D01*
X016270Y016813D02*
X016391Y016813D01*
X016316Y016575D02*
X016270Y016575D01*
X016703Y016575D02*
X019250Y016575D01*
X019250Y016813D02*
X018071Y016813D01*
X018180Y016921D02*
X017933Y016675D01*
X017586Y016675D01*
X017340Y016921D01*
X017340Y017269D01*
X017586Y017515D01*
X017933Y017515D01*
X018180Y017269D01*
X018180Y016921D01*
X018180Y017052D02*
X019250Y017052D01*
X019250Y017290D02*
X018158Y017290D01*
X017949Y016336D02*
X019250Y016336D01*
X019250Y016098D02*
X018157Y016098D01*
X018180Y015859D02*
X019250Y015859D01*
X019250Y015621D02*
X018180Y015621D01*
X018174Y015382D02*
X019250Y015382D01*
X019250Y015144D02*
X018020Y015144D01*
X018020Y014905D02*
X019250Y014905D01*
X019250Y014667D02*
X018020Y014667D01*
X018020Y014428D02*
X019250Y014428D01*
X019250Y014190D02*
X017847Y014190D01*
X017608Y013951D02*
X019250Y013951D01*
X019250Y013713D02*
X017395Y013713D01*
X017395Y013474D02*
X019250Y013474D01*
X019250Y013236D02*
X018128Y013236D01*
X018219Y012997D02*
X019250Y012997D01*
X019250Y012759D02*
X018220Y012759D01*
X018220Y012520D02*
X019250Y012520D01*
X019250Y012282D02*
X018175Y012282D01*
X017903Y012043D02*
X019250Y012043D01*
X019250Y011805D02*
X017395Y011805D01*
X017395Y012043D02*
X017616Y012043D01*
X017760Y012043D02*
X017760Y012043D01*
X017760Y012282D02*
X017760Y012282D01*
X017760Y012520D02*
X017760Y012520D01*
X017760Y012759D02*
X017760Y012759D01*
X017760Y012997D02*
X017760Y012997D01*
X017760Y013236D02*
X017760Y013236D01*
X017111Y014190D02*
X004270Y014190D01*
X004270Y014428D02*
X017350Y014428D01*
X017500Y014667D02*
X004270Y014667D01*
X004270Y014905D02*
X017500Y014905D01*
X017500Y015144D02*
X017051Y015144D01*
X017289Y015382D02*
X017345Y015382D01*
X017031Y015859D02*
X016930Y015859D01*
X017039Y015867D02*
X017039Y015867D01*
X016930Y016098D02*
X017362Y016098D01*
X017570Y016336D02*
X016908Y016336D01*
X016760Y016813D02*
X016760Y016813D01*
X016760Y017052D02*
X016760Y017052D01*
X016760Y017095D02*
X016760Y017095D01*
X016760Y017290D02*
X016760Y017290D01*
X016760Y017529D02*
X016760Y017529D01*
X016977Y017529D02*
X019250Y017529D01*
X019250Y017767D02*
X015430Y017767D01*
X016864Y020152D02*
X005770Y020152D01*
X005923Y020391D02*
X016591Y020391D01*
X016545Y020629D02*
X006020Y020629D01*
X005000Y021106D02*
X003560Y021106D01*
X003560Y020868D02*
X004914Y020868D01*
X004676Y020629D02*
X003560Y020629D01*
X003560Y020391D02*
X004437Y020391D01*
X004252Y020152D02*
X003560Y020152D01*
X003560Y019914D02*
X003617Y019914D01*
X003560Y019595D02*
X004010Y019595D01*
X003560Y019595D01*
X003560Y019595D01*
X004010Y019595D02*
X004010Y019595D01*
X004010Y019675D02*
X004010Y019675D01*
X004010Y019437D02*
X004010Y019437D01*
X004010Y019198D02*
X004010Y019198D01*
X004010Y018960D02*
X004010Y018960D01*
X004010Y018721D02*
X004010Y018721D01*
X004010Y018483D02*
X004010Y018483D01*
X004010Y018244D02*
X004010Y018244D01*
X004052Y018006D02*
X003560Y018006D01*
X003560Y018244D02*
X003632Y018244D01*
X003560Y017767D02*
X003814Y017767D01*
X003575Y017529D02*
X003560Y017529D01*
X004010Y019914D02*
X004010Y019914D01*
X003560Y021345D02*
X005000Y021345D01*
X005000Y021583D02*
X003560Y021583D01*
X003560Y021822D02*
X005000Y021822D01*
X005107Y022060D02*
X003560Y022060D01*
X003560Y022299D02*
X003695Y022299D01*
X003651Y022537D02*
X003560Y022537D01*
X003560Y022776D02*
X003651Y022776D01*
X003710Y023014D02*
X003560Y023014D01*
X003560Y023253D02*
X003710Y023253D01*
X003710Y023491D02*
X003560Y023491D01*
X003560Y023730D02*
X003741Y023730D01*
X003840Y023849D02*
X003840Y023849D01*
X003958Y023968D02*
X003560Y023968D01*
X003560Y024207D02*
X004197Y024207D01*
X004435Y024445D02*
X003560Y024445D01*
X003560Y024684D02*
X004674Y024684D01*
X004912Y024922D02*
X003560Y024922D01*
X003560Y025161D02*
X003843Y025161D01*
X004176Y025161D02*
X004843Y025161D01*
X004587Y025399D02*
X004432Y025399D01*
X004475Y025638D02*
X004545Y025638D01*
X004633Y025876D02*
X004386Y025876D01*
X004440Y026353D02*
X004579Y026353D01*
X004534Y026398D02*
X004813Y026120D01*
X005206Y026120D01*
X005485Y026398D01*
X005485Y026792D01*
X005206Y027070D01*
X004813Y027070D01*
X004534Y026792D01*
X004534Y026398D01*
X004534Y026592D02*
X004485Y026592D01*
X004447Y026830D02*
X004572Y026830D01*
X004811Y027069D02*
X004310Y027069D01*
X004010Y026595D02*
X004010Y027845D01*
X006010Y029845D01*
X008010Y029845D01*
X009260Y031095D01*
X011010Y031095D01*
X011760Y031845D01*
X012635Y030970D01*
X013010Y030970D01*
X013206Y027070D02*
X012813Y027070D01*
X012534Y026792D01*
X012534Y026398D01*
X012813Y026120D01*
X013206Y026120D01*
X013485Y026398D01*
X013485Y026792D01*
X013206Y027070D01*
X013208Y027069D02*
X013811Y027069D01*
X013572Y026830D02*
X013447Y026830D01*
X013485Y026592D02*
X013534Y026592D01*
X013579Y026353D02*
X013440Y026353D01*
X013273Y025989D02*
X013102Y026060D01*
X012917Y026060D01*
X012746Y025989D01*
X012615Y025858D01*
X012545Y025687D01*
X012545Y025503D01*
X012615Y025332D01*
X012746Y025201D01*
X012917Y025130D01*
X013102Y025130D01*
X013273Y025201D01*
X013404Y025332D01*
X013475Y025503D01*
X013475Y025687D01*
X013404Y025858D01*
X013273Y025989D01*
X013386Y025876D02*
X013633Y025876D01*
X013545Y025638D02*
X013475Y025638D01*
X013432Y025399D02*
X013587Y025399D01*
X013843Y025161D02*
X013176Y025161D01*
X012843Y025161D02*
X012176Y025161D01*
X012102Y025130D02*
X012273Y025201D01*
X012404Y025332D01*
X012475Y025503D01*
X012475Y025687D01*
X012404Y025858D01*
X012273Y025989D01*
X012102Y026060D01*
X011917Y026060D01*
X011746Y025989D01*
X011615Y025858D01*
X011545Y025687D01*
X011545Y025503D01*
X011615Y025332D01*
X011746Y025201D01*
X011917Y025130D01*
X012102Y025130D01*
X011843Y025161D02*
X011176Y025161D01*
X011102Y025130D02*
X011273Y025201D01*
X011404Y025332D01*
X011475Y025503D01*
X011475Y025687D01*
X011404Y025858D01*
X011273Y025989D01*
X011102Y026060D01*
X010917Y026060D01*
X010746Y025989D01*
X010615Y025858D01*
X010545Y025687D01*
X010545Y025503D01*
X010615Y025332D01*
X010746Y025201D01*
X010917Y025130D01*
X011102Y025130D01*
X010843Y025161D02*
X010176Y025161D01*
X010102Y025130D02*
X010273Y025201D01*
X010404Y025332D01*
X010475Y025503D01*
X010475Y025687D01*
X010404Y025858D01*
X010273Y025989D01*
X010102Y026060D01*
X009917Y026060D01*
X009746Y025989D01*
X009615Y025858D01*
X009545Y025687D01*
X009545Y025503D01*
X009615Y025332D01*
X009746Y025201D01*
X009917Y025130D01*
X010102Y025130D01*
X010432Y025399D02*
X010587Y025399D01*
X010545Y025638D02*
X010475Y025638D01*
X010386Y025876D02*
X010633Y025876D01*
X010813Y026120D02*
X010534Y026398D01*
X010534Y026792D01*
X010813Y027070D01*
X011206Y027070D01*
X011485Y026792D01*
X011485Y026398D01*
X011206Y026120D01*
X010813Y026120D01*
X010579Y026353D02*
X010440Y026353D01*
X010485Y026398D02*
X010206Y026120D01*
X009813Y026120D01*
X009534Y026398D01*
X009534Y026792D01*
X009813Y027070D01*
X010206Y027070D01*
X010485Y026792D01*
X010485Y026398D01*
X010485Y026592D02*
X010534Y026592D01*
X010572Y026830D02*
X010447Y026830D01*
X010208Y027069D02*
X010811Y027069D01*
X011208Y027069D02*
X011811Y027069D01*
X011813Y027070D02*
X011534Y026792D01*
X011534Y026398D01*
X011813Y026120D01*
X012206Y026120D01*
X012485Y026398D01*
X012485Y026792D01*
X012206Y027070D01*
X011813Y027070D01*
X011572Y026830D02*
X011447Y026830D01*
X011485Y026592D02*
X011534Y026592D01*
X011579Y026353D02*
X011440Y026353D01*
X011386Y025876D02*
X011633Y025876D01*
X011545Y025638D02*
X011475Y025638D01*
X011432Y025399D02*
X011587Y025399D01*
X012432Y025399D02*
X012587Y025399D01*
X012545Y025638D02*
X012475Y025638D01*
X012386Y025876D02*
X012633Y025876D01*
X012579Y026353D02*
X012440Y026353D01*
X012485Y026592D02*
X012534Y026592D01*
X012572Y026830D02*
X012447Y026830D01*
X012208Y027069D02*
X012811Y027069D01*
X014208Y027069D02*
X014210Y027069D01*
X014810Y027069D02*
X014811Y027069D01*
X014810Y026115D02*
X017960Y026115D01*
X017960Y026353D02*
X017440Y026353D01*
X017485Y026592D02*
X017960Y026592D01*
X017960Y026830D02*
X017447Y026830D01*
X017208Y027069D02*
X017960Y027069D01*
X017960Y025876D02*
X017386Y025876D01*
X017475Y025638D02*
X017960Y025638D01*
X017960Y025399D02*
X017432Y025399D01*
X017176Y025161D02*
X017960Y025161D01*
X017960Y024922D02*
X017340Y024922D01*
X017475Y024684D02*
X017960Y024684D01*
X017960Y024445D02*
X017451Y024445D01*
X017279Y024207D02*
X017960Y024207D01*
X017960Y023968D02*
X017294Y023968D01*
X017457Y023730D02*
X017960Y023730D01*
X017978Y023491D02*
X017470Y023491D01*
X017970Y023253D02*
X018178Y023253D01*
X018208Y023014D02*
X018416Y023014D01*
X018447Y022776D02*
X018821Y022776D01*
X018685Y022537D02*
X020205Y022537D01*
X020205Y022299D02*
X018924Y022299D01*
X019162Y022060D02*
X020205Y022060D01*
X020205Y021822D02*
X019401Y021822D01*
X019639Y021583D02*
X020205Y021583D01*
X020205Y021345D02*
X019878Y021345D01*
X020116Y021106D02*
X020205Y021106D01*
X020205Y022776D02*
X019198Y022776D01*
X019603Y023014D02*
X020205Y023014D01*
X020205Y023253D02*
X019841Y023253D01*
X020041Y023491D02*
X020205Y023491D01*
X020205Y023730D02*
X020060Y023730D01*
X020060Y023968D02*
X020205Y023968D01*
X020205Y024207D02*
X020060Y024207D01*
X020060Y024445D02*
X020205Y024445D01*
X020205Y024684D02*
X020060Y024684D01*
X020060Y024922D02*
X020205Y024922D01*
X020205Y025161D02*
X020060Y025161D01*
X020060Y025399D02*
X020205Y025399D01*
X020205Y025638D02*
X020060Y025638D01*
X020060Y025876D02*
X020205Y025876D01*
X020205Y026115D02*
X020060Y026115D01*
X020060Y026353D02*
X020205Y026353D01*
X020205Y026592D02*
X020060Y026592D01*
X020060Y026830D02*
X020205Y026830D01*
X020205Y027069D02*
X020060Y027069D01*
X017711Y022776D02*
X017482Y022776D01*
X017512Y022537D02*
X017950Y022537D01*
X018165Y021822D02*
X017419Y021822D01*
X017475Y021583D02*
X018404Y021583D01*
X018642Y021345D02*
X017409Y021345D01*
X017010Y022595D02*
X017010Y022595D01*
X014210Y023730D02*
X007020Y023730D01*
X007020Y023968D02*
X014210Y023968D01*
X014210Y024207D02*
X007020Y024207D01*
X007227Y024445D02*
X014210Y024445D01*
X014210Y024684D02*
X007466Y024684D01*
X007704Y024922D02*
X014210Y024922D01*
X014210Y025161D02*
X014176Y025161D01*
X014210Y026115D02*
X003560Y026115D01*
X003560Y026353D02*
X003579Y026353D01*
X003560Y025876D02*
X003633Y025876D01*
X003587Y025399D02*
X003560Y025399D01*
X004568Y023730D02*
X006000Y023730D01*
X006000Y023968D02*
X004807Y023968D01*
X005045Y024207D02*
X006000Y024207D01*
X006000Y024445D02*
X005284Y024445D01*
X005522Y024684D02*
X006000Y024684D01*
X006010Y024922D02*
X005761Y024922D01*
X006176Y025161D02*
X006207Y025161D01*
X006432Y025399D02*
X006446Y025399D01*
X006475Y025638D02*
X006545Y025638D01*
X006633Y025876D02*
X006386Y025876D01*
X006206Y026120D02*
X006485Y026398D01*
X006485Y026792D01*
X006206Y027070D01*
X005813Y027070D01*
X005534Y026792D01*
X005534Y026398D01*
X005813Y026120D01*
X006206Y026120D01*
X006440Y026353D02*
X006579Y026353D01*
X006534Y026398D02*
X006534Y026792D01*
X006813Y027070D01*
X007206Y027070D01*
X007485Y026792D01*
X007485Y026398D01*
X007206Y026120D01*
X006813Y026120D01*
X006534Y026398D01*
X006534Y026592D02*
X006485Y026592D01*
X006447Y026830D02*
X006572Y026830D01*
X006811Y027069D02*
X006208Y027069D01*
X005811Y027069D02*
X005208Y027069D01*
X005447Y026830D02*
X005572Y026830D01*
X005534Y026592D02*
X005485Y026592D01*
X005440Y026353D02*
X005579Y026353D01*
X005633Y025876D02*
X005386Y025876D01*
X005475Y025638D02*
X005545Y025638D01*
X006010Y025595D02*
X004010Y023595D01*
X004010Y022595D01*
X004368Y022537D02*
X005584Y022537D01*
X005822Y022776D02*
X004368Y022776D01*
X004310Y023014D02*
X006000Y023014D01*
X006000Y023253D02*
X004310Y023253D01*
X004330Y023491D02*
X006000Y023491D01*
X005345Y022299D02*
X004324Y022299D01*
X007432Y025399D02*
X007446Y025399D01*
X007475Y025638D02*
X007545Y025638D01*
X007633Y025876D02*
X007386Y025876D01*
X007440Y026353D02*
X007579Y026353D01*
X007534Y026398D02*
X007813Y026120D01*
X008206Y026120D01*
X008485Y026398D01*
X008485Y026792D01*
X008206Y027070D01*
X007813Y027070D01*
X007534Y026792D01*
X007534Y026398D01*
X007534Y026592D02*
X007485Y026592D01*
X007447Y026830D02*
X007572Y026830D01*
X007811Y027069D02*
X007208Y027069D01*
X008208Y027069D02*
X008811Y027069D01*
X008813Y027070D02*
X008534Y026792D01*
X008534Y026398D01*
X008813Y026120D01*
X009206Y026120D01*
X009485Y026398D01*
X009485Y026792D01*
X009206Y027070D01*
X008813Y027070D01*
X008572Y026830D02*
X008447Y026830D01*
X008485Y026592D02*
X008534Y026592D01*
X008579Y026353D02*
X008440Y026353D01*
X008746Y025989D02*
X008615Y025858D01*
X008545Y025687D01*
X008545Y025503D01*
X008615Y025332D01*
X008746Y025201D01*
X008917Y025130D01*
X009102Y025130D01*
X009273Y025201D01*
X009404Y025332D01*
X009475Y025503D01*
X009475Y025687D01*
X009404Y025858D01*
X009273Y025989D01*
X009102Y026060D01*
X008917Y026060D01*
X008746Y025989D01*
X008633Y025876D02*
X008386Y025876D01*
X008475Y025638D02*
X008545Y025638D01*
X008587Y025399D02*
X008432Y025399D01*
X008176Y025161D02*
X008843Y025161D01*
X009176Y025161D02*
X009843Y025161D01*
X009587Y025399D02*
X009432Y025399D01*
X009475Y025638D02*
X009545Y025638D01*
X009633Y025876D02*
X009386Y025876D01*
X009440Y026353D02*
X009579Y026353D01*
X009534Y026592D02*
X009485Y026592D01*
X009447Y026830D02*
X009572Y026830D01*
X009811Y027069D02*
X009208Y027069D01*
X008010Y030595D02*
X009260Y031845D01*
X009760Y031845D01*
X017215Y017290D02*
X017361Y017290D01*
X017340Y017052D02*
X017220Y017052D01*
X017128Y016813D02*
X017448Y016813D01*
X015968Y015144D02*
X012051Y015144D01*
X011247Y013076D02*
X011093Y013140D01*
X010926Y013140D01*
X010772Y013076D01*
X010653Y012958D01*
X010590Y012804D01*
X010590Y012156D01*
X010653Y012002D01*
X010772Y011884D01*
X010926Y011820D01*
X011093Y011820D01*
X011247Y011884D01*
X011366Y012002D01*
X011430Y012156D01*
X011430Y012804D01*
X011366Y012958D01*
X011247Y013076D01*
X011326Y012997D02*
X011693Y012997D01*
X011590Y012759D02*
X011430Y012759D01*
X011430Y012520D02*
X011590Y012520D01*
X011590Y012282D02*
X011430Y012282D01*
X011383Y012043D02*
X011637Y012043D01*
X011750Y011805D02*
X010793Y011805D01*
X010637Y012043D02*
X010383Y012043D01*
X010430Y012282D02*
X010590Y012282D01*
X010590Y012520D02*
X010430Y012520D01*
X010430Y012759D02*
X010590Y012759D01*
X010693Y012997D02*
X010326Y012997D01*
X009693Y012997D02*
X009326Y012997D01*
X009430Y012759D02*
X009590Y012759D01*
X009590Y012520D02*
X009430Y012520D01*
X009430Y012282D02*
X009590Y012282D01*
X009637Y012043D02*
X009429Y012043D01*
X008693Y012997D02*
X007826Y012997D01*
X008214Y012759D02*
X008590Y012759D01*
X008590Y012520D02*
X008452Y012520D01*
X008125Y012043D02*
X007883Y012043D01*
X007930Y012282D02*
X007955Y012282D01*
X008125Y011805D02*
X004770Y011805D01*
X004781Y011566D02*
X007772Y011566D01*
X007604Y011328D02*
X005020Y011328D01*
X005272Y011884D02*
X005153Y012002D01*
X005090Y012156D01*
X005090Y012804D01*
X005153Y012958D01*
X005272Y013076D01*
X005426Y013140D01*
X005593Y013140D01*
X005747Y013076D01*
X005866Y012958D01*
X005930Y012804D01*
X005930Y012156D01*
X005866Y012002D01*
X005747Y011884D01*
X005593Y011820D01*
X005426Y011820D01*
X005272Y011884D01*
X005137Y012043D02*
X004883Y012043D01*
X004930Y012282D02*
X005090Y012282D01*
X005090Y012520D02*
X004930Y012520D01*
X004930Y012759D02*
X005090Y012759D01*
X005193Y012997D02*
X004826Y012997D01*
X004270Y013236D02*
X016875Y013236D01*
X016875Y013474D02*
X004270Y013474D01*
X004270Y013713D02*
X016875Y013713D01*
X016897Y013951D02*
X004270Y013951D01*
X004270Y015144D02*
X006412Y015144D01*
X006221Y015382D02*
X005765Y015382D01*
X005923Y015621D02*
X006096Y015621D01*
X006090Y015859D02*
X005930Y015859D01*
X005930Y016098D02*
X006090Y016098D01*
X006111Y016336D02*
X005908Y016336D01*
X006038Y016575D02*
X006316Y016575D01*
X006510Y015720D02*
X006510Y015470D01*
X006760Y015220D01*
X006593Y013140D02*
X006426Y013140D01*
X006272Y013076D01*
X006153Y012958D01*
X006090Y012804D01*
X006090Y012156D01*
X006153Y012002D01*
X006272Y011884D01*
X006426Y011820D01*
X006593Y011820D01*
X006747Y011884D01*
X006866Y012002D01*
X006930Y012156D01*
X006930Y012804D01*
X006866Y012958D01*
X006747Y013076D01*
X006593Y013140D01*
X006826Y012997D02*
X007193Y012997D01*
X007090Y012759D02*
X006930Y012759D01*
X006930Y012520D02*
X007090Y012520D01*
X007090Y012282D02*
X006930Y012282D01*
X006883Y012043D02*
X007137Y012043D01*
X006137Y012043D02*
X005883Y012043D01*
X005930Y012282D02*
X006090Y012282D01*
X006090Y012520D02*
X005930Y012520D01*
X005930Y012759D02*
X006090Y012759D01*
X006193Y012997D02*
X005826Y012997D01*
X004523Y011089D02*
X004270Y011089D01*
X004270Y010851D02*
X004761Y010851D01*
X004270Y010612D02*
X007604Y010612D01*
X007768Y010374D02*
X004270Y010374D01*
X004270Y010135D02*
X006526Y010135D01*
X006526Y009897D02*
X004270Y009897D01*
X004270Y009658D02*
X006585Y009658D01*
X006585Y009420D02*
X005821Y009420D01*
X005448Y009420D01*
X005185Y009156D01*
X005185Y008784D01*
X005448Y008520D01*
X005821Y008520D01*
X006085Y008784D01*
X006085Y009156D01*
X005821Y009420D01*
X006060Y009181D02*
X006585Y009181D01*
X006585Y008943D02*
X006085Y008943D01*
X006005Y008704D02*
X006585Y008704D01*
X006585Y008466D02*
X004507Y008466D01*
X005005Y008704D02*
X005264Y008704D01*
X005185Y008943D02*
X005085Y008943D01*
X005060Y009181D02*
X005209Y009181D01*
X005448Y009420D02*
X004821Y009420D01*
X004448Y009420D02*
X004270Y009420D01*
X005014Y008227D02*
X005255Y008227D01*
X005185Y007989D02*
X005085Y007989D01*
X005544Y007512D02*
X006377Y007512D01*
X006526Y007750D02*
X006051Y007750D01*
X006085Y007989D02*
X006585Y007989D01*
X006585Y008227D02*
X006014Y008227D01*
X005968Y007273D02*
X006138Y007273D01*
X006260Y006970D02*
X005635Y006970D01*
X005185Y007035D02*
X005125Y007035D01*
X005125Y006796D02*
X005185Y006796D01*
X005411Y006558D02*
X004915Y006558D01*
X004635Y006558D02*
X004635Y006558D01*
X004635Y006796D02*
X004635Y006796D01*
X004354Y006558D02*
X003560Y006558D01*
X003560Y006796D02*
X004145Y006796D01*
X004145Y007035D02*
X003560Y007035D01*
X003560Y007273D02*
X004214Y007273D01*
X003975Y007512D02*
X003560Y007512D01*
X003560Y007750D02*
X003737Y007750D01*
X003560Y006319D02*
X008085Y006319D01*
X008085Y006081D02*
X003560Y006081D01*
X003560Y005842D02*
X008085Y005842D01*
X008085Y005604D02*
X003560Y005604D01*
X003560Y005365D02*
X008085Y005365D01*
X008085Y005127D02*
X003560Y005127D01*
X003560Y004888D02*
X008085Y004888D01*
X008089Y004650D02*
X003560Y004650D01*
X003560Y004411D02*
X008269Y004411D01*
X008385Y004720D02*
X008385Y007345D01*
X007760Y007970D01*
X007760Y008970D01*
X008125Y009420D02*
X007185Y009420D01*
X007185Y009658D02*
X008125Y009658D01*
X008125Y009897D02*
X007243Y009897D01*
X007243Y010135D02*
X007977Y010135D01*
X008415Y010612D02*
X008604Y010612D01*
X008590Y010851D02*
X008430Y010851D01*
X008430Y011089D02*
X008590Y011089D01*
X008534Y011328D02*
X008415Y011328D01*
X008296Y011566D02*
X008247Y011566D01*
X008474Y010374D02*
X008768Y010374D01*
X008645Y010135D02*
X008977Y010135D01*
X008703Y008943D02*
X008645Y008943D01*
X008645Y008704D02*
X009250Y008704D01*
X009250Y008466D02*
X008645Y008466D01*
X008870Y008227D02*
X009250Y008227D01*
X009373Y007989D02*
X009109Y007989D01*
X009270Y007750D02*
X009612Y007750D01*
X009750Y007512D02*
X009270Y007512D01*
X009270Y007273D02*
X009750Y007273D01*
X009740Y007035D02*
X009279Y007035D01*
X009428Y006796D02*
X009591Y006796D01*
X009590Y006558D02*
X009430Y006558D01*
X009430Y006319D02*
X009590Y006319D01*
X009617Y006081D02*
X009402Y006081D01*
X009170Y005842D02*
X009849Y005842D01*
X009454Y005604D02*
X012565Y005604D01*
X012577Y005634D02*
X012500Y005446D01*
X012500Y005244D01*
X012577Y005056D01*
X012721Y004913D01*
X012908Y004835D01*
X013111Y004835D01*
X013298Y004913D01*
X013442Y005056D01*
X013520Y005244D01*
X013520Y005446D01*
X013442Y005634D01*
X013298Y005777D01*
X013208Y005815D01*
X013251Y005837D01*
X013309Y005879D01*
X013360Y005930D01*
X013403Y005989D01*
X013436Y006053D01*
X013458Y006122D01*
X013470Y006194D01*
X013470Y006470D01*
X013470Y006746D01*
X013458Y006818D01*
X013436Y006887D01*
X013403Y006951D01*
X013360Y007010D01*
X013309Y007061D01*
X013251Y007103D01*
X013186Y007136D01*
X013117Y007159D01*
X013046Y007170D01*
X013010Y007170D01*
X013010Y006470D01*
X013470Y006470D01*
X013010Y006470D01*
X013010Y006470D01*
X013010Y006470D01*
X013010Y007170D01*
X012973Y007170D01*
X012902Y007159D01*
X012833Y007136D01*
X012768Y007103D01*
X012710Y007061D01*
X012659Y007010D01*
X012616Y006951D01*
X012583Y006887D01*
X012561Y006818D01*
X012550Y006746D01*
X012550Y006470D01*
X012550Y006194D01*
X012561Y006122D01*
X012583Y006053D01*
X012616Y005989D01*
X012659Y005930D01*
X012710Y005879D01*
X012768Y005837D01*
X012811Y005815D01*
X012721Y005777D01*
X012577Y005634D01*
X012761Y005842D02*
X012258Y005842D01*
X012251Y005837D02*
X012309Y005879D01*
X012360Y005930D01*
X012403Y005989D01*
X012436Y006053D01*
X012458Y006122D01*
X012470Y006194D01*
X012470Y006470D01*
X012470Y006746D01*
X012458Y006818D01*
X012436Y006887D01*
X012403Y006951D01*
X012360Y007010D01*
X012309Y007061D01*
X012251Y007103D01*
X012186Y007136D01*
X012117Y007159D01*
X012046Y007170D01*
X012010Y007170D01*
X012010Y006470D01*
X012470Y006470D01*
X012010Y006470D01*
X012010Y006470D01*
X012010Y005770D01*
X012046Y005770D01*
X012117Y005781D01*
X012186Y005804D01*
X012251Y005837D01*
X012010Y005842D02*
X012010Y005842D01*
X012010Y005770D02*
X012010Y006470D01*
X012010Y006470D01*
X012010Y006470D01*
X012010Y007170D01*
X011973Y007170D01*
X011902Y007159D01*
X011833Y007136D01*
X011768Y007103D01*
X011710Y007061D01*
X011659Y007010D01*
X011616Y006951D01*
X011583Y006887D01*
X011561Y006818D01*
X011550Y006746D01*
X011550Y006470D01*
X011550Y006194D01*
X011561Y006122D01*
X011583Y006053D01*
X011616Y005989D01*
X011659Y005930D01*
X011710Y005879D01*
X011768Y005837D01*
X011833Y005804D01*
X011902Y005781D01*
X011973Y005770D01*
X012010Y005770D01*
X011761Y005842D02*
X011170Y005842D01*
X011093Y005810D02*
X011247Y005874D01*
X011366Y005992D01*
X011430Y006146D01*
X011430Y006794D01*
X011366Y006948D01*
X011247Y007066D01*
X011093Y007130D01*
X010926Y007130D01*
X010772Y007066D01*
X010653Y006948D01*
X010590Y006794D01*
X010590Y006146D01*
X010653Y005992D01*
X010772Y005874D01*
X010926Y005810D01*
X011093Y005810D01*
X010849Y005842D02*
X010170Y005842D01*
X010402Y006081D02*
X010617Y006081D01*
X010590Y006319D02*
X010430Y006319D01*
X010430Y006558D02*
X010590Y006558D01*
X010591Y006796D02*
X010428Y006796D01*
X010279Y007035D02*
X010740Y007035D01*
X010270Y007273D02*
X014750Y007273D01*
X014750Y007512D02*
X010270Y007512D01*
X010270Y007750D02*
X014612Y007750D01*
X014373Y007989D02*
X010109Y007989D01*
X009870Y008227D02*
X014250Y008227D01*
X014250Y008466D02*
X009770Y008466D01*
X009770Y008704D02*
X014250Y008704D01*
X013703Y008943D02*
X013369Y008943D01*
X013467Y009181D02*
X013590Y009181D01*
X013590Y009420D02*
X013470Y009420D01*
X013470Y009658D02*
X013590Y009658D01*
X013632Y009897D02*
X013431Y009897D01*
X013010Y009420D02*
X013010Y009420D01*
X013010Y009181D02*
X013010Y009181D01*
X013010Y008943D02*
X013010Y008943D01*
X012650Y008943D02*
X012369Y008943D01*
X012467Y009181D02*
X012552Y009181D01*
X012550Y009420D02*
X012470Y009420D01*
X012470Y009658D02*
X012550Y009658D01*
X012588Y009897D02*
X012431Y009897D01*
X012010Y009420D02*
X012010Y009420D01*
X012010Y009181D02*
X012010Y009181D01*
X012010Y008943D02*
X012010Y008943D01*
X011650Y008943D02*
X011316Y008943D01*
X011430Y009181D02*
X011552Y009181D01*
X011550Y009420D02*
X011430Y009420D01*
X011430Y009658D02*
X011550Y009658D01*
X011588Y009897D02*
X011387Y009897D01*
X011042Y010135D02*
X011830Y010135D01*
X011768Y010374D02*
X011251Y010374D01*
X011415Y010612D02*
X011604Y010612D01*
X011590Y010851D02*
X011430Y010851D01*
X011430Y011089D02*
X011590Y011089D01*
X011604Y011328D02*
X011415Y011328D01*
X011247Y011566D02*
X011750Y011566D01*
X012270Y011566D02*
X012772Y011566D01*
X012604Y011328D02*
X012415Y011328D01*
X012430Y011089D02*
X012590Y011089D01*
X012590Y010851D02*
X012430Y010851D01*
X012415Y010612D02*
X012604Y010612D01*
X013247Y011566D02*
X013546Y011566D01*
X013604Y011328D02*
X013415Y011328D01*
X013430Y011089D02*
X013590Y011089D01*
X013590Y010851D02*
X013430Y010851D01*
X013415Y010612D02*
X013604Y010612D01*
X014251Y011566D02*
X014772Y011566D01*
X014604Y011328D02*
X014415Y011328D01*
X014430Y011089D02*
X014590Y011089D01*
X014590Y010851D02*
X014497Y010851D01*
X014426Y011820D02*
X014272Y011884D01*
X014153Y012002D01*
X014090Y012156D01*
X014090Y012804D01*
X014153Y012958D01*
X014272Y013076D01*
X014426Y013140D01*
X014593Y013140D01*
X014747Y013076D01*
X014866Y012958D01*
X014930Y012804D01*
X014930Y012156D01*
X014866Y012002D01*
X014747Y011884D01*
X014593Y011820D01*
X014426Y011820D01*
X014137Y012043D02*
X013883Y012043D01*
X013930Y012282D02*
X014090Y012282D01*
X014090Y012520D02*
X013930Y012520D01*
X013930Y012759D02*
X014090Y012759D01*
X014193Y012997D02*
X013826Y012997D01*
X013193Y012997D02*
X012326Y012997D01*
X012430Y012759D02*
X013090Y012759D01*
X013090Y012520D02*
X012430Y012520D01*
X012430Y012282D02*
X013090Y012282D01*
X013137Y012043D02*
X012383Y012043D01*
X012270Y011805D02*
X013307Y011805D01*
X014043Y011805D02*
X015101Y011805D01*
X015137Y012043D02*
X014883Y012043D01*
X014930Y012282D02*
X015090Y012282D01*
X015090Y012520D02*
X014930Y012520D01*
X014930Y012759D02*
X015090Y012759D01*
X015193Y012997D02*
X014826Y012997D01*
X015826Y012997D02*
X016193Y012997D01*
X016090Y012759D02*
X015930Y012759D01*
X015930Y012520D02*
X016090Y012520D01*
X016090Y012282D02*
X015930Y012282D01*
X015965Y012043D02*
X015883Y012043D01*
X016826Y012997D02*
X016875Y012997D01*
X017395Y011566D02*
X019250Y011566D01*
X019250Y011328D02*
X017395Y011328D01*
X017246Y011089D02*
X019250Y011089D01*
X019250Y010851D02*
X017008Y010851D01*
X016415Y010612D02*
X019250Y010612D01*
X019250Y010374D02*
X016246Y010374D01*
X016212Y010135D02*
X019250Y010135D01*
X019250Y009897D02*
X016387Y009897D01*
X015632Y009897D02*
X015387Y009897D01*
X015430Y009658D02*
X015590Y009658D01*
X015590Y009420D02*
X015430Y009420D01*
X015430Y009181D02*
X015590Y009181D01*
X015703Y008943D02*
X015316Y008943D01*
X015212Y010135D02*
X015477Y010135D01*
X014247Y007066D02*
X014093Y007130D01*
X013926Y007130D01*
X013772Y007066D01*
X013653Y006948D01*
X013590Y006794D01*
X013590Y006146D01*
X013653Y005992D01*
X013772Y005874D01*
X013926Y005810D01*
X014093Y005810D01*
X014247Y005874D01*
X014366Y005992D01*
X014430Y006146D01*
X014430Y006794D01*
X014366Y006948D01*
X014247Y007066D01*
X014279Y007035D02*
X014740Y007035D01*
X014591Y006796D02*
X014428Y006796D01*
X014430Y006558D02*
X014590Y006558D01*
X014590Y006319D02*
X014430Y006319D01*
X014402Y006081D02*
X014617Y006081D01*
X014849Y005842D02*
X014170Y005842D01*
X013849Y005842D02*
X013258Y005842D01*
X013445Y006081D02*
X013617Y006081D01*
X013590Y006319D02*
X013470Y006319D01*
X013470Y006558D02*
X013590Y006558D01*
X013591Y006796D02*
X013462Y006796D01*
X013336Y007035D02*
X013740Y007035D01*
X013010Y007035D02*
X013010Y007035D01*
X013010Y006796D02*
X013010Y006796D01*
X013010Y006558D02*
X013010Y006558D01*
X013010Y006470D02*
X013010Y006470D01*
X012550Y006470D01*
X013010Y006470D01*
X012683Y007035D02*
X012336Y007035D01*
X012462Y006796D02*
X012557Y006796D01*
X012550Y006558D02*
X012470Y006558D01*
X012470Y006319D02*
X012550Y006319D01*
X012574Y006081D02*
X012445Y006081D01*
X012010Y006081D02*
X012010Y006081D01*
X012010Y006319D02*
X012010Y006319D01*
X012010Y006470D02*
X011550Y006470D01*
X012010Y006470D01*
X012010Y006470D01*
X012010Y006558D02*
X012010Y006558D01*
X012010Y006796D02*
X012010Y006796D01*
X012010Y007035D02*
X012010Y007035D01*
X011683Y007035D02*
X011279Y007035D01*
X011428Y006796D02*
X011557Y006796D01*
X011550Y006558D02*
X011430Y006558D01*
X011430Y006319D02*
X011550Y006319D01*
X011574Y006081D02*
X011402Y006081D01*
X011638Y004652D02*
X011560Y004627D01*
X011487Y004590D01*
X011421Y004542D01*
X011363Y004484D01*
X011315Y004418D01*
X011278Y004345D01*
X011252Y004267D01*
X011240Y004186D01*
X011240Y003845D01*
X011240Y003504D01*
X011252Y003423D01*
X011278Y003345D01*
X011315Y003272D01*
X011363Y003206D01*
X011421Y003148D01*
X011487Y003100D01*
X011560Y003063D01*
X011638Y003038D01*
X011719Y003025D01*
X011760Y003025D01*
X011800Y003025D01*
X011881Y003038D01*
X011959Y003063D01*
X012032Y003100D01*
X012098Y003148D01*
X012156Y003206D01*
X012204Y003272D01*
X012241Y003345D01*
X012267Y003423D01*
X012280Y003504D01*
X012280Y003845D01*
X012280Y004186D01*
X012267Y004267D01*
X012241Y004345D01*
X012204Y004418D01*
X012156Y004484D01*
X012098Y004542D01*
X012032Y004590D01*
X011959Y004627D01*
X011881Y004652D01*
X011800Y004665D01*
X011760Y004665D01*
X011760Y003845D01*
X012280Y003845D01*
X011760Y003845D01*
X011760Y003845D01*
X011760Y003845D01*
X011760Y003025D01*
X011760Y003845D01*
X011760Y003845D01*
X011760Y004665D01*
X011719Y004665D01*
X011638Y004652D01*
X011629Y004650D02*
X008879Y004650D01*
X008780Y004888D02*
X008685Y004888D01*
X008385Y004720D02*
X009260Y003845D01*
X010760Y003845D01*
X010407Y003219D02*
X009179Y003219D01*
X009179Y003457D02*
X010280Y003457D01*
X010280Y004173D02*
X009356Y004173D01*
X009118Y004411D02*
X010350Y004411D01*
X011169Y004411D02*
X011311Y004411D01*
X011240Y004173D02*
X011240Y004173D01*
X011240Y003934D02*
X011240Y003934D01*
X011240Y003845D02*
X011760Y003845D01*
X011240Y003845D01*
X011240Y003696D02*
X011240Y003696D01*
X011240Y003457D02*
X011247Y003457D01*
X011354Y003219D02*
X011112Y003219D01*
X011562Y002503D02*
X009144Y002503D01*
X009179Y002742D02*
X011800Y002742D01*
X012039Y002980D02*
X009179Y002980D01*
X008980Y002265D02*
X010477Y002265D01*
X010317Y002026D02*
X003560Y002026D01*
X003560Y001788D02*
X010300Y001788D01*
X010300Y001549D02*
X008246Y001549D01*
X008352Y001311D02*
X010300Y001311D01*
X010355Y001072D02*
X008344Y001072D01*
X008230Y002265D02*
X006635Y002265D01*
X006603Y002233D02*
X006672Y002301D01*
X006728Y002380D01*
X006772Y002466D01*
X006802Y002558D01*
X006817Y002653D01*
X006817Y003095D01*
X006203Y003095D01*
X005590Y003095D01*
X005590Y002653D01*
X005605Y002558D01*
X005635Y002466D01*
X005679Y002380D01*
X005735Y002301D01*
X005804Y002233D01*
X005882Y002176D01*
X005968Y002133D01*
X006060Y002103D01*
X006155Y002088D01*
X006203Y002088D01*
X006203Y003095D01*
X006203Y003095D01*
X005590Y003095D01*
X005590Y003537D01*
X005605Y003632D01*
X005635Y003724D01*
X005679Y003810D01*
X005735Y003888D01*
X005804Y003957D01*
X005882Y004014D01*
X005968Y004057D01*
X006060Y004087D01*
X006155Y004102D01*
X006203Y004102D01*
X006203Y003095D01*
X006203Y003095D01*
X006203Y003095D01*
X006203Y002088D01*
X006252Y002088D01*
X006347Y002103D01*
X006439Y002133D01*
X006525Y002176D01*
X006603Y002233D01*
X006784Y002503D02*
X008066Y002503D01*
X008031Y002742D02*
X006817Y002742D01*
X006817Y002980D02*
X008031Y002980D01*
X008031Y003219D02*
X006817Y003219D01*
X006817Y003095D02*
X006817Y003537D01*
X006802Y003632D01*
X006772Y003724D01*
X006728Y003810D01*
X006672Y003888D01*
X006603Y003957D01*
X006525Y004014D01*
X006439Y004057D01*
X006347Y004087D01*
X006252Y004102D01*
X006203Y004102D01*
X006203Y003095D01*
X006817Y003095D01*
X006817Y003457D02*
X008031Y003457D01*
X008070Y003696D02*
X006781Y003696D01*
X006626Y003934D02*
X008239Y003934D01*
X008508Y004173D02*
X003560Y004173D01*
X003560Y003934D02*
X005781Y003934D01*
X005625Y003696D02*
X003560Y003696D01*
X003560Y003457D02*
X005590Y003457D01*
X005590Y003219D02*
X003560Y003219D01*
X003560Y002980D02*
X005590Y002980D01*
X005590Y002742D02*
X003560Y002742D01*
X003560Y002503D02*
X005623Y002503D01*
X005772Y002265D02*
X003560Y002265D01*
X003560Y001549D02*
X006523Y001549D01*
X006417Y001311D02*
X003560Y001311D01*
X003560Y001072D02*
X006425Y001072D01*
X006203Y002265D02*
X006203Y002265D01*
X006203Y002503D02*
X006203Y002503D01*
X006203Y002742D02*
X006203Y002742D01*
X006203Y002980D02*
X006203Y002980D01*
X006203Y003095D02*
X006203Y003095D01*
X006203Y003219D02*
X006203Y003219D01*
X006203Y003457D02*
X006203Y003457D01*
X006203Y003696D02*
X006203Y003696D01*
X006203Y003934D02*
X006203Y003934D01*
X005858Y006558D02*
X007521Y006558D01*
X007569Y006510D02*
X007760Y006510D01*
X007760Y006970D01*
X007760Y007430D01*
X007569Y007430D01*
X007300Y007161D01*
X007300Y006970D01*
X007300Y006779D01*
X007569Y006510D01*
X007760Y006558D02*
X007760Y006558D01*
X007998Y006558D02*
X008085Y006558D01*
X007760Y006796D02*
X007760Y006796D01*
X007760Y006970D02*
X007300Y006970D01*
X007760Y006970D01*
X007760Y006970D01*
X007760Y007035D02*
X007760Y007035D01*
X007760Y007273D02*
X007760Y007273D01*
X007794Y007512D02*
X007243Y007512D01*
X007243Y007750D02*
X007555Y007750D01*
X007460Y007989D02*
X007185Y007989D01*
X007185Y008227D02*
X007460Y008227D01*
X007460Y008466D02*
X007185Y008466D01*
X007185Y008704D02*
X007432Y008704D01*
X007340Y008943D02*
X007185Y008943D01*
X007185Y009181D02*
X007377Y009181D01*
X006885Y009970D02*
X006885Y007595D01*
X006260Y006970D01*
X006510Y006796D02*
X007300Y006796D01*
X007300Y007035D02*
X006748Y007035D01*
X007173Y007273D02*
X007412Y007273D01*
X009239Y004888D02*
X012780Y004888D01*
X012855Y004625D02*
X012664Y004625D01*
X012488Y004552D01*
X012353Y004417D01*
X012280Y004240D01*
X012280Y003450D01*
X012353Y003273D01*
X012488Y003138D01*
X012664Y003065D01*
X012855Y003065D01*
X013031Y003138D01*
X013166Y003273D01*
X013240Y003450D01*
X013240Y004240D01*
X013166Y004417D01*
X013031Y004552D01*
X012855Y004625D01*
X012548Y005127D02*
X009471Y005127D01*
X009520Y005365D02*
X012500Y005365D01*
X013239Y004888D02*
X014544Y004888D01*
X014430Y004650D02*
X011890Y004650D01*
X011760Y004650D02*
X011760Y004650D01*
X011760Y004411D02*
X011760Y004411D01*
X011760Y004173D02*
X011760Y004173D01*
X011760Y003934D02*
X011760Y003934D01*
X011760Y003845D02*
X011760Y003845D01*
X011760Y003696D02*
X011760Y003696D01*
X011760Y003457D02*
X011760Y003457D01*
X011760Y003219D02*
X011760Y003219D01*
X012165Y003219D02*
X012407Y003219D01*
X012280Y003457D02*
X012272Y003457D01*
X012280Y003696D02*
X012280Y003696D01*
X012280Y003934D02*
X012280Y003934D01*
X012280Y004173D02*
X012280Y004173D01*
X012208Y004411D02*
X012350Y004411D01*
X013112Y003219D02*
X013652Y003219D01*
X013891Y003457D02*
X013240Y003457D01*
X013240Y003696D02*
X014129Y003696D01*
X014368Y003934D02*
X013240Y003934D01*
X013240Y004173D02*
X014520Y004173D01*
X014470Y004411D02*
X013169Y004411D01*
X013471Y005127D02*
X014910Y005127D01*
X015149Y005365D02*
X013520Y005365D01*
X013454Y005604D02*
X015387Y005604D01*
X015170Y005842D02*
X015626Y005842D01*
X015617Y006081D02*
X015402Y006081D01*
X015430Y006319D02*
X015590Y006319D01*
X015590Y006558D02*
X015430Y006558D01*
X015428Y006796D02*
X015591Y006796D01*
X011420Y002265D02*
X011073Y002265D01*
X011233Y002026D02*
X011301Y002026D01*
X011284Y001788D02*
X011251Y001788D01*
X011251Y001549D02*
X011284Y001549D01*
X011284Y001311D02*
X011251Y001311D01*
X011195Y001072D02*
X011339Y001072D01*
X010703Y008943D02*
X010316Y008943D01*
X010430Y009181D02*
X010590Y009181D01*
X010590Y009420D02*
X010430Y009420D01*
X010430Y009658D02*
X010590Y009658D01*
X010632Y009897D02*
X010387Y009897D01*
X004287Y011328D02*
X004270Y011328D01*
D29*
X006885Y009970D03*
X006885Y007595D03*
X004010Y022595D03*
X008010Y030595D03*
X014510Y023095D03*
D30*
X016010Y006470D02*
X016010Y005745D01*
X014860Y004595D01*
X014860Y003945D01*
X013635Y002720D01*
X012260Y002720D01*
X011760Y002220D01*
X011760Y001595D01*
M02*
