%
M48
M72
T01C0.0236
T02C0.0300
T03C0.0320
T04C0.0360
T05C0.0380
T06C0.0394
T07C0.0400
T08C0.0440
T09C0.0590
T10C0.1260
%
T01
X6885Y7595
X6885Y9970
X4010Y22595
X8010Y30595
X14510Y23095
T02
X17760Y29595
X17760Y30595
X17760Y31595
T03
X16010Y31970
X16010Y30970
X16010Y29970
X16010Y28970
X16010Y27845
X17010Y27845
X19010Y26495
X19010Y25695
X19010Y23995
X19010Y23195
X16260Y21095
X15010Y17470
X14010Y17470
X13010Y17470
X12010Y17470
X11010Y17470
X10010Y17470
X9010Y17470
X8010Y17470
X7010Y17470
X7510Y15720
X6510Y15720
X5510Y15720
X4510Y15720
X4510Y12720
X5510Y12720
X6510Y12720
X7510Y12720
X8010Y10970
X9010Y10970
X10010Y10970
X11010Y10970
X11010Y12720
X10010Y12720
X9010Y12720
X9010Y15720
X10010Y15720
X11010Y15720
X12010Y15720
X13510Y15720
X14510Y15720
X15510Y15720
X16510Y15720
X16760Y17095
X17760Y17095
X17760Y15720
X17760Y12720
X16510Y12720
X15510Y12720
X16010Y10970
X15010Y10970
X14010Y10970
X13010Y10970
X12010Y10970
X12010Y12720
X13510Y12720
X14510Y12720
X15010Y9470
X14010Y9470
X13010Y9470
X12010Y9470
X11010Y9470
X10010Y9470
X9010Y9470
X7760Y8970
X7760Y6970
X9010Y6470
X10010Y6470
X11010Y6470
X12010Y6470
X13010Y6470
X14010Y6470
X15010Y6470
X16010Y6470
X15660Y4595
X14860Y4595
X16010Y9470
X13260Y21095
X13010Y27845
X13010Y28970
X13010Y29970
X13010Y30970
X13010Y31970
X11760Y31845
X10760Y30345
X10760Y29345
X11760Y27845
X9760Y27845
X9760Y31845
X20010Y27845
T04
X4635Y6970
X4635Y7970
X4635Y8970
X5635Y8970
X5635Y7970
X5635Y6970
X18135Y6970
X18135Y7970
X18135Y8970
X19135Y8970
X19135Y7970
X19135Y6970
T05
X17010Y19595
X17010Y20595
X17010Y21595
X17010Y22595
X17010Y23595
X17010Y24595
X17010Y25595
X16010Y25595
X15010Y25595
X14010Y25595
X13010Y25595
X12010Y25595
X11010Y25595
X10010Y25595
X9010Y25595
X8010Y25595
X7010Y25595
X6010Y25595
X5010Y25595
X4010Y25595
X4010Y19595
X5010Y19595
X6010Y19595
X7010Y19595
X8010Y19595
X9010Y19595
X10010Y19595
X11010Y19595
X12010Y19595
X13010Y19595
X14010Y19595
X15010Y19595
X16010Y19595
T06
X16010Y18595
X17010Y18595
X15010Y18595
X14010Y18595
X13010Y18595
X12010Y18595
X11010Y18595
X10010Y18595
X9010Y18595
X8010Y18595
X7010Y18595
X6010Y18595
X5010Y18595
X4010Y18595
X4010Y26595
X5010Y26595
X6010Y26595
X7010Y26595
X8010Y26595
X9010Y26595
X10010Y26595
X11010Y26595
X12010Y26595
X13010Y26595
X14010Y26595
X15010Y26595
X16010Y26595
X17010Y26595
X8605Y3095
X7385Y1205
X6203Y3095
X10775Y1595
X11760Y1595
X12744Y1595
T07
X12760Y3845
X11760Y3845
X10760Y3845
T08
X9010Y5345
X13010Y5345
T09
X5570Y27915
X4290Y29765
X6830Y30785
X7380Y31775
X8520Y28125
T10
X10760Y22595
X19260Y1845
M30
