G75*
%MOIN*%
%OFA0B0*%
%FSLAX24Y24*%
%IPPOS*%
%LPD*%
%AMOC8*
5,1,8,0,0,1.08239X$1,22.5*
%
%ADD10C,0.0160*%
%ADD11C,0.0000*%
D10*
X003260Y000595D02*
X003260Y032466D01*
X020505Y032466D01*
X020505Y000595D01*
X003260Y000595D01*
D11*
X006007Y002544D02*
X006400Y002544D01*
X006400Y003646D01*
X006007Y003646D01*
X006007Y002544D01*
X006833Y001402D02*
X006833Y001008D01*
X007936Y001008D01*
X007936Y001402D01*
X006833Y001402D01*
X008408Y002445D02*
X008802Y002445D01*
X008802Y003745D01*
X008408Y003745D01*
X008408Y002445D01*
X018630Y001845D02*
X018632Y001895D01*
X018638Y001945D01*
X018648Y001994D01*
X018662Y002042D01*
X018679Y002089D01*
X018700Y002134D01*
X018725Y002178D01*
X018753Y002219D01*
X018785Y002258D01*
X018819Y002295D01*
X018856Y002329D01*
X018896Y002359D01*
X018938Y002386D01*
X018982Y002410D01*
X019028Y002431D01*
X019075Y002447D01*
X019123Y002460D01*
X019173Y002469D01*
X019222Y002474D01*
X019273Y002475D01*
X019323Y002472D01*
X019372Y002465D01*
X019421Y002454D01*
X019469Y002439D01*
X019515Y002421D01*
X019560Y002399D01*
X019603Y002373D01*
X019644Y002344D01*
X019683Y002312D01*
X019719Y002277D01*
X019751Y002239D01*
X019781Y002199D01*
X019808Y002156D01*
X019831Y002112D01*
X019850Y002066D01*
X019866Y002018D01*
X019878Y001969D01*
X019886Y001920D01*
X019890Y001870D01*
X019890Y001820D01*
X019886Y001770D01*
X019878Y001721D01*
X019866Y001672D01*
X019850Y001624D01*
X019831Y001578D01*
X019808Y001534D01*
X019781Y001491D01*
X019751Y001451D01*
X019719Y001413D01*
X019683Y001378D01*
X019644Y001346D01*
X019603Y001317D01*
X019560Y001291D01*
X019515Y001269D01*
X019469Y001251D01*
X019421Y001236D01*
X019372Y001225D01*
X019323Y001218D01*
X019273Y001215D01*
X019222Y001216D01*
X019173Y001221D01*
X019123Y001230D01*
X019075Y001243D01*
X019028Y001259D01*
X018982Y001280D01*
X018938Y001304D01*
X018896Y001331D01*
X018856Y001361D01*
X018819Y001395D01*
X018785Y001432D01*
X018753Y001471D01*
X018725Y001512D01*
X018700Y001556D01*
X018679Y001601D01*
X018662Y001648D01*
X018648Y001696D01*
X018638Y001745D01*
X018632Y001795D01*
X018630Y001845D01*
X010130Y022595D02*
X010132Y022645D01*
X010138Y022695D01*
X010148Y022744D01*
X010162Y022792D01*
X010179Y022839D01*
X010200Y022884D01*
X010225Y022928D01*
X010253Y022969D01*
X010285Y023008D01*
X010319Y023045D01*
X010356Y023079D01*
X010396Y023109D01*
X010438Y023136D01*
X010482Y023160D01*
X010528Y023181D01*
X010575Y023197D01*
X010623Y023210D01*
X010673Y023219D01*
X010722Y023224D01*
X010773Y023225D01*
X010823Y023222D01*
X010872Y023215D01*
X010921Y023204D01*
X010969Y023189D01*
X011015Y023171D01*
X011060Y023149D01*
X011103Y023123D01*
X011144Y023094D01*
X011183Y023062D01*
X011219Y023027D01*
X011251Y022989D01*
X011281Y022949D01*
X011308Y022906D01*
X011331Y022862D01*
X011350Y022816D01*
X011366Y022768D01*
X011378Y022719D01*
X011386Y022670D01*
X011390Y022620D01*
X011390Y022570D01*
X011386Y022520D01*
X011378Y022471D01*
X011366Y022422D01*
X011350Y022374D01*
X011331Y022328D01*
X011308Y022284D01*
X011281Y022241D01*
X011251Y022201D01*
X011219Y022163D01*
X011183Y022128D01*
X011144Y022096D01*
X011103Y022067D01*
X011060Y022041D01*
X011015Y022019D01*
X010969Y022001D01*
X010921Y021986D01*
X010872Y021975D01*
X010823Y021968D01*
X010773Y021965D01*
X010722Y021966D01*
X010673Y021971D01*
X010623Y021980D01*
X010575Y021993D01*
X010528Y022009D01*
X010482Y022030D01*
X010438Y022054D01*
X010396Y022081D01*
X010356Y022111D01*
X010319Y022145D01*
X010285Y022182D01*
X010253Y022221D01*
X010225Y022262D01*
X010200Y022306D01*
X010179Y022351D01*
X010162Y022398D01*
X010148Y022446D01*
X010138Y022495D01*
X010132Y022545D01*
X010130Y022595D01*
M02*
