G75*
%MOIN*%
%OFA0B0*%
%FSLAX24Y24*%
%IPPOS*%
%LPD*%
%AMOC8*
5,1,8,0,0,1.08239X$1,22.5*
%
%ADD10C,0.0160*%
%ADD11C,0.0000*%
%ADD12OC8,0.0480*%
%ADD13OC8,0.0885*%
%ADD14C,0.0885*%
%ADD15C,0.0480*%
%ADD16OC8,0.0630*%
%ADD17C,0.0630*%
%ADD18OC8,0.0500*%
%ADD19C,0.0500*%
%ADD20C,0.0780*%
%ADD21R,0.0480X0.0480*%
%ADD22C,0.0570*%
%ADD23C,0.0787*%
%ADD24C,0.0600*%
%ADD25OC8,0.0540*%
%ADD26C,0.0591*%
%ADD27C,0.0660*%
%ADD28OC8,0.0591*%
%ADD29R,0.0460X0.0630*%
%ADD30R,0.0630X0.0460*%
%ADD31C,0.0240*%
%ADD32R,0.0356X0.0356*%
%ADD33C,0.0320*%
D10*
X001330Y000595D02*
X001330Y032466D01*
X018575Y032466D01*
X018575Y000595D01*
X001330Y000595D01*
X004955Y007595D02*
X009205Y007595D01*
X009455Y007845D01*
X011330Y007845D01*
X011705Y008220D01*
X014705Y008220D01*
X015455Y008970D01*
X016205Y008970D01*
X014955Y007595D02*
X015580Y006970D01*
X016205Y006970D01*
X016580Y006345D02*
X017205Y006970D01*
X016580Y006345D02*
X015455Y006345D01*
X014580Y007220D01*
X012330Y007220D01*
X012080Y006970D01*
X012080Y006470D01*
X011580Y007220D02*
X011955Y007595D01*
X014955Y007595D01*
X012080Y008970D02*
X011830Y008720D01*
X009580Y008720D01*
X008830Y007970D01*
X005455Y007970D01*
X004455Y008970D01*
X003705Y008970D01*
X003330Y009595D02*
X002705Y008970D01*
X003330Y009595D02*
X004455Y009595D01*
X005705Y008345D01*
X008455Y008345D01*
X009080Y008970D01*
X009080Y009470D01*
X007580Y009970D02*
X007080Y009470D01*
X006330Y009470D01*
X005830Y008970D01*
X004955Y009970D02*
X003080Y011845D01*
X003080Y016470D01*
X004580Y017970D01*
X004580Y020095D01*
X002080Y022595D01*
X002080Y023595D02*
X004580Y021095D01*
X005330Y020345D01*
X006830Y020345D01*
X007080Y020595D01*
X007330Y020345D01*
X008580Y020345D01*
X008580Y014595D01*
X009330Y013845D01*
X010330Y013845D01*
X010830Y013345D01*
X010830Y012520D01*
X010830Y011845D01*
X010830Y011920D02*
X010780Y011920D01*
X010580Y011720D01*
X009330Y011720D01*
X009080Y011970D01*
X009080Y012720D01*
X008080Y012720D01*
X008080Y011970D01*
X007580Y011470D01*
X007580Y009970D01*
X008080Y012720D02*
X008080Y013095D01*
X007830Y013345D01*
X004830Y013345D01*
X004580Y013095D01*
X004580Y012720D01*
X003580Y012720D01*
X003080Y018595D02*
X003080Y019595D01*
X004080Y019595D02*
X004080Y018595D01*
X005080Y018595D02*
X005080Y019595D01*
X006080Y019595D02*
X006080Y018595D01*
X007080Y018595D02*
X007080Y019595D01*
X007080Y020595D02*
X007080Y021095D01*
X008080Y021595D02*
X007330Y022345D01*
X004430Y022345D01*
X003580Y023195D01*
X003580Y023995D02*
X004180Y023995D01*
X005330Y022845D01*
X012330Y022845D01*
X012580Y023095D01*
X012580Y024720D01*
X012830Y024970D01*
X013330Y024970D01*
X013580Y025220D01*
X013580Y026970D01*
X014080Y027470D01*
X016455Y027470D01*
X016780Y027795D01*
X016780Y027845D01*
X016780Y028045D01*
X017580Y028845D01*
X017580Y029345D01*
X016780Y028645D02*
X016780Y027845D01*
X016780Y027895D01*
X016455Y028220D01*
X013205Y028220D01*
X013080Y028345D01*
X011580Y028345D01*
X011080Y027845D01*
X011080Y026595D02*
X011080Y025595D01*
X010080Y025595D02*
X010080Y026595D01*
X009580Y026845D02*
X009955Y027220D01*
X012955Y027220D01*
X013580Y027845D01*
X016780Y027845D01*
X017330Y027845D01*
X016780Y028645D02*
X016330Y029095D01*
X011080Y029095D01*
X010330Y028345D01*
X008330Y028345D01*
X006910Y029765D01*
X002360Y029765D01*
X002080Y026595D02*
X002080Y025595D01*
X002080Y023595D01*
X004080Y025595D02*
X004080Y026595D01*
X005080Y026595D02*
X005080Y025595D01*
X006080Y025595D02*
X006080Y026595D01*
X007080Y026595D02*
X007080Y025595D01*
X008080Y025595D02*
X008080Y026595D01*
X009080Y026595D02*
X009080Y025595D01*
X009580Y025095D02*
X009580Y026845D01*
X009580Y025095D02*
X009330Y024845D01*
X008330Y024845D01*
X008080Y024595D01*
X008080Y024095D01*
X008080Y021595D02*
X008080Y021095D01*
X008580Y020345D02*
X009705Y020345D01*
X009955Y020595D01*
X009955Y020970D01*
X010580Y021595D01*
X011080Y021095D01*
X012080Y021095D01*
X012080Y021595D01*
X014080Y023595D01*
X014080Y024095D01*
X014080Y025595D02*
X014080Y026595D01*
X015080Y026595D02*
X015080Y025595D01*
X015830Y024845D01*
X015830Y023345D01*
X014080Y021595D01*
X014080Y021095D01*
X014080Y019595D02*
X014080Y018595D01*
X015080Y018595D02*
X015080Y019595D01*
X016580Y020220D02*
X012705Y020220D01*
X012080Y019595D01*
X012080Y018595D01*
X013080Y018595D02*
X013080Y019595D01*
X011080Y019595D02*
X011080Y018595D01*
X010580Y018095D02*
X010580Y015595D01*
X011080Y015220D01*
X014330Y015220D01*
X014580Y015470D01*
X014580Y015720D01*
X013580Y012720D02*
X012580Y012720D01*
X012580Y011970D01*
X012330Y011720D01*
X011080Y011720D01*
X010880Y011920D01*
X010830Y011920D01*
X012080Y009470D02*
X012080Y008970D01*
X011580Y007220D02*
X009330Y007220D01*
X009080Y006970D01*
X009080Y006470D01*
X010580Y018095D02*
X010080Y018595D01*
X010080Y019595D01*
X009080Y019595D02*
X009080Y018595D01*
X008080Y018595D02*
X008080Y019595D01*
X012080Y025595D02*
X012080Y026595D01*
X013080Y026595D02*
X013080Y025595D01*
D11*
X016700Y001845D02*
X016702Y001895D01*
X016708Y001945D01*
X016718Y001994D01*
X016732Y002042D01*
X016749Y002089D01*
X016770Y002134D01*
X016795Y002178D01*
X016823Y002219D01*
X016855Y002258D01*
X016889Y002295D01*
X016926Y002329D01*
X016966Y002359D01*
X017008Y002386D01*
X017052Y002410D01*
X017098Y002431D01*
X017145Y002447D01*
X017193Y002460D01*
X017243Y002469D01*
X017292Y002474D01*
X017343Y002475D01*
X017393Y002472D01*
X017442Y002465D01*
X017491Y002454D01*
X017539Y002439D01*
X017585Y002421D01*
X017630Y002399D01*
X017673Y002373D01*
X017714Y002344D01*
X017753Y002312D01*
X017789Y002277D01*
X017821Y002239D01*
X017851Y002199D01*
X017878Y002156D01*
X017901Y002112D01*
X017920Y002066D01*
X017936Y002018D01*
X017948Y001969D01*
X017956Y001920D01*
X017960Y001870D01*
X017960Y001820D01*
X017956Y001770D01*
X017948Y001721D01*
X017936Y001672D01*
X017920Y001624D01*
X017901Y001578D01*
X017878Y001534D01*
X017851Y001491D01*
X017821Y001451D01*
X017789Y001413D01*
X017753Y001378D01*
X017714Y001346D01*
X017673Y001317D01*
X017630Y001291D01*
X017585Y001269D01*
X017539Y001251D01*
X017491Y001236D01*
X017442Y001225D01*
X017393Y001218D01*
X017343Y001215D01*
X017292Y001216D01*
X017243Y001221D01*
X017193Y001230D01*
X017145Y001243D01*
X017098Y001259D01*
X017052Y001280D01*
X017008Y001304D01*
X016966Y001331D01*
X016926Y001361D01*
X016889Y001395D01*
X016855Y001432D01*
X016823Y001471D01*
X016795Y001512D01*
X016770Y001556D01*
X016749Y001601D01*
X016732Y001648D01*
X016718Y001696D01*
X016708Y001745D01*
X016702Y001795D01*
X016700Y001845D01*
D12*
X016580Y016220D03*
X015580Y017220D03*
X014580Y017220D03*
X016580Y020220D03*
X016580Y022970D03*
X016580Y026970D03*
X012330Y027845D03*
X011080Y027845D03*
X009830Y027845D03*
X007830Y027845D03*
X007830Y031845D03*
X009830Y031845D03*
X011080Y031845D03*
X012330Y031845D03*
X010580Y023595D03*
X010580Y021595D03*
X004580Y021095D03*
X002580Y021095D03*
X005830Y008970D03*
X005830Y006970D03*
D13*
X003640Y027915D03*
X002360Y029765D03*
X006590Y028125D03*
D14*
X004900Y030785D03*
X005450Y031775D03*
D15*
X006080Y024335D02*
X006080Y023855D01*
X007080Y023855D02*
X007080Y024335D01*
X008080Y024335D02*
X008080Y023855D01*
X009080Y023855D02*
X009080Y024335D01*
X009080Y021335D02*
X009080Y020855D01*
X008080Y020855D02*
X008080Y021335D01*
X007080Y021335D02*
X007080Y020855D01*
X006080Y020855D02*
X006080Y021335D01*
X006080Y017710D02*
X006080Y017230D01*
X005580Y016200D02*
X005580Y015720D01*
X004580Y015720D02*
X004580Y016200D01*
X005080Y017230D02*
X005080Y017710D01*
X003580Y016200D02*
X003580Y015720D01*
X002580Y015720D02*
X002580Y016200D01*
X002580Y012720D02*
X002580Y012240D01*
X003580Y012240D02*
X003580Y012720D01*
X004580Y012720D02*
X004580Y012240D01*
X005580Y012240D02*
X005580Y012720D01*
X006080Y011210D02*
X006080Y010730D01*
X007080Y010730D02*
X007080Y011210D01*
X007080Y012240D02*
X007080Y012720D01*
X008080Y012720D02*
X008080Y012240D01*
X008080Y011210D02*
X008080Y010730D01*
X008080Y009710D02*
X008080Y009230D01*
X007080Y009230D02*
X007080Y009710D01*
X007080Y006710D02*
X007080Y006230D01*
X008080Y006230D02*
X008080Y006710D01*
X009080Y006710D02*
X009080Y006230D01*
X010080Y006230D02*
X010080Y006710D01*
X011080Y006710D02*
X011080Y006230D01*
X012080Y006230D02*
X012080Y006710D01*
X013080Y006710D02*
X013080Y006230D01*
X014080Y006230D02*
X014080Y006710D01*
X014080Y009230D02*
X014080Y009710D01*
X014080Y010730D02*
X014080Y011210D01*
X013580Y012240D02*
X013580Y012720D01*
X014580Y012720D02*
X014580Y012240D01*
X015830Y012480D02*
X015830Y012960D01*
X015830Y015480D02*
X015830Y015960D01*
X014580Y015720D02*
X014580Y016200D01*
X013580Y016200D02*
X013580Y015720D01*
X013080Y017230D02*
X013080Y017710D01*
X012080Y017710D02*
X012080Y017230D01*
X011580Y016200D02*
X011580Y015720D01*
X011080Y017230D02*
X011080Y017710D01*
X010080Y017710D02*
X010080Y017230D01*
X010080Y016200D02*
X010080Y015720D01*
X009080Y015720D02*
X009080Y016200D01*
X009080Y017230D02*
X009080Y017710D01*
X008080Y017710D02*
X008080Y017230D01*
X008080Y016200D02*
X008080Y015720D01*
X007080Y015720D02*
X007080Y016200D01*
X007080Y017230D02*
X007080Y017710D01*
X009080Y012720D02*
X009080Y012240D01*
X009080Y011210D02*
X009080Y010730D01*
X009080Y009710D02*
X009080Y009230D01*
X010080Y009230D02*
X010080Y009710D01*
X010080Y010730D02*
X010080Y011210D01*
X010080Y012240D02*
X010080Y012720D01*
X011080Y011210D02*
X011080Y010730D01*
X011080Y009710D02*
X011080Y009230D01*
X012080Y009230D02*
X012080Y009710D01*
X012080Y010730D02*
X012080Y011210D01*
X011580Y012240D02*
X011580Y012720D01*
X012580Y012720D02*
X012580Y012240D01*
X013080Y011210D02*
X013080Y010730D01*
X013080Y009710D02*
X013080Y009230D01*
X012580Y015720D02*
X012580Y016200D01*
X013080Y020855D02*
X013080Y021335D01*
X014080Y021335D02*
X014080Y020855D01*
X015080Y020855D02*
X015080Y021335D01*
X015080Y023855D02*
X015080Y024335D01*
X014080Y024335D02*
X014080Y023855D01*
X013080Y023855D02*
X013080Y024335D01*
X012080Y024335D02*
X012080Y023855D01*
D16*
X008830Y030345D03*
D17*
X008830Y029345D03*
D18*
X003580Y023995D03*
X013730Y004595D03*
X016580Y021995D03*
D19*
X016580Y021195D03*
X012930Y004595D03*
X003580Y023195D03*
D20*
X013580Y029955D02*
X013580Y030735D01*
X017190Y031345D02*
X017970Y031345D01*
X017970Y029345D02*
X017190Y029345D01*
D21*
X012080Y021095D03*
D22*
X012080Y019595D03*
X013080Y019595D03*
X014080Y019595D03*
X015080Y019595D03*
X011080Y019595D03*
X010080Y019595D03*
X009080Y019595D03*
X008080Y019595D03*
X007080Y019595D03*
X006080Y019595D03*
X005080Y019595D03*
X004080Y019595D03*
X003080Y019595D03*
X002080Y019595D03*
X002080Y025595D03*
X003080Y025595D03*
X004080Y025595D03*
X005080Y025595D03*
X006080Y025595D03*
X007080Y025595D03*
X008080Y025595D03*
X009080Y025595D03*
X010080Y025595D03*
X011080Y025595D03*
X012080Y025595D03*
X013080Y025595D03*
X014080Y025595D03*
X015080Y025595D03*
D23*
X006675Y003489D02*
X006675Y002701D01*
X005849Y001205D02*
X005061Y001205D01*
X004274Y002701D02*
X004274Y003489D01*
D24*
X008830Y003545D02*
X008830Y004145D01*
X009830Y004145D02*
X009830Y003545D01*
X010830Y003545D02*
X010830Y004145D01*
D25*
X016205Y006970D03*
X016205Y007970D03*
X016205Y008970D03*
X017205Y008970D03*
X017205Y007970D03*
X017205Y006970D03*
X003705Y006970D03*
X003705Y007970D03*
X003705Y008970D03*
X002705Y008970D03*
X002705Y007970D03*
X002705Y006970D03*
D26*
X008846Y001890D02*
X008846Y001300D01*
X009830Y001300D02*
X009830Y001890D01*
X010814Y001890D02*
X010814Y001300D01*
D27*
X011080Y005345D03*
X007080Y005345D03*
D28*
X007080Y018595D03*
X006080Y018595D03*
X005080Y018595D03*
X004080Y018595D03*
X003080Y018595D03*
X002080Y018595D03*
X002080Y026595D03*
X003080Y026595D03*
X004080Y026595D03*
X005080Y026595D03*
X006080Y026595D03*
X007080Y026595D03*
X008080Y026595D03*
X009080Y026595D03*
X010080Y026595D03*
X011080Y026595D03*
X012080Y026595D03*
X013080Y026595D03*
X014080Y026595D03*
X015080Y026595D03*
X015080Y018595D03*
X014080Y018595D03*
X013080Y018595D03*
X012080Y018595D03*
X011080Y018595D03*
X010080Y018595D03*
X009080Y018595D03*
X008080Y018595D03*
D29*
X016780Y027845D03*
X017380Y027845D03*
D30*
X010830Y012520D03*
X010830Y011920D03*
D31*
X010786Y011510D02*
X010724Y011448D01*
X010660Y011294D01*
X010660Y010646D01*
X010724Y010492D01*
X010842Y010374D01*
X010996Y010310D01*
X011164Y010310D01*
X011318Y010374D01*
X011436Y010492D01*
X011500Y010646D01*
X011500Y011294D01*
X011436Y011448D01*
X011424Y011460D01*
X011736Y011460D01*
X011724Y011448D01*
X011660Y011294D01*
X011660Y010646D01*
X011724Y010492D01*
X011842Y010374D01*
X011996Y010310D01*
X012164Y010310D01*
X012318Y010374D01*
X012436Y010492D01*
X012500Y010646D01*
X012500Y011294D01*
X012436Y011448D01*
X012412Y011472D01*
X012477Y011500D01*
X012550Y011573D01*
X012800Y011823D01*
X012831Y011897D01*
X012936Y012002D01*
X013000Y012156D01*
X013000Y012460D01*
X013160Y012460D01*
X013160Y012156D01*
X013224Y012002D01*
X013342Y011884D01*
X013496Y011820D01*
X013664Y011820D01*
X013818Y011884D01*
X013936Y012002D01*
X014000Y012156D01*
X014000Y012804D01*
X013936Y012958D01*
X013818Y013076D01*
X013664Y013140D01*
X013496Y013140D01*
X013342Y013076D01*
X013246Y012980D01*
X012914Y012980D01*
X012818Y013076D01*
X012664Y013140D01*
X012496Y013140D01*
X012342Y013076D01*
X012224Y012958D01*
X012160Y012804D01*
X012160Y012156D01*
X012224Y012002D01*
X012234Y011992D01*
X012222Y011980D01*
X011914Y011980D01*
X011936Y012002D01*
X012000Y012156D01*
X012000Y012804D01*
X011936Y012958D01*
X011818Y013076D01*
X011664Y013140D01*
X011496Y013140D01*
X011342Y013076D01*
X011224Y012958D01*
X011212Y012930D01*
X011090Y012930D01*
X011090Y013397D01*
X011050Y013492D01*
X010977Y013565D01*
X010477Y014065D01*
X010382Y014105D01*
X009438Y014105D01*
X008840Y014703D01*
X008840Y015366D01*
X008842Y015364D01*
X008996Y015300D01*
X009164Y015300D01*
X009318Y015364D01*
X009436Y015482D01*
X009500Y015636D01*
X009500Y016284D01*
X009436Y016438D01*
X009318Y016556D01*
X009164Y016620D01*
X008996Y016620D01*
X008842Y016556D01*
X008840Y016554D01*
X008840Y016876D01*
X008842Y016874D01*
X008996Y016810D01*
X009164Y016810D01*
X009318Y016874D01*
X009436Y016992D01*
X009500Y017146D01*
X009500Y017794D01*
X009436Y017948D01*
X009318Y018066D01*
X009188Y018120D01*
X009277Y018120D01*
X009555Y018398D01*
X009555Y018792D01*
X009340Y019007D01*
X009340Y019199D01*
X009343Y019201D01*
X009474Y019332D01*
X009545Y019503D01*
X009545Y019687D01*
X009474Y019858D01*
X009343Y019989D01*
X009172Y020060D01*
X008988Y020060D01*
X008840Y019999D01*
X008840Y020085D01*
X009757Y020085D01*
X009852Y020125D01*
X009925Y020198D01*
X010175Y020448D01*
X010215Y020543D01*
X010215Y020862D01*
X010528Y021175D01*
X010632Y021175D01*
X010860Y020948D01*
X010933Y020875D01*
X011028Y020835D01*
X011660Y020835D01*
X011660Y020780D01*
X011765Y020675D01*
X012395Y020675D01*
X012500Y020780D01*
X012500Y021410D01*
X012395Y021515D01*
X012368Y021515D01*
X014227Y023375D01*
X014300Y023448D01*
X014324Y023505D01*
X014436Y023617D01*
X014500Y023771D01*
X014500Y024419D01*
X014436Y024573D01*
X014318Y024691D01*
X014164Y024755D01*
X013996Y024755D01*
X013842Y024691D01*
X013724Y024573D01*
X013660Y024419D01*
X013660Y023771D01*
X013724Y023617D01*
X013729Y023612D01*
X011860Y021742D01*
X011820Y021647D01*
X011820Y021515D01*
X011765Y021515D01*
X011660Y021410D01*
X011660Y021355D01*
X011188Y021355D01*
X011000Y021543D01*
X011000Y021769D01*
X010754Y022015D01*
X010406Y022015D01*
X010160Y021769D01*
X010160Y021543D01*
X009808Y021190D01*
X009735Y021117D01*
X009695Y021022D01*
X009695Y020703D01*
X009597Y020605D01*
X009424Y020605D01*
X009436Y020617D01*
X009500Y020771D01*
X009500Y021419D01*
X009436Y021573D01*
X009318Y021691D01*
X009164Y021755D01*
X008996Y021755D01*
X008842Y021691D01*
X008724Y021573D01*
X008660Y021419D01*
X008660Y020771D01*
X008724Y020617D01*
X008736Y020605D01*
X008424Y020605D01*
X008436Y020617D01*
X008500Y020771D01*
X008500Y021419D01*
X008436Y021573D01*
X008324Y021685D01*
X008300Y021742D01*
X007550Y022492D01*
X007477Y022565D01*
X007430Y022585D01*
X012382Y022585D01*
X012477Y022625D01*
X012727Y022875D01*
X012800Y022948D01*
X012840Y023043D01*
X012840Y023461D01*
X012903Y023429D01*
X012972Y023406D01*
X013044Y023395D01*
X013080Y023395D01*
X013116Y023395D01*
X013188Y023406D01*
X013257Y023429D01*
X013321Y023462D01*
X013380Y023504D01*
X013431Y023555D01*
X013473Y023614D01*
X013506Y023678D01*
X013529Y023747D01*
X013540Y023819D01*
X013540Y024095D01*
X013540Y024371D01*
X013529Y024443D01*
X013506Y024512D01*
X013473Y024576D01*
X013431Y024635D01*
X013380Y024686D01*
X013346Y024710D01*
X013382Y024710D01*
X013477Y024750D01*
X013727Y025000D01*
X013800Y025073D01*
X013840Y025168D01*
X013840Y025191D01*
X013988Y025130D01*
X014172Y025130D01*
X014343Y025201D01*
X014474Y025332D01*
X014545Y025503D01*
X014545Y025687D01*
X014474Y025858D01*
X014343Y025989D01*
X014340Y025991D01*
X014340Y026183D01*
X014555Y026398D01*
X014555Y026792D01*
X014277Y027070D01*
X014048Y027070D01*
X014188Y027210D01*
X016226Y027210D01*
X016160Y027144D01*
X016160Y026796D01*
X016406Y026550D01*
X016754Y026550D01*
X017000Y026796D01*
X017000Y027144D01*
X016794Y027350D01*
X017022Y027350D01*
X017065Y027325D01*
X017121Y027310D01*
X017380Y027310D01*
X017639Y027310D01*
X017695Y027325D01*
X017745Y027354D01*
X017786Y027395D01*
X017815Y027445D01*
X017830Y027501D01*
X017830Y027845D01*
X017830Y028189D01*
X017815Y028245D01*
X017786Y028295D01*
X017745Y028336D01*
X017695Y028365D01*
X017639Y028380D01*
X017483Y028380D01*
X017800Y028698D01*
X017832Y028775D01*
X018083Y028775D01*
X018275Y028854D01*
X018275Y000895D01*
X011134Y000895D01*
X011150Y000907D01*
X011207Y000964D01*
X011255Y001030D01*
X011292Y001102D01*
X011317Y001179D01*
X011330Y001259D01*
X011330Y001595D01*
X011330Y001931D01*
X011317Y002011D01*
X011292Y002088D01*
X011255Y002160D01*
X011207Y002226D01*
X011150Y002283D01*
X011084Y002331D01*
X011012Y002368D01*
X010935Y002393D01*
X010855Y002406D01*
X010814Y002406D01*
X010774Y002406D01*
X010694Y002393D01*
X010616Y002368D01*
X010544Y002331D01*
X010479Y002283D01*
X010421Y002226D01*
X010374Y002160D01*
X010337Y002088D01*
X010312Y002011D01*
X010305Y001971D01*
X010305Y001985D01*
X010233Y002159D01*
X010099Y002293D01*
X009925Y002366D01*
X009735Y002366D01*
X009561Y002293D01*
X009427Y002159D01*
X009355Y001985D01*
X009355Y001205D01*
X009427Y001031D01*
X009561Y000897D01*
X009565Y000895D01*
X009111Y000895D01*
X009115Y000897D01*
X009249Y001031D01*
X009321Y001205D01*
X009321Y001985D01*
X009249Y002159D01*
X009186Y002222D01*
X009186Y002345D01*
X009346Y002505D01*
X010648Y002505D01*
X010773Y002557D01*
X010868Y002652D01*
X011118Y002902D01*
X011170Y003027D01*
X011170Y003206D01*
X011237Y003273D01*
X011310Y003450D01*
X011310Y004240D01*
X011237Y004417D01*
X011170Y004484D01*
X011170Y004835D01*
X011181Y004835D01*
X011369Y004913D01*
X011512Y005056D01*
X011590Y005244D01*
X011590Y005446D01*
X011512Y005634D01*
X011369Y005777D01*
X011278Y005815D01*
X011321Y005837D01*
X011380Y005879D01*
X011431Y005930D01*
X011473Y005989D01*
X011506Y006053D01*
X011529Y006122D01*
X011540Y006194D01*
X011540Y006470D01*
X011540Y006746D01*
X011529Y006818D01*
X011506Y006887D01*
X011473Y006951D01*
X011467Y006960D01*
X011632Y006960D01*
X011727Y007000D01*
X012063Y007335D01*
X012077Y007335D01*
X011860Y007117D01*
X011836Y007060D01*
X011724Y006948D01*
X011660Y006794D01*
X011660Y006146D01*
X011724Y005992D01*
X011842Y005874D01*
X011996Y005810D01*
X012164Y005810D01*
X012318Y005874D01*
X012436Y005992D01*
X012500Y006146D01*
X012500Y006794D01*
X012436Y006948D01*
X012431Y006953D01*
X012438Y006960D01*
X012736Y006960D01*
X012724Y006948D01*
X012660Y006794D01*
X012660Y006146D01*
X012724Y005992D01*
X012842Y005874D01*
X012996Y005810D01*
X013164Y005810D01*
X013318Y005874D01*
X013436Y005992D01*
X013500Y006146D01*
X013500Y006794D01*
X013436Y006948D01*
X013424Y006960D01*
X013736Y006960D01*
X013724Y006948D01*
X013660Y006794D01*
X013660Y006146D01*
X013724Y005992D01*
X013842Y005874D01*
X013996Y005810D01*
X014164Y005810D01*
X014318Y005874D01*
X014436Y005992D01*
X014500Y006146D01*
X014500Y006794D01*
X014436Y006948D01*
X014424Y006960D01*
X014472Y006960D01*
X015308Y006125D01*
X015403Y006085D01*
X016632Y006085D01*
X016727Y006125D01*
X017123Y006520D01*
X017391Y006520D01*
X017655Y006784D01*
X017655Y007156D01*
X017391Y007420D01*
X017019Y007420D01*
X016755Y007156D01*
X016755Y006888D01*
X016655Y006788D01*
X016655Y007156D01*
X016391Y007420D01*
X016019Y007420D01*
X015829Y007230D01*
X015688Y007230D01*
X015102Y007815D01*
X015007Y007855D01*
X011903Y007855D01*
X011808Y007815D01*
X011735Y007742D01*
X011472Y007480D01*
X009458Y007480D01*
X009563Y007585D01*
X011382Y007585D01*
X011477Y007625D01*
X011550Y007698D01*
X011813Y007960D01*
X014757Y007960D01*
X014852Y008000D01*
X014925Y008073D01*
X015563Y008710D01*
X015829Y008710D01*
X016019Y008520D01*
X016391Y008520D01*
X016655Y008784D01*
X016655Y009156D01*
X016391Y009420D01*
X016019Y009420D01*
X015829Y009230D01*
X015403Y009230D01*
X015308Y009190D01*
X014597Y008480D01*
X011930Y008480D01*
X011977Y008500D01*
X012050Y008573D01*
X012300Y008823D01*
X012324Y008880D01*
X012436Y008992D01*
X012500Y009146D01*
X012500Y009794D01*
X012436Y009948D01*
X012318Y010066D01*
X012164Y010130D01*
X011996Y010130D01*
X011842Y010066D01*
X011724Y009948D01*
X011660Y009794D01*
X011660Y009146D01*
X011724Y008992D01*
X011729Y008987D01*
X011722Y008980D01*
X011467Y008980D01*
X011473Y008989D01*
X011506Y009053D01*
X011529Y009122D01*
X011540Y009194D01*
X011540Y009470D01*
X011540Y009746D01*
X011529Y009818D01*
X011506Y009887D01*
X011473Y009951D01*
X011431Y010010D01*
X011380Y010061D01*
X011321Y010103D01*
X011257Y010136D01*
X011188Y010159D01*
X011116Y010170D01*
X011080Y010170D01*
X011080Y009470D01*
X011080Y009470D01*
X011540Y009470D01*
X011080Y009470D01*
X011080Y009470D01*
X011080Y009470D01*
X010620Y009470D01*
X010620Y009746D01*
X010631Y009818D01*
X010654Y009887D01*
X010687Y009951D01*
X010729Y010010D01*
X010780Y010061D01*
X010839Y010103D01*
X010903Y010136D01*
X010972Y010159D01*
X011044Y010170D01*
X011080Y010170D01*
X011080Y009470D01*
X010620Y009470D01*
X010620Y009194D01*
X010631Y009122D01*
X010654Y009053D01*
X010687Y008989D01*
X010693Y008980D01*
X010467Y008980D01*
X010473Y008989D01*
X010506Y009053D01*
X010529Y009122D01*
X010540Y009194D01*
X010540Y009470D01*
X010540Y009746D01*
X010529Y009818D01*
X010506Y009887D01*
X010473Y009951D01*
X010431Y010010D01*
X010380Y010061D01*
X010321Y010103D01*
X010257Y010136D01*
X010188Y010159D01*
X010116Y010170D01*
X010080Y010170D01*
X010080Y009470D01*
X010080Y009470D01*
X010540Y009470D01*
X010080Y009470D01*
X010080Y009470D01*
X010080Y009470D01*
X009620Y009470D01*
X009620Y009746D01*
X009631Y009818D01*
X009654Y009887D01*
X009687Y009951D01*
X009729Y010010D01*
X009780Y010061D01*
X009839Y010103D01*
X009903Y010136D01*
X009972Y010159D01*
X010044Y010170D01*
X010080Y010170D01*
X010080Y009470D01*
X009620Y009470D01*
X009620Y009194D01*
X009631Y009122D01*
X009654Y009053D01*
X009687Y008989D01*
X009693Y008980D01*
X009528Y008980D01*
X009433Y008940D01*
X008722Y008230D01*
X008708Y008230D01*
X009300Y008823D01*
X009324Y008880D01*
X009436Y008992D01*
X009500Y009146D01*
X009500Y009794D01*
X009436Y009948D01*
X009318Y010066D01*
X009164Y010130D01*
X008996Y010130D01*
X008842Y010066D01*
X008724Y009948D01*
X008660Y009794D01*
X008660Y009146D01*
X008724Y008992D01*
X008729Y008987D01*
X008347Y008605D01*
X006059Y008605D01*
X006250Y008796D01*
X006250Y009022D01*
X006438Y009210D01*
X006660Y009210D01*
X006660Y009146D01*
X006724Y008992D01*
X006842Y008874D01*
X006996Y008810D01*
X007164Y008810D01*
X007318Y008874D01*
X007436Y008992D01*
X007500Y009146D01*
X007500Y009522D01*
X007660Y009682D01*
X007660Y009146D01*
X007724Y008992D01*
X007842Y008874D01*
X007996Y008810D01*
X008164Y008810D01*
X008318Y008874D01*
X008436Y008992D01*
X008500Y009146D01*
X008500Y009794D01*
X008436Y009948D01*
X008318Y010066D01*
X008164Y010130D01*
X007996Y010130D01*
X007842Y010066D01*
X007840Y010064D01*
X007840Y010376D01*
X007842Y010374D01*
X007996Y010310D01*
X008164Y010310D01*
X008318Y010374D01*
X008436Y010492D01*
X008500Y010646D01*
X008500Y011294D01*
X008436Y011448D01*
X008318Y011566D01*
X008842Y011566D01*
X008724Y011448D01*
X008660Y011294D01*
X008660Y010646D01*
X008724Y010492D01*
X008842Y010374D01*
X008996Y010310D01*
X009164Y010310D01*
X009318Y010374D01*
X009436Y010492D01*
X009500Y010646D01*
X009500Y011294D01*
X009436Y011448D01*
X009424Y011460D01*
X009736Y011460D01*
X009724Y011448D01*
X009660Y011294D01*
X009660Y010646D01*
X009724Y010492D01*
X009842Y010374D01*
X009996Y010310D01*
X010164Y010310D01*
X010318Y010374D01*
X010436Y010492D01*
X010500Y010646D01*
X010500Y011294D01*
X010436Y011448D01*
X010424Y011460D01*
X010632Y011460D01*
X010727Y011500D01*
X010738Y011510D01*
X010786Y011510D01*
X010674Y011328D02*
X010486Y011328D01*
X010500Y011089D02*
X010660Y011089D01*
X010660Y010851D02*
X010500Y010851D01*
X010486Y010612D02*
X010674Y010612D01*
X010843Y010374D02*
X010317Y010374D01*
X010259Y010135D02*
X010901Y010135D01*
X011080Y010135D02*
X011080Y010135D01*
X011259Y010135D02*
X018275Y010135D01*
X018275Y009897D02*
X014457Y009897D01*
X014436Y009948D02*
X014500Y009794D01*
X014500Y009146D01*
X014436Y008992D01*
X014318Y008874D01*
X014164Y008810D01*
X013996Y008810D01*
X013842Y008874D01*
X013724Y008992D01*
X013660Y009146D01*
X013660Y009794D01*
X013724Y009948D01*
X013842Y010066D01*
X013996Y010130D01*
X014164Y010130D01*
X014318Y010066D01*
X014436Y009948D01*
X014500Y009658D02*
X018275Y009658D01*
X018275Y009420D02*
X017448Y009420D01*
X017408Y009460D02*
X017205Y009460D01*
X017205Y008970D01*
X017205Y008970D01*
X017695Y008970D01*
X017695Y009173D01*
X017408Y009460D01*
X017205Y009460D02*
X017205Y008970D01*
X017205Y008970D01*
X017205Y008970D01*
X016715Y008970D01*
X016715Y009173D01*
X017002Y009460D01*
X017205Y009460D01*
X017205Y009420D02*
X017205Y009420D01*
X017205Y009181D02*
X017205Y009181D01*
X017205Y008970D02*
X016715Y008970D01*
X016715Y008767D01*
X017002Y008480D01*
X017205Y008480D01*
X017408Y008480D01*
X017695Y008767D01*
X017695Y008970D01*
X017205Y008970D01*
X017205Y008480D01*
X017205Y008970D01*
X017205Y008970D01*
X017205Y008943D02*
X017205Y008943D01*
X017205Y008704D02*
X017205Y008704D01*
X017391Y008420D02*
X017019Y008420D01*
X016755Y008156D01*
X016755Y007784D01*
X017019Y007520D01*
X017391Y007520D01*
X017655Y007784D01*
X017655Y008156D01*
X017391Y008420D01*
X017584Y008227D02*
X018275Y008227D01*
X018275Y007989D02*
X017655Y007989D01*
X017621Y007750D02*
X018275Y007750D01*
X018275Y007512D02*
X015406Y007512D01*
X015168Y007750D02*
X015789Y007750D01*
X015755Y007784D02*
X016019Y007520D01*
X016391Y007520D01*
X016655Y007784D01*
X016655Y008156D01*
X016391Y008420D01*
X016019Y008420D01*
X015755Y008156D01*
X015755Y007784D01*
X015755Y007989D02*
X014826Y007989D01*
X015080Y008227D02*
X015826Y008227D01*
X015835Y008704D02*
X015557Y008704D01*
X015318Y008466D02*
X018275Y008466D01*
X018275Y008704D02*
X017632Y008704D01*
X017695Y008943D02*
X018275Y008943D01*
X018275Y009181D02*
X017687Y009181D01*
X016962Y009420D02*
X016392Y009420D01*
X016630Y009181D02*
X016723Y009181D01*
X016715Y008943D02*
X016655Y008943D01*
X016575Y008704D02*
X016778Y008704D01*
X016826Y008227D02*
X016584Y008227D01*
X016655Y007989D02*
X016755Y007989D01*
X016789Y007750D02*
X016621Y007750D01*
X016538Y007273D02*
X016872Y007273D01*
X016755Y007035D02*
X016655Y007035D01*
X016655Y006796D02*
X016663Y006796D01*
X016922Y006319D02*
X018275Y006319D01*
X018275Y006081D02*
X014473Y006081D01*
X014500Y006319D02*
X015113Y006319D01*
X014875Y006558D02*
X014500Y006558D01*
X014499Y006796D02*
X014636Y006796D01*
X014241Y005842D02*
X018275Y005842D01*
X018275Y005604D02*
X011525Y005604D01*
X011590Y005365D02*
X018275Y005365D01*
X018275Y005127D02*
X011542Y005127D01*
X011309Y004888D02*
X012615Y004888D01*
X012565Y004839D02*
X012500Y004681D01*
X012500Y004509D01*
X012565Y004351D01*
X012686Y004230D01*
X012844Y004165D01*
X013016Y004165D01*
X013174Y004230D01*
X013295Y004351D01*
X013299Y004362D01*
X013535Y004125D01*
X013730Y004125D01*
X013925Y004125D01*
X014200Y004400D01*
X014200Y004595D01*
X014200Y004790D01*
X013925Y005065D01*
X013730Y005065D01*
X013730Y004595D01*
X014200Y004595D01*
X013730Y004595D01*
X013730Y004595D01*
X013730Y004595D01*
X013730Y004125D01*
X013730Y004595D01*
X013730Y004595D01*
X013730Y005065D01*
X013535Y005065D01*
X013299Y004828D01*
X013295Y004839D01*
X013174Y004960D01*
X013016Y005025D01*
X012844Y005025D01*
X012686Y004960D01*
X012565Y004839D01*
X012500Y004650D02*
X011170Y004650D01*
X011239Y004411D02*
X012541Y004411D01*
X012826Y004173D02*
X011310Y004173D01*
X011310Y003934D02*
X018275Y003934D01*
X018275Y003696D02*
X011310Y003696D01*
X011310Y003457D02*
X018275Y003457D01*
X018275Y003219D02*
X011182Y003219D01*
X011150Y002980D02*
X018275Y002980D01*
X018275Y002742D02*
X010957Y002742D01*
X010814Y002406D02*
X010814Y001595D01*
X010814Y002406D01*
X010814Y002265D02*
X010814Y002265D01*
X010814Y002026D02*
X010814Y002026D01*
X010814Y001788D02*
X010814Y001788D01*
X010814Y001595D02*
X010814Y001595D01*
X011330Y001595D01*
X010814Y001595D01*
X010814Y001595D01*
X011330Y001549D02*
X016533Y001549D01*
X016480Y001676D02*
X016609Y001364D01*
X016849Y001124D01*
X017161Y000995D01*
X017499Y000995D01*
X017811Y001124D01*
X018051Y001364D01*
X018180Y001676D01*
X018180Y002014D01*
X018051Y002326D01*
X017811Y002566D01*
X017499Y002695D01*
X017161Y002695D01*
X016849Y002566D01*
X016609Y002326D01*
X016480Y002014D01*
X016480Y001676D01*
X016480Y001788D02*
X011330Y001788D01*
X011312Y002026D02*
X016485Y002026D01*
X016584Y002265D02*
X011169Y002265D01*
X010460Y002265D02*
X010128Y002265D01*
X010288Y002026D02*
X010317Y002026D01*
X009532Y002265D02*
X009186Y002265D01*
X009304Y002026D02*
X009372Y002026D01*
X009355Y001788D02*
X009321Y001788D01*
X009321Y001549D02*
X009355Y001549D01*
X009355Y001311D02*
X009321Y001311D01*
X009266Y001072D02*
X009410Y001072D01*
X008581Y000895D02*
X006379Y000895D01*
X006417Y000970D01*
X006447Y001062D01*
X006462Y001157D01*
X006462Y001205D01*
X005455Y001205D01*
X004448Y001205D01*
X004448Y001157D01*
X004463Y001062D01*
X004493Y000970D01*
X004531Y000895D01*
X001630Y000895D01*
X001630Y018316D01*
X001867Y018080D01*
X002080Y018080D01*
X002293Y018080D01*
X002595Y018382D01*
X002595Y018595D01*
X002595Y018808D01*
X002293Y019110D01*
X002222Y019110D01*
X002274Y019127D01*
X002345Y019163D01*
X002409Y019210D01*
X002465Y019266D01*
X002512Y019330D01*
X002548Y019401D01*
X002573Y019477D01*
X002585Y019555D01*
X002585Y019595D01*
X002585Y019635D01*
X002573Y019713D01*
X002548Y019789D01*
X002512Y019860D01*
X002465Y019924D01*
X002409Y019980D01*
X002345Y020027D01*
X002274Y020063D01*
X002198Y020088D01*
X002120Y020100D01*
X002080Y020100D01*
X002080Y019595D01*
X002080Y019595D01*
X002585Y019595D01*
X002080Y019595D01*
X002080Y019595D01*
X002080Y019595D01*
X001630Y019595D01*
X001630Y019595D01*
X002080Y019595D01*
X002080Y018595D01*
X002080Y018595D01*
X002595Y018595D01*
X002080Y018595D01*
X002080Y018595D01*
X002080Y019090D01*
X002080Y019595D01*
X002080Y019595D01*
X002080Y020100D01*
X002040Y020100D01*
X001962Y020088D01*
X001886Y020063D01*
X001815Y020027D01*
X001751Y019980D01*
X001695Y019924D01*
X001648Y019860D01*
X001630Y019824D01*
X001630Y025466D01*
X001686Y025332D01*
X001817Y025201D01*
X001820Y025199D01*
X001820Y023543D01*
X001860Y023448D01*
X004160Y021147D01*
X004160Y020921D01*
X004406Y020675D01*
X004632Y020675D01*
X005110Y020198D01*
X005183Y020125D01*
X005278Y020085D01*
X006882Y020085D01*
X006977Y020125D01*
X007080Y020227D01*
X007183Y020125D01*
X007278Y020085D01*
X008320Y020085D01*
X008320Y019999D01*
X008172Y020060D01*
X007988Y020060D01*
X007817Y019989D01*
X007686Y019858D01*
X007615Y019687D01*
X007615Y019503D01*
X007686Y019332D01*
X007817Y019201D01*
X007820Y019199D01*
X007820Y019007D01*
X007605Y018792D01*
X007605Y018398D01*
X007883Y018120D01*
X007972Y018120D01*
X007842Y018066D01*
X007724Y017948D01*
X007660Y017794D01*
X007660Y017146D01*
X007724Y016992D01*
X007842Y016874D01*
X007996Y016810D01*
X008164Y016810D01*
X008318Y016874D01*
X008320Y016876D01*
X008320Y016554D01*
X008318Y016556D01*
X008164Y016620D01*
X007996Y016620D01*
X007842Y016556D01*
X007724Y016438D01*
X007660Y016284D01*
X007660Y015636D01*
X007724Y015482D01*
X007842Y015364D01*
X007996Y015300D01*
X008164Y015300D01*
X008318Y015364D01*
X008320Y015366D01*
X008320Y014543D01*
X008360Y014448D01*
X008433Y014375D01*
X009110Y013698D01*
X009183Y013625D01*
X009278Y013585D01*
X010222Y013585D01*
X010570Y013237D01*
X010570Y012930D01*
X010448Y012930D01*
X010436Y012958D01*
X010318Y013076D01*
X010164Y013140D01*
X009996Y013140D01*
X009842Y013076D01*
X009724Y012958D01*
X009660Y012804D01*
X009660Y012156D01*
X009724Y012002D01*
X009746Y011980D01*
X009438Y011980D01*
X009426Y011992D01*
X009436Y012002D01*
X009500Y012156D01*
X009500Y012804D01*
X009436Y012958D01*
X009318Y013076D01*
X009164Y013140D01*
X008996Y013140D01*
X008842Y013076D01*
X008746Y012980D01*
X008414Y012980D01*
X008340Y013054D01*
X008340Y013147D01*
X008300Y013242D01*
X008050Y013492D01*
X007977Y013565D01*
X007882Y013605D01*
X004778Y013605D01*
X004683Y013565D01*
X004433Y013315D01*
X004360Y013242D01*
X004320Y013147D01*
X004320Y013054D01*
X004246Y012980D01*
X003914Y012980D01*
X003818Y013076D01*
X003664Y013140D01*
X003496Y013140D01*
X003342Y013076D01*
X003340Y013074D01*
X003340Y015366D01*
X003342Y015364D01*
X003496Y015300D01*
X003664Y015300D01*
X003818Y015364D01*
X003936Y015482D01*
X004000Y015636D01*
X004000Y016284D01*
X003936Y016438D01*
X003818Y016556D01*
X003664Y016620D01*
X003598Y016620D01*
X004660Y017682D01*
X004660Y017146D01*
X004724Y016992D01*
X004842Y016874D01*
X004996Y016810D01*
X005164Y016810D01*
X005318Y016874D01*
X005436Y016992D01*
X005500Y017146D01*
X005500Y017794D01*
X005436Y017948D01*
X005318Y018066D01*
X005188Y018120D01*
X005277Y018120D01*
X005555Y018398D01*
X005555Y018792D01*
X005340Y019007D01*
X005340Y019199D01*
X005343Y019201D01*
X005474Y019332D01*
X005545Y019503D01*
X005545Y019687D01*
X005474Y019858D01*
X005343Y019989D01*
X005172Y020060D01*
X004988Y020060D01*
X004840Y019999D01*
X004840Y020147D01*
X004800Y020242D01*
X004727Y020315D01*
X002438Y022605D01*
X002438Y022848D01*
X002333Y022953D01*
X001827Y022953D01*
X001722Y022848D01*
X001722Y022342D01*
X001827Y022237D01*
X002070Y022237D01*
X002752Y021555D01*
X002580Y021555D01*
X002580Y021095D01*
X003040Y021095D01*
X003040Y021267D01*
X004300Y020007D01*
X004172Y020060D01*
X003988Y020060D01*
X003817Y019989D01*
X003686Y019858D01*
X003615Y019687D01*
X003615Y019503D01*
X003686Y019332D01*
X003817Y019201D01*
X003820Y019199D01*
X003820Y019007D01*
X003605Y018792D01*
X003605Y018398D01*
X003883Y018120D01*
X004277Y018120D01*
X004320Y018163D01*
X004320Y018078D01*
X002933Y016690D01*
X002860Y016617D01*
X002829Y016545D01*
X002818Y016556D01*
X002664Y016620D01*
X002496Y016620D01*
X002342Y016556D01*
X002224Y016438D01*
X002160Y016284D01*
X002160Y015636D01*
X002224Y015482D01*
X002342Y015364D01*
X002496Y015300D01*
X002664Y015300D01*
X002818Y015364D01*
X002820Y015366D01*
X002820Y013074D01*
X002818Y013076D01*
X002664Y013140D01*
X002496Y013140D01*
X002342Y013076D01*
X002224Y012958D01*
X002160Y012804D01*
X002160Y012156D01*
X002224Y012002D01*
X002342Y011884D01*
X002496Y011820D01*
X002664Y011820D01*
X002818Y011884D01*
X002820Y011886D01*
X002820Y011793D01*
X002860Y011698D01*
X004597Y009960D01*
X004597Y009818D01*
X004507Y009855D01*
X003278Y009855D01*
X003183Y009815D01*
X002787Y009420D01*
X002519Y009420D01*
X002255Y009156D01*
X002255Y008784D01*
X002519Y008520D01*
X002891Y008520D01*
X003155Y008784D01*
X003155Y009052D01*
X003255Y009152D01*
X003255Y008784D01*
X003519Y008520D01*
X003891Y008520D01*
X004081Y008710D01*
X004347Y008710D01*
X005104Y007953D01*
X004702Y007953D01*
X004597Y007848D01*
X004597Y007342D01*
X004702Y007237D01*
X005208Y007237D01*
X005306Y007335D01*
X005544Y007335D01*
X005370Y007161D01*
X005370Y006970D01*
X005830Y006970D01*
X006290Y006970D01*
X006290Y007161D01*
X006116Y007335D01*
X009077Y007335D01*
X008860Y007117D01*
X008836Y007060D01*
X008724Y006948D01*
X008660Y006794D01*
X008660Y006146D01*
X008724Y005992D01*
X008842Y005874D01*
X008996Y005810D01*
X009164Y005810D01*
X009318Y005874D01*
X009436Y005992D01*
X009500Y006146D01*
X009500Y006794D01*
X009436Y006948D01*
X009431Y006953D01*
X009438Y006960D01*
X009693Y006960D01*
X009687Y006951D01*
X009654Y006887D01*
X009631Y006818D01*
X009620Y006746D01*
X009620Y006470D01*
X010080Y006470D01*
X010540Y006470D01*
X010540Y006746D01*
X010529Y006818D01*
X010506Y006887D01*
X010473Y006951D01*
X010467Y006960D01*
X010693Y006960D01*
X010687Y006951D01*
X010654Y006887D01*
X010631Y006818D01*
X010620Y006746D01*
X010620Y006470D01*
X011080Y006470D01*
X011540Y006470D01*
X011080Y006470D01*
X011080Y006470D01*
X011080Y006470D01*
X010620Y006470D01*
X010620Y006194D01*
X010631Y006122D01*
X010654Y006053D01*
X010687Y005989D01*
X010729Y005930D01*
X010780Y005879D01*
X010839Y005837D01*
X010882Y005815D01*
X010791Y005777D01*
X010648Y005634D01*
X010570Y005446D01*
X010570Y005316D01*
X010542Y005288D01*
X010490Y005163D01*
X010490Y004484D01*
X010423Y004417D01*
X010350Y004240D01*
X010350Y003450D01*
X010423Y003273D01*
X010475Y003221D01*
X010439Y003185D01*
X010205Y003185D01*
X010227Y003206D01*
X010275Y003272D01*
X010312Y003345D01*
X010337Y003423D01*
X010350Y003504D01*
X010350Y003845D01*
X010350Y004186D01*
X010337Y004267D01*
X010312Y004345D01*
X010275Y004418D01*
X010227Y004484D01*
X010169Y004542D01*
X010103Y004590D01*
X010030Y004627D01*
X009952Y004652D01*
X009871Y004665D01*
X009830Y004665D01*
X009830Y003845D01*
X009830Y003845D01*
X010350Y003845D01*
X009830Y003845D01*
X009830Y003845D01*
X009830Y003845D01*
X009310Y003845D01*
X009310Y004186D01*
X009323Y004267D01*
X009348Y004345D01*
X009385Y004418D01*
X009433Y004484D01*
X009491Y004542D01*
X009557Y004590D01*
X009630Y004627D01*
X009708Y004652D01*
X009789Y004665D01*
X009830Y004665D01*
X009830Y003845D01*
X009310Y003845D01*
X009310Y003504D01*
X009323Y003423D01*
X009348Y003345D01*
X009385Y003272D01*
X009433Y003206D01*
X009455Y003185D01*
X009149Y003185D01*
X009237Y003273D01*
X009310Y003450D01*
X009310Y004240D01*
X009237Y004417D01*
X009102Y004552D01*
X008925Y004625D01*
X008735Y004625D01*
X008558Y004552D01*
X008423Y004417D01*
X008350Y004240D01*
X008350Y003450D01*
X008423Y003273D01*
X008558Y003138D01*
X008735Y003065D01*
X008925Y003065D01*
X008957Y003078D01*
X008653Y002774D01*
X008558Y002678D01*
X008506Y002553D01*
X008506Y002222D01*
X008443Y002159D01*
X008370Y001985D01*
X008370Y001205D01*
X008443Y001031D01*
X008577Y000897D01*
X008581Y000895D01*
X008426Y001072D02*
X006449Y001072D01*
X006462Y001205D02*
X006462Y001254D01*
X006447Y001349D01*
X006417Y001441D01*
X006374Y001527D01*
X006317Y001605D01*
X006248Y001673D01*
X006170Y001730D01*
X006084Y001774D01*
X005992Y001804D01*
X005897Y001819D01*
X005455Y001819D01*
X005013Y001819D01*
X004918Y001804D01*
X004826Y001774D01*
X004740Y001730D01*
X004661Y001673D01*
X004593Y001605D01*
X004536Y001527D01*
X004493Y001441D01*
X004463Y001349D01*
X004448Y001254D01*
X004448Y001205D01*
X005455Y001205D01*
X005455Y001205D01*
X005455Y001205D01*
X006462Y001205D01*
X006453Y001311D02*
X008370Y001311D01*
X008370Y001549D02*
X006358Y001549D01*
X006043Y001788D02*
X008370Y001788D01*
X008388Y002026D02*
X001630Y002026D01*
X001630Y001788D02*
X004867Y001788D01*
X004552Y001549D02*
X001630Y001549D01*
X001630Y001311D02*
X004457Y001311D01*
X004461Y001072D02*
X001630Y001072D01*
X001630Y002265D02*
X003899Y002265D01*
X003949Y002215D02*
X004160Y002128D01*
X004388Y002128D01*
X004599Y002215D01*
X004760Y002376D01*
X004848Y002587D01*
X004848Y003603D01*
X004760Y003814D01*
X004599Y003975D01*
X004388Y004062D01*
X004160Y004062D01*
X003949Y003975D01*
X003788Y003814D01*
X003700Y003603D01*
X003700Y002587D01*
X003788Y002376D01*
X003949Y002215D01*
X003735Y002503D02*
X001630Y002503D01*
X001630Y002742D02*
X003700Y002742D01*
X003700Y002980D02*
X001630Y002980D01*
X001630Y003219D02*
X003700Y003219D01*
X003700Y003457D02*
X001630Y003457D01*
X001630Y003696D02*
X003739Y003696D01*
X003908Y003934D02*
X001630Y003934D01*
X001630Y004173D02*
X006335Y004173D01*
X006335Y003960D02*
X006189Y003814D01*
X006102Y003603D01*
X006102Y002587D01*
X006189Y002376D01*
X006350Y002215D01*
X006561Y002128D01*
X006790Y002128D01*
X007000Y002215D01*
X007162Y002376D01*
X007249Y002587D01*
X007249Y003603D01*
X007162Y003814D01*
X007015Y003960D01*
X007015Y004800D01*
X007051Y004835D01*
X007181Y004835D01*
X007369Y004913D01*
X007512Y005056D01*
X007590Y005244D01*
X007590Y005446D01*
X007512Y005634D01*
X007369Y005777D01*
X007227Y005836D01*
X007318Y005874D01*
X007436Y005992D01*
X007500Y006146D01*
X007500Y006794D01*
X007436Y006948D01*
X007318Y007066D01*
X007164Y007130D01*
X006996Y007130D01*
X006842Y007066D01*
X006724Y006948D01*
X006660Y006794D01*
X006660Y006146D01*
X006724Y005992D01*
X006842Y005874D01*
X006933Y005836D01*
X006791Y005777D01*
X006648Y005634D01*
X006570Y005446D01*
X006570Y005316D01*
X006387Y005133D01*
X006335Y005008D01*
X006335Y003960D01*
X006309Y003934D02*
X004640Y003934D01*
X004809Y003696D02*
X006140Y003696D01*
X006102Y003457D02*
X004848Y003457D01*
X004848Y003219D02*
X006102Y003219D01*
X006102Y002980D02*
X004848Y002980D01*
X004848Y002742D02*
X006102Y002742D01*
X006137Y002503D02*
X004813Y002503D01*
X004648Y002265D02*
X006301Y002265D01*
X007050Y002265D02*
X008506Y002265D01*
X008506Y002503D02*
X007214Y002503D01*
X007249Y002742D02*
X008621Y002742D01*
X008859Y002980D02*
X007249Y002980D01*
X007249Y003219D02*
X008478Y003219D01*
X008350Y003457D02*
X007249Y003457D01*
X007211Y003696D02*
X008350Y003696D01*
X008350Y003934D02*
X007042Y003934D01*
X007015Y004173D02*
X008350Y004173D01*
X008421Y004411D02*
X007015Y004411D01*
X007015Y004650D02*
X009700Y004650D01*
X009830Y004650D02*
X009830Y004650D01*
X009960Y004650D02*
X010490Y004650D01*
X010490Y004888D02*
X007309Y004888D01*
X007542Y005127D02*
X010490Y005127D01*
X010570Y005365D02*
X007590Y005365D01*
X007525Y005604D02*
X010635Y005604D01*
X010831Y005842D02*
X010329Y005842D01*
X010321Y005837D02*
X010380Y005879D01*
X010431Y005930D01*
X010473Y005989D01*
X010506Y006053D01*
X010529Y006122D01*
X010540Y006194D01*
X010540Y006470D01*
X010080Y006470D01*
X010080Y006470D01*
X010080Y005770D01*
X010116Y005770D01*
X010188Y005781D01*
X010257Y005804D01*
X010321Y005837D01*
X010080Y005842D02*
X010080Y005842D01*
X010080Y005770D02*
X010080Y006470D01*
X010080Y006470D01*
X010080Y006470D01*
X009620Y006470D01*
X009620Y006194D01*
X009631Y006122D01*
X009654Y006053D01*
X009687Y005989D01*
X009729Y005930D01*
X009780Y005879D01*
X009839Y005837D01*
X009903Y005804D01*
X009972Y005781D01*
X010044Y005770D01*
X010080Y005770D01*
X009831Y005842D02*
X009241Y005842D01*
X008919Y005842D02*
X008241Y005842D01*
X008318Y005874D02*
X008436Y005992D01*
X008500Y006146D01*
X008500Y006794D01*
X008436Y006948D01*
X008318Y007066D01*
X008164Y007130D01*
X007996Y007130D01*
X007842Y007066D01*
X007724Y006948D01*
X007660Y006794D01*
X007660Y006146D01*
X007724Y005992D01*
X007842Y005874D01*
X007996Y005810D01*
X008164Y005810D01*
X008318Y005874D01*
X008473Y006081D02*
X008687Y006081D01*
X008660Y006319D02*
X008500Y006319D01*
X008500Y006558D02*
X008660Y006558D01*
X008661Y006796D02*
X008499Y006796D01*
X008349Y007035D02*
X008811Y007035D01*
X009015Y007273D02*
X006178Y007273D01*
X006290Y007035D02*
X006811Y007035D01*
X006661Y006796D02*
X006290Y006796D01*
X006290Y006779D02*
X006290Y006970D01*
X005830Y006970D01*
X005830Y006970D01*
X005830Y006510D01*
X006021Y006510D01*
X006290Y006779D01*
X006068Y006558D02*
X006660Y006558D01*
X006660Y006319D02*
X001630Y006319D01*
X001630Y006081D02*
X006687Y006081D01*
X006919Y005842D02*
X001630Y005842D01*
X001630Y005604D02*
X006635Y005604D01*
X006570Y005365D02*
X001630Y005365D01*
X001630Y005127D02*
X006385Y005127D01*
X006335Y004888D02*
X001630Y004888D01*
X001630Y004650D02*
X006335Y004650D01*
X006335Y004411D02*
X001630Y004411D01*
X001630Y006558D02*
X002425Y006558D01*
X002502Y006480D02*
X002215Y006767D01*
X002215Y006970D01*
X002705Y006970D01*
X002705Y006970D01*
X002705Y007460D01*
X002908Y007460D01*
X003195Y007173D01*
X003195Y006970D01*
X002705Y006970D01*
X002705Y006970D01*
X002705Y006970D01*
X002705Y007460D01*
X002502Y007460D01*
X002215Y007173D01*
X002215Y006970D01*
X002705Y006970D01*
X003195Y006970D01*
X003195Y006767D01*
X002908Y006480D01*
X002705Y006480D01*
X002705Y006970D01*
X002705Y006970D01*
X002705Y006480D01*
X002502Y006480D01*
X002705Y006558D02*
X002705Y006558D01*
X002705Y006796D02*
X002705Y006796D01*
X002705Y007035D02*
X002705Y007035D01*
X002705Y007273D02*
X002705Y007273D01*
X002519Y007520D02*
X002891Y007520D01*
X003155Y007784D01*
X003155Y008156D01*
X002891Y008420D01*
X002519Y008420D01*
X002255Y008156D01*
X002255Y007784D01*
X002519Y007520D01*
X002315Y007273D02*
X001630Y007273D01*
X001630Y007035D02*
X002215Y007035D01*
X002215Y006796D02*
X001630Y006796D01*
X001630Y007512D02*
X004597Y007512D01*
X004597Y007750D02*
X004121Y007750D01*
X004155Y007784D02*
X003891Y007520D01*
X003519Y007520D01*
X003255Y007784D01*
X003255Y008156D01*
X003519Y008420D01*
X003891Y008420D01*
X004155Y008156D01*
X004155Y007784D01*
X004155Y007989D02*
X005069Y007989D01*
X004830Y008227D02*
X004084Y008227D01*
X004075Y008704D02*
X004353Y008704D01*
X004592Y008466D02*
X001630Y008466D01*
X001630Y008704D02*
X002335Y008704D01*
X002255Y008943D02*
X001630Y008943D01*
X001630Y009181D02*
X002280Y009181D01*
X002518Y009420D02*
X001630Y009420D01*
X001630Y009658D02*
X003025Y009658D01*
X003155Y008943D02*
X003255Y008943D01*
X003335Y008704D02*
X003075Y008704D01*
X003084Y008227D02*
X003326Y008227D01*
X003255Y007989D02*
X003155Y007989D01*
X003121Y007750D02*
X003289Y007750D01*
X003519Y007420D02*
X003255Y007156D01*
X003255Y006784D01*
X003519Y006520D01*
X003891Y006520D01*
X004155Y006784D01*
X004155Y007156D01*
X003891Y007420D01*
X003519Y007420D01*
X003372Y007273D02*
X003095Y007273D01*
X003195Y007035D02*
X003255Y007035D01*
X003255Y006796D02*
X003195Y006796D01*
X002985Y006558D02*
X003481Y006558D01*
X003929Y006558D02*
X005592Y006558D01*
X005639Y006510D02*
X005370Y006779D01*
X005370Y006970D01*
X005830Y006970D01*
X005830Y006970D01*
X005830Y006970D01*
X005830Y006510D01*
X005639Y006510D01*
X005830Y006558D02*
X005830Y006558D01*
X005830Y006796D02*
X005830Y006796D01*
X005482Y007273D02*
X005244Y007273D01*
X005370Y007035D02*
X004155Y007035D01*
X004155Y006796D02*
X005370Y006796D01*
X004666Y007273D02*
X004038Y007273D01*
X002289Y007750D02*
X001630Y007750D01*
X001630Y007989D02*
X002255Y007989D01*
X002326Y008227D02*
X001630Y008227D01*
X001630Y009897D02*
X004597Y009897D01*
X004422Y010135D02*
X001630Y010135D01*
X001630Y010374D02*
X004184Y010374D01*
X003945Y010612D02*
X001630Y010612D01*
X001630Y010851D02*
X003707Y010851D01*
X003468Y011089D02*
X001630Y011089D01*
X001630Y011328D02*
X003230Y011328D01*
X002991Y011566D02*
X001630Y011566D01*
X001630Y011805D02*
X002820Y011805D01*
X002207Y012043D02*
X001630Y012043D01*
X001630Y012282D02*
X002160Y012282D01*
X002160Y012520D02*
X001630Y012520D01*
X001630Y012759D02*
X002160Y012759D01*
X002263Y012997D02*
X001630Y012997D01*
X001630Y013236D02*
X002820Y013236D01*
X002820Y013474D02*
X001630Y013474D01*
X001630Y013713D02*
X002820Y013713D01*
X002820Y013951D02*
X001630Y013951D01*
X001630Y014190D02*
X002820Y014190D01*
X002820Y014428D02*
X001630Y014428D01*
X001630Y014667D02*
X002820Y014667D01*
X002820Y014905D02*
X001630Y014905D01*
X001630Y015144D02*
X002820Y015144D01*
X003340Y015144D02*
X008320Y015144D01*
X008320Y014905D02*
X003340Y014905D01*
X003340Y014667D02*
X008320Y014667D01*
X008379Y014428D02*
X003340Y014428D01*
X003340Y014190D02*
X008618Y014190D01*
X008856Y013951D02*
X003340Y013951D01*
X003340Y013713D02*
X009095Y013713D01*
X009353Y014190D02*
X018275Y014190D01*
X018275Y014428D02*
X009115Y014428D01*
X008876Y014667D02*
X018275Y014667D01*
X018275Y014905D02*
X008840Y014905D01*
X008840Y015144D02*
X010749Y015144D01*
X010909Y015023D02*
X010450Y015367D01*
X010433Y015375D01*
X010409Y015398D01*
X010383Y015418D01*
X010379Y015425D01*
X010318Y015364D01*
X010164Y015300D01*
X009996Y015300D01*
X009842Y015364D01*
X009724Y015482D01*
X009660Y015636D01*
X009660Y016284D01*
X009724Y016438D01*
X009842Y016556D01*
X009996Y016620D01*
X010164Y016620D01*
X010318Y016556D01*
X010320Y016554D01*
X010320Y016876D01*
X010318Y016874D01*
X010164Y016810D01*
X009996Y016810D01*
X009842Y016874D01*
X009724Y016992D01*
X009660Y017146D01*
X009660Y017794D01*
X009724Y017948D01*
X009842Y018066D01*
X009972Y018120D01*
X009883Y018120D01*
X009605Y018398D01*
X009605Y018792D01*
X009820Y019007D01*
X009820Y019199D01*
X009817Y019201D01*
X009686Y019332D01*
X009615Y019503D01*
X009615Y019687D01*
X009686Y019858D01*
X009817Y019989D01*
X009988Y020060D01*
X010172Y020060D01*
X010343Y019989D01*
X010474Y019858D01*
X010545Y019687D01*
X010545Y019503D01*
X010474Y019332D01*
X010343Y019201D01*
X010340Y019199D01*
X010340Y019007D01*
X010555Y018792D01*
X010555Y018487D01*
X010605Y018438D01*
X010605Y018792D01*
X010820Y019007D01*
X010820Y019199D01*
X010817Y019201D01*
X010686Y019332D01*
X010615Y019503D01*
X010615Y019687D01*
X010686Y019858D01*
X010817Y019989D01*
X010988Y020060D01*
X011172Y020060D01*
X011343Y019989D01*
X011474Y019858D01*
X011545Y019687D01*
X011545Y019503D01*
X011474Y019332D01*
X011343Y019201D01*
X011340Y019199D01*
X011340Y019007D01*
X011555Y018792D01*
X011555Y018398D01*
X011277Y018120D01*
X011188Y018120D01*
X011318Y018066D01*
X011436Y017948D01*
X011500Y017794D01*
X011500Y017146D01*
X011436Y016992D01*
X011318Y016874D01*
X011164Y016810D01*
X010996Y016810D01*
X010842Y016874D01*
X010840Y016876D01*
X010840Y015725D01*
X011167Y015480D01*
X011226Y015480D01*
X011224Y015482D01*
X011160Y015636D01*
X011160Y016284D01*
X011224Y016438D01*
X011342Y016556D01*
X011496Y016620D01*
X011664Y016620D01*
X011818Y016556D01*
X011936Y016438D01*
X012000Y016284D01*
X012000Y015636D01*
X011936Y015482D01*
X011934Y015480D01*
X012226Y015480D01*
X012224Y015482D01*
X012160Y015636D01*
X012160Y016284D01*
X012224Y016438D01*
X012342Y016556D01*
X012496Y016620D01*
X012664Y016620D01*
X012818Y016556D01*
X012936Y016438D01*
X013000Y016284D01*
X013000Y015636D01*
X012936Y015482D01*
X012934Y015480D01*
X013226Y015480D01*
X013224Y015482D01*
X013160Y015636D01*
X013160Y016284D01*
X013224Y016438D01*
X013342Y016556D01*
X013496Y016620D01*
X013664Y016620D01*
X013818Y016556D01*
X013936Y016438D01*
X014000Y016284D01*
X014000Y015636D01*
X013936Y015482D01*
X013934Y015480D01*
X014222Y015480D01*
X014224Y015482D01*
X014224Y015482D01*
X014160Y015636D01*
X014160Y016284D01*
X014224Y016438D01*
X014342Y016556D01*
X014496Y016620D01*
X014664Y016620D01*
X014818Y016556D01*
X014936Y016438D01*
X015000Y016284D01*
X015000Y015636D01*
X014936Y015482D01*
X014818Y015364D01*
X014817Y015364D01*
X014800Y015323D01*
X014550Y015073D01*
X014477Y015000D01*
X014382Y014960D01*
X011098Y014960D01*
X011066Y014955D01*
X011047Y014960D01*
X011028Y014960D01*
X010998Y014973D01*
X010965Y014981D01*
X010950Y014992D01*
X010933Y015000D01*
X010909Y015023D01*
X010979Y015621D02*
X011167Y015621D01*
X011160Y015859D02*
X010840Y015859D01*
X010840Y016098D02*
X011160Y016098D01*
X011182Y016336D02*
X010840Y016336D01*
X010840Y016575D02*
X011387Y016575D01*
X011171Y016813D02*
X011989Y016813D01*
X011996Y016810D02*
X012164Y016810D01*
X012318Y016874D01*
X012436Y016992D01*
X012500Y017146D01*
X012500Y017794D01*
X012436Y017948D01*
X012318Y018066D01*
X012188Y018120D01*
X012277Y018120D01*
X012555Y018398D01*
X012555Y018792D01*
X012340Y019007D01*
X012340Y019199D01*
X012343Y019201D01*
X012474Y019332D01*
X012545Y019503D01*
X012545Y019687D01*
X012544Y019691D01*
X012668Y019815D01*
X012615Y019687D01*
X012615Y019503D01*
X012686Y019332D01*
X012817Y019201D01*
X012820Y019199D01*
X012820Y019007D01*
X012605Y018792D01*
X012605Y018398D01*
X012883Y018120D01*
X012972Y018120D01*
X012842Y018066D01*
X012724Y017948D01*
X012660Y017794D01*
X012660Y017146D01*
X012724Y016992D01*
X012842Y016874D01*
X012996Y016810D01*
X013164Y016810D01*
X013318Y016874D01*
X013436Y016992D01*
X013500Y017146D01*
X013500Y017794D01*
X013436Y017948D01*
X013318Y018066D01*
X013188Y018120D01*
X013277Y018120D01*
X013555Y018398D01*
X013555Y018792D01*
X013340Y019007D01*
X013340Y019199D01*
X013343Y019201D01*
X013474Y019332D01*
X013545Y019503D01*
X013545Y019687D01*
X013474Y019858D01*
X013373Y019960D01*
X013787Y019960D01*
X013686Y019858D01*
X013615Y019687D01*
X013615Y019503D01*
X013686Y019332D01*
X013817Y019201D01*
X013820Y019199D01*
X013820Y019007D01*
X013605Y018792D01*
X013605Y018398D01*
X013883Y018120D01*
X014277Y018120D01*
X014555Y018398D01*
X014555Y018792D01*
X014340Y019007D01*
X014340Y019199D01*
X014343Y019201D01*
X014474Y019332D01*
X014545Y019503D01*
X014545Y019687D01*
X014474Y019858D01*
X014373Y019960D01*
X014787Y019960D01*
X014686Y019858D01*
X014615Y019687D01*
X014615Y019503D01*
X014686Y019332D01*
X014817Y019201D01*
X014820Y019199D01*
X014820Y019007D01*
X014605Y018792D01*
X014605Y018398D01*
X014883Y018120D01*
X015277Y018120D01*
X015555Y018398D01*
X015555Y018792D01*
X015340Y019007D01*
X015340Y019199D01*
X015343Y019201D01*
X015474Y019332D01*
X015545Y019503D01*
X015545Y019687D01*
X015474Y019858D01*
X015373Y019960D01*
X016246Y019960D01*
X016406Y019800D01*
X016754Y019800D01*
X017000Y020046D01*
X017000Y020394D01*
X016754Y020640D01*
X016406Y020640D01*
X016246Y020480D01*
X015272Y020480D01*
X015318Y020499D01*
X015436Y020617D01*
X015500Y020771D01*
X015500Y021419D01*
X015436Y021573D01*
X015318Y021691D01*
X015164Y021755D01*
X014996Y021755D01*
X014842Y021691D01*
X014724Y021573D01*
X014660Y021419D01*
X014660Y020771D01*
X014724Y020617D01*
X014842Y020499D01*
X014888Y020480D01*
X014272Y020480D01*
X014318Y020499D01*
X014436Y020617D01*
X014500Y020771D01*
X014500Y021419D01*
X014436Y021573D01*
X014431Y021578D01*
X016050Y023198D01*
X016090Y023293D01*
X016090Y024897D01*
X016050Y024992D01*
X015977Y025065D01*
X015544Y025499D01*
X015545Y025503D01*
X015545Y025687D01*
X015474Y025858D01*
X015343Y025989D01*
X015340Y025991D01*
X015340Y026183D01*
X015555Y026398D01*
X015555Y026792D01*
X015277Y027070D01*
X014883Y027070D01*
X014605Y026792D01*
X014605Y026398D01*
X014820Y026183D01*
X014820Y025991D01*
X014817Y025989D01*
X014686Y025858D01*
X014615Y025687D01*
X014615Y025503D01*
X014686Y025332D01*
X014817Y025201D01*
X014988Y025130D01*
X015172Y025130D01*
X015176Y025131D01*
X015570Y024737D01*
X015570Y023453D01*
X013933Y021815D01*
X013860Y021742D01*
X013836Y021685D01*
X013724Y021573D01*
X013660Y021419D01*
X013660Y020771D01*
X013724Y020617D01*
X013842Y020499D01*
X013888Y020480D01*
X013272Y020480D01*
X013318Y020499D01*
X013436Y020617D01*
X013500Y020771D01*
X013500Y021419D01*
X013436Y021573D01*
X013318Y021691D01*
X013164Y021755D01*
X012996Y021755D01*
X012842Y021691D01*
X012724Y021573D01*
X012660Y021419D01*
X012660Y020771D01*
X012724Y020617D01*
X012842Y020499D01*
X012888Y020480D01*
X012653Y020480D01*
X012558Y020440D01*
X012176Y020059D01*
X012172Y020060D01*
X011988Y020060D01*
X011817Y019989D01*
X011686Y019858D01*
X011615Y019687D01*
X011615Y019503D01*
X011686Y019332D01*
X011817Y019201D01*
X011820Y019199D01*
X011820Y019007D01*
X011605Y018792D01*
X011605Y018398D01*
X011883Y018120D01*
X011972Y018120D01*
X011842Y018066D01*
X011724Y017948D01*
X011660Y017794D01*
X011660Y017146D01*
X011724Y016992D01*
X011842Y016874D01*
X011996Y016810D01*
X012171Y016813D02*
X012989Y016813D01*
X013171Y016813D02*
X014336Y016813D01*
X014389Y016760D02*
X014580Y016760D01*
X014771Y016760D01*
X015040Y017029D01*
X015040Y017220D01*
X015040Y017411D01*
X014771Y017680D01*
X014580Y017680D01*
X014580Y017220D01*
X015040Y017220D01*
X014580Y017220D01*
X014580Y017220D01*
X014580Y017220D01*
X014580Y016760D01*
X014580Y017220D01*
X014580Y017220D01*
X014580Y017220D01*
X014120Y017220D01*
X014120Y017411D01*
X014389Y017680D01*
X014580Y017680D01*
X014580Y017220D01*
X014120Y017220D01*
X014120Y017029D01*
X014389Y016760D01*
X014387Y016575D02*
X013773Y016575D01*
X013978Y016336D02*
X014182Y016336D01*
X014160Y016098D02*
X014000Y016098D01*
X014000Y015859D02*
X014160Y015859D01*
X014167Y015621D02*
X013993Y015621D01*
X013387Y016575D02*
X012773Y016575D01*
X012978Y016336D02*
X013182Y016336D01*
X013160Y016098D02*
X013000Y016098D01*
X013000Y015859D02*
X013160Y015859D01*
X013167Y015621D02*
X012993Y015621D01*
X012387Y016575D02*
X011773Y016575D01*
X011978Y016336D02*
X012182Y016336D01*
X012160Y016098D02*
X012000Y016098D01*
X012000Y015859D02*
X012160Y015859D01*
X012167Y015621D02*
X011993Y015621D01*
X011699Y017052D02*
X011461Y017052D01*
X011500Y017290D02*
X011660Y017290D01*
X011660Y017529D02*
X011500Y017529D01*
X011500Y017767D02*
X011660Y017767D01*
X011782Y018006D02*
X011378Y018006D01*
X011401Y018244D02*
X011759Y018244D01*
X011605Y018483D02*
X011555Y018483D01*
X011555Y018721D02*
X011605Y018721D01*
X011772Y018960D02*
X011388Y018960D01*
X011340Y019198D02*
X011820Y019198D01*
X011642Y019437D02*
X011518Y019437D01*
X011545Y019675D02*
X011615Y019675D01*
X011741Y019914D02*
X011419Y019914D01*
X010950Y020868D02*
X010220Y020868D01*
X010215Y020629D02*
X012719Y020629D01*
X012660Y020868D02*
X012500Y020868D01*
X012500Y021106D02*
X012660Y021106D01*
X012660Y021345D02*
X012500Y021345D01*
X012436Y021583D02*
X012734Y021583D01*
X012674Y021822D02*
X013939Y021822D01*
X013734Y021583D02*
X013426Y021583D01*
X013500Y021345D02*
X013660Y021345D01*
X013660Y021106D02*
X013500Y021106D01*
X013500Y020868D02*
X013660Y020868D01*
X013719Y020629D02*
X013441Y020629D01*
X013419Y019914D02*
X013741Y019914D01*
X013615Y019675D02*
X013545Y019675D01*
X013518Y019437D02*
X013642Y019437D01*
X013820Y019198D02*
X013340Y019198D01*
X013388Y018960D02*
X013772Y018960D01*
X013605Y018721D02*
X013555Y018721D01*
X013555Y018483D02*
X013605Y018483D01*
X013759Y018244D02*
X013401Y018244D01*
X013378Y018006D02*
X018275Y018006D01*
X018275Y018244D02*
X015401Y018244D01*
X015555Y018483D02*
X018275Y018483D01*
X018275Y018721D02*
X015555Y018721D01*
X015388Y018960D02*
X018275Y018960D01*
X018275Y019198D02*
X015340Y019198D01*
X015518Y019437D02*
X018275Y019437D01*
X018275Y019675D02*
X015545Y019675D01*
X015419Y019914D02*
X016293Y019914D01*
X016395Y020629D02*
X015441Y020629D01*
X015500Y020868D02*
X016299Y020868D01*
X016336Y020830D02*
X016494Y020765D01*
X016666Y020765D01*
X016824Y020830D01*
X016945Y020951D01*
X017010Y021109D01*
X017010Y021281D01*
X016945Y021439D01*
X016824Y021560D01*
X016773Y021580D01*
X017010Y021817D01*
X017010Y022173D01*
X016758Y022425D01*
X016402Y022425D01*
X016150Y022173D01*
X016150Y021817D01*
X016387Y021580D01*
X016336Y021560D01*
X016215Y021439D01*
X016150Y021281D01*
X016150Y021109D01*
X016215Y020951D01*
X016336Y020830D01*
X016151Y021106D02*
X015500Y021106D01*
X015500Y021345D02*
X016177Y021345D01*
X016384Y021583D02*
X015426Y021583D01*
X014913Y022060D02*
X016150Y022060D01*
X016150Y021822D02*
X014674Y021822D01*
X014734Y021583D02*
X014436Y021583D01*
X014500Y021345D02*
X014660Y021345D01*
X014660Y021106D02*
X014500Y021106D01*
X014500Y020868D02*
X014660Y020868D01*
X014719Y020629D02*
X014441Y020629D01*
X014419Y019914D02*
X014741Y019914D01*
X014615Y019675D02*
X014545Y019675D01*
X014518Y019437D02*
X014642Y019437D01*
X014820Y019198D02*
X014340Y019198D01*
X014388Y018960D02*
X014772Y018960D01*
X014605Y018721D02*
X014555Y018721D01*
X014555Y018483D02*
X014605Y018483D01*
X014759Y018244D02*
X014401Y018244D01*
X014238Y017529D02*
X013500Y017529D01*
X013500Y017767D02*
X018275Y017767D01*
X018275Y017529D02*
X015865Y017529D01*
X015754Y017640D02*
X015406Y017640D01*
X015160Y017394D01*
X015160Y017046D01*
X015406Y016800D01*
X015754Y016800D01*
X016000Y017046D01*
X016000Y017394D01*
X015754Y017640D01*
X016000Y017290D02*
X018275Y017290D01*
X018275Y017052D02*
X016000Y017052D01*
X015767Y016813D02*
X018275Y016813D01*
X018275Y016575D02*
X016819Y016575D01*
X016754Y016640D02*
X017000Y016394D01*
X017000Y016046D01*
X016754Y015800D01*
X016406Y015800D01*
X016250Y015956D01*
X016250Y015396D01*
X016186Y015242D01*
X016068Y015124D01*
X015914Y015060D01*
X015746Y015060D01*
X015592Y015124D01*
X015474Y015242D01*
X015410Y015396D01*
X015410Y016044D01*
X015474Y016198D01*
X015592Y016316D01*
X015746Y016380D01*
X015914Y016380D01*
X016068Y016316D01*
X016160Y016224D01*
X016160Y016394D01*
X016406Y016640D01*
X016754Y016640D01*
X017000Y016336D02*
X018275Y016336D01*
X018275Y016098D02*
X017000Y016098D01*
X016813Y015859D02*
X018275Y015859D01*
X018275Y015621D02*
X016250Y015621D01*
X016250Y015859D02*
X016347Y015859D01*
X016244Y015382D02*
X018275Y015382D01*
X018275Y015144D02*
X016087Y015144D01*
X015573Y015144D02*
X014621Y015144D01*
X014836Y015382D02*
X015416Y015382D01*
X015410Y015621D02*
X014993Y015621D01*
X015000Y015859D02*
X015410Y015859D01*
X015432Y016098D02*
X015000Y016098D01*
X014978Y016336D02*
X015640Y016336D01*
X015393Y016813D02*
X014824Y016813D01*
X014773Y016575D02*
X016341Y016575D01*
X016160Y016336D02*
X016020Y016336D01*
X015160Y017052D02*
X015040Y017052D01*
X015040Y017290D02*
X015160Y017290D01*
X015295Y017529D02*
X014922Y017529D01*
X014580Y017529D02*
X014580Y017529D01*
X014580Y017290D02*
X014580Y017290D01*
X014580Y017052D02*
X014580Y017052D01*
X014580Y016813D02*
X014580Y016813D01*
X014120Y017052D02*
X013461Y017052D01*
X013500Y017290D02*
X014120Y017290D01*
X012782Y018006D02*
X012378Y018006D01*
X012401Y018244D02*
X012759Y018244D01*
X012605Y018483D02*
X012555Y018483D01*
X012555Y018721D02*
X012605Y018721D01*
X012772Y018960D02*
X012388Y018960D01*
X012340Y019198D02*
X012820Y019198D01*
X012642Y019437D02*
X012518Y019437D01*
X012545Y019675D02*
X012615Y019675D01*
X012269Y020152D02*
X009880Y020152D01*
X009741Y019914D02*
X009419Y019914D01*
X009545Y019675D02*
X009615Y019675D01*
X009642Y019437D02*
X009518Y019437D01*
X009340Y019198D02*
X009820Y019198D01*
X009772Y018960D02*
X009388Y018960D01*
X009555Y018721D02*
X009605Y018721D01*
X009605Y018483D02*
X009555Y018483D01*
X009401Y018244D02*
X009759Y018244D01*
X009782Y018006D02*
X009378Y018006D01*
X009500Y017767D02*
X009660Y017767D01*
X009660Y017529D02*
X009500Y017529D01*
X009500Y017290D02*
X009660Y017290D01*
X009699Y017052D02*
X009461Y017052D01*
X009171Y016813D02*
X009989Y016813D01*
X010171Y016813D02*
X010320Y016813D01*
X010320Y016575D02*
X010273Y016575D01*
X009887Y016575D02*
X009273Y016575D01*
X009478Y016336D02*
X009682Y016336D01*
X009660Y016098D02*
X009500Y016098D01*
X009500Y015859D02*
X009660Y015859D01*
X009667Y015621D02*
X009493Y015621D01*
X009336Y015382D02*
X009824Y015382D01*
X010336Y015382D02*
X010425Y015382D01*
X010592Y013951D02*
X018275Y013951D01*
X018275Y013713D02*
X010830Y013713D01*
X011058Y013474D02*
X018275Y013474D01*
X018275Y013236D02*
X016198Y013236D01*
X016181Y013260D02*
X016130Y013311D01*
X016071Y013353D01*
X016007Y013386D01*
X015938Y013409D01*
X015866Y013420D01*
X015830Y013420D01*
X015830Y012720D01*
X016290Y012720D01*
X016290Y012996D01*
X016279Y013068D01*
X016256Y013137D01*
X016223Y013201D01*
X016181Y013260D01*
X016290Y012997D02*
X018275Y012997D01*
X018275Y012759D02*
X016290Y012759D01*
X016290Y012720D02*
X015830Y012720D01*
X015830Y012720D01*
X015830Y012720D01*
X015830Y012020D01*
X015866Y012020D01*
X015938Y012031D01*
X016007Y012054D01*
X016071Y012087D01*
X016130Y012129D01*
X016181Y012180D01*
X016223Y012239D01*
X016256Y012303D01*
X016279Y012372D01*
X016290Y012444D01*
X016290Y012720D01*
X016290Y012520D02*
X018275Y012520D01*
X018275Y012282D02*
X016245Y012282D01*
X015974Y012043D02*
X018275Y012043D01*
X018275Y011805D02*
X012782Y011805D01*
X012842Y011566D02*
X012724Y011448D01*
X012660Y011294D01*
X012660Y010646D01*
X012724Y010492D01*
X012842Y010374D01*
X012996Y010310D01*
X013164Y010310D01*
X013318Y010374D01*
X013436Y010492D01*
X013500Y010646D01*
X013500Y011294D01*
X013436Y011448D01*
X013318Y011566D01*
X013842Y011566D01*
X013724Y011448D01*
X013660Y011294D01*
X013660Y010646D01*
X013724Y010492D01*
X013842Y010374D01*
X013996Y010310D01*
X014164Y010310D01*
X014318Y010374D01*
X014436Y010492D01*
X014500Y010646D01*
X014500Y011294D01*
X014436Y011448D01*
X014318Y011566D01*
X018275Y011566D01*
X018275Y011328D02*
X014486Y011328D01*
X014500Y011089D02*
X018275Y011089D01*
X018275Y010851D02*
X014500Y010851D01*
X014486Y010612D02*
X018275Y010612D01*
X018275Y010374D02*
X014317Y010374D01*
X013843Y010374D02*
X013317Y010374D01*
X013164Y010130D02*
X012996Y010130D01*
X012842Y010066D01*
X012724Y009948D01*
X012660Y009794D01*
X012660Y009146D01*
X012724Y008992D01*
X012842Y008874D01*
X012996Y008810D01*
X013164Y008810D01*
X013318Y008874D01*
X013436Y008992D01*
X013500Y009146D01*
X013500Y009794D01*
X013436Y009948D01*
X013318Y010066D01*
X013164Y010130D01*
X013457Y009897D02*
X013703Y009897D01*
X013660Y009658D02*
X013500Y009658D01*
X013500Y009420D02*
X013660Y009420D01*
X013660Y009181D02*
X013500Y009181D01*
X013386Y008943D02*
X013774Y008943D01*
X014386Y008943D02*
X015060Y008943D01*
X015298Y009181D02*
X014500Y009181D01*
X014500Y009420D02*
X016018Y009420D01*
X014821Y008704D02*
X012182Y008704D01*
X012386Y008943D02*
X012774Y008943D01*
X012660Y009181D02*
X012500Y009181D01*
X012500Y009420D02*
X012660Y009420D01*
X012660Y009658D02*
X012500Y009658D01*
X012457Y009897D02*
X012703Y009897D01*
X012843Y010374D02*
X012317Y010374D01*
X012486Y010612D02*
X012674Y010612D01*
X012660Y010851D02*
X012500Y010851D01*
X012500Y011089D02*
X012660Y011089D01*
X012674Y011328D02*
X012486Y011328D01*
X012544Y011566D02*
X012842Y011566D01*
X012996Y011630D01*
X013164Y011630D01*
X013318Y011566D01*
X013486Y011328D02*
X013674Y011328D01*
X013660Y011089D02*
X013500Y011089D01*
X013500Y010851D02*
X013660Y010851D01*
X013674Y010612D02*
X013486Y010612D01*
X013842Y011566D02*
X013996Y011630D01*
X014164Y011630D01*
X014318Y011566D01*
X014496Y011820D02*
X014342Y011884D01*
X014224Y012002D01*
X014160Y012156D01*
X014160Y012804D01*
X014224Y012958D01*
X014342Y013076D01*
X014496Y013140D01*
X014664Y013140D01*
X014818Y013076D01*
X014936Y012958D01*
X015000Y012804D01*
X015000Y012156D01*
X014936Y012002D01*
X014818Y011884D01*
X014664Y011820D01*
X014496Y011820D01*
X014207Y012043D02*
X013953Y012043D01*
X014000Y012282D02*
X014160Y012282D01*
X014160Y012520D02*
X014000Y012520D01*
X014000Y012759D02*
X014160Y012759D01*
X014263Y012997D02*
X013897Y012997D01*
X013263Y012997D02*
X012897Y012997D01*
X013000Y012282D02*
X013160Y012282D01*
X013207Y012043D02*
X012953Y012043D01*
X012207Y012043D02*
X011953Y012043D01*
X012000Y012282D02*
X012160Y012282D01*
X012160Y012520D02*
X012000Y012520D01*
X012000Y012759D02*
X012160Y012759D01*
X012263Y012997D02*
X011897Y012997D01*
X011263Y012997D02*
X011090Y012997D01*
X011090Y013236D02*
X015462Y013236D01*
X015479Y013260D02*
X015437Y013201D01*
X015404Y013137D01*
X015381Y013068D01*
X015370Y012996D01*
X015370Y012720D01*
X015830Y012720D01*
X015830Y012720D01*
X015830Y012720D01*
X015830Y013420D01*
X015794Y013420D01*
X015722Y013409D01*
X015653Y013386D01*
X015589Y013353D01*
X015530Y013311D01*
X015479Y013260D01*
X015370Y012997D02*
X014897Y012997D01*
X015000Y012759D02*
X015370Y012759D01*
X015370Y012720D02*
X015370Y012444D01*
X015381Y012372D01*
X015404Y012303D01*
X015437Y012239D01*
X015479Y012180D01*
X015530Y012129D01*
X015589Y012087D01*
X015653Y012054D01*
X015722Y012031D01*
X015794Y012020D01*
X015830Y012020D01*
X015830Y012720D01*
X015370Y012720D01*
X015370Y012520D02*
X015000Y012520D01*
X015000Y012282D02*
X015415Y012282D01*
X015686Y012043D02*
X014953Y012043D01*
X015830Y012043D02*
X015830Y012043D01*
X015830Y012282D02*
X015830Y012282D01*
X015830Y012520D02*
X015830Y012520D01*
X015830Y012759D02*
X015830Y012759D01*
X015830Y012997D02*
X015830Y012997D01*
X015830Y013236D02*
X015830Y013236D01*
X012699Y017052D02*
X012461Y017052D01*
X012500Y017290D02*
X012660Y017290D01*
X012660Y017529D02*
X012500Y017529D01*
X012500Y017767D02*
X012660Y017767D01*
X010989Y016813D02*
X010840Y016813D01*
X010605Y018483D02*
X010560Y018483D01*
X010555Y018721D02*
X010605Y018721D01*
X010772Y018960D02*
X010388Y018960D01*
X010340Y019198D02*
X010820Y019198D01*
X010642Y019437D02*
X010518Y019437D01*
X010545Y019675D02*
X010615Y019675D01*
X010741Y019914D02*
X010419Y019914D01*
X010118Y020391D02*
X012508Y020391D01*
X011820Y021583D02*
X011000Y021583D01*
X010947Y021822D02*
X011939Y021822D01*
X012177Y022060D02*
X007983Y022060D01*
X008221Y021822D02*
X010213Y021822D01*
X010160Y021583D02*
X009426Y021583D01*
X009500Y021345D02*
X009962Y021345D01*
X009808Y021190D02*
X009808Y021190D01*
X009730Y021106D02*
X009500Y021106D01*
X009500Y020868D02*
X009695Y020868D01*
X009621Y020629D02*
X009441Y020629D01*
X008719Y020629D02*
X008441Y020629D01*
X008500Y020868D02*
X008660Y020868D01*
X008660Y021106D02*
X008500Y021106D01*
X008500Y021345D02*
X008660Y021345D01*
X008734Y021583D02*
X008426Y021583D01*
X007729Y021578D02*
X007724Y021573D01*
X007660Y021419D01*
X007660Y020771D01*
X007724Y020617D01*
X007736Y020605D01*
X007438Y020605D01*
X007431Y020612D01*
X007436Y020617D01*
X007500Y020771D01*
X007500Y021419D01*
X007436Y021573D01*
X007318Y021691D01*
X007164Y021755D01*
X006996Y021755D01*
X006842Y021691D01*
X006724Y021573D01*
X006660Y021419D01*
X006660Y020771D01*
X006724Y020617D01*
X006729Y020612D01*
X006722Y020605D01*
X006424Y020605D01*
X006436Y020617D01*
X006500Y020771D01*
X006500Y021419D01*
X006436Y021573D01*
X006318Y021691D01*
X006164Y021755D01*
X005996Y021755D01*
X005842Y021691D01*
X005724Y021573D01*
X005660Y021419D01*
X005660Y020771D01*
X005724Y020617D01*
X005736Y020605D01*
X005438Y020605D01*
X005000Y021043D01*
X005000Y021269D01*
X004754Y021515D01*
X004528Y021515D01*
X002340Y023703D01*
X002340Y025199D01*
X002343Y025201D01*
X002474Y025332D01*
X002545Y025503D01*
X002545Y025687D01*
X002474Y025858D01*
X002343Y025989D01*
X002340Y025991D01*
X002340Y026183D01*
X002555Y026398D01*
X002555Y026792D01*
X002277Y027070D01*
X001883Y027070D01*
X001630Y026817D01*
X001630Y032166D01*
X004961Y032166D01*
X004922Y032128D01*
X004828Y031899D01*
X004828Y031651D01*
X004922Y031422D01*
X004937Y031407D01*
X004776Y031407D01*
X004547Y031313D01*
X004372Y031138D01*
X004278Y030909D01*
X004278Y030661D01*
X004372Y030432D01*
X004547Y030257D01*
X004776Y030163D01*
X005024Y030163D01*
X005253Y030257D01*
X005428Y030432D01*
X005522Y030661D01*
X005522Y030909D01*
X005428Y031138D01*
X005413Y031153D01*
X005574Y031153D01*
X005803Y031247D01*
X005978Y031422D01*
X006072Y031651D01*
X006072Y031899D01*
X005978Y032128D01*
X005939Y032166D01*
X007557Y032166D01*
X007410Y032019D01*
X007410Y031671D01*
X007656Y031425D01*
X008004Y031425D01*
X008250Y031671D01*
X008250Y032019D01*
X008103Y032166D01*
X009557Y032166D01*
X009410Y032019D01*
X009410Y031671D01*
X009656Y031425D01*
X010004Y031425D01*
X010250Y031671D01*
X010250Y032019D01*
X010103Y032166D01*
X010807Y032166D01*
X010660Y032019D01*
X010660Y031671D01*
X010906Y031425D01*
X011254Y031425D01*
X011500Y031671D01*
X011500Y032019D01*
X011353Y032166D01*
X012057Y032166D01*
X011910Y032019D01*
X011910Y031671D01*
X012156Y031425D01*
X012504Y031425D01*
X012750Y031671D01*
X012750Y032019D01*
X012603Y032166D01*
X018275Y032166D01*
X018275Y031836D01*
X018083Y031915D01*
X017077Y031915D01*
X016867Y031828D01*
X016707Y031668D01*
X016620Y031458D01*
X016620Y031232D01*
X016707Y031022D01*
X016867Y030862D01*
X017077Y030775D01*
X018083Y030775D01*
X018275Y030854D01*
X018275Y029836D01*
X018083Y029915D01*
X017077Y029915D01*
X016867Y029828D01*
X016707Y029668D01*
X016620Y029458D01*
X016620Y029232D01*
X016662Y029131D01*
X016477Y029315D01*
X016382Y029355D01*
X011028Y029355D01*
X010933Y029315D01*
X010222Y028605D01*
X008438Y028605D01*
X007057Y029985D01*
X006962Y030025D01*
X002980Y030025D01*
X002618Y030387D01*
X002102Y030387D01*
X001738Y030023D01*
X001738Y029507D01*
X002102Y029143D01*
X002618Y029143D01*
X002980Y029505D01*
X006802Y029505D01*
X008110Y028198D01*
X008183Y028125D01*
X008278Y028085D01*
X009476Y028085D01*
X009410Y028019D01*
X009410Y027671D01*
X009656Y027425D01*
X009792Y027425D01*
X009735Y027367D01*
X009360Y026992D01*
X009358Y026989D01*
X009277Y027070D01*
X008883Y027070D01*
X008605Y026792D01*
X008605Y026398D01*
X008820Y026183D01*
X008820Y025991D01*
X008817Y025989D01*
X008686Y025858D01*
X008615Y025687D01*
X008615Y025503D01*
X008686Y025332D01*
X008817Y025201D01*
X008988Y025130D01*
X009172Y025130D01*
X009300Y025183D01*
X009222Y025105D01*
X008278Y025105D01*
X008183Y025065D01*
X008110Y024992D01*
X007860Y024742D01*
X007836Y024685D01*
X007724Y024573D01*
X007660Y024419D01*
X007660Y023771D01*
X007724Y023617D01*
X007842Y023499D01*
X007996Y023435D01*
X008164Y023435D01*
X008318Y023499D01*
X008436Y023617D01*
X008500Y023771D01*
X008500Y024419D01*
X008436Y024573D01*
X008431Y024578D01*
X008438Y024585D01*
X008736Y024585D01*
X008724Y024573D01*
X008660Y024419D01*
X008660Y023771D01*
X008724Y023617D01*
X008842Y023499D01*
X008996Y023435D01*
X009164Y023435D01*
X009318Y023499D01*
X009436Y023617D01*
X009500Y023771D01*
X009500Y024419D01*
X009436Y024573D01*
X009412Y024597D01*
X009477Y024625D01*
X009727Y024875D01*
X009800Y024948D01*
X009840Y025043D01*
X009840Y025191D01*
X009988Y025130D01*
X010172Y025130D01*
X010343Y025201D01*
X010474Y025332D01*
X010545Y025503D01*
X010545Y025687D01*
X010474Y025858D01*
X010343Y025989D01*
X010340Y025991D01*
X010340Y026183D01*
X010555Y026398D01*
X010555Y026792D01*
X010387Y026960D01*
X010773Y026960D01*
X010605Y026792D01*
X010605Y026398D01*
X010820Y026183D01*
X010820Y025991D01*
X010817Y025989D01*
X010686Y025858D01*
X010615Y025687D01*
X010615Y025503D01*
X010686Y025332D01*
X010817Y025201D01*
X010988Y025130D01*
X011172Y025130D01*
X011343Y025201D01*
X011474Y025332D01*
X011545Y025503D01*
X011545Y025687D01*
X011474Y025858D01*
X011343Y025989D01*
X011340Y025991D01*
X011340Y026183D01*
X011555Y026398D01*
X011555Y026792D01*
X011387Y026960D01*
X011773Y026960D01*
X011605Y026792D01*
X011605Y026398D01*
X011820Y026183D01*
X011820Y025991D01*
X011817Y025989D01*
X011686Y025858D01*
X011615Y025687D01*
X011615Y025503D01*
X011686Y025332D01*
X011817Y025201D01*
X011988Y025130D01*
X012172Y025130D01*
X012343Y025201D01*
X012474Y025332D01*
X012545Y025503D01*
X012545Y025687D01*
X012474Y025858D01*
X012343Y025989D01*
X012340Y025991D01*
X012340Y026183D01*
X012555Y026398D01*
X012555Y026792D01*
X012387Y026960D01*
X012773Y026960D01*
X012605Y026792D01*
X012605Y026398D01*
X012820Y026183D01*
X012820Y025991D01*
X012817Y025989D01*
X012686Y025858D01*
X012615Y025687D01*
X012615Y025503D01*
X012686Y025332D01*
X012787Y025230D01*
X012778Y025230D01*
X012683Y025190D01*
X012360Y024867D01*
X012320Y024772D01*
X012320Y024689D01*
X012318Y024691D01*
X012164Y024755D01*
X011996Y024755D01*
X011842Y024691D01*
X011724Y024573D01*
X011660Y024419D01*
X011660Y023771D01*
X011724Y023617D01*
X011842Y023499D01*
X011996Y023435D01*
X012164Y023435D01*
X012318Y023499D01*
X012320Y023501D01*
X012320Y023203D01*
X012222Y023105D01*
X005438Y023105D01*
X004327Y024215D01*
X004232Y024255D01*
X003928Y024255D01*
X003758Y024425D01*
X003402Y024425D01*
X003150Y024173D01*
X003150Y023817D01*
X003387Y023580D01*
X003336Y023560D01*
X003215Y023439D01*
X003150Y023281D01*
X003150Y023109D01*
X003215Y022951D01*
X003336Y022830D01*
X003494Y022765D01*
X003642Y022765D01*
X004283Y022125D01*
X004378Y022085D01*
X007222Y022085D01*
X007729Y021578D01*
X007724Y021583D02*
X007426Y021583D01*
X007486Y021822D02*
X004221Y021822D01*
X003983Y022060D02*
X007247Y022060D01*
X007506Y022537D02*
X012654Y022537D01*
X012628Y022776D02*
X012893Y022776D01*
X012828Y023014D02*
X013131Y023014D01*
X013370Y023253D02*
X012840Y023253D01*
X013080Y023395D02*
X013080Y024095D01*
X013540Y024095D01*
X013080Y024095D01*
X013080Y024095D01*
X013080Y023395D01*
X013080Y023491D02*
X013080Y023491D01*
X013080Y023730D02*
X013080Y023730D01*
X013080Y023968D02*
X013080Y023968D01*
X013080Y024095D02*
X013080Y024095D01*
X013540Y024207D02*
X013660Y024207D01*
X013671Y024445D02*
X013528Y024445D01*
X013382Y024684D02*
X013835Y024684D01*
X013650Y024922D02*
X015385Y024922D01*
X015321Y024728D02*
X015257Y024761D01*
X015188Y024784D01*
X015116Y024795D01*
X015080Y024795D01*
X015080Y024095D01*
X015540Y024095D01*
X015540Y024371D01*
X015529Y024443D01*
X015506Y024512D01*
X015473Y024576D01*
X015431Y024635D01*
X015380Y024686D01*
X015321Y024728D01*
X015382Y024684D02*
X015570Y024684D01*
X015570Y024445D02*
X015528Y024445D01*
X015540Y024207D02*
X015570Y024207D01*
X015540Y024095D02*
X015080Y024095D01*
X015080Y024095D01*
X015080Y024095D01*
X015080Y023395D01*
X015116Y023395D01*
X015188Y023406D01*
X015257Y023429D01*
X015321Y023462D01*
X015380Y023504D01*
X015431Y023555D01*
X015473Y023614D01*
X015506Y023678D01*
X015529Y023747D01*
X015540Y023819D01*
X015540Y024095D01*
X015540Y023968D02*
X015570Y023968D01*
X015570Y023730D02*
X015523Y023730D01*
X015570Y023491D02*
X015362Y023491D01*
X015370Y023253D02*
X014105Y023253D01*
X014318Y023491D02*
X014798Y023491D01*
X014780Y023504D02*
X014839Y023462D01*
X014903Y023429D01*
X014972Y023406D01*
X015044Y023395D01*
X015080Y023395D01*
X015080Y024095D01*
X015080Y024095D01*
X015080Y024095D01*
X014620Y024095D01*
X014620Y024371D01*
X014631Y024443D01*
X014654Y024512D01*
X014687Y024576D01*
X014729Y024635D01*
X014780Y024686D01*
X014839Y024728D01*
X014903Y024761D01*
X014972Y024784D01*
X015044Y024795D01*
X015080Y024795D01*
X015080Y024095D01*
X014620Y024095D01*
X014620Y023819D01*
X014631Y023747D01*
X014654Y023678D01*
X014687Y023614D01*
X014729Y023555D01*
X014780Y023504D01*
X014637Y023730D02*
X014483Y023730D01*
X014500Y023968D02*
X014620Y023968D01*
X014620Y024207D02*
X014500Y024207D01*
X014489Y024445D02*
X014632Y024445D01*
X014778Y024684D02*
X014325Y024684D01*
X014246Y025161D02*
X014914Y025161D01*
X014658Y025399D02*
X014502Y025399D01*
X014545Y025638D02*
X014615Y025638D01*
X014703Y025876D02*
X014457Y025876D01*
X014340Y026115D02*
X014820Y026115D01*
X014650Y026353D02*
X014510Y026353D01*
X014555Y026592D02*
X014605Y026592D01*
X014643Y026830D02*
X014517Y026830D01*
X014279Y027069D02*
X014881Y027069D01*
X015279Y027069D02*
X016160Y027069D01*
X016160Y026830D02*
X015517Y026830D01*
X015555Y026592D02*
X016365Y026592D01*
X016795Y026592D02*
X018275Y026592D01*
X018275Y026830D02*
X017000Y026830D01*
X017000Y027069D02*
X018275Y027069D01*
X018275Y027307D02*
X016837Y027307D01*
X017380Y027310D02*
X017380Y027585D01*
X017380Y027310D01*
X017380Y027546D02*
X017380Y027546D01*
X017380Y027585D02*
X017380Y027585D01*
X017590Y027845D02*
X017590Y027845D01*
X017830Y027845D01*
X017590Y027845D01*
X017830Y027784D02*
X018275Y027784D01*
X018275Y027546D02*
X017830Y027546D01*
X017830Y028023D02*
X018275Y028023D01*
X018275Y028261D02*
X017806Y028261D01*
X017602Y028500D02*
X018275Y028500D01*
X018275Y028738D02*
X017817Y028738D01*
X018275Y029931D02*
X014150Y029931D01*
X014150Y029842D02*
X014150Y030848D01*
X014063Y031058D01*
X013903Y031218D01*
X013693Y031305D01*
X013467Y031305D01*
X013257Y031218D01*
X013097Y031058D01*
X013010Y030848D01*
X013010Y029842D01*
X013097Y029632D01*
X013257Y029472D01*
X013467Y029385D01*
X013693Y029385D01*
X013903Y029472D01*
X014063Y029632D01*
X014150Y029842D01*
X014088Y029692D02*
X016731Y029692D01*
X016620Y029454D02*
X013859Y029454D01*
X014150Y030169D02*
X018275Y030169D01*
X018275Y030408D02*
X014150Y030408D01*
X014150Y030646D02*
X018275Y030646D01*
X018268Y031839D02*
X018275Y031839D01*
X018275Y032077D02*
X012692Y032077D01*
X012750Y031839D02*
X016892Y031839D01*
X016679Y031600D02*
X012679Y031600D01*
X013025Y030885D02*
X005522Y030885D01*
X005516Y030646D02*
X008431Y030646D01*
X008335Y030550D02*
X008335Y030140D01*
X008625Y029850D01*
X009035Y029850D01*
X009325Y030140D01*
X009325Y030550D01*
X009035Y030840D01*
X008625Y030840D01*
X008335Y030550D01*
X008335Y030408D02*
X005403Y030408D01*
X005040Y030169D02*
X008335Y030169D01*
X008544Y029931D02*
X007112Y029931D01*
X007351Y029692D02*
X008477Y029692D01*
X008410Y029625D02*
X008335Y029443D01*
X008335Y029247D01*
X008410Y029065D01*
X008550Y028925D01*
X008732Y028850D01*
X008928Y028850D01*
X009110Y028925D01*
X009250Y029065D01*
X009325Y029247D01*
X009325Y029443D01*
X009250Y029625D01*
X009110Y029765D01*
X008928Y029840D01*
X008732Y029840D01*
X008550Y029765D01*
X008410Y029625D01*
X008339Y029454D02*
X007589Y029454D01*
X007828Y029215D02*
X008348Y029215D01*
X008498Y028977D02*
X008066Y028977D01*
X008305Y028738D02*
X010355Y028738D01*
X010594Y028977D02*
X009162Y028977D01*
X009312Y029215D02*
X010832Y029215D01*
X009536Y027546D02*
X008124Y027546D01*
X008004Y027425D02*
X008250Y027671D01*
X008250Y028019D01*
X008004Y028265D01*
X007656Y028265D01*
X007410Y028019D01*
X007410Y027671D01*
X007656Y027425D01*
X008004Y027425D01*
X007883Y027070D02*
X007605Y026792D01*
X007605Y026398D01*
X007820Y026183D01*
X007820Y025991D01*
X007817Y025989D01*
X007686Y025858D01*
X007615Y025687D01*
X007615Y025503D01*
X007686Y025332D01*
X007817Y025201D01*
X007988Y025130D01*
X008172Y025130D01*
X008343Y025201D01*
X008474Y025332D01*
X008545Y025503D01*
X008545Y025687D01*
X008474Y025858D01*
X008343Y025989D01*
X008340Y025991D01*
X008340Y026183D01*
X008555Y026398D01*
X008555Y026792D01*
X008277Y027070D01*
X007883Y027070D01*
X007881Y027069D02*
X007279Y027069D01*
X007277Y027070D02*
X006883Y027070D01*
X006605Y026792D01*
X006605Y026398D01*
X006820Y026183D01*
X006820Y025991D01*
X006817Y025989D01*
X006686Y025858D01*
X006615Y025687D01*
X006615Y025503D01*
X006686Y025332D01*
X006817Y025201D01*
X006988Y025130D01*
X007172Y025130D01*
X007343Y025201D01*
X007474Y025332D01*
X007545Y025503D01*
X007545Y025687D01*
X007474Y025858D01*
X007343Y025989D01*
X007340Y025991D01*
X007340Y026183D01*
X007555Y026398D01*
X007555Y026792D01*
X007277Y027070D01*
X007517Y026830D02*
X007643Y026830D01*
X007605Y026592D02*
X007555Y026592D01*
X007510Y026353D02*
X007650Y026353D01*
X007820Y026115D02*
X007340Y026115D01*
X007457Y025876D02*
X007703Y025876D01*
X007615Y025638D02*
X007545Y025638D01*
X007502Y025399D02*
X007658Y025399D01*
X007914Y025161D02*
X007246Y025161D01*
X006914Y025161D02*
X006246Y025161D01*
X006172Y025130D02*
X006343Y025201D01*
X006474Y025332D01*
X006545Y025503D01*
X006545Y025687D01*
X006474Y025858D01*
X006343Y025989D01*
X006340Y025991D01*
X006340Y026183D01*
X006555Y026398D01*
X006555Y026792D01*
X006277Y027070D01*
X005883Y027070D01*
X005605Y026792D01*
X005605Y026398D01*
X005820Y026183D01*
X005820Y025991D01*
X005817Y025989D01*
X005686Y025858D01*
X005615Y025687D01*
X005615Y025503D01*
X005686Y025332D01*
X005817Y025201D01*
X005988Y025130D01*
X006172Y025130D01*
X005914Y025161D02*
X005246Y025161D01*
X005172Y025130D02*
X005343Y025201D01*
X005474Y025332D01*
X005545Y025503D01*
X005545Y025687D01*
X005474Y025858D01*
X005343Y025989D01*
X005340Y025991D01*
X005340Y026183D01*
X005555Y026398D01*
X005555Y026792D01*
X005277Y027070D01*
X004883Y027070D01*
X004605Y026792D01*
X004605Y026398D01*
X004820Y026183D01*
X004820Y025991D01*
X004817Y025989D01*
X004686Y025858D01*
X004615Y025687D01*
X004615Y025503D01*
X004686Y025332D01*
X004817Y025201D01*
X004988Y025130D01*
X005172Y025130D01*
X005502Y025399D02*
X005658Y025399D01*
X005615Y025638D02*
X005545Y025638D01*
X005457Y025876D02*
X005703Y025876D01*
X005820Y026115D02*
X005340Y026115D01*
X005510Y026353D02*
X005650Y026353D01*
X005605Y026592D02*
X005555Y026592D01*
X005517Y026830D02*
X005643Y026830D01*
X005881Y027069D02*
X005279Y027069D01*
X004881Y027069D02*
X004279Y027069D01*
X004277Y027070D02*
X003883Y027070D01*
X003605Y026792D01*
X003605Y026398D01*
X003820Y026183D01*
X003820Y025991D01*
X003817Y025989D01*
X003686Y025858D01*
X003615Y025687D01*
X003615Y025503D01*
X003686Y025332D01*
X003817Y025201D01*
X003988Y025130D01*
X004172Y025130D01*
X004343Y025201D01*
X004474Y025332D01*
X004545Y025503D01*
X004545Y025687D01*
X004474Y025858D01*
X004343Y025989D01*
X004340Y025991D01*
X004340Y026183D01*
X004555Y026398D01*
X004555Y026792D01*
X004277Y027070D01*
X004517Y026830D02*
X004643Y026830D01*
X004605Y026592D02*
X004555Y026592D01*
X004510Y026353D02*
X004650Y026353D01*
X004820Y026115D02*
X004340Y026115D01*
X004457Y025876D02*
X004703Y025876D01*
X004615Y025638D02*
X004545Y025638D01*
X004502Y025399D02*
X004658Y025399D01*
X004914Y025161D02*
X004246Y025161D01*
X003914Y025161D02*
X003340Y025161D01*
X003345Y025163D02*
X003409Y025210D01*
X003465Y025266D01*
X003512Y025330D01*
X003548Y025401D01*
X003573Y025477D01*
X003585Y025555D01*
X003585Y025595D01*
X003585Y025635D01*
X003573Y025713D01*
X003548Y025789D01*
X003512Y025860D01*
X003465Y025924D01*
X003409Y025980D01*
X003345Y026027D01*
X003274Y026063D01*
X003222Y026080D01*
X003293Y026080D01*
X003595Y026382D01*
X003595Y026595D01*
X003595Y026808D01*
X003293Y027110D01*
X003080Y027110D01*
X002867Y027110D01*
X002565Y026808D01*
X002565Y026595D01*
X002565Y026382D01*
X002867Y026080D01*
X002938Y026080D01*
X002886Y026063D01*
X002815Y026027D01*
X002751Y025980D01*
X002695Y025924D01*
X002648Y025860D01*
X002612Y025789D01*
X002587Y025713D01*
X002575Y025635D01*
X002575Y025595D01*
X003080Y025595D01*
X003585Y025595D01*
X003080Y025595D01*
X003080Y025595D01*
X003080Y025595D01*
X003080Y026080D01*
X003080Y026595D01*
X003595Y026595D01*
X003080Y026595D01*
X003080Y026595D01*
X003080Y026595D01*
X003080Y027110D01*
X003080Y026595D01*
X003080Y026595D01*
X002565Y026595D01*
X003080Y026595D01*
X003080Y026595D01*
X003080Y025595D01*
X003080Y025090D01*
X003120Y025090D01*
X003198Y025102D01*
X003274Y025127D01*
X003345Y025163D01*
X003080Y025161D02*
X003080Y025161D01*
X003080Y025090D02*
X003080Y025595D01*
X003080Y025595D01*
X003080Y025595D01*
X002575Y025595D01*
X002575Y025555D01*
X002587Y025477D01*
X002612Y025401D01*
X002648Y025330D01*
X002695Y025266D01*
X002751Y025210D01*
X002815Y025163D01*
X002886Y025127D01*
X002962Y025102D01*
X003040Y025090D01*
X003080Y025090D01*
X002820Y025161D02*
X002340Y025161D01*
X002340Y024922D02*
X008039Y024922D01*
X007835Y024684D02*
X007325Y024684D01*
X007318Y024691D02*
X007164Y024755D01*
X006996Y024755D01*
X006842Y024691D01*
X006724Y024573D01*
X006660Y024419D01*
X006660Y023771D01*
X006724Y023617D01*
X006842Y023499D01*
X006996Y023435D01*
X007164Y023435D01*
X007318Y023499D01*
X007436Y023617D01*
X007500Y023771D01*
X007500Y024419D01*
X007436Y024573D01*
X007318Y024691D01*
X007489Y024445D02*
X007671Y024445D01*
X007660Y024207D02*
X007500Y024207D01*
X007500Y023968D02*
X007660Y023968D01*
X007677Y023730D02*
X007483Y023730D01*
X007299Y023491D02*
X007861Y023491D01*
X008299Y023491D02*
X008861Y023491D01*
X008677Y023730D02*
X008483Y023730D01*
X008500Y023968D02*
X008660Y023968D01*
X008660Y024207D02*
X008500Y024207D01*
X008489Y024445D02*
X008671Y024445D01*
X008914Y025161D02*
X008246Y025161D01*
X008502Y025399D02*
X008658Y025399D01*
X008615Y025638D02*
X008545Y025638D01*
X008457Y025876D02*
X008703Y025876D01*
X008820Y026115D02*
X008340Y026115D01*
X008510Y026353D02*
X008650Y026353D01*
X008605Y026592D02*
X008555Y026592D01*
X008517Y026830D02*
X008643Y026830D01*
X008881Y027069D02*
X008279Y027069D01*
X008250Y027784D02*
X009410Y027784D01*
X009414Y028023D02*
X008246Y028023D01*
X008046Y028261D02*
X008008Y028261D01*
X007808Y028500D02*
X007096Y028500D01*
X007212Y028383D02*
X006848Y028747D01*
X006332Y028747D01*
X005968Y028383D01*
X005968Y027867D01*
X006332Y027503D01*
X006848Y027503D01*
X007212Y027867D01*
X007212Y028383D01*
X007212Y028261D02*
X007652Y028261D01*
X007414Y028023D02*
X007212Y028023D01*
X007129Y027784D02*
X007410Y027784D01*
X007536Y027546D02*
X006891Y027546D01*
X006881Y027069D02*
X006279Y027069D01*
X006517Y026830D02*
X006643Y026830D01*
X006605Y026592D02*
X006555Y026592D01*
X006510Y026353D02*
X006650Y026353D01*
X006820Y026115D02*
X006340Y026115D01*
X006457Y025876D02*
X006703Y025876D01*
X006615Y025638D02*
X006545Y025638D01*
X006502Y025399D02*
X006658Y025399D01*
X006835Y024684D02*
X006382Y024684D01*
X006380Y024686D02*
X006321Y024728D01*
X006257Y024761D01*
X006188Y024784D01*
X006116Y024795D01*
X006080Y024795D01*
X006080Y024095D01*
X006080Y024095D01*
X006540Y024095D01*
X006540Y024371D01*
X006529Y024443D01*
X006506Y024512D01*
X006473Y024576D01*
X006431Y024635D01*
X006380Y024686D01*
X006528Y024445D02*
X006671Y024445D01*
X006660Y024207D02*
X006540Y024207D01*
X006540Y024095D02*
X006080Y024095D01*
X006080Y024095D01*
X006080Y024095D01*
X005620Y024095D01*
X005620Y024371D01*
X005631Y024443D01*
X005654Y024512D01*
X005687Y024576D01*
X005729Y024635D01*
X005780Y024686D01*
X005839Y024728D01*
X005903Y024761D01*
X005972Y024784D01*
X006044Y024795D01*
X006080Y024795D01*
X006080Y024095D01*
X006080Y023395D01*
X006116Y023395D01*
X006188Y023406D01*
X006257Y023429D01*
X006321Y023462D01*
X006380Y023504D01*
X006431Y023555D01*
X006473Y023614D01*
X006506Y023678D01*
X006529Y023747D01*
X006540Y023819D01*
X006540Y024095D01*
X006540Y023968D02*
X006660Y023968D01*
X006677Y023730D02*
X006523Y023730D01*
X006362Y023491D02*
X006861Y023491D01*
X006080Y023491D02*
X006080Y023491D01*
X006080Y023395D02*
X006080Y024095D01*
X006080Y024095D01*
X005620Y024095D01*
X005620Y023819D01*
X005631Y023747D01*
X005654Y023678D01*
X005687Y023614D01*
X005729Y023555D01*
X005780Y023504D01*
X005839Y023462D01*
X005903Y023429D01*
X005972Y023406D01*
X006044Y023395D01*
X006080Y023395D01*
X006080Y023730D02*
X006080Y023730D01*
X006080Y023968D02*
X006080Y023968D01*
X006080Y024207D02*
X006080Y024207D01*
X006080Y024445D02*
X006080Y024445D01*
X006080Y024684D02*
X006080Y024684D01*
X005778Y024684D02*
X002340Y024684D01*
X002340Y024445D02*
X005632Y024445D01*
X005620Y024207D02*
X004336Y024207D01*
X004575Y023968D02*
X005620Y023968D01*
X005637Y023730D02*
X004813Y023730D01*
X005052Y023491D02*
X005798Y023491D01*
X005290Y023253D02*
X010272Y023253D01*
X010389Y023135D02*
X010120Y023404D01*
X010120Y023595D01*
X010580Y023595D01*
X010580Y023595D01*
X010580Y024055D01*
X010771Y024055D01*
X011040Y023786D01*
X011040Y023595D01*
X010580Y023595D01*
X010580Y023595D01*
X010580Y023595D01*
X010580Y024055D01*
X010389Y024055D01*
X010120Y023786D01*
X010120Y023595D01*
X010580Y023595D01*
X011040Y023595D01*
X011040Y023404D01*
X010771Y023135D01*
X010580Y023135D01*
X010580Y023595D01*
X010580Y023595D01*
X010580Y023135D01*
X010389Y023135D01*
X010580Y023253D02*
X010580Y023253D01*
X010580Y023491D02*
X010580Y023491D01*
X010580Y023730D02*
X010580Y023730D01*
X010580Y023968D02*
X010580Y023968D01*
X010858Y023968D02*
X011660Y023968D01*
X011660Y024207D02*
X009500Y024207D01*
X009489Y024445D02*
X011671Y024445D01*
X011835Y024684D02*
X009536Y024684D01*
X009775Y024922D02*
X012414Y024922D01*
X012246Y025161D02*
X012653Y025161D01*
X012658Y025399D02*
X012502Y025399D01*
X012545Y025638D02*
X012615Y025638D01*
X012703Y025876D02*
X012457Y025876D01*
X012340Y026115D02*
X012820Y026115D01*
X012650Y026353D02*
X012510Y026353D01*
X012555Y026592D02*
X012605Y026592D01*
X012643Y026830D02*
X012517Y026830D01*
X011643Y026830D02*
X011517Y026830D01*
X011555Y026592D02*
X011605Y026592D01*
X011650Y026353D02*
X011510Y026353D01*
X011340Y026115D02*
X011820Y026115D01*
X011703Y025876D02*
X011457Y025876D01*
X011545Y025638D02*
X011615Y025638D01*
X011658Y025399D02*
X011502Y025399D01*
X011246Y025161D02*
X011914Y025161D01*
X011677Y023730D02*
X011040Y023730D01*
X011040Y023491D02*
X011861Y023491D01*
X012299Y023491D02*
X012320Y023491D01*
X012320Y023253D02*
X010888Y023253D01*
X010302Y023968D02*
X009500Y023968D01*
X009483Y023730D02*
X010120Y023730D01*
X010120Y023491D02*
X009299Y023491D01*
X009246Y025161D02*
X009278Y025161D01*
X009840Y025161D02*
X009914Y025161D01*
X010246Y025161D02*
X010914Y025161D01*
X010658Y025399D02*
X010502Y025399D01*
X010545Y025638D02*
X010615Y025638D01*
X010703Y025876D02*
X010457Y025876D01*
X010340Y026115D02*
X010820Y026115D01*
X010650Y026353D02*
X010510Y026353D01*
X010555Y026592D02*
X010605Y026592D01*
X010643Y026830D02*
X010517Y026830D01*
X009674Y027307D02*
X003912Y027307D01*
X003898Y027293D02*
X004262Y027657D01*
X004262Y028173D01*
X003898Y028537D01*
X003382Y028537D01*
X003018Y028173D01*
X003018Y027657D01*
X003382Y027293D01*
X003898Y027293D01*
X003881Y027069D02*
X003335Y027069D01*
X003368Y027307D02*
X001630Y027307D01*
X001630Y027069D02*
X001881Y027069D01*
X001643Y026830D02*
X001630Y026830D01*
X001630Y027546D02*
X003129Y027546D01*
X003018Y027784D02*
X001630Y027784D01*
X001630Y028023D02*
X003018Y028023D01*
X003106Y028261D02*
X001630Y028261D01*
X001630Y028500D02*
X003344Y028500D01*
X003936Y028500D02*
X006084Y028500D01*
X005968Y028261D02*
X004174Y028261D01*
X004262Y028023D02*
X005968Y028023D01*
X006051Y027784D02*
X004262Y027784D01*
X004151Y027546D02*
X006289Y027546D01*
X006323Y028738D02*
X001630Y028738D01*
X001630Y028977D02*
X007331Y028977D01*
X007569Y028738D02*
X006857Y028738D01*
X007092Y029215D02*
X002690Y029215D01*
X002929Y029454D02*
X006854Y029454D01*
X005917Y031362D02*
X016620Y031362D01*
X016665Y031123D02*
X013998Y031123D01*
X014135Y030885D02*
X016844Y030885D01*
X016627Y029215D02*
X016578Y029215D01*
X015510Y026353D02*
X018275Y026353D01*
X018275Y026115D02*
X015340Y026115D01*
X015457Y025876D02*
X018275Y025876D01*
X018275Y025638D02*
X015545Y025638D01*
X015644Y025399D02*
X018275Y025399D01*
X018275Y025161D02*
X015882Y025161D01*
X016080Y024922D02*
X018275Y024922D01*
X018275Y024684D02*
X016090Y024684D01*
X016090Y024445D02*
X018275Y024445D01*
X018275Y024207D02*
X016090Y024207D01*
X016090Y023968D02*
X018275Y023968D01*
X018275Y023730D02*
X016090Y023730D01*
X016090Y023491D02*
X018275Y023491D01*
X018275Y023253D02*
X016891Y023253D01*
X017000Y023144D02*
X016754Y023390D01*
X016406Y023390D01*
X016160Y023144D01*
X016160Y022796D01*
X016406Y022550D01*
X016754Y022550D01*
X017000Y022796D01*
X017000Y023144D01*
X017000Y023014D02*
X018275Y023014D01*
X018275Y022776D02*
X016979Y022776D01*
X016885Y022299D02*
X018275Y022299D01*
X018275Y022537D02*
X015390Y022537D01*
X015628Y022776D02*
X016181Y022776D01*
X016160Y023014D02*
X015867Y023014D01*
X016073Y023253D02*
X016269Y023253D01*
X016275Y022299D02*
X015151Y022299D01*
X014893Y022776D02*
X013628Y022776D01*
X013867Y023014D02*
X015131Y023014D01*
X015080Y023491D02*
X015080Y023491D01*
X015080Y023730D02*
X015080Y023730D01*
X015080Y023968D02*
X015080Y023968D01*
X015080Y024207D02*
X015080Y024207D01*
X015080Y024445D02*
X015080Y024445D01*
X015080Y024684D02*
X015080Y024684D01*
X013914Y025161D02*
X013837Y025161D01*
X013660Y023968D02*
X013540Y023968D01*
X013523Y023730D02*
X013677Y023730D01*
X013608Y023491D02*
X013362Y023491D01*
X013390Y022537D02*
X014654Y022537D01*
X014416Y022299D02*
X013151Y022299D01*
X012913Y022060D02*
X014177Y022060D01*
X012416Y022299D02*
X007744Y022299D01*
X007660Y021345D02*
X007500Y021345D01*
X007500Y021106D02*
X007660Y021106D01*
X007660Y020868D02*
X007500Y020868D01*
X007441Y020629D02*
X007719Y020629D01*
X007155Y020152D02*
X007005Y020152D01*
X006988Y020060D02*
X006817Y019989D01*
X006686Y019858D01*
X006615Y019687D01*
X006615Y019503D01*
X006686Y019332D01*
X006817Y019201D01*
X006820Y019199D01*
X006820Y019007D01*
X006605Y018792D01*
X006605Y018398D01*
X006883Y018120D01*
X006972Y018120D01*
X006842Y018066D01*
X006724Y017948D01*
X006660Y017794D01*
X006660Y017146D01*
X006724Y016992D01*
X006842Y016874D01*
X006996Y016810D01*
X007164Y016810D01*
X007318Y016874D01*
X007436Y016992D01*
X007500Y017146D01*
X007500Y017794D01*
X007436Y017948D01*
X007318Y018066D01*
X007188Y018120D01*
X007277Y018120D01*
X007555Y018398D01*
X007555Y018792D01*
X007340Y019007D01*
X007340Y019199D01*
X007343Y019201D01*
X007474Y019332D01*
X007545Y019503D01*
X007545Y019687D01*
X007474Y019858D01*
X007343Y019989D01*
X007172Y020060D01*
X006988Y020060D01*
X006741Y019914D02*
X006419Y019914D01*
X006474Y019858D02*
X006343Y019989D01*
X006172Y020060D01*
X005988Y020060D01*
X005817Y019989D01*
X005686Y019858D01*
X005615Y019687D01*
X005615Y019503D01*
X005686Y019332D01*
X005817Y019201D01*
X005820Y019199D01*
X005820Y019007D01*
X005605Y018792D01*
X005605Y018398D01*
X005883Y018120D01*
X005972Y018120D01*
X005842Y018066D01*
X005724Y017948D01*
X005660Y017794D01*
X005660Y017146D01*
X005724Y016992D01*
X005842Y016874D01*
X005996Y016810D01*
X006164Y016810D01*
X006318Y016874D01*
X006436Y016992D01*
X006500Y017146D01*
X006500Y017794D01*
X006436Y017948D01*
X006318Y018066D01*
X006188Y018120D01*
X006277Y018120D01*
X006555Y018398D01*
X006555Y018792D01*
X006340Y019007D01*
X006340Y019199D01*
X006343Y019201D01*
X006474Y019332D01*
X006545Y019503D01*
X006545Y019687D01*
X006474Y019858D01*
X006545Y019675D02*
X006615Y019675D01*
X006642Y019437D02*
X006518Y019437D01*
X006340Y019198D02*
X006820Y019198D01*
X006772Y018960D02*
X006388Y018960D01*
X006555Y018721D02*
X006605Y018721D01*
X006605Y018483D02*
X006555Y018483D01*
X006401Y018244D02*
X006759Y018244D01*
X006782Y018006D02*
X006378Y018006D01*
X006500Y017767D02*
X006660Y017767D01*
X006660Y017529D02*
X006500Y017529D01*
X006500Y017290D02*
X006660Y017290D01*
X006699Y017052D02*
X006461Y017052D01*
X006171Y016813D02*
X006989Y016813D01*
X007171Y016813D02*
X007989Y016813D01*
X008171Y016813D02*
X008320Y016813D01*
X008320Y016575D02*
X008273Y016575D01*
X007887Y016575D02*
X007273Y016575D01*
X007318Y016556D02*
X007164Y016620D01*
X006996Y016620D01*
X006842Y016556D01*
X006724Y016438D01*
X006660Y016284D01*
X006660Y015636D01*
X006724Y015482D01*
X006842Y015364D01*
X006996Y015300D01*
X007164Y015300D01*
X007318Y015364D01*
X007436Y015482D01*
X007500Y015636D01*
X007500Y016284D01*
X007436Y016438D01*
X007318Y016556D01*
X007478Y016336D02*
X007682Y016336D01*
X007660Y016098D02*
X007500Y016098D01*
X007500Y015859D02*
X007660Y015859D01*
X007667Y015621D02*
X007493Y015621D01*
X007336Y015382D02*
X007824Y015382D01*
X006824Y015382D02*
X005836Y015382D01*
X005818Y015364D02*
X005936Y015482D01*
X006000Y015636D01*
X006000Y016284D01*
X005936Y016438D01*
X005818Y016556D01*
X005664Y016620D01*
X005496Y016620D01*
X005342Y016556D01*
X005224Y016438D01*
X005160Y016284D01*
X005160Y015636D01*
X005224Y015482D01*
X005342Y015364D01*
X005496Y015300D01*
X005664Y015300D01*
X005818Y015364D01*
X005993Y015621D02*
X006667Y015621D01*
X006660Y015859D02*
X006000Y015859D01*
X006000Y016098D02*
X006660Y016098D01*
X006682Y016336D02*
X005978Y016336D01*
X005773Y016575D02*
X006887Y016575D01*
X007461Y017052D02*
X007699Y017052D01*
X007660Y017290D02*
X007500Y017290D01*
X007500Y017529D02*
X007660Y017529D01*
X007660Y017767D02*
X007500Y017767D01*
X007378Y018006D02*
X007782Y018006D01*
X007759Y018244D02*
X007401Y018244D01*
X007555Y018483D02*
X007605Y018483D01*
X007605Y018721D02*
X007555Y018721D01*
X007388Y018960D02*
X007772Y018960D01*
X007820Y019198D02*
X007340Y019198D01*
X007518Y019437D02*
X007642Y019437D01*
X007615Y019675D02*
X007545Y019675D01*
X007419Y019914D02*
X007741Y019914D01*
X006719Y020629D02*
X006441Y020629D01*
X006500Y020868D02*
X006660Y020868D01*
X006660Y021106D02*
X006500Y021106D01*
X006500Y021345D02*
X006660Y021345D01*
X006734Y021583D02*
X006426Y021583D01*
X005734Y021583D02*
X004460Y021583D01*
X004924Y021345D02*
X005660Y021345D01*
X005660Y021106D02*
X005000Y021106D01*
X005175Y020868D02*
X005660Y020868D01*
X005719Y020629D02*
X005414Y020629D01*
X005155Y020152D02*
X004838Y020152D01*
X004917Y020391D02*
X004652Y020391D01*
X004678Y020629D02*
X004414Y020629D01*
X004214Y020868D02*
X004175Y020868D01*
X004160Y021106D02*
X003937Y021106D01*
X003963Y021345D02*
X003698Y021345D01*
X003724Y021583D02*
X003460Y021583D01*
X003486Y021822D02*
X003221Y021822D01*
X003247Y022060D02*
X002983Y022060D01*
X003009Y022299D02*
X002744Y022299D01*
X002770Y022537D02*
X002506Y022537D01*
X002532Y022776D02*
X002438Y022776D01*
X002293Y023014D02*
X001630Y023014D01*
X001630Y022776D02*
X001722Y022776D01*
X001722Y022537D02*
X001630Y022537D01*
X001630Y022299D02*
X001766Y022299D01*
X001630Y022060D02*
X002247Y022060D01*
X002486Y021822D02*
X001630Y021822D01*
X001630Y021583D02*
X002724Y021583D01*
X002580Y021555D02*
X002389Y021555D01*
X002120Y021286D01*
X002120Y021095D01*
X002580Y021095D01*
X002580Y021095D01*
X002580Y021095D01*
X003040Y021095D01*
X003040Y020904D01*
X002771Y020635D01*
X002580Y020635D01*
X002580Y021095D01*
X002580Y021095D01*
X002580Y021095D01*
X002580Y021555D01*
X002580Y021345D02*
X002580Y021345D01*
X002580Y021106D02*
X002580Y021106D01*
X002580Y021095D02*
X002120Y021095D01*
X002120Y020904D01*
X002389Y020635D01*
X002580Y020635D01*
X002580Y021095D01*
X002580Y020868D02*
X002580Y020868D01*
X002157Y020868D02*
X001630Y020868D01*
X001630Y021106D02*
X002120Y021106D01*
X002179Y021345D02*
X001630Y021345D01*
X001630Y020629D02*
X003678Y020629D01*
X003917Y020391D02*
X001630Y020391D01*
X001630Y020152D02*
X004155Y020152D01*
X003741Y019914D02*
X003419Y019914D01*
X003474Y019858D02*
X003343Y019989D01*
X003172Y020060D01*
X002988Y020060D01*
X002817Y019989D01*
X002686Y019858D01*
X002615Y019687D01*
X002615Y019503D01*
X002686Y019332D01*
X002817Y019201D01*
X002820Y019199D01*
X002820Y019007D01*
X002605Y018792D01*
X002605Y018398D01*
X002883Y018120D01*
X003277Y018120D01*
X003555Y018398D01*
X003555Y018792D01*
X003340Y019007D01*
X003340Y019199D01*
X003343Y019201D01*
X003474Y019332D01*
X003545Y019503D01*
X003545Y019687D01*
X003474Y019858D01*
X003545Y019675D02*
X003615Y019675D01*
X003642Y019437D02*
X003518Y019437D01*
X003340Y019198D02*
X003820Y019198D01*
X003772Y018960D02*
X003388Y018960D01*
X003555Y018721D02*
X003605Y018721D01*
X003605Y018483D02*
X003555Y018483D01*
X003401Y018244D02*
X003759Y018244D01*
X004009Y017767D02*
X001630Y017767D01*
X001630Y017529D02*
X003771Y017529D01*
X003532Y017290D02*
X001630Y017290D01*
X001630Y017052D02*
X003294Y017052D01*
X003055Y016813D02*
X001630Y016813D01*
X001630Y016575D02*
X002387Y016575D01*
X002182Y016336D02*
X001630Y016336D01*
X001630Y016098D02*
X002160Y016098D01*
X002160Y015859D02*
X001630Y015859D01*
X001630Y015621D02*
X002167Y015621D01*
X002324Y015382D02*
X001630Y015382D01*
X002773Y016575D02*
X002842Y016575D01*
X003773Y016575D02*
X004387Y016575D01*
X004342Y016556D02*
X004224Y016438D01*
X004160Y016284D01*
X004160Y015636D01*
X004224Y015482D01*
X004342Y015364D01*
X004496Y015300D01*
X004664Y015300D01*
X004818Y015364D01*
X004936Y015482D01*
X005000Y015636D01*
X005000Y016284D01*
X004936Y016438D01*
X004818Y016556D01*
X004664Y016620D01*
X004496Y016620D01*
X004342Y016556D01*
X004182Y016336D02*
X003978Y016336D01*
X004000Y016098D02*
X004160Y016098D01*
X004160Y015859D02*
X004000Y015859D01*
X003993Y015621D02*
X004167Y015621D01*
X004324Y015382D02*
X003836Y015382D01*
X003791Y016813D02*
X004989Y016813D01*
X005171Y016813D02*
X005989Y016813D01*
X005699Y017052D02*
X005461Y017052D01*
X005500Y017290D02*
X005660Y017290D01*
X005660Y017529D02*
X005500Y017529D01*
X005500Y017767D02*
X005660Y017767D01*
X005782Y018006D02*
X005378Y018006D01*
X005401Y018244D02*
X005759Y018244D01*
X005605Y018483D02*
X005555Y018483D01*
X005555Y018721D02*
X005605Y018721D01*
X005772Y018960D02*
X005388Y018960D01*
X005340Y019198D02*
X005820Y019198D01*
X005642Y019437D02*
X005518Y019437D01*
X005545Y019675D02*
X005615Y019675D01*
X005741Y019914D02*
X005419Y019914D01*
X004248Y018006D02*
X001630Y018006D01*
X001630Y018244D02*
X001702Y018244D01*
X002080Y018244D02*
X002080Y018244D01*
X002080Y018080D02*
X002080Y018595D01*
X002080Y018595D01*
X002080Y018080D01*
X002080Y018483D02*
X002080Y018483D01*
X002080Y018721D02*
X002080Y018721D01*
X002080Y018960D02*
X002080Y018960D01*
X002080Y019198D02*
X002080Y019198D01*
X002080Y019437D02*
X002080Y019437D01*
X002080Y019675D02*
X002080Y019675D01*
X002080Y019914D02*
X002080Y019914D01*
X001687Y019914D02*
X001630Y019914D01*
X002473Y019914D02*
X002741Y019914D01*
X002615Y019675D02*
X002579Y019675D01*
X002559Y019437D02*
X002642Y019437D01*
X002820Y019198D02*
X002393Y019198D01*
X002444Y018960D02*
X002772Y018960D01*
X002605Y018721D02*
X002595Y018721D01*
X002595Y018483D02*
X002605Y018483D01*
X002458Y018244D02*
X002759Y018244D01*
X004029Y017052D02*
X004699Y017052D01*
X004660Y017290D02*
X004268Y017290D01*
X004506Y017529D02*
X004660Y017529D01*
X004773Y016575D02*
X005387Y016575D01*
X005182Y016336D02*
X004978Y016336D01*
X005000Y016098D02*
X005160Y016098D01*
X005160Y015859D02*
X005000Y015859D01*
X004993Y015621D02*
X005167Y015621D01*
X005324Y015382D02*
X004836Y015382D01*
X004591Y013474D02*
X003340Y013474D01*
X003340Y013236D02*
X004357Y013236D01*
X004263Y012997D02*
X003897Y012997D01*
X006409Y009181D02*
X006660Y009181D01*
X006774Y008943D02*
X006250Y008943D01*
X006158Y008704D02*
X008446Y008704D01*
X008386Y008943D02*
X008685Y008943D01*
X008660Y009181D02*
X008500Y009181D01*
X008500Y009420D02*
X008660Y009420D01*
X008660Y009658D02*
X008500Y009658D01*
X008457Y009897D02*
X008703Y009897D01*
X008843Y010374D02*
X008317Y010374D01*
X008486Y010612D02*
X008674Y010612D01*
X008660Y010851D02*
X008500Y010851D01*
X008500Y011089D02*
X008660Y011089D01*
X008674Y011328D02*
X008486Y011328D01*
X008318Y011566D02*
X008164Y011630D01*
X008108Y011630D01*
X008300Y011823D01*
X008331Y011897D01*
X008436Y012002D01*
X008500Y012156D01*
X008500Y012460D01*
X008660Y012460D01*
X008660Y012156D01*
X008724Y012002D01*
X008829Y011897D01*
X008860Y011823D01*
X009052Y011630D01*
X008996Y011630D01*
X008842Y011566D01*
X008878Y011805D02*
X008282Y011805D01*
X008453Y012043D02*
X008707Y012043D01*
X008660Y012282D02*
X008500Y012282D01*
X008397Y012997D02*
X008763Y012997D01*
X008303Y013236D02*
X010570Y013236D01*
X010570Y012997D02*
X010397Y012997D01*
X010333Y013474D02*
X008069Y013474D01*
X009397Y012997D02*
X009763Y012997D01*
X009660Y012759D02*
X009500Y012759D01*
X009500Y012520D02*
X009660Y012520D01*
X009660Y012282D02*
X009500Y012282D01*
X009453Y012043D02*
X009707Y012043D01*
X009674Y011328D02*
X009486Y011328D01*
X009500Y011089D02*
X009660Y011089D01*
X009660Y010851D02*
X009500Y010851D01*
X009486Y010612D02*
X009674Y010612D01*
X009843Y010374D02*
X009317Y010374D01*
X009457Y009897D02*
X009659Y009897D01*
X009620Y009658D02*
X009500Y009658D01*
X009500Y009420D02*
X009620Y009420D01*
X009622Y009181D02*
X009500Y009181D01*
X009438Y008943D02*
X009386Y008943D01*
X009196Y008704D02*
X009182Y008704D01*
X008958Y008466D02*
X008943Y008466D01*
X009489Y007512D02*
X011504Y007512D01*
X011603Y007750D02*
X011742Y007750D01*
X012001Y007273D02*
X012015Y007273D01*
X011811Y007035D02*
X011762Y007035D01*
X011661Y006796D02*
X011532Y006796D01*
X011540Y006558D02*
X011660Y006558D01*
X011660Y006319D02*
X011540Y006319D01*
X011515Y006081D02*
X011687Y006081D01*
X011919Y005842D02*
X011329Y005842D01*
X010645Y006081D02*
X010515Y006081D01*
X010540Y006319D02*
X010620Y006319D01*
X010620Y006558D02*
X010540Y006558D01*
X010532Y006796D02*
X010628Y006796D01*
X010080Y006319D02*
X010080Y006319D01*
X010080Y006081D02*
X010080Y006081D01*
X009645Y006081D02*
X009473Y006081D01*
X009500Y006319D02*
X009620Y006319D01*
X009620Y006558D02*
X009500Y006558D01*
X009499Y006796D02*
X009628Y006796D01*
X009830Y004411D02*
X009830Y004411D01*
X009830Y004173D02*
X009830Y004173D01*
X009830Y003934D02*
X009830Y003934D01*
X009310Y003934D02*
X009310Y003934D01*
X009310Y003696D02*
X009310Y003696D01*
X009310Y003457D02*
X009317Y003457D01*
X009424Y003219D02*
X009182Y003219D01*
X009344Y002503D02*
X016786Y002503D01*
X016663Y001311D02*
X011330Y001311D01*
X011277Y001072D02*
X016975Y001072D01*
X017685Y001072D02*
X018275Y001072D01*
X018275Y001311D02*
X017997Y001311D01*
X018127Y001549D02*
X018275Y001549D01*
X018275Y001788D02*
X018180Y001788D01*
X018175Y002026D02*
X018275Y002026D01*
X018275Y002265D02*
X018076Y002265D01*
X018275Y002503D02*
X017874Y002503D01*
X018275Y004173D02*
X013972Y004173D01*
X013730Y004173D02*
X013730Y004173D01*
X013730Y004411D02*
X013730Y004411D01*
X013730Y004650D02*
X013730Y004650D01*
X013730Y004888D02*
X013730Y004888D01*
X013358Y004888D02*
X013245Y004888D01*
X013034Y004173D02*
X013488Y004173D01*
X014200Y004411D02*
X018275Y004411D01*
X018275Y004650D02*
X014200Y004650D01*
X014102Y004888D02*
X018275Y004888D01*
X018275Y006558D02*
X017429Y006558D01*
X017655Y006796D02*
X018275Y006796D01*
X018275Y007035D02*
X017655Y007035D01*
X017538Y007273D02*
X018275Y007273D01*
X015872Y007273D02*
X015645Y007273D01*
X013919Y005842D02*
X013241Y005842D01*
X013473Y006081D02*
X013687Y006081D01*
X013660Y006319D02*
X013500Y006319D01*
X013500Y006558D02*
X013660Y006558D01*
X013661Y006796D02*
X013499Y006796D01*
X012919Y005842D02*
X012241Y005842D01*
X012473Y006081D02*
X012687Y006081D01*
X012660Y006319D02*
X012500Y006319D01*
X012500Y006558D02*
X012660Y006558D01*
X012661Y006796D02*
X012499Y006796D01*
X011660Y009181D02*
X011538Y009181D01*
X011540Y009420D02*
X011660Y009420D01*
X011660Y009658D02*
X011540Y009658D01*
X011501Y009897D02*
X011703Y009897D01*
X011843Y010374D02*
X011317Y010374D01*
X011486Y010612D02*
X011674Y010612D01*
X011660Y010851D02*
X011500Y010851D01*
X011500Y011089D02*
X011660Y011089D01*
X011674Y011328D02*
X011486Y011328D01*
X011080Y009897D02*
X011080Y009897D01*
X011080Y009658D02*
X011080Y009658D01*
X010620Y009658D02*
X010540Y009658D01*
X010540Y009420D02*
X010620Y009420D01*
X010622Y009181D02*
X010538Y009181D01*
X010080Y009658D02*
X010080Y009658D01*
X010080Y009897D02*
X010080Y009897D01*
X010080Y010135D02*
X010080Y010135D01*
X009901Y010135D02*
X007840Y010135D01*
X007840Y010374D02*
X007843Y010374D01*
X007660Y009658D02*
X007636Y009658D01*
X007660Y009420D02*
X007500Y009420D01*
X007500Y009181D02*
X007660Y009181D01*
X007774Y008943D02*
X007386Y008943D01*
X007349Y007035D02*
X007811Y007035D01*
X007661Y006796D02*
X007499Y006796D01*
X007500Y006558D02*
X007660Y006558D01*
X007660Y006319D02*
X007500Y006319D01*
X007473Y006081D02*
X007687Y006081D01*
X007919Y005842D02*
X007241Y005842D01*
X009239Y004411D02*
X009382Y004411D01*
X009310Y004173D02*
X009310Y004173D01*
X010278Y004411D02*
X010421Y004411D01*
X010350Y004173D02*
X010350Y004173D01*
X010350Y003934D02*
X010350Y003934D01*
X010350Y003696D02*
X010350Y003696D01*
X010343Y003457D02*
X010350Y003457D01*
X010236Y003219D02*
X010473Y003219D01*
X010501Y009897D02*
X010659Y009897D01*
X008887Y016575D02*
X008840Y016575D01*
X008840Y016813D02*
X008989Y016813D01*
X010459Y021106D02*
X010701Y021106D01*
X009436Y027069D02*
X009279Y027069D01*
X009321Y029454D02*
X013301Y029454D01*
X013072Y029692D02*
X009183Y029692D01*
X009116Y029931D02*
X013010Y029931D01*
X013010Y030169D02*
X009325Y030169D01*
X009325Y030408D02*
X013010Y030408D01*
X013010Y030646D02*
X009229Y030646D01*
X009481Y031600D02*
X008179Y031600D01*
X008250Y031839D02*
X009410Y031839D01*
X009468Y032077D02*
X008192Y032077D01*
X007468Y032077D02*
X005999Y032077D01*
X006072Y031839D02*
X007410Y031839D01*
X007481Y031600D02*
X006051Y031600D01*
X005434Y031123D02*
X013162Y031123D01*
X011981Y031600D02*
X011429Y031600D01*
X011500Y031839D02*
X011910Y031839D01*
X011968Y032077D02*
X011442Y032077D01*
X010718Y032077D02*
X010192Y032077D01*
X010250Y031839D02*
X010660Y031839D01*
X010731Y031600D02*
X010179Y031600D01*
X004901Y032077D02*
X001630Y032077D01*
X001630Y031839D02*
X004828Y031839D01*
X004849Y031600D02*
X001630Y031600D01*
X001630Y031362D02*
X004665Y031362D01*
X004366Y031123D02*
X001630Y031123D01*
X001630Y030885D02*
X004278Y030885D01*
X004284Y030646D02*
X001630Y030646D01*
X001630Y030408D02*
X004397Y030408D01*
X004760Y030169D02*
X002836Y030169D01*
X002030Y029215D02*
X001630Y029215D01*
X001630Y029454D02*
X001791Y029454D01*
X001738Y029692D02*
X001630Y029692D01*
X001630Y029931D02*
X001738Y029931D01*
X001630Y030169D02*
X001884Y030169D01*
X002279Y027069D02*
X002825Y027069D01*
X003080Y027069D02*
X003080Y027069D01*
X003080Y026830D02*
X003080Y026830D01*
X003080Y026592D02*
X003080Y026592D01*
X003080Y026353D02*
X003080Y026353D01*
X003080Y026115D02*
X003080Y026115D01*
X003080Y025876D02*
X003080Y025876D01*
X003080Y025638D02*
X003080Y025638D01*
X003080Y025399D02*
X003080Y025399D01*
X003547Y025399D02*
X003658Y025399D01*
X003615Y025638D02*
X003585Y025638D01*
X003500Y025876D02*
X003703Y025876D01*
X003820Y026115D02*
X003328Y026115D01*
X003567Y026353D02*
X003650Y026353D01*
X003605Y026592D02*
X003595Y026592D01*
X003574Y026830D02*
X003643Y026830D01*
X002832Y026115D02*
X002340Y026115D01*
X002457Y025876D02*
X002660Y025876D01*
X002575Y025638D02*
X002545Y025638D01*
X002502Y025399D02*
X002613Y025399D01*
X002593Y026353D02*
X002510Y026353D01*
X002555Y026592D02*
X002565Y026592D01*
X002586Y026830D02*
X002517Y026830D01*
X001658Y025399D02*
X001630Y025399D01*
X001630Y025161D02*
X001820Y025161D01*
X001820Y024922D02*
X001630Y024922D01*
X001630Y024684D02*
X001820Y024684D01*
X001820Y024445D02*
X001630Y024445D01*
X001630Y024207D02*
X001820Y024207D01*
X001820Y023968D02*
X001630Y023968D01*
X001630Y023730D02*
X001820Y023730D01*
X001842Y023491D02*
X001630Y023491D01*
X001630Y023253D02*
X002055Y023253D01*
X002340Y023730D02*
X003237Y023730D01*
X003268Y023491D02*
X002552Y023491D01*
X002790Y023253D02*
X003150Y023253D01*
X003190Y023014D02*
X003029Y023014D01*
X003267Y022776D02*
X003469Y022776D01*
X003506Y022537D02*
X003870Y022537D01*
X003744Y022299D02*
X004109Y022299D01*
X003201Y021106D02*
X003040Y021106D01*
X003003Y020868D02*
X003440Y020868D01*
X003150Y023968D02*
X002340Y023968D01*
X002340Y024207D02*
X003183Y024207D01*
X016776Y021583D02*
X018275Y021583D01*
X018275Y021345D02*
X016983Y021345D01*
X017009Y021106D02*
X018275Y021106D01*
X018275Y020868D02*
X016861Y020868D01*
X016765Y020629D02*
X018275Y020629D01*
X018275Y020391D02*
X017000Y020391D01*
X017000Y020152D02*
X018275Y020152D01*
X018275Y019914D02*
X016867Y019914D01*
X017010Y021822D02*
X018275Y021822D01*
X018275Y022060D02*
X017010Y022060D01*
X005455Y001819D02*
X005455Y001205D01*
X005455Y001819D01*
X005455Y001788D02*
X005455Y001788D01*
X005455Y001549D02*
X005455Y001549D01*
X005455Y001311D02*
X005455Y001311D01*
X005455Y001205D02*
X005455Y001205D01*
D32*
X004955Y007595D03*
X004955Y009970D03*
X002080Y022595D03*
D33*
X007080Y005345D02*
X006675Y004940D01*
X006675Y003095D01*
X008846Y002486D02*
X008846Y001595D01*
X008846Y002486D02*
X009205Y002845D01*
X010580Y002845D01*
X010830Y003095D01*
X010830Y003845D01*
X010830Y005095D01*
X011080Y005345D01*
M02*
