G75*
%MOIN*%
%OFA0B0*%
%FSLAX24Y24*%
%IPPOS*%
%LPD*%
%AMOC8*
5,1,8,0,0,1.08239X$1,22.5*
%
%ADD10C,0.0160*%
%ADD11C,0.0000*%
%ADD12OC8,0.0480*%
%ADD13OC8,0.0885*%
%ADD14C,0.0885*%
%ADD15C,0.0480*%
%ADD16OC8,0.0630*%
%ADD17C,0.0630*%
%ADD18OC8,0.0500*%
%ADD19C,0.0500*%
%ADD20C,0.0780*%
%ADD21R,0.0480X0.0480*%
%ADD22C,0.0570*%
%ADD23C,0.0787*%
%ADD24C,0.0600*%
%ADD25OC8,0.0540*%
%ADD26C,0.0591*%
%ADD27C,0.0660*%
%ADD28OC8,0.0591*%
%ADD29C,0.0240*%
%ADD30R,0.0356X0.0356*%
%ADD31C,0.0320*%
D10*
X001330Y000595D02*
X001330Y032466D01*
X018575Y032466D01*
X018575Y000595D01*
X001330Y000595D01*
X003705Y006970D02*
X004330Y006970D01*
X004955Y007595D01*
X004955Y009970D01*
X005830Y008970D02*
X005830Y007970D01*
X006455Y007345D01*
X006455Y004720D01*
X007330Y003845D01*
X008830Y003845D01*
X008080Y006470D02*
X008080Y007720D01*
X007580Y008220D01*
X007580Y009970D01*
X007080Y010470D01*
X007080Y010970D01*
X007080Y011220D01*
X006455Y011845D01*
X006455Y012220D01*
X005955Y012720D01*
X005580Y012720D01*
X006080Y010970D02*
X006080Y010470D01*
X006455Y010095D01*
X006455Y008345D01*
X007080Y007720D01*
X007080Y006470D01*
X008080Y009470D02*
X008080Y009970D01*
X008330Y010220D01*
X008830Y010220D01*
X009080Y010470D01*
X009080Y010970D01*
X009080Y011220D01*
X008580Y011720D01*
X007455Y011720D01*
X007080Y012095D01*
X007080Y012720D01*
X006080Y010970D02*
X003080Y010970D01*
X002580Y011470D01*
X002580Y012720D01*
X002580Y015720D02*
X002580Y016470D01*
X003955Y017845D01*
X004330Y017845D01*
X005080Y018595D01*
X005580Y018095D02*
X006080Y018595D01*
X006580Y018095D02*
X007080Y018595D01*
X006580Y018095D02*
X006580Y015845D01*
X006705Y015720D01*
X007080Y015720D01*
X007580Y015470D02*
X007580Y018095D01*
X008080Y018595D01*
X008080Y017470D02*
X008080Y015720D01*
X007830Y015220D02*
X007580Y015470D01*
X007830Y015220D02*
X009830Y015220D01*
X010080Y015470D01*
X010080Y015720D01*
X009830Y016720D02*
X009580Y016970D01*
X009580Y018095D01*
X009080Y018595D01*
X009080Y017470D02*
X009080Y015720D01*
X009830Y016720D02*
X010580Y016720D01*
X010955Y016345D01*
X010955Y015845D01*
X011080Y015720D01*
X011580Y015720D01*
X012080Y015845D02*
X012080Y016470D01*
X011580Y016970D01*
X011580Y017345D01*
X011455Y017470D01*
X011080Y017470D01*
X012080Y017470D02*
X012455Y017470D01*
X012580Y017345D01*
X012580Y016970D01*
X013080Y016470D01*
X013080Y015845D01*
X013205Y015720D01*
X013580Y015720D01*
X014080Y015470D02*
X014330Y015220D01*
X014830Y015220D01*
X015330Y015720D01*
X015830Y015720D01*
X015830Y014470D01*
X015205Y013845D01*
X015205Y011345D01*
X014830Y010970D01*
X014080Y010970D01*
X014080Y011720D02*
X013455Y011720D01*
X013080Y011345D01*
X013080Y010970D01*
X014080Y009970D01*
X014080Y009470D01*
X013080Y009470D02*
X013080Y009970D01*
X012080Y010970D01*
X012080Y011470D01*
X011580Y011970D01*
X011580Y012720D01*
X010080Y012720D02*
X010080Y010970D01*
X010080Y010470D01*
X010330Y010220D01*
X012205Y010220D01*
X012580Y009845D01*
X012580Y008220D01*
X013080Y007720D01*
X013080Y006470D01*
X016205Y007970D02*
X016705Y008470D01*
X017705Y008470D01*
X017830Y008595D01*
X017830Y009470D01*
X017580Y009720D01*
X017580Y023095D01*
X016955Y023720D01*
X015705Y023720D01*
X015205Y023220D01*
X014830Y023220D01*
X014580Y023470D01*
X014580Y024595D01*
X014330Y024845D01*
X013830Y024845D01*
X013080Y025595D01*
X012580Y025345D02*
X012205Y024970D01*
X011705Y024970D01*
X011330Y024595D01*
X011330Y023220D01*
X011080Y022970D01*
X007580Y022970D01*
X007080Y023470D01*
X007080Y024095D01*
X006580Y022970D02*
X006080Y022470D01*
X006080Y021095D01*
X004830Y022345D02*
X003830Y021345D01*
X003830Y020595D01*
X003580Y020345D01*
X003580Y018095D01*
X002080Y016595D01*
X002080Y008595D01*
X002705Y007970D01*
X002455Y007470D02*
X003205Y007470D01*
X003705Y007970D01*
X002455Y007470D02*
X001705Y008220D01*
X001705Y017220D01*
X002580Y018095D01*
X002580Y020095D01*
X003330Y020845D01*
X003330Y021845D01*
X004330Y022845D01*
X004330Y024845D01*
X005080Y025595D01*
X006080Y025595D02*
X004830Y024345D01*
X004830Y022345D01*
X006580Y022970D02*
X006580Y027095D01*
X006830Y027345D01*
X007330Y027345D01*
X007830Y027845D01*
X008830Y028845D01*
X008830Y029345D01*
X008830Y030345D02*
X008830Y031345D01*
X008330Y031845D01*
X007830Y031845D01*
X006330Y031845D01*
X006260Y031775D01*
X005450Y031775D01*
X004260Y031775D01*
X003640Y031155D01*
X003640Y027915D01*
X004080Y025595D02*
X002080Y023595D01*
X002080Y022595D01*
X005580Y018095D02*
X005580Y015720D01*
X005830Y015220D02*
X006080Y015470D01*
X006080Y017470D01*
X005080Y017470D02*
X004580Y017470D01*
X003580Y016470D01*
X003580Y015720D01*
X004580Y015720D02*
X004580Y015470D01*
X004830Y015220D01*
X005830Y015220D01*
X009080Y024095D02*
X009330Y024095D01*
X010580Y025345D01*
X010580Y026970D01*
X010830Y027220D01*
X011705Y027220D01*
X012330Y027845D01*
X012580Y026970D02*
X012580Y025345D01*
X012080Y024095D02*
X012080Y023095D01*
X012830Y022345D01*
X015330Y022345D01*
X015830Y021845D01*
X015830Y021595D01*
X016230Y021195D01*
X016580Y021195D01*
X016580Y021995D02*
X016580Y022970D01*
X018205Y023345D02*
X016580Y024970D01*
X014705Y024970D01*
X014080Y025595D01*
X012580Y026970D02*
X013580Y027970D01*
X013580Y030345D01*
X015080Y030220D02*
X015080Y028595D01*
X016580Y026970D01*
X015080Y030220D02*
X016205Y031345D01*
X017580Y031345D01*
X012330Y031845D02*
X009830Y029345D01*
X009830Y027845D01*
X009830Y031845D02*
X011080Y031845D01*
X013080Y021095D02*
X013080Y019595D01*
X014080Y019595D02*
X015080Y020595D01*
X015080Y021095D01*
X013705Y017470D02*
X013080Y017470D01*
X013705Y017470D02*
X014080Y017095D01*
X014080Y015470D01*
X012580Y015720D02*
X012205Y015720D01*
X012080Y015845D01*
X014580Y012720D02*
X014580Y012220D01*
X014080Y011720D01*
X016580Y016220D02*
X016580Y016720D01*
X016080Y017220D01*
X015580Y017220D01*
X018205Y023345D02*
X018205Y008345D01*
X017830Y007970D01*
X017205Y007970D01*
D11*
X016700Y001845D02*
X016702Y001895D01*
X016708Y001945D01*
X016718Y001994D01*
X016732Y002042D01*
X016749Y002089D01*
X016770Y002134D01*
X016795Y002178D01*
X016823Y002219D01*
X016855Y002258D01*
X016889Y002295D01*
X016926Y002329D01*
X016966Y002359D01*
X017008Y002386D01*
X017052Y002410D01*
X017098Y002431D01*
X017145Y002447D01*
X017193Y002460D01*
X017243Y002469D01*
X017292Y002474D01*
X017343Y002475D01*
X017393Y002472D01*
X017442Y002465D01*
X017491Y002454D01*
X017539Y002439D01*
X017585Y002421D01*
X017630Y002399D01*
X017673Y002373D01*
X017714Y002344D01*
X017753Y002312D01*
X017789Y002277D01*
X017821Y002239D01*
X017851Y002199D01*
X017878Y002156D01*
X017901Y002112D01*
X017920Y002066D01*
X017936Y002018D01*
X017948Y001969D01*
X017956Y001920D01*
X017960Y001870D01*
X017960Y001820D01*
X017956Y001770D01*
X017948Y001721D01*
X017936Y001672D01*
X017920Y001624D01*
X017901Y001578D01*
X017878Y001534D01*
X017851Y001491D01*
X017821Y001451D01*
X017789Y001413D01*
X017753Y001378D01*
X017714Y001346D01*
X017673Y001317D01*
X017630Y001291D01*
X017585Y001269D01*
X017539Y001251D01*
X017491Y001236D01*
X017442Y001225D01*
X017393Y001218D01*
X017343Y001215D01*
X017292Y001216D01*
X017243Y001221D01*
X017193Y001230D01*
X017145Y001243D01*
X017098Y001259D01*
X017052Y001280D01*
X017008Y001304D01*
X016966Y001331D01*
X016926Y001361D01*
X016889Y001395D01*
X016855Y001432D01*
X016823Y001471D01*
X016795Y001512D01*
X016770Y001556D01*
X016749Y001601D01*
X016732Y001648D01*
X016718Y001696D01*
X016708Y001745D01*
X016702Y001795D01*
X016700Y001845D01*
D12*
X016580Y016220D03*
X015580Y017220D03*
X014580Y017220D03*
X016580Y020220D03*
X016580Y022970D03*
X016580Y026970D03*
X012330Y027845D03*
X011080Y027845D03*
X009830Y027845D03*
X007830Y027845D03*
X007830Y031845D03*
X009830Y031845D03*
X011080Y031845D03*
X012330Y031845D03*
X010580Y023595D03*
X010580Y021595D03*
X004580Y021095D03*
X002580Y021095D03*
X005830Y008970D03*
X005830Y006970D03*
D13*
X003640Y027915D03*
X002360Y029765D03*
X006590Y028125D03*
D14*
X004900Y030785D03*
X005450Y031775D03*
D15*
X006080Y024335D02*
X006080Y023855D01*
X007080Y023855D02*
X007080Y024335D01*
X008080Y024335D02*
X008080Y023855D01*
X009080Y023855D02*
X009080Y024335D01*
X009080Y021335D02*
X009080Y020855D01*
X008080Y020855D02*
X008080Y021335D01*
X007080Y021335D02*
X007080Y020855D01*
X006080Y020855D02*
X006080Y021335D01*
X006080Y017710D02*
X006080Y017230D01*
X005580Y016200D02*
X005580Y015720D01*
X004580Y015720D02*
X004580Y016200D01*
X005080Y017230D02*
X005080Y017710D01*
X003580Y016200D02*
X003580Y015720D01*
X002580Y015720D02*
X002580Y016200D01*
X002580Y012720D02*
X002580Y012240D01*
X003580Y012240D02*
X003580Y012720D01*
X004580Y012720D02*
X004580Y012240D01*
X005580Y012240D02*
X005580Y012720D01*
X006080Y011210D02*
X006080Y010730D01*
X007080Y010730D02*
X007080Y011210D01*
X007080Y012240D02*
X007080Y012720D01*
X008080Y012720D02*
X008080Y012240D01*
X008080Y011210D02*
X008080Y010730D01*
X008080Y009710D02*
X008080Y009230D01*
X007080Y009230D02*
X007080Y009710D01*
X007080Y006710D02*
X007080Y006230D01*
X008080Y006230D02*
X008080Y006710D01*
X009080Y006710D02*
X009080Y006230D01*
X010080Y006230D02*
X010080Y006710D01*
X011080Y006710D02*
X011080Y006230D01*
X012080Y006230D02*
X012080Y006710D01*
X013080Y006710D02*
X013080Y006230D01*
X014080Y006230D02*
X014080Y006710D01*
X014080Y009230D02*
X014080Y009710D01*
X014080Y010730D02*
X014080Y011210D01*
X013580Y012240D02*
X013580Y012720D01*
X014580Y012720D02*
X014580Y012240D01*
X015830Y012480D02*
X015830Y012960D01*
X015830Y015480D02*
X015830Y015960D01*
X014580Y015720D02*
X014580Y016200D01*
X013580Y016200D02*
X013580Y015720D01*
X013080Y017230D02*
X013080Y017710D01*
X012080Y017710D02*
X012080Y017230D01*
X011580Y016200D02*
X011580Y015720D01*
X011080Y017230D02*
X011080Y017710D01*
X010080Y017710D02*
X010080Y017230D01*
X010080Y016200D02*
X010080Y015720D01*
X009080Y015720D02*
X009080Y016200D01*
X009080Y017230D02*
X009080Y017710D01*
X008080Y017710D02*
X008080Y017230D01*
X008080Y016200D02*
X008080Y015720D01*
X007080Y015720D02*
X007080Y016200D01*
X007080Y017230D02*
X007080Y017710D01*
X009080Y012720D02*
X009080Y012240D01*
X009080Y011210D02*
X009080Y010730D01*
X009080Y009710D02*
X009080Y009230D01*
X010080Y009230D02*
X010080Y009710D01*
X010080Y010730D02*
X010080Y011210D01*
X010080Y012240D02*
X010080Y012720D01*
X011080Y011210D02*
X011080Y010730D01*
X011080Y009710D02*
X011080Y009230D01*
X012080Y009230D02*
X012080Y009710D01*
X012080Y010730D02*
X012080Y011210D01*
X011580Y012240D02*
X011580Y012720D01*
X012580Y012720D02*
X012580Y012240D01*
X013080Y011210D02*
X013080Y010730D01*
X013080Y009710D02*
X013080Y009230D01*
X012580Y015720D02*
X012580Y016200D01*
X013080Y020855D02*
X013080Y021335D01*
X014080Y021335D02*
X014080Y020855D01*
X015080Y020855D02*
X015080Y021335D01*
X015080Y023855D02*
X015080Y024335D01*
X014080Y024335D02*
X014080Y023855D01*
X013080Y023855D02*
X013080Y024335D01*
X012080Y024335D02*
X012080Y023855D01*
D16*
X008830Y030345D03*
D17*
X008830Y029345D03*
D18*
X003580Y023995D03*
X013730Y004595D03*
X016580Y021995D03*
D19*
X016580Y021195D03*
X012930Y004595D03*
X003580Y023195D03*
D20*
X013580Y029955D02*
X013580Y030735D01*
X017190Y031345D02*
X017970Y031345D01*
X017970Y029345D02*
X017190Y029345D01*
D21*
X012080Y021095D03*
D22*
X012080Y019595D03*
X013080Y019595D03*
X014080Y019595D03*
X015080Y019595D03*
X011080Y019595D03*
X010080Y019595D03*
X009080Y019595D03*
X008080Y019595D03*
X007080Y019595D03*
X006080Y019595D03*
X005080Y019595D03*
X004080Y019595D03*
X003080Y019595D03*
X002080Y019595D03*
X002080Y025595D03*
X003080Y025595D03*
X004080Y025595D03*
X005080Y025595D03*
X006080Y025595D03*
X007080Y025595D03*
X008080Y025595D03*
X009080Y025595D03*
X010080Y025595D03*
X011080Y025595D03*
X012080Y025595D03*
X013080Y025595D03*
X014080Y025595D03*
X015080Y025595D03*
D23*
X006675Y003489D02*
X006675Y002701D01*
X005849Y001205D02*
X005061Y001205D01*
X004274Y002701D02*
X004274Y003489D01*
D24*
X008830Y003545D02*
X008830Y004145D01*
X009830Y004145D02*
X009830Y003545D01*
X010830Y003545D02*
X010830Y004145D01*
D25*
X016205Y006970D03*
X016205Y007970D03*
X016205Y008970D03*
X017205Y008970D03*
X017205Y007970D03*
X017205Y006970D03*
X003705Y006970D03*
X003705Y007970D03*
X003705Y008970D03*
X002705Y008970D03*
X002705Y007970D03*
X002705Y006970D03*
D26*
X008846Y001890D02*
X008846Y001300D01*
X009830Y001300D02*
X009830Y001890D01*
X010814Y001890D02*
X010814Y001300D01*
D27*
X011080Y005345D03*
X007080Y005345D03*
D28*
X007080Y018595D03*
X006080Y018595D03*
X005080Y018595D03*
X004080Y018595D03*
X003080Y018595D03*
X002080Y018595D03*
X002080Y026595D03*
X003080Y026595D03*
X004080Y026595D03*
X005080Y026595D03*
X006080Y026595D03*
X007080Y026595D03*
X008080Y026595D03*
X009080Y026595D03*
X010080Y026595D03*
X011080Y026595D03*
X012080Y026595D03*
X013080Y026595D03*
X014080Y026595D03*
X015080Y026595D03*
X015080Y018595D03*
X014080Y018595D03*
X013080Y018595D03*
X012080Y018595D03*
X011080Y018595D03*
X010080Y018595D03*
X009080Y018595D03*
X008080Y018595D03*
D29*
X007772Y018960D02*
X007388Y018960D01*
X007277Y019070D02*
X007555Y018792D01*
X007555Y018438D01*
X007605Y018487D01*
X007605Y018792D01*
X007883Y019070D01*
X008277Y019070D01*
X008555Y018792D01*
X008555Y018398D01*
X008277Y018120D01*
X008188Y018120D01*
X008318Y018066D01*
X008436Y017948D01*
X008500Y017794D01*
X008500Y017146D01*
X008436Y016992D01*
X008340Y016896D01*
X008340Y016534D01*
X008436Y016438D01*
X008500Y016284D01*
X008500Y015636D01*
X008436Y015482D01*
X008434Y015480D01*
X008726Y015480D01*
X008724Y015482D01*
X008660Y015636D01*
X008660Y016284D01*
X008724Y016438D01*
X008820Y016534D01*
X008820Y016896D01*
X008724Y016992D01*
X008660Y017146D01*
X008660Y017794D01*
X008724Y017948D01*
X008842Y018066D01*
X008972Y018120D01*
X008883Y018120D01*
X008605Y018398D01*
X008605Y018792D01*
X008883Y019070D01*
X009277Y019070D01*
X009555Y018792D01*
X009555Y018487D01*
X009605Y018438D01*
X009605Y018792D01*
X009883Y019070D01*
X010277Y019070D01*
X010555Y018792D01*
X010555Y018398D01*
X010277Y018120D01*
X010188Y018120D01*
X010318Y018066D01*
X010436Y017948D01*
X010500Y017794D01*
X010500Y017146D01*
X010436Y016992D01*
X010424Y016980D01*
X010632Y016980D01*
X010727Y016940D01*
X010800Y016867D01*
X011175Y016492D01*
X011211Y016407D01*
X011224Y016438D01*
X011342Y016556D01*
X011496Y016620D01*
X011562Y016620D01*
X011433Y016750D01*
X011360Y016823D01*
X011332Y016888D01*
X011318Y016874D01*
X011164Y016810D01*
X010996Y016810D01*
X010842Y016874D01*
X010724Y016992D01*
X010660Y017146D01*
X010660Y017794D01*
X010724Y017948D01*
X010842Y018066D01*
X010972Y018120D01*
X010883Y018120D01*
X010605Y018398D01*
X010605Y018792D01*
X010883Y019070D01*
X011277Y019070D01*
X011555Y018792D01*
X011555Y018398D01*
X011277Y018120D01*
X011188Y018120D01*
X011318Y018066D01*
X011436Y017948D01*
X011500Y017794D01*
X011500Y017730D01*
X011507Y017730D01*
X011602Y017690D01*
X011660Y017633D01*
X011660Y017794D01*
X011724Y017948D01*
X011842Y018066D01*
X011972Y018120D01*
X011883Y018120D01*
X011605Y018398D01*
X011605Y018792D01*
X011883Y019070D01*
X012277Y019070D01*
X012555Y018792D01*
X012555Y018398D01*
X012277Y018120D01*
X012188Y018120D01*
X012318Y018066D01*
X012436Y017948D01*
X012500Y017794D01*
X012500Y017730D01*
X012507Y017730D01*
X012602Y017690D01*
X012660Y017633D01*
X012660Y017794D01*
X012724Y017948D01*
X012842Y018066D01*
X012972Y018120D01*
X012883Y018120D01*
X012605Y018398D01*
X012605Y018792D01*
X012883Y019070D01*
X013277Y019070D01*
X013555Y018792D01*
X013555Y018398D01*
X013277Y018120D01*
X013188Y018120D01*
X013318Y018066D01*
X013436Y017948D01*
X013500Y017794D01*
X013500Y017730D01*
X013757Y017730D01*
X013852Y017690D01*
X014126Y017417D01*
X014389Y017680D01*
X014580Y017680D01*
X014580Y017220D01*
X014580Y017220D01*
X015040Y017220D01*
X015040Y017411D01*
X014771Y017680D01*
X014580Y017680D01*
X014580Y017220D01*
X014580Y017220D01*
X015040Y017220D01*
X015040Y017029D01*
X014771Y016760D01*
X014580Y016760D01*
X014580Y017220D01*
X014580Y017220D01*
X014580Y016760D01*
X014389Y016760D01*
X014340Y016809D01*
X014340Y016554D01*
X014342Y016556D01*
X014496Y016620D01*
X014664Y016620D01*
X014818Y016556D01*
X014936Y016438D01*
X015000Y016284D01*
X015000Y015758D01*
X015110Y015867D01*
X015183Y015940D01*
X015278Y015980D01*
X015410Y015980D01*
X015410Y016044D01*
X015474Y016198D01*
X015592Y016316D01*
X015746Y016380D01*
X015914Y016380D01*
X016068Y016316D01*
X016160Y016224D01*
X016160Y016394D01*
X016320Y016554D01*
X016320Y016612D01*
X015972Y016960D01*
X015914Y016960D01*
X015754Y016800D01*
X015406Y016800D01*
X015160Y017046D01*
X015160Y017394D01*
X015406Y017640D01*
X015754Y017640D01*
X015914Y017480D01*
X016132Y017480D01*
X016227Y017440D01*
X016300Y017367D01*
X016800Y016867D01*
X016840Y016772D01*
X016840Y016554D01*
X017000Y016394D01*
X017000Y016046D01*
X016754Y015800D01*
X016406Y015800D01*
X016250Y015956D01*
X016250Y015396D01*
X016186Y015242D01*
X016090Y015146D01*
X016090Y014418D01*
X016050Y014323D01*
X015977Y014250D01*
X015465Y013737D01*
X015465Y013240D01*
X015479Y013260D01*
X015530Y013311D01*
X015589Y013353D01*
X015653Y013386D01*
X015722Y013409D01*
X015794Y013420D01*
X015830Y013420D01*
X015830Y012720D01*
X015830Y012720D01*
X016290Y012720D01*
X016290Y012996D01*
X016279Y013068D01*
X016256Y013137D01*
X016223Y013201D01*
X016181Y013260D01*
X016130Y013311D01*
X016071Y013353D01*
X016007Y013386D01*
X015938Y013409D01*
X015866Y013420D01*
X015830Y013420D01*
X015830Y012720D01*
X015830Y012720D01*
X016290Y012720D01*
X016290Y012444D01*
X016279Y012372D01*
X016256Y012303D01*
X016223Y012239D01*
X016181Y012180D01*
X016130Y012129D01*
X016071Y012087D01*
X016007Y012054D01*
X015938Y012031D01*
X015866Y012020D01*
X015830Y012020D01*
X015830Y012720D01*
X015830Y012720D01*
X015830Y012020D01*
X015794Y012020D01*
X015722Y012031D01*
X015653Y012054D01*
X015589Y012087D01*
X015530Y012129D01*
X015479Y012180D01*
X015465Y012200D01*
X015465Y011293D01*
X015425Y011198D01*
X015352Y011125D01*
X014977Y010750D01*
X014882Y010710D01*
X014500Y010710D01*
X014500Y010646D01*
X014436Y010492D01*
X014318Y010374D01*
X014164Y010310D01*
X014108Y010310D01*
X014227Y010190D01*
X014300Y010117D01*
X014324Y010060D01*
X014436Y009948D01*
X014500Y009794D01*
X014500Y009146D01*
X014436Y008992D01*
X014318Y008874D01*
X014164Y008810D01*
X013996Y008810D01*
X013842Y008874D01*
X013724Y008992D01*
X013660Y009146D01*
X013660Y009794D01*
X013724Y009948D01*
X013729Y009953D01*
X013311Y010371D01*
X013164Y010310D01*
X013108Y010310D01*
X013227Y010190D01*
X013227Y010190D01*
X013300Y010117D01*
X013324Y010060D01*
X013436Y009948D01*
X013500Y009794D01*
X013500Y009146D01*
X013436Y008992D01*
X013318Y008874D01*
X013164Y008810D01*
X012996Y008810D01*
X012842Y008874D01*
X012840Y008876D01*
X012840Y008328D01*
X013227Y007940D01*
X013300Y007867D01*
X013340Y007772D01*
X013340Y007044D01*
X013436Y006948D01*
X013500Y006794D01*
X013500Y006146D01*
X013436Y005992D01*
X013318Y005874D01*
X013164Y005810D01*
X012996Y005810D01*
X012842Y005874D01*
X012724Y005992D01*
X012660Y006146D01*
X012660Y006794D01*
X012724Y006948D01*
X012820Y007044D01*
X012820Y007612D01*
X012360Y008073D01*
X012320Y008168D01*
X012320Y008876D01*
X012318Y008874D01*
X012164Y008810D01*
X011996Y008810D01*
X011842Y008874D01*
X011724Y008992D01*
X011660Y009146D01*
X011660Y009794D01*
X011724Y009948D01*
X011736Y009960D01*
X011467Y009960D01*
X011473Y009951D01*
X011506Y009887D01*
X011529Y009818D01*
X011540Y009746D01*
X011540Y009470D01*
X011080Y009470D01*
X011080Y009470D01*
X011540Y009470D01*
X011540Y009194D01*
X011529Y009122D01*
X011506Y009053D01*
X011473Y008989D01*
X011431Y008930D01*
X011380Y008879D01*
X011321Y008837D01*
X011257Y008804D01*
X011188Y008781D01*
X011116Y008770D01*
X011080Y008770D01*
X011080Y009470D01*
X011080Y009470D01*
X011080Y009470D01*
X010620Y009470D01*
X010620Y009746D01*
X010631Y009818D01*
X010654Y009887D01*
X010687Y009951D01*
X010693Y009960D01*
X010467Y009960D01*
X010473Y009951D01*
X010506Y009887D01*
X010529Y009818D01*
X010540Y009746D01*
X010540Y009470D01*
X010080Y009470D01*
X010080Y009470D01*
X010540Y009470D01*
X010540Y009194D01*
X010529Y009122D01*
X010506Y009053D01*
X010473Y008989D01*
X010431Y008930D01*
X010380Y008879D01*
X010321Y008837D01*
X010257Y008804D01*
X010188Y008781D01*
X010116Y008770D01*
X010080Y008770D01*
X010080Y009470D01*
X010080Y009470D01*
X010080Y009470D01*
X009620Y009470D01*
X009620Y009746D01*
X009631Y009818D01*
X009654Y009887D01*
X009687Y009951D01*
X009729Y010010D01*
X009780Y010061D01*
X009839Y010103D01*
X009903Y010136D01*
X009972Y010159D01*
X010017Y010166D01*
X009860Y010323D01*
X009836Y010380D01*
X009724Y010492D01*
X009660Y010646D01*
X009660Y011294D01*
X009724Y011448D01*
X009820Y011544D01*
X009820Y011906D01*
X009724Y012002D01*
X009660Y012156D01*
X009660Y012804D01*
X009724Y012958D01*
X009842Y013076D01*
X009996Y013140D01*
X010164Y013140D01*
X010318Y013076D01*
X010436Y012958D01*
X010500Y012804D01*
X010500Y012156D01*
X010436Y012002D01*
X010340Y011906D01*
X010340Y011544D01*
X010436Y011448D01*
X010500Y011294D01*
X010500Y010646D01*
X010436Y010492D01*
X010431Y010487D01*
X010438Y010480D01*
X010736Y010480D01*
X010724Y010492D01*
X010660Y010646D01*
X010660Y011294D01*
X010724Y011448D01*
X010842Y011566D01*
X010340Y011566D01*
X010340Y011805D02*
X011378Y011805D01*
X011360Y011823D02*
X011729Y011453D01*
X011724Y011448D01*
X011660Y011294D01*
X011660Y010646D01*
X011724Y010492D01*
X011736Y010480D01*
X011424Y010480D01*
X011436Y010492D01*
X011500Y010646D01*
X011500Y011294D01*
X011436Y011448D01*
X011318Y011566D01*
X011616Y011566D01*
X011674Y011328D02*
X011486Y011328D01*
X011500Y011089D02*
X011660Y011089D01*
X011660Y010851D02*
X011500Y010851D01*
X011486Y010612D02*
X011674Y010612D01*
X011703Y009897D02*
X011501Y009897D01*
X011540Y009658D02*
X011660Y009658D01*
X011660Y009420D02*
X011540Y009420D01*
X011538Y009181D02*
X011660Y009181D01*
X011774Y008943D02*
X011440Y008943D01*
X011080Y008943D02*
X011080Y008943D01*
X011080Y008770D02*
X011080Y009470D01*
X010620Y009470D01*
X010620Y009194D01*
X010631Y009122D01*
X010654Y009053D01*
X010687Y008989D01*
X010729Y008930D01*
X010780Y008879D01*
X010839Y008837D01*
X010903Y008804D01*
X010972Y008781D01*
X011044Y008770D01*
X011080Y008770D01*
X011080Y009181D02*
X011080Y009181D01*
X011080Y009420D02*
X011080Y009420D01*
X010620Y009420D02*
X010540Y009420D01*
X010540Y009658D02*
X010620Y009658D01*
X010659Y009897D02*
X010501Y009897D01*
X010080Y009470D02*
X010080Y008770D01*
X010044Y008770D01*
X009972Y008781D01*
X009903Y008804D01*
X009839Y008837D01*
X009780Y008879D01*
X009729Y008930D01*
X009687Y008989D01*
X009654Y009053D01*
X009631Y009122D01*
X009620Y009194D01*
X009620Y009470D01*
X010080Y009470D01*
X010080Y009420D02*
X010080Y009420D01*
X010080Y009181D02*
X010080Y009181D01*
X010080Y008943D02*
X010080Y008943D01*
X009720Y008943D02*
X009386Y008943D01*
X009436Y008992D02*
X009318Y008874D01*
X009164Y008810D01*
X008996Y008810D01*
X008842Y008874D01*
X008724Y008992D01*
X008660Y009146D01*
X008660Y009794D01*
X008724Y009948D01*
X008736Y009960D01*
X008438Y009960D01*
X008431Y009953D01*
X008436Y009948D01*
X008500Y009794D01*
X008500Y009146D01*
X008436Y008992D01*
X008318Y008874D01*
X008164Y008810D01*
X007996Y008810D01*
X007842Y008874D01*
X007840Y008876D01*
X007840Y008328D01*
X008300Y007867D01*
X008340Y007772D01*
X008340Y007044D01*
X008436Y006948D01*
X008500Y006794D01*
X008500Y006146D01*
X008436Y005992D01*
X008318Y005874D01*
X008164Y005810D01*
X007996Y005810D01*
X007842Y005874D01*
X007724Y005992D01*
X007660Y006146D01*
X007660Y006794D01*
X007724Y006948D01*
X007820Y007044D01*
X007820Y007612D01*
X007433Y008000D01*
X007360Y008073D01*
X007320Y008168D01*
X007320Y008876D01*
X007318Y008874D01*
X007164Y008810D01*
X006996Y008810D01*
X006842Y008874D01*
X006724Y008992D01*
X006715Y009014D01*
X006715Y008453D01*
X007227Y007940D01*
X007300Y007867D01*
X007340Y007772D01*
X007340Y007044D01*
X007436Y006948D01*
X007500Y006794D01*
X007500Y006146D01*
X007436Y005992D01*
X007318Y005874D01*
X007227Y005836D01*
X007369Y005777D01*
X007512Y005634D01*
X007590Y005446D01*
X007590Y005244D01*
X007512Y005056D01*
X007369Y004913D01*
X007181Y004835D01*
X006979Y004835D01*
X006791Y004913D01*
X006715Y004989D01*
X006715Y004828D01*
X007438Y004105D01*
X008350Y004105D01*
X008350Y004240D01*
X008423Y004417D01*
X008558Y004552D01*
X008735Y004625D01*
X008925Y004625D01*
X009102Y004552D01*
X009237Y004417D01*
X009310Y004240D01*
X009310Y003450D01*
X009237Y003273D01*
X009102Y003138D01*
X008925Y003065D01*
X008735Y003065D01*
X008558Y003138D01*
X008423Y003273D01*
X008350Y003450D01*
X008350Y003585D01*
X007278Y003585D01*
X007249Y003597D01*
X007249Y002587D01*
X007162Y002376D01*
X007000Y002215D01*
X006790Y002128D01*
X006561Y002128D01*
X006350Y002215D01*
X006189Y002376D01*
X006102Y002587D01*
X006102Y003603D01*
X006189Y003814D01*
X006350Y003975D01*
X006561Y004062D01*
X006745Y004062D01*
X006235Y004573D01*
X006195Y004668D01*
X006195Y006684D01*
X006021Y006510D01*
X005830Y006510D01*
X005830Y006970D01*
X005830Y006970D01*
X005830Y007430D01*
X006002Y007430D01*
X005683Y007750D01*
X005683Y007750D01*
X005610Y007823D01*
X005570Y007918D01*
X005570Y008636D01*
X005410Y008796D01*
X005410Y009144D01*
X005656Y009390D01*
X006004Y009390D01*
X006195Y009199D01*
X006195Y009987D01*
X005860Y010323D01*
X005836Y010380D01*
X005724Y010492D01*
X005660Y010646D01*
X005660Y010710D01*
X003028Y010710D01*
X002933Y010750D01*
X002360Y011323D01*
X002340Y011370D01*
X002340Y009241D01*
X002519Y009420D01*
X002891Y009420D01*
X003155Y009156D01*
X003155Y008784D01*
X002891Y008520D01*
X002523Y008520D01*
X002623Y008420D01*
X002891Y008420D01*
X003155Y008156D01*
X003155Y007788D01*
X003255Y007888D01*
X003255Y008156D01*
X003519Y008420D01*
X003891Y008420D01*
X004155Y008156D01*
X004155Y007784D01*
X003891Y007520D01*
X003623Y007520D01*
X003523Y007420D01*
X003891Y007420D01*
X004081Y007230D01*
X004222Y007230D01*
X004597Y007605D01*
X004597Y007848D01*
X004695Y007946D01*
X004695Y009619D01*
X004597Y009717D01*
X004597Y010223D01*
X004702Y010328D01*
X005208Y010328D01*
X005313Y010223D01*
X005313Y009717D01*
X005215Y009619D01*
X005215Y007946D01*
X005313Y007848D01*
X005313Y007342D01*
X005208Y007237D01*
X004965Y007237D01*
X004550Y006823D01*
X004477Y006750D01*
X004382Y006710D01*
X004081Y006710D01*
X003891Y006520D01*
X003519Y006520D01*
X003255Y006784D01*
X003255Y007156D01*
X003345Y007247D01*
X003257Y007210D01*
X003158Y007210D01*
X003195Y007173D01*
X003195Y006970D01*
X002705Y006970D01*
X002705Y006970D01*
X003195Y006970D01*
X003195Y006767D01*
X002908Y006480D01*
X002705Y006480D01*
X002705Y006970D01*
X002705Y006970D01*
X002705Y006970D01*
X002215Y006970D01*
X002215Y007173D01*
X002300Y007258D01*
X002235Y007323D01*
X001630Y007927D01*
X001630Y000895D01*
X004531Y000895D01*
X004493Y000970D01*
X004463Y001062D01*
X004448Y001157D01*
X004448Y001205D01*
X005455Y001205D01*
X005455Y001205D01*
X005455Y001205D01*
X006462Y001205D01*
X006462Y001157D01*
X006447Y001062D01*
X006417Y000970D01*
X006379Y000895D01*
X008581Y000895D01*
X008577Y000897D01*
X008443Y001031D01*
X008370Y001205D01*
X008370Y001985D01*
X008443Y002159D01*
X008577Y002293D01*
X008751Y002366D01*
X008940Y002366D01*
X009115Y002293D01*
X009249Y002159D01*
X009321Y001985D01*
X009321Y001205D01*
X009249Y001031D01*
X009115Y000897D01*
X009111Y000895D01*
X009565Y000895D01*
X009561Y000897D01*
X009427Y001031D01*
X009355Y001205D01*
X009355Y001985D01*
X009427Y002159D01*
X009490Y002222D01*
X009490Y002288D01*
X009542Y002413D01*
X010042Y002913D01*
X010137Y003008D01*
X010262Y003060D01*
X011564Y003060D01*
X012590Y004086D01*
X012590Y004327D01*
X012565Y004351D01*
X012500Y004509D01*
X012500Y004681D01*
X012565Y004839D01*
X012686Y004960D01*
X012844Y005025D01*
X012879Y005025D01*
X013740Y005886D01*
X013740Y005976D01*
X013724Y005992D01*
X013660Y006146D01*
X013660Y006794D01*
X013724Y006948D01*
X013842Y007066D01*
X013996Y007130D01*
X014164Y007130D01*
X014318Y007066D01*
X014436Y006948D01*
X014500Y006794D01*
X014500Y006146D01*
X014436Y005992D01*
X014420Y005976D01*
X014420Y005677D01*
X014368Y005552D01*
X014273Y005457D01*
X014273Y005457D01*
X013881Y005065D01*
X013925Y005065D01*
X014200Y004790D01*
X014200Y004595D01*
X013730Y004595D01*
X013730Y004595D01*
X014200Y004595D01*
X014200Y004400D01*
X013925Y004125D01*
X013730Y004125D01*
X013730Y004595D01*
X013730Y004595D01*
X013730Y004125D01*
X013535Y004125D01*
X013299Y004362D01*
X013295Y004351D01*
X013270Y004327D01*
X013270Y003877D01*
X013218Y003752D01*
X013123Y003657D01*
X011898Y002432D01*
X011773Y002380D01*
X010974Y002380D01*
X011012Y002368D01*
X011084Y002331D01*
X011150Y002283D01*
X011207Y002226D01*
X011255Y002160D01*
X011292Y002088D01*
X011317Y002011D01*
X011330Y001931D01*
X011330Y001595D01*
X010814Y001595D01*
X010814Y001595D01*
X011330Y001595D01*
X011330Y001259D01*
X011317Y001179D01*
X011292Y001102D01*
X011255Y001030D01*
X011207Y000964D01*
X011150Y000907D01*
X011134Y000895D01*
X018275Y000895D01*
X018275Y008047D01*
X017977Y007750D01*
X017882Y007710D01*
X017581Y007710D01*
X017391Y007520D01*
X017019Y007520D01*
X016755Y007784D01*
X016755Y008152D01*
X016655Y008052D01*
X016655Y007784D01*
X016391Y007520D01*
X016019Y007520D01*
X015755Y007784D01*
X015755Y008156D01*
X016019Y008420D01*
X016287Y008420D01*
X016387Y008520D01*
X016019Y008520D01*
X015755Y008784D01*
X015755Y009156D01*
X016019Y009420D01*
X016391Y009420D01*
X016655Y009156D01*
X016655Y008784D01*
X016565Y008693D01*
X016653Y008730D01*
X016752Y008730D01*
X016715Y008767D01*
X016715Y008970D01*
X017205Y008970D01*
X017205Y008970D01*
X017205Y009460D01*
X017408Y009460D01*
X017570Y009298D01*
X017570Y009362D01*
X017360Y009573D01*
X017320Y009668D01*
X017320Y022987D01*
X016847Y023460D01*
X015813Y023460D01*
X015352Y023000D01*
X015257Y022960D01*
X014778Y022960D01*
X014683Y023000D01*
X014610Y023073D01*
X014360Y023323D01*
X014320Y023418D01*
X014320Y023501D01*
X014318Y023499D01*
X014164Y023435D01*
X013996Y023435D01*
X013842Y023499D01*
X013724Y023617D01*
X013660Y023771D01*
X013660Y024419D01*
X013724Y024573D01*
X013748Y024597D01*
X013683Y024625D01*
X013610Y024698D01*
X013176Y025131D01*
X013172Y025130D01*
X012988Y025130D01*
X012817Y025201D01*
X012806Y025211D01*
X012800Y025198D01*
X012425Y024823D01*
X012352Y024750D01*
X012264Y024713D01*
X012318Y024691D01*
X012436Y024573D01*
X012500Y024419D01*
X012500Y023771D01*
X012436Y023617D01*
X012340Y023521D01*
X012340Y023203D01*
X012938Y022605D01*
X015382Y022605D01*
X015477Y022565D01*
X015977Y022065D01*
X016050Y021992D01*
X016090Y021897D01*
X016090Y021703D01*
X016285Y021508D01*
X016336Y021560D01*
X016387Y021580D01*
X016150Y021817D01*
X016150Y022173D01*
X016320Y022343D01*
X016320Y022636D01*
X016160Y022796D01*
X016160Y023144D01*
X016406Y023390D01*
X016754Y023390D01*
X017000Y023144D01*
X017000Y022796D01*
X016840Y022636D01*
X016840Y022343D01*
X017010Y022173D01*
X017010Y021817D01*
X016773Y021580D01*
X016824Y021560D01*
X016945Y021439D01*
X017010Y021281D01*
X017010Y021109D01*
X016945Y020951D01*
X016824Y020830D01*
X016666Y020765D01*
X016494Y020765D01*
X016336Y020830D01*
X016232Y020935D01*
X016178Y020935D01*
X016083Y020975D01*
X016010Y021048D01*
X015610Y021448D01*
X015570Y021543D01*
X015570Y021737D01*
X015222Y022085D01*
X012778Y022085D01*
X012683Y022125D01*
X012610Y022198D01*
X011933Y022875D01*
X011860Y022948D01*
X011820Y023043D01*
X011820Y023521D01*
X011724Y023617D01*
X011660Y023771D01*
X011660Y024419D01*
X011724Y024573D01*
X011842Y024691D01*
X011888Y024710D01*
X011813Y024710D01*
X011590Y024487D01*
X011590Y023168D01*
X011550Y023073D01*
X011300Y022823D01*
X011227Y022750D01*
X011132Y022710D01*
X007528Y022710D01*
X007433Y022750D01*
X006860Y023323D01*
X006840Y023370D01*
X006840Y022918D01*
X006800Y022823D01*
X006340Y022362D01*
X006340Y021669D01*
X006436Y021573D01*
X006500Y021419D01*
X006500Y020771D01*
X006436Y020617D01*
X006318Y020499D01*
X006164Y020435D01*
X005996Y020435D01*
X005842Y020499D01*
X005724Y020617D01*
X005660Y020771D01*
X005660Y021419D01*
X005724Y021573D01*
X005820Y021669D01*
X005820Y022522D01*
X005860Y022617D01*
X005933Y022690D01*
X005933Y022690D01*
X006320Y023078D01*
X006320Y023461D01*
X006257Y023429D01*
X006188Y023406D01*
X006116Y023395D01*
X006080Y023395D01*
X006080Y024095D01*
X006080Y024095D01*
X006080Y024795D01*
X006116Y024795D01*
X006188Y024784D01*
X006257Y024761D01*
X006320Y024729D01*
X006320Y025191D01*
X006172Y025130D01*
X005988Y025130D01*
X005984Y025131D01*
X005090Y024237D01*
X005090Y022293D01*
X005050Y022198D01*
X004090Y021237D01*
X004090Y020543D01*
X004050Y020448D01*
X003840Y020237D01*
X003840Y019999D01*
X003988Y020060D01*
X004172Y020060D01*
X004343Y019989D01*
X004474Y019858D01*
X004545Y019687D01*
X004545Y019503D01*
X004474Y019332D01*
X004343Y019201D01*
X004172Y019130D01*
X003988Y019130D01*
X003840Y019191D01*
X003840Y019027D01*
X003883Y019070D01*
X004277Y019070D01*
X004555Y018792D01*
X004555Y018438D01*
X004605Y018487D01*
X004605Y018792D01*
X004883Y019070D01*
X005277Y019070D01*
X005555Y018792D01*
X005555Y018438D01*
X005605Y018487D01*
X005605Y018792D01*
X005883Y019070D01*
X006277Y019070D01*
X006555Y018792D01*
X006555Y018438D01*
X006605Y018487D01*
X006605Y018792D01*
X006883Y019070D01*
X007277Y019070D01*
X007172Y019130D02*
X007343Y019201D01*
X007474Y019332D01*
X007545Y019503D01*
X007545Y019687D01*
X007474Y019858D01*
X007343Y019989D01*
X007172Y020060D01*
X006988Y020060D01*
X006817Y019989D01*
X006686Y019858D01*
X006615Y019687D01*
X006615Y019503D01*
X006686Y019332D01*
X006817Y019201D01*
X006988Y019130D01*
X007172Y019130D01*
X007337Y019198D02*
X007823Y019198D01*
X007817Y019201D02*
X007988Y019130D01*
X008172Y019130D01*
X008343Y019201D01*
X008474Y019332D01*
X008545Y019503D01*
X008545Y019687D01*
X008474Y019858D01*
X008343Y019989D01*
X008172Y020060D01*
X007988Y020060D01*
X007817Y019989D01*
X007686Y019858D01*
X007615Y019687D01*
X007615Y019503D01*
X007686Y019332D01*
X007817Y019201D01*
X007642Y019437D02*
X007518Y019437D01*
X007545Y019675D02*
X007615Y019675D01*
X007741Y019914D02*
X007419Y019914D01*
X007164Y020435D02*
X007318Y020499D01*
X007436Y020617D01*
X007500Y020771D01*
X007500Y021419D01*
X007436Y021573D01*
X007318Y021691D01*
X007164Y021755D01*
X006996Y021755D01*
X006842Y021691D01*
X006724Y021573D01*
X006660Y021419D01*
X006660Y020771D01*
X006724Y020617D01*
X006842Y020499D01*
X006996Y020435D01*
X007164Y020435D01*
X007441Y020629D02*
X007719Y020629D01*
X007724Y020617D02*
X007842Y020499D01*
X007996Y020435D01*
X008164Y020435D01*
X008318Y020499D01*
X008436Y020617D01*
X008500Y020771D01*
X008500Y021419D01*
X008436Y021573D01*
X008318Y021691D01*
X008164Y021755D01*
X007996Y021755D01*
X007842Y021691D01*
X007724Y021573D01*
X007660Y021419D01*
X007660Y020771D01*
X007724Y020617D01*
X007660Y020868D02*
X007500Y020868D01*
X007500Y021106D02*
X007660Y021106D01*
X007660Y021345D02*
X007500Y021345D01*
X007426Y021583D02*
X007734Y021583D01*
X007407Y022776D02*
X006753Y022776D01*
X006840Y023014D02*
X007168Y023014D01*
X006930Y023253D02*
X006840Y023253D01*
X006320Y023253D02*
X005090Y023253D01*
X005090Y023491D02*
X005798Y023491D01*
X005780Y023504D02*
X005839Y023462D01*
X005903Y023429D01*
X005972Y023406D01*
X006044Y023395D01*
X006080Y023395D01*
X006080Y024095D01*
X006080Y024095D01*
X006080Y024095D01*
X005620Y024095D01*
X005620Y024371D01*
X005631Y024443D01*
X005654Y024512D01*
X005687Y024576D01*
X005729Y024635D01*
X005780Y024686D01*
X005839Y024728D01*
X005903Y024761D01*
X005972Y024784D01*
X006044Y024795D01*
X006080Y024795D01*
X006080Y024095D01*
X005620Y024095D01*
X005620Y023819D01*
X005631Y023747D01*
X005654Y023678D01*
X005687Y023614D01*
X005729Y023555D01*
X005780Y023504D01*
X005637Y023730D02*
X005090Y023730D01*
X005090Y023968D02*
X005620Y023968D01*
X005620Y024207D02*
X005090Y024207D01*
X005298Y024445D02*
X005632Y024445D01*
X005536Y024684D02*
X005778Y024684D01*
X005775Y024922D02*
X006320Y024922D01*
X006320Y025161D02*
X006246Y025161D01*
X006080Y024684D02*
X006080Y024684D01*
X006080Y024445D02*
X006080Y024445D01*
X006080Y024207D02*
X006080Y024207D01*
X006080Y023968D02*
X006080Y023968D01*
X006080Y023730D02*
X006080Y023730D01*
X006080Y023491D02*
X006080Y023491D01*
X006256Y023014D02*
X005090Y023014D01*
X005090Y022776D02*
X006018Y022776D01*
X005826Y022537D02*
X005090Y022537D01*
X005090Y022299D02*
X005820Y022299D01*
X005820Y022060D02*
X004913Y022060D01*
X004674Y021822D02*
X005820Y021822D01*
X005734Y021583D02*
X004436Y021583D01*
X004406Y021515D02*
X004160Y021269D01*
X004160Y020921D01*
X004406Y020675D01*
X004754Y020675D01*
X005000Y020921D01*
X005000Y021269D01*
X004754Y021515D01*
X004406Y021515D01*
X004236Y021345D02*
X004197Y021345D01*
X004160Y021106D02*
X004090Y021106D01*
X004090Y020868D02*
X004214Y020868D01*
X004090Y020629D02*
X005719Y020629D01*
X005660Y020868D02*
X004946Y020868D01*
X005000Y021106D02*
X005660Y021106D01*
X005660Y021345D02*
X004924Y021345D01*
X004988Y020060D02*
X004817Y019989D01*
X004686Y019858D01*
X004615Y019687D01*
X004615Y019503D01*
X004686Y019332D01*
X004817Y019201D01*
X004988Y019130D01*
X005172Y019130D01*
X005343Y019201D01*
X005474Y019332D01*
X005545Y019503D01*
X005545Y019687D01*
X005474Y019858D01*
X005343Y019989D01*
X005172Y020060D01*
X004988Y020060D01*
X004741Y019914D02*
X004419Y019914D01*
X004545Y019675D02*
X004615Y019675D01*
X004642Y019437D02*
X004518Y019437D01*
X004337Y019198D02*
X004823Y019198D01*
X004772Y018960D02*
X004388Y018960D01*
X004555Y018721D02*
X004605Y018721D01*
X004600Y018483D02*
X004555Y018483D01*
X004327Y017585D02*
X004063Y017585D01*
X002926Y016448D01*
X002936Y016438D01*
X003000Y016284D01*
X003000Y015636D01*
X002936Y015482D01*
X002818Y015364D01*
X002664Y015300D01*
X002496Y015300D01*
X002342Y015364D01*
X002340Y015366D01*
X002340Y013074D01*
X002342Y013076D01*
X002496Y013140D01*
X002664Y013140D01*
X002818Y013076D01*
X002936Y012958D01*
X003000Y012804D01*
X003000Y012156D01*
X002936Y012002D01*
X002840Y011906D01*
X002840Y011578D01*
X003188Y011230D01*
X005660Y011230D01*
X005660Y011294D01*
X005724Y011448D01*
X005842Y011566D01*
X002852Y011566D01*
X002840Y011805D02*
X006195Y011805D01*
X006195Y011793D02*
X006235Y011698D01*
X006660Y011272D01*
X006660Y010646D01*
X006724Y010492D01*
X006836Y010380D01*
X006860Y010323D01*
X006933Y010250D01*
X007052Y010130D01*
X006996Y010130D01*
X006842Y010066D01*
X006724Y009948D01*
X006715Y009926D01*
X006715Y010147D01*
X006675Y010242D01*
X006602Y010315D01*
X006431Y010487D01*
X006436Y010492D01*
X006500Y010646D01*
X006500Y011294D01*
X006436Y011448D01*
X006318Y011566D01*
X006366Y011566D01*
X006318Y011566D02*
X006164Y011630D01*
X005996Y011630D01*
X005842Y011566D01*
X005674Y011328D02*
X003090Y011328D01*
X003342Y011884D02*
X003496Y011820D01*
X003664Y011820D01*
X003818Y011884D01*
X003936Y012002D01*
X004000Y012156D01*
X004000Y012804D01*
X003936Y012958D01*
X003818Y013076D01*
X003664Y013140D01*
X003496Y013140D01*
X003342Y013076D01*
X003224Y012958D01*
X003160Y012804D01*
X003160Y012156D01*
X003224Y012002D01*
X003342Y011884D01*
X003207Y012043D02*
X002953Y012043D01*
X003000Y012282D02*
X003160Y012282D01*
X003160Y012520D02*
X003000Y012520D01*
X003000Y012759D02*
X003160Y012759D01*
X003263Y012997D02*
X002897Y012997D01*
X002340Y013236D02*
X014945Y013236D01*
X014818Y013076D02*
X014936Y012958D01*
X014945Y012936D01*
X014945Y013897D01*
X014985Y013992D01*
X015570Y014578D01*
X015570Y015146D01*
X015474Y015242D01*
X015410Y015396D01*
X015410Y015432D01*
X014977Y015000D01*
X014882Y014960D01*
X014278Y014960D01*
X014183Y015000D01*
X014110Y015073D01*
X013860Y015323D01*
X013835Y015381D01*
X013818Y015364D01*
X013664Y015300D01*
X013496Y015300D01*
X013342Y015364D01*
X013246Y015460D01*
X013153Y015460D01*
X013058Y015500D01*
X012977Y015580D01*
X012936Y015482D01*
X012818Y015364D01*
X012664Y015300D01*
X012496Y015300D01*
X012342Y015364D01*
X012246Y015460D01*
X012153Y015460D01*
X012058Y015500D01*
X011977Y015580D01*
X011936Y015482D01*
X011818Y015364D01*
X011664Y015300D01*
X011496Y015300D01*
X011342Y015364D01*
X011246Y015460D01*
X011028Y015460D01*
X010933Y015500D01*
X010808Y015625D01*
X010735Y015698D01*
X010695Y015793D01*
X010695Y016237D01*
X010472Y016460D01*
X010414Y016460D01*
X010436Y016438D01*
X010500Y016284D01*
X010500Y015636D01*
X010436Y015482D01*
X010318Y015364D01*
X010317Y015364D01*
X010300Y015323D01*
X010050Y015073D01*
X009977Y015000D01*
X009882Y014960D01*
X007778Y014960D01*
X007683Y015000D01*
X007433Y015250D01*
X007360Y015323D01*
X007335Y015381D01*
X007318Y015364D01*
X007164Y015300D01*
X006996Y015300D01*
X006842Y015364D01*
X006746Y015460D01*
X006653Y015460D01*
X006558Y015500D01*
X006485Y015573D01*
X006360Y015698D01*
X006340Y015745D01*
X006340Y015418D01*
X006300Y015323D01*
X006227Y015250D01*
X005977Y015000D01*
X005882Y014960D01*
X004778Y014960D01*
X004683Y015000D01*
X004610Y015073D01*
X004360Y015323D01*
X004343Y015364D01*
X004342Y015364D01*
X004224Y015482D01*
X004160Y015636D01*
X004160Y016284D01*
X004224Y016438D01*
X004342Y016556D01*
X004496Y016620D01*
X004664Y016620D01*
X004818Y016556D01*
X004936Y016438D01*
X005000Y016284D01*
X005000Y015636D01*
X004936Y015482D01*
X004936Y015482D01*
X004938Y015480D01*
X005226Y015480D01*
X005224Y015482D01*
X005160Y015636D01*
X005160Y016284D01*
X005224Y016438D01*
X005320Y016534D01*
X005320Y016876D01*
X005318Y016874D01*
X005164Y016810D01*
X004996Y016810D01*
X004842Y016874D01*
X004724Y016992D01*
X004660Y017146D01*
X004660Y017182D01*
X003926Y016448D01*
X003936Y016438D01*
X004000Y016284D01*
X004000Y015636D01*
X003936Y015482D01*
X003818Y015364D01*
X003664Y015300D01*
X003496Y015300D01*
X003342Y015364D01*
X003224Y015482D01*
X003160Y015636D01*
X003160Y016284D01*
X003224Y016438D01*
X003329Y016543D01*
X003360Y016617D01*
X003433Y016690D01*
X004327Y017585D01*
X004271Y017529D02*
X004006Y017529D01*
X004032Y017290D02*
X003768Y017290D01*
X003794Y017052D02*
X003529Y017052D01*
X003555Y016813D02*
X003291Y016813D01*
X003342Y016575D02*
X003052Y016575D01*
X002978Y016336D02*
X003182Y016336D01*
X003160Y016098D02*
X003000Y016098D01*
X003000Y015859D02*
X003160Y015859D01*
X003167Y015621D02*
X002993Y015621D01*
X002836Y015382D02*
X003324Y015382D01*
X003836Y015382D02*
X004324Y015382D01*
X004167Y015621D02*
X003993Y015621D01*
X004000Y015859D02*
X004160Y015859D01*
X004160Y016098D02*
X004000Y016098D01*
X003978Y016336D02*
X004182Y016336D01*
X004052Y016575D02*
X004387Y016575D01*
X004291Y016813D02*
X004989Y016813D01*
X005171Y016813D02*
X005320Y016813D01*
X005320Y016575D02*
X004773Y016575D01*
X004978Y016336D02*
X005182Y016336D01*
X005160Y016098D02*
X005000Y016098D01*
X005000Y015859D02*
X005160Y015859D01*
X005167Y015621D02*
X004993Y015621D01*
X004539Y015144D02*
X002340Y015144D01*
X002340Y014905D02*
X015570Y014905D01*
X015570Y014667D02*
X002340Y014667D01*
X002340Y014428D02*
X015420Y014428D01*
X015182Y014190D02*
X002340Y014190D01*
X002340Y013951D02*
X014967Y013951D01*
X014945Y013713D02*
X002340Y013713D01*
X002340Y013474D02*
X014945Y013474D01*
X014818Y013076D02*
X014664Y013140D01*
X014496Y013140D01*
X014342Y013076D01*
X014224Y012958D01*
X014160Y012804D01*
X014160Y012168D01*
X013972Y011980D01*
X013914Y011980D01*
X013936Y012002D01*
X014000Y012156D01*
X014000Y012804D01*
X013936Y012958D01*
X013818Y013076D01*
X013664Y013140D01*
X013496Y013140D01*
X013342Y013076D01*
X013224Y012958D01*
X013160Y012804D01*
X013160Y012156D01*
X013224Y012002D01*
X013297Y011929D01*
X012997Y011630D01*
X012996Y011630D01*
X012842Y011566D01*
X012322Y011566D01*
X012324Y011560D02*
X012300Y011617D01*
X011926Y011992D01*
X011936Y012002D01*
X012000Y012156D01*
X012000Y012804D01*
X011936Y012958D01*
X011818Y013076D01*
X011664Y013140D01*
X011496Y013140D01*
X011342Y013076D01*
X011224Y012958D01*
X011160Y012804D01*
X011160Y012156D01*
X011224Y012002D01*
X011329Y011897D01*
X011360Y011823D01*
X011318Y011566D02*
X011164Y011630D01*
X010996Y011630D01*
X010842Y011566D01*
X010674Y011328D02*
X010486Y011328D01*
X010500Y011089D02*
X010660Y011089D01*
X010660Y010851D02*
X010500Y010851D01*
X010486Y010612D02*
X010674Y010612D01*
X009839Y010374D02*
X009321Y010374D01*
X009324Y010380D02*
X009436Y010492D01*
X009500Y010646D01*
X009500Y011294D01*
X009436Y011448D01*
X009318Y011566D01*
X009820Y011566D01*
X009820Y011805D02*
X008863Y011805D01*
X008842Y011884D02*
X008996Y011820D01*
X009164Y011820D01*
X009318Y011884D01*
X009436Y012002D01*
X009500Y012156D01*
X009500Y012804D01*
X009436Y012958D01*
X009318Y013076D01*
X009164Y013140D01*
X008996Y013140D01*
X008842Y013076D01*
X008724Y012958D01*
X008660Y012804D01*
X008660Y012156D01*
X008724Y012002D01*
X008842Y011884D01*
X008727Y011940D02*
X009038Y011630D01*
X009164Y011630D01*
X009318Y011566D01*
X009486Y011328D02*
X009674Y011328D01*
X009660Y011089D02*
X009500Y011089D01*
X009500Y010851D02*
X009660Y010851D01*
X009674Y010612D02*
X009486Y010612D01*
X009324Y010380D02*
X009300Y010323D01*
X009227Y010250D01*
X009108Y010130D01*
X009164Y010130D01*
X009318Y010066D01*
X009436Y009948D01*
X009500Y009794D01*
X009500Y009146D01*
X009436Y008992D01*
X009500Y009181D02*
X009622Y009181D01*
X009620Y009420D02*
X009500Y009420D01*
X009500Y009658D02*
X009620Y009658D01*
X009659Y009897D02*
X009457Y009897D01*
X009113Y010135D02*
X009901Y010135D01*
X010538Y009181D02*
X010622Y009181D01*
X010720Y008943D02*
X010440Y008943D01*
X010188Y007159D02*
X010116Y007170D01*
X010080Y007170D01*
X010080Y006470D01*
X010540Y006470D01*
X010540Y006746D01*
X010529Y006818D01*
X010506Y006887D01*
X010473Y006951D01*
X010431Y007010D01*
X010380Y007061D01*
X010321Y007103D01*
X010257Y007136D01*
X010188Y007159D01*
X010080Y007170D02*
X010044Y007170D01*
X009972Y007159D01*
X009903Y007136D01*
X009839Y007103D01*
X009780Y007061D01*
X009729Y007010D01*
X009687Y006951D01*
X009654Y006887D01*
X009631Y006818D01*
X009620Y006746D01*
X009620Y006470D01*
X010080Y006470D01*
X010080Y006470D01*
X010080Y006470D01*
X010540Y006470D01*
X010540Y006194D01*
X010529Y006122D01*
X010506Y006053D01*
X010473Y005989D01*
X010431Y005930D01*
X010380Y005879D01*
X010321Y005837D01*
X010257Y005804D01*
X010188Y005781D01*
X010116Y005770D01*
X010080Y005770D01*
X010080Y006470D01*
X010080Y006470D01*
X010080Y006470D01*
X010080Y007170D01*
X010080Y007035D02*
X010080Y007035D01*
X010080Y006796D02*
X010080Y006796D01*
X010080Y006558D02*
X010080Y006558D01*
X010080Y006470D02*
X009620Y006470D01*
X009620Y006194D01*
X009631Y006122D01*
X009654Y006053D01*
X009687Y005989D01*
X009729Y005930D01*
X009780Y005879D01*
X009839Y005837D01*
X009903Y005804D01*
X009972Y005781D01*
X010044Y005770D01*
X010080Y005770D01*
X010080Y006470D01*
X010080Y006319D02*
X010080Y006319D01*
X010080Y006081D02*
X010080Y006081D01*
X010080Y005842D02*
X010080Y005842D01*
X010329Y005842D02*
X010831Y005842D01*
X010839Y005837D02*
X010882Y005815D01*
X010791Y005777D01*
X010648Y005634D01*
X010570Y005446D01*
X010570Y005244D01*
X010648Y005056D01*
X010791Y004913D01*
X010979Y004835D01*
X011181Y004835D01*
X011369Y004913D01*
X011512Y005056D01*
X011590Y005244D01*
X011590Y005446D01*
X011512Y005634D01*
X011369Y005777D01*
X011278Y005815D01*
X011321Y005837D01*
X011380Y005879D01*
X011431Y005930D01*
X011473Y005989D01*
X011506Y006053D01*
X011529Y006122D01*
X011540Y006194D01*
X011540Y006470D01*
X011540Y006746D01*
X011529Y006818D01*
X011506Y006887D01*
X011473Y006951D01*
X011431Y007010D01*
X011380Y007061D01*
X011321Y007103D01*
X011257Y007136D01*
X011188Y007159D01*
X011116Y007170D01*
X011080Y007170D01*
X011080Y006470D01*
X011540Y006470D01*
X011080Y006470D01*
X011080Y006470D01*
X011080Y006470D01*
X011080Y006470D01*
X010620Y006470D01*
X010620Y006746D01*
X010631Y006818D01*
X010654Y006887D01*
X010687Y006951D01*
X010729Y007010D01*
X010780Y007061D01*
X010839Y007103D01*
X010903Y007136D01*
X010972Y007159D01*
X011044Y007170D01*
X011080Y007170D01*
X011080Y006470D01*
X010620Y006470D01*
X010620Y006194D01*
X010631Y006122D01*
X010654Y006053D01*
X010687Y005989D01*
X010729Y005930D01*
X010780Y005879D01*
X010839Y005837D01*
X010635Y005604D02*
X007525Y005604D01*
X007590Y005365D02*
X010570Y005365D01*
X010618Y005127D02*
X007542Y005127D01*
X007309Y004888D02*
X010851Y004888D01*
X010925Y004625D02*
X010735Y004625D01*
X010558Y004552D01*
X010423Y004417D01*
X010350Y004240D01*
X010350Y003450D01*
X010423Y003273D01*
X010558Y003138D01*
X010735Y003065D01*
X010925Y003065D01*
X011102Y003138D01*
X011237Y003273D01*
X011310Y003450D01*
X011310Y004240D01*
X011237Y004417D01*
X011102Y004552D01*
X010925Y004625D01*
X011239Y004411D02*
X012541Y004411D01*
X012500Y004650D02*
X009960Y004650D01*
X009952Y004652D02*
X009871Y004665D01*
X009830Y004665D01*
X009830Y003845D01*
X009830Y003845D01*
X010350Y003845D01*
X010350Y004186D01*
X010337Y004267D01*
X010312Y004345D01*
X010275Y004418D01*
X010227Y004484D01*
X010169Y004542D01*
X010103Y004590D01*
X010030Y004627D01*
X009952Y004652D01*
X009830Y004650D02*
X009830Y004650D01*
X009830Y004665D02*
X009789Y004665D01*
X009708Y004652D01*
X009630Y004627D01*
X009557Y004590D01*
X009491Y004542D01*
X009433Y004484D01*
X009385Y004418D01*
X009348Y004345D01*
X009323Y004267D01*
X009310Y004186D01*
X009310Y003845D01*
X009830Y003845D01*
X009830Y003845D01*
X009830Y003845D01*
X009830Y004665D01*
X009700Y004650D02*
X006893Y004650D01*
X006851Y004888D02*
X006715Y004888D01*
X006396Y004411D02*
X001630Y004411D01*
X001630Y004173D02*
X006635Y004173D01*
X006309Y003934D02*
X004640Y003934D01*
X004599Y003975D02*
X004388Y004062D01*
X004160Y004062D01*
X003949Y003975D01*
X003788Y003814D01*
X003700Y003603D01*
X003700Y002587D01*
X003788Y002376D01*
X003949Y002215D01*
X004160Y002128D01*
X004388Y002128D01*
X004599Y002215D01*
X004760Y002376D01*
X004848Y002587D01*
X004848Y003603D01*
X004760Y003814D01*
X004599Y003975D01*
X004809Y003696D02*
X006140Y003696D01*
X006102Y003457D02*
X004848Y003457D01*
X004848Y003219D02*
X006102Y003219D01*
X006102Y002980D02*
X004848Y002980D01*
X004848Y002742D02*
X006102Y002742D01*
X006137Y002503D02*
X004813Y002503D01*
X004648Y002265D02*
X006301Y002265D01*
X006084Y001774D02*
X005992Y001804D01*
X005897Y001819D01*
X005455Y001819D01*
X005013Y001819D01*
X004918Y001804D01*
X004826Y001774D01*
X004740Y001730D01*
X004661Y001673D01*
X004593Y001605D01*
X004536Y001527D01*
X004493Y001441D01*
X004463Y001349D01*
X004448Y001254D01*
X004448Y001205D01*
X005455Y001205D01*
X006462Y001205D01*
X006462Y001254D01*
X006447Y001349D01*
X006417Y001441D01*
X006374Y001527D01*
X006317Y001605D01*
X006248Y001673D01*
X006170Y001730D01*
X006084Y001774D01*
X006043Y001788D02*
X008370Y001788D01*
X008388Y002026D02*
X001630Y002026D01*
X001630Y001788D02*
X004867Y001788D01*
X004552Y001549D02*
X001630Y001549D01*
X001630Y001311D02*
X004457Y001311D01*
X004461Y001072D02*
X001630Y001072D01*
X001630Y002265D02*
X003899Y002265D01*
X003735Y002503D02*
X001630Y002503D01*
X001630Y002742D02*
X003700Y002742D01*
X003700Y002980D02*
X001630Y002980D01*
X001630Y003219D02*
X003700Y003219D01*
X003700Y003457D02*
X001630Y003457D01*
X001630Y003696D02*
X003739Y003696D01*
X003908Y003934D02*
X001630Y003934D01*
X001630Y004650D02*
X006203Y004650D01*
X006195Y004888D02*
X001630Y004888D01*
X001630Y005127D02*
X006195Y005127D01*
X006195Y005365D02*
X001630Y005365D01*
X001630Y005604D02*
X006195Y005604D01*
X006195Y005842D02*
X001630Y005842D01*
X001630Y006081D02*
X006195Y006081D01*
X006195Y006319D02*
X001630Y006319D01*
X001630Y006558D02*
X002425Y006558D01*
X002502Y006480D02*
X002705Y006480D01*
X002705Y006970D01*
X002215Y006970D01*
X002215Y006767D01*
X002502Y006480D01*
X002705Y006558D02*
X002705Y006558D01*
X002705Y006796D02*
X002705Y006796D01*
X002985Y006558D02*
X003481Y006558D01*
X003255Y006796D02*
X003195Y006796D01*
X003195Y007035D02*
X003255Y007035D01*
X003614Y007512D02*
X004504Y007512D01*
X004597Y007750D02*
X004121Y007750D01*
X004155Y007989D02*
X004695Y007989D01*
X004695Y008227D02*
X004084Y008227D01*
X003891Y008520D02*
X004155Y008784D01*
X004155Y009156D01*
X003891Y009420D01*
X003519Y009420D01*
X003255Y009156D01*
X003255Y008784D01*
X003519Y008520D01*
X003891Y008520D01*
X004075Y008704D02*
X004695Y008704D01*
X004695Y008466D02*
X002577Y008466D01*
X003075Y008704D02*
X003335Y008704D01*
X003255Y008943D02*
X003155Y008943D01*
X003130Y009181D02*
X003280Y009181D01*
X003518Y009420D02*
X002892Y009420D01*
X002518Y009420D02*
X002340Y009420D01*
X002340Y009658D02*
X004656Y009658D01*
X004695Y009420D02*
X003892Y009420D01*
X004130Y009181D02*
X004695Y009181D01*
X004695Y008943D02*
X004155Y008943D01*
X004597Y009897D02*
X002340Y009897D01*
X002340Y010135D02*
X004597Y010135D01*
X005313Y010135D02*
X006047Y010135D01*
X006195Y009897D02*
X005313Y009897D01*
X005254Y009658D02*
X006195Y009658D01*
X006195Y009420D02*
X005215Y009420D01*
X005215Y009181D02*
X005447Y009181D01*
X005410Y008943D02*
X005215Y008943D01*
X005215Y008704D02*
X005502Y008704D01*
X005570Y008466D02*
X005215Y008466D01*
X005215Y008227D02*
X005570Y008227D01*
X005570Y007989D02*
X005215Y007989D01*
X005313Y007750D02*
X005682Y007750D01*
X005639Y007430D02*
X005370Y007161D01*
X005370Y006970D01*
X005830Y006970D01*
X005830Y006970D01*
X005830Y006970D01*
X005830Y007430D01*
X005639Y007430D01*
X005482Y007273D02*
X005244Y007273D01*
X005313Y007512D02*
X005921Y007512D01*
X005830Y007273D02*
X005830Y007273D01*
X005830Y007035D02*
X005830Y007035D01*
X005830Y006970D02*
X005370Y006970D01*
X005370Y006779D01*
X005639Y006510D01*
X005830Y006510D01*
X005830Y006970D01*
X005830Y006796D02*
X005830Y006796D01*
X005830Y006558D02*
X005830Y006558D01*
X006068Y006558D02*
X006195Y006558D01*
X005592Y006558D02*
X003929Y006558D01*
X004524Y006796D02*
X005370Y006796D01*
X005370Y007035D02*
X004762Y007035D01*
X004265Y007273D02*
X004038Y007273D01*
X003255Y007989D02*
X003155Y007989D01*
X003084Y008227D02*
X003326Y008227D01*
X002284Y007273D02*
X001630Y007273D01*
X001630Y007035D02*
X002215Y007035D01*
X002215Y006796D02*
X001630Y006796D01*
X001630Y007512D02*
X002046Y007512D01*
X001807Y007750D02*
X001630Y007750D01*
X002340Y010374D02*
X005839Y010374D01*
X005674Y010612D02*
X002340Y010612D01*
X002340Y010851D02*
X002832Y010851D01*
X002593Y011089D02*
X002340Y011089D01*
X002340Y011328D02*
X002358Y011328D01*
X003953Y012043D02*
X004207Y012043D01*
X004224Y012002D02*
X004342Y011884D01*
X004496Y011820D01*
X004664Y011820D01*
X004818Y011884D01*
X004936Y012002D01*
X005000Y012156D01*
X005000Y012804D01*
X004936Y012958D01*
X004818Y013076D01*
X004664Y013140D01*
X004496Y013140D01*
X004342Y013076D01*
X004224Y012958D01*
X004160Y012804D01*
X004160Y012156D01*
X004224Y012002D01*
X004160Y012282D02*
X004000Y012282D01*
X004000Y012520D02*
X004160Y012520D01*
X004160Y012759D02*
X004000Y012759D01*
X003897Y012997D02*
X004263Y012997D01*
X004897Y012997D02*
X005263Y012997D01*
X005224Y012958D02*
X005160Y012804D01*
X005160Y012156D01*
X005224Y012002D01*
X005342Y011884D01*
X005496Y011820D01*
X005664Y011820D01*
X005818Y011884D01*
X005936Y012002D01*
X006000Y012156D01*
X006000Y012307D01*
X006195Y012112D01*
X006195Y011793D01*
X006195Y012043D02*
X005953Y012043D01*
X006000Y012282D02*
X006026Y012282D01*
X006602Y012440D02*
X006102Y012940D01*
X006007Y012980D01*
X005914Y012980D01*
X005818Y013076D01*
X005664Y013140D01*
X005496Y013140D01*
X005342Y013076D01*
X005224Y012958D01*
X005160Y012759D02*
X005000Y012759D01*
X005000Y012520D02*
X005160Y012520D01*
X005160Y012282D02*
X005000Y012282D01*
X004953Y012043D02*
X005207Y012043D01*
X005897Y012997D02*
X006763Y012997D01*
X006724Y012958D02*
X006660Y012804D01*
X006660Y012383D01*
X006602Y012440D01*
X006660Y012520D02*
X006523Y012520D01*
X006660Y012759D02*
X006284Y012759D01*
X006724Y012958D02*
X006842Y013076D01*
X006996Y013140D01*
X007164Y013140D01*
X007318Y013076D01*
X007436Y012958D01*
X007500Y012804D01*
X007500Y012156D01*
X007467Y012076D01*
X007563Y011980D01*
X007746Y011980D01*
X007724Y012002D01*
X007660Y012156D01*
X007660Y012804D01*
X007724Y012958D01*
X007842Y013076D01*
X007996Y013140D01*
X008164Y013140D01*
X008318Y013076D01*
X008436Y012958D01*
X008500Y012804D01*
X008500Y012156D01*
X008436Y012002D01*
X008414Y011980D01*
X008632Y011980D01*
X008727Y011940D01*
X008707Y012043D02*
X008453Y012043D01*
X008500Y012282D02*
X008660Y012282D01*
X008660Y012520D02*
X008500Y012520D01*
X008500Y012759D02*
X008660Y012759D01*
X008763Y012997D02*
X008397Y012997D01*
X007763Y012997D02*
X007397Y012997D01*
X007500Y012759D02*
X007660Y012759D01*
X007660Y012520D02*
X007500Y012520D01*
X007500Y012282D02*
X007660Y012282D01*
X007707Y012043D02*
X007500Y012043D01*
X006605Y011328D02*
X006486Y011328D01*
X006500Y011089D02*
X006660Y011089D01*
X006660Y010851D02*
X006500Y010851D01*
X006486Y010612D02*
X006674Y010612D01*
X006544Y010374D02*
X006839Y010374D01*
X006602Y010315D02*
X006602Y010315D01*
X006715Y010135D02*
X007047Y010135D01*
X006774Y008943D02*
X006715Y008943D01*
X006715Y008704D02*
X007320Y008704D01*
X007320Y008466D02*
X006715Y008466D01*
X006941Y008227D02*
X007320Y008227D01*
X007444Y007989D02*
X007179Y007989D01*
X007340Y007750D02*
X007682Y007750D01*
X007820Y007512D02*
X007340Y007512D01*
X007340Y007273D02*
X007820Y007273D01*
X007811Y007035D02*
X007349Y007035D01*
X007499Y006796D02*
X007661Y006796D01*
X007660Y006558D02*
X007500Y006558D01*
X007500Y006319D02*
X007660Y006319D01*
X007687Y006081D02*
X007473Y006081D01*
X007241Y005842D02*
X007919Y005842D01*
X008241Y005842D02*
X008919Y005842D01*
X008842Y005874D02*
X008996Y005810D01*
X009164Y005810D01*
X009318Y005874D01*
X009436Y005992D01*
X009500Y006146D01*
X009500Y006794D01*
X009436Y006948D01*
X009318Y007066D01*
X009164Y007130D01*
X008996Y007130D01*
X008842Y007066D01*
X008724Y006948D01*
X008660Y006794D01*
X008660Y006146D01*
X008724Y005992D01*
X008842Y005874D01*
X008687Y006081D02*
X008473Y006081D01*
X008500Y006319D02*
X008660Y006319D01*
X008660Y006558D02*
X008500Y006558D01*
X008499Y006796D02*
X008661Y006796D01*
X008811Y007035D02*
X008349Y007035D01*
X008340Y007273D02*
X012820Y007273D01*
X012820Y007512D02*
X008340Y007512D01*
X008340Y007750D02*
X012682Y007750D01*
X012444Y007989D02*
X008179Y007989D01*
X007941Y008227D02*
X012320Y008227D01*
X012320Y008466D02*
X007840Y008466D01*
X007840Y008704D02*
X012320Y008704D01*
X012840Y008704D02*
X015835Y008704D01*
X015755Y008943D02*
X014386Y008943D01*
X014500Y009181D02*
X015780Y009181D01*
X016018Y009420D02*
X014500Y009420D01*
X014500Y009658D02*
X017324Y009658D01*
X017205Y009460D02*
X017002Y009460D01*
X016715Y009173D01*
X016715Y008970D01*
X017205Y008970D01*
X017205Y008970D01*
X017205Y009460D01*
X017205Y009420D02*
X017205Y009420D01*
X017205Y009181D02*
X017205Y009181D01*
X017448Y009420D02*
X017513Y009420D01*
X017320Y009897D02*
X014457Y009897D01*
X014283Y010135D02*
X017320Y010135D01*
X017320Y010374D02*
X014317Y010374D01*
X014486Y010612D02*
X017320Y010612D01*
X017320Y010851D02*
X015078Y010851D01*
X015317Y011089D02*
X017320Y011089D01*
X017320Y011328D02*
X015465Y011328D01*
X015465Y011566D02*
X017320Y011566D01*
X017320Y011805D02*
X015465Y011805D01*
X015465Y012043D02*
X015686Y012043D01*
X015830Y012043D02*
X015830Y012043D01*
X015974Y012043D02*
X017320Y012043D01*
X017320Y012282D02*
X016245Y012282D01*
X016290Y012520D02*
X017320Y012520D01*
X017320Y012759D02*
X016290Y012759D01*
X016290Y012997D02*
X017320Y012997D01*
X017320Y013236D02*
X016198Y013236D01*
X015830Y013236D02*
X015830Y013236D01*
X015830Y012997D02*
X015830Y012997D01*
X015830Y012759D02*
X015830Y012759D01*
X015830Y012520D02*
X015830Y012520D01*
X015830Y012282D02*
X015830Y012282D01*
X015465Y013474D02*
X017320Y013474D01*
X017320Y013713D02*
X015465Y013713D01*
X015679Y013951D02*
X017320Y013951D01*
X017320Y014190D02*
X015917Y014190D01*
X016090Y014428D02*
X017320Y014428D01*
X017320Y014667D02*
X016090Y014667D01*
X016090Y014905D02*
X017320Y014905D01*
X017320Y015144D02*
X016090Y015144D01*
X016244Y015382D02*
X017320Y015382D01*
X017320Y015621D02*
X016250Y015621D01*
X016250Y015859D02*
X016347Y015859D01*
X016160Y016336D02*
X016020Y016336D01*
X016320Y016575D02*
X014773Y016575D01*
X014824Y016813D02*
X015393Y016813D01*
X015160Y017052D02*
X015040Y017052D01*
X015040Y017290D02*
X015160Y017290D01*
X015295Y017529D02*
X014922Y017529D01*
X014580Y017529D02*
X014580Y017529D01*
X014580Y017290D02*
X014580Y017290D01*
X014580Y017052D02*
X014580Y017052D01*
X014580Y016813D02*
X014580Y016813D01*
X014387Y016575D02*
X014340Y016575D01*
X014978Y016336D02*
X015640Y016336D01*
X015432Y016098D02*
X015000Y016098D01*
X015000Y015859D02*
X015101Y015859D01*
X015360Y015382D02*
X015416Y015382D01*
X015570Y015144D02*
X015121Y015144D01*
X014039Y015144D02*
X010121Y015144D01*
X010336Y015382D02*
X011324Y015382D01*
X011836Y015382D02*
X012324Y015382D01*
X012836Y015382D02*
X013324Y015382D01*
X014014Y017529D02*
X014238Y017529D01*
X014277Y018120D02*
X013883Y018120D01*
X013605Y018398D01*
X013605Y018792D01*
X013883Y019070D01*
X014277Y019070D01*
X014555Y018792D01*
X014555Y018398D01*
X014277Y018120D01*
X014401Y018244D02*
X014759Y018244D01*
X014883Y018120D02*
X014605Y018398D01*
X014605Y018792D01*
X014883Y019070D01*
X015277Y019070D01*
X015555Y018792D01*
X015555Y018398D01*
X015277Y018120D01*
X014883Y018120D01*
X014605Y018483D02*
X014555Y018483D01*
X014555Y018721D02*
X014605Y018721D01*
X014772Y018960D02*
X014388Y018960D01*
X014337Y019198D02*
X014823Y019198D01*
X014817Y019201D02*
X014988Y019130D01*
X015172Y019130D01*
X015343Y019201D01*
X015474Y019332D01*
X015545Y019503D01*
X015545Y019687D01*
X015474Y019858D01*
X015343Y019989D01*
X015172Y020060D01*
X014988Y020060D01*
X014860Y020007D01*
X015227Y020375D01*
X015300Y020448D01*
X015324Y020505D01*
X015436Y020617D01*
X015500Y020771D01*
X015500Y021419D01*
X015436Y021573D01*
X015318Y021691D01*
X015164Y021755D01*
X014996Y021755D01*
X014842Y021691D01*
X014724Y021573D01*
X014660Y021419D01*
X014660Y020771D01*
X014724Y020617D01*
X014729Y020612D01*
X014176Y020059D01*
X014172Y020060D01*
X013988Y020060D01*
X013817Y019989D01*
X013686Y019858D01*
X013615Y019687D01*
X013615Y019503D01*
X013686Y019332D01*
X013817Y019201D01*
X013988Y019130D01*
X014172Y019130D01*
X014343Y019201D01*
X014474Y019332D01*
X014545Y019503D01*
X014545Y019687D01*
X014544Y019691D01*
X014668Y019815D01*
X014615Y019687D01*
X014615Y019503D01*
X014686Y019332D01*
X014817Y019201D01*
X014642Y019437D02*
X014518Y019437D01*
X014545Y019675D02*
X014615Y019675D01*
X014269Y020152D02*
X013340Y020152D01*
X013340Y019991D02*
X013340Y020521D01*
X013436Y020617D01*
X013500Y020771D01*
X013500Y021419D01*
X013436Y021573D01*
X013318Y021691D01*
X013164Y021755D01*
X012996Y021755D01*
X012842Y021691D01*
X012724Y021573D01*
X012660Y021419D01*
X012660Y020771D01*
X012724Y020617D01*
X012820Y020521D01*
X012820Y019991D01*
X012817Y019989D01*
X012686Y019858D01*
X012615Y019687D01*
X012615Y019503D01*
X012686Y019332D01*
X012817Y019201D01*
X012988Y019130D01*
X013172Y019130D01*
X013343Y019201D01*
X013474Y019332D01*
X013545Y019503D01*
X013545Y019687D01*
X013474Y019858D01*
X013343Y019989D01*
X013340Y019991D01*
X013419Y019914D02*
X013741Y019914D01*
X013615Y019675D02*
X013545Y019675D01*
X013518Y019437D02*
X013642Y019437D01*
X013823Y019198D02*
X013337Y019198D01*
X013388Y018960D02*
X013772Y018960D01*
X013605Y018721D02*
X013555Y018721D01*
X013555Y018483D02*
X013605Y018483D01*
X013759Y018244D02*
X013401Y018244D01*
X013378Y018006D02*
X017320Y018006D01*
X017320Y018244D02*
X015401Y018244D01*
X015555Y018483D02*
X017320Y018483D01*
X017320Y018721D02*
X015555Y018721D01*
X015388Y018960D02*
X017320Y018960D01*
X017320Y019198D02*
X015337Y019198D01*
X015518Y019437D02*
X017320Y019437D01*
X017320Y019675D02*
X015545Y019675D01*
X015419Y019914D02*
X016293Y019914D01*
X016406Y019800D02*
X016754Y019800D01*
X017000Y020046D01*
X017000Y020394D01*
X016754Y020640D01*
X016406Y020640D01*
X016160Y020394D01*
X016160Y020046D01*
X016406Y019800D01*
X016160Y020152D02*
X015005Y020152D01*
X015243Y020391D02*
X016160Y020391D01*
X016299Y020868D02*
X015500Y020868D01*
X015500Y021106D02*
X015951Y021106D01*
X015713Y021345D02*
X015500Y021345D01*
X015570Y021583D02*
X015426Y021583D01*
X015486Y021822D02*
X010947Y021822D01*
X011000Y021769D02*
X010754Y022015D01*
X010406Y022015D01*
X010160Y021769D01*
X010160Y021421D01*
X010406Y021175D01*
X010754Y021175D01*
X011000Y021421D01*
X011000Y021769D01*
X011000Y021583D02*
X012734Y021583D01*
X012660Y021345D02*
X012500Y021345D01*
X012500Y021410D02*
X012395Y021515D01*
X011765Y021515D01*
X011660Y021410D01*
X011660Y020780D01*
X011765Y020675D01*
X012395Y020675D01*
X012500Y020780D01*
X012500Y021410D01*
X012500Y021106D02*
X012660Y021106D01*
X012660Y020868D02*
X012500Y020868D01*
X012719Y020629D02*
X009441Y020629D01*
X009436Y020617D02*
X009500Y020771D01*
X009500Y021419D01*
X009436Y021573D01*
X009318Y021691D01*
X009164Y021755D01*
X008996Y021755D01*
X008842Y021691D01*
X008724Y021573D01*
X008660Y021419D01*
X008660Y020771D01*
X008724Y020617D01*
X008842Y020499D01*
X008996Y020435D01*
X009164Y020435D01*
X009318Y020499D01*
X009436Y020617D01*
X009500Y020868D02*
X011660Y020868D01*
X011660Y021106D02*
X009500Y021106D01*
X009500Y021345D02*
X010237Y021345D01*
X010160Y021583D02*
X009426Y021583D01*
X008734Y021583D02*
X008426Y021583D01*
X008500Y021345D02*
X008660Y021345D01*
X008660Y021106D02*
X008500Y021106D01*
X008500Y020868D02*
X008660Y020868D01*
X008719Y020629D02*
X008441Y020629D01*
X008817Y019989D02*
X008686Y019858D01*
X008615Y019687D01*
X008615Y019503D01*
X008686Y019332D01*
X008817Y019201D01*
X008988Y019130D01*
X009172Y019130D01*
X009343Y019201D01*
X009474Y019332D01*
X009545Y019503D01*
X009545Y019687D01*
X009474Y019858D01*
X009343Y019989D01*
X009172Y020060D01*
X008988Y020060D01*
X008817Y019989D01*
X008741Y019914D02*
X008419Y019914D01*
X008545Y019675D02*
X008615Y019675D01*
X008642Y019437D02*
X008518Y019437D01*
X008337Y019198D02*
X008823Y019198D01*
X008772Y018960D02*
X008388Y018960D01*
X008555Y018721D02*
X008605Y018721D01*
X008605Y018483D02*
X008555Y018483D01*
X008401Y018244D02*
X008759Y018244D01*
X008782Y018006D02*
X008378Y018006D01*
X008500Y017767D02*
X008660Y017767D01*
X008660Y017529D02*
X008500Y017529D01*
X008500Y017290D02*
X008660Y017290D01*
X008699Y017052D02*
X008461Y017052D01*
X008340Y016813D02*
X008820Y016813D01*
X008820Y016575D02*
X008340Y016575D01*
X008478Y016336D02*
X008682Y016336D01*
X008660Y016098D02*
X008500Y016098D01*
X008500Y015859D02*
X008660Y015859D01*
X008667Y015621D02*
X008493Y015621D01*
X007539Y015144D02*
X006121Y015144D01*
X006325Y015382D02*
X006824Y015382D01*
X006437Y015621D02*
X006340Y015621D01*
X004699Y017052D02*
X004529Y017052D01*
X005555Y018483D02*
X005600Y018483D01*
X005605Y018721D02*
X005555Y018721D01*
X005388Y018960D02*
X005772Y018960D01*
X005823Y019198D02*
X005337Y019198D01*
X005518Y019437D02*
X005642Y019437D01*
X005615Y019503D02*
X005686Y019332D01*
X005817Y019201D01*
X005988Y019130D01*
X006172Y019130D01*
X006343Y019201D01*
X006474Y019332D01*
X006545Y019503D01*
X006545Y019687D01*
X006474Y019858D01*
X006343Y019989D01*
X006172Y020060D01*
X005988Y020060D01*
X005817Y019989D01*
X005686Y019858D01*
X005615Y019687D01*
X005615Y019503D01*
X005615Y019675D02*
X005545Y019675D01*
X005419Y019914D02*
X005741Y019914D01*
X006419Y019914D02*
X006741Y019914D01*
X006615Y019675D02*
X006545Y019675D01*
X006518Y019437D02*
X006642Y019437D01*
X006823Y019198D02*
X006337Y019198D01*
X006388Y018960D02*
X006772Y018960D01*
X006605Y018721D02*
X006555Y018721D01*
X006555Y018483D02*
X006600Y018483D01*
X007555Y018483D02*
X007600Y018483D01*
X007605Y018721D02*
X007555Y018721D01*
X006719Y020629D02*
X006441Y020629D01*
X006500Y020868D02*
X006660Y020868D01*
X006660Y021106D02*
X006500Y021106D01*
X006500Y021345D02*
X006660Y021345D01*
X006734Y021583D02*
X006426Y021583D01*
X006340Y021822D02*
X010213Y021822D01*
X010923Y021345D02*
X011660Y021345D01*
X012270Y022537D02*
X006515Y022537D01*
X006340Y022299D02*
X012509Y022299D01*
X012767Y022776D02*
X016181Y022776D01*
X016160Y023014D02*
X015367Y023014D01*
X015605Y023253D02*
X016269Y023253D01*
X016891Y023253D02*
X017055Y023253D01*
X017000Y023014D02*
X017293Y023014D01*
X017320Y022776D02*
X016979Y022776D01*
X016840Y022537D02*
X017320Y022537D01*
X017320Y022299D02*
X016885Y022299D01*
X017010Y022060D02*
X017320Y022060D01*
X017320Y021822D02*
X017010Y021822D01*
X016776Y021583D02*
X017320Y021583D01*
X017320Y021345D02*
X016983Y021345D01*
X017009Y021106D02*
X017320Y021106D01*
X017320Y020868D02*
X016861Y020868D01*
X016765Y020629D02*
X017320Y020629D01*
X017320Y020391D02*
X017000Y020391D01*
X017000Y020152D02*
X017320Y020152D01*
X017320Y019914D02*
X016867Y019914D01*
X016395Y020629D02*
X015441Y020629D01*
X014719Y020629D02*
X014441Y020629D01*
X014436Y020617D02*
X014500Y020771D01*
X014500Y021419D01*
X014436Y021573D01*
X014318Y021691D01*
X014164Y021755D01*
X013996Y021755D01*
X013842Y021691D01*
X013724Y021573D01*
X013660Y021419D01*
X013660Y020771D01*
X013724Y020617D01*
X013842Y020499D01*
X013996Y020435D01*
X014164Y020435D01*
X014318Y020499D01*
X014436Y020617D01*
X014508Y020391D02*
X013340Y020391D01*
X013441Y020629D02*
X013719Y020629D01*
X013660Y020868D02*
X013500Y020868D01*
X013500Y021106D02*
X013660Y021106D01*
X013660Y021345D02*
X013500Y021345D01*
X013426Y021583D02*
X013734Y021583D01*
X014426Y021583D02*
X014734Y021583D01*
X014660Y021345D02*
X014500Y021345D01*
X014500Y021106D02*
X014660Y021106D01*
X014660Y020868D02*
X014500Y020868D01*
X015247Y022060D02*
X006340Y022060D01*
X007688Y023230D02*
X007368Y023549D01*
X007436Y023617D01*
X007500Y023771D01*
X007500Y024419D01*
X007436Y024573D01*
X007318Y024691D01*
X007164Y024755D01*
X006996Y024755D01*
X006842Y024691D01*
X006840Y024689D01*
X006840Y025191D01*
X006988Y025130D01*
X007172Y025130D01*
X007343Y025201D01*
X007474Y025332D01*
X007545Y025503D01*
X007545Y025687D01*
X007474Y025858D01*
X007343Y025989D01*
X007172Y026060D01*
X006988Y026060D01*
X006840Y025999D01*
X006840Y026163D01*
X006883Y026120D01*
X007277Y026120D01*
X007555Y026398D01*
X007555Y026792D01*
X007277Y027070D01*
X006923Y027070D01*
X006938Y027085D01*
X007382Y027085D01*
X007477Y027125D01*
X007550Y027198D01*
X007778Y027425D01*
X008004Y027425D01*
X008250Y027671D01*
X008250Y027897D01*
X008977Y028625D01*
X009050Y028698D01*
X009090Y028793D01*
X009090Y028917D01*
X009110Y028925D01*
X009250Y029065D01*
X009325Y029247D01*
X009325Y029443D01*
X009250Y029625D01*
X009110Y029765D01*
X008928Y029840D01*
X008732Y029840D01*
X008550Y029765D01*
X008410Y029625D01*
X008335Y029443D01*
X008335Y029247D01*
X008410Y029065D01*
X008546Y028929D01*
X007882Y028265D01*
X007656Y028265D01*
X007410Y028019D01*
X007410Y027793D01*
X007222Y027605D01*
X006950Y027605D01*
X007212Y027867D01*
X007212Y028383D01*
X006848Y028747D01*
X006332Y028747D01*
X005968Y028383D01*
X005968Y027867D01*
X006332Y027503D01*
X006620Y027503D01*
X006360Y027242D01*
X006320Y027147D01*
X006320Y027027D01*
X006277Y027070D01*
X005883Y027070D01*
X005605Y026792D01*
X005605Y026398D01*
X005883Y026120D01*
X006277Y026120D01*
X006320Y026163D01*
X006320Y025999D01*
X006172Y026060D01*
X005988Y026060D01*
X005817Y025989D01*
X005686Y025858D01*
X005615Y025687D01*
X005615Y025503D01*
X005616Y025499D01*
X005492Y025375D01*
X005545Y025503D01*
X005545Y025687D01*
X005474Y025858D01*
X005343Y025989D01*
X005172Y026060D01*
X004988Y026060D01*
X004817Y025989D01*
X004686Y025858D01*
X004615Y025687D01*
X004615Y025503D01*
X004616Y025499D01*
X004492Y025375D01*
X004545Y025503D01*
X004545Y025687D01*
X004474Y025858D01*
X004343Y025989D01*
X004172Y026060D01*
X003988Y026060D01*
X003817Y025989D01*
X003686Y025858D01*
X003615Y025687D01*
X003615Y025503D01*
X003616Y025499D01*
X003562Y025445D01*
X003573Y025477D01*
X003585Y025555D01*
X003585Y025595D01*
X003585Y025635D01*
X003573Y025713D01*
X003548Y025789D01*
X003512Y025860D01*
X003465Y025924D01*
X003409Y025980D01*
X003345Y026027D01*
X003274Y026063D01*
X003222Y026080D01*
X003293Y026080D01*
X003595Y026382D01*
X003595Y026595D01*
X003595Y026808D01*
X003293Y027110D01*
X003080Y027110D01*
X002867Y027110D01*
X002565Y026808D01*
X002565Y026595D01*
X002565Y026382D01*
X002867Y026080D01*
X002938Y026080D01*
X002886Y026063D01*
X002815Y026027D01*
X002751Y025980D01*
X002695Y025924D01*
X002648Y025860D01*
X002612Y025789D01*
X002587Y025713D01*
X002575Y025635D01*
X002575Y025595D01*
X003080Y025595D01*
X003080Y025595D01*
X003080Y026080D01*
X003080Y026595D01*
X003080Y026595D01*
X003080Y027110D01*
X003080Y026595D01*
X003595Y026595D01*
X003080Y026595D01*
X003080Y026595D01*
X003080Y026595D01*
X003080Y026595D01*
X002565Y026595D01*
X003080Y026595D01*
X003080Y025595D01*
X003585Y025595D01*
X003080Y025595D01*
X003080Y025595D01*
X003080Y025090D01*
X003120Y025090D01*
X003198Y025102D01*
X003230Y025113D01*
X001933Y023815D01*
X001860Y023742D01*
X001820Y023647D01*
X001820Y022946D01*
X001722Y022848D01*
X001722Y022342D01*
X001827Y022237D01*
X002333Y022237D01*
X002438Y022342D01*
X002438Y022848D01*
X002340Y022946D01*
X002340Y023487D01*
X003984Y025131D01*
X003988Y025130D01*
X004172Y025130D01*
X004300Y025183D01*
X004183Y025065D01*
X004110Y024992D01*
X004070Y024897D01*
X004070Y022953D01*
X003183Y022065D01*
X003110Y021992D01*
X003070Y021897D01*
X003070Y020953D01*
X003040Y020923D01*
X003040Y021095D01*
X003040Y021286D01*
X002771Y021555D01*
X002580Y021555D01*
X002580Y021095D01*
X002580Y021095D01*
X003040Y021095D01*
X002580Y021095D01*
X002580Y021095D01*
X002580Y020635D01*
X002752Y020635D01*
X002433Y020315D01*
X002360Y020242D01*
X002320Y020147D01*
X002320Y020039D01*
X002274Y020063D01*
X002198Y020088D01*
X002120Y020100D01*
X002080Y020100D01*
X002080Y019595D01*
X002320Y019595D01*
X002320Y019595D01*
X002080Y019595D01*
X002080Y019595D01*
X002080Y019595D01*
X002080Y018595D01*
X002080Y018595D01*
X002080Y019090D01*
X002080Y019595D01*
X002080Y019595D01*
X002080Y019595D01*
X001630Y019595D01*
X001630Y019595D01*
X002080Y019595D01*
X002080Y020100D01*
X002040Y020100D01*
X001962Y020088D01*
X001886Y020063D01*
X001815Y020027D01*
X001751Y019980D01*
X001695Y019924D01*
X001648Y019860D01*
X001630Y019824D01*
X001630Y025466D01*
X001686Y025332D01*
X001817Y025201D01*
X001988Y025130D01*
X002172Y025130D01*
X002343Y025201D01*
X002474Y025332D01*
X002545Y025503D01*
X002545Y025687D01*
X002474Y025858D01*
X002343Y025989D01*
X002172Y026060D01*
X001988Y026060D01*
X001817Y025989D01*
X001686Y025858D01*
X001630Y025724D01*
X001630Y026373D01*
X001883Y026120D01*
X002277Y026120D01*
X002555Y026398D01*
X002555Y026792D01*
X002277Y027070D01*
X001883Y027070D01*
X001630Y026817D01*
X001630Y032166D01*
X004961Y032166D01*
X004922Y032128D01*
X004884Y032035D01*
X004208Y032035D01*
X004113Y031995D01*
X003493Y031375D01*
X003420Y031302D01*
X003380Y031207D01*
X003380Y028535D01*
X003018Y028173D01*
X003018Y027657D01*
X003382Y027293D01*
X003898Y027293D01*
X004262Y027657D01*
X004262Y028173D01*
X003900Y028535D01*
X003900Y031047D01*
X004368Y031515D01*
X004884Y031515D01*
X004922Y031422D01*
X004937Y031407D01*
X004776Y031407D01*
X004547Y031313D01*
X004372Y031138D01*
X004278Y030909D01*
X004278Y030661D01*
X004372Y030432D01*
X004547Y030257D01*
X004776Y030163D01*
X005024Y030163D01*
X005253Y030257D01*
X005428Y030432D01*
X005522Y030661D01*
X005522Y030909D01*
X005428Y031138D01*
X005413Y031153D01*
X005574Y031153D01*
X005803Y031247D01*
X005978Y031422D01*
X006016Y031515D01*
X006312Y031515D01*
X006407Y031555D01*
X006438Y031585D01*
X007496Y031585D01*
X007656Y031425D01*
X008004Y031425D01*
X008164Y031585D01*
X008222Y031585D01*
X008570Y031237D01*
X008570Y030785D01*
X008335Y030550D01*
X008335Y030140D01*
X008625Y029850D01*
X009035Y029850D01*
X009325Y030140D01*
X009325Y030550D01*
X009090Y030785D01*
X009090Y031397D01*
X009050Y031492D01*
X008550Y031992D01*
X008477Y032065D01*
X008382Y032105D01*
X008164Y032105D01*
X008103Y032166D01*
X009557Y032166D01*
X009410Y032019D01*
X009410Y031671D01*
X009656Y031425D01*
X010004Y031425D01*
X010164Y031585D01*
X010746Y031585D01*
X010906Y031425D01*
X011254Y031425D01*
X011500Y031671D01*
X011500Y032019D01*
X011353Y032166D01*
X012057Y032166D01*
X011910Y032019D01*
X011910Y031793D01*
X009610Y029492D01*
X009570Y029397D01*
X009570Y028179D01*
X009410Y028019D01*
X009410Y027671D01*
X009656Y027425D01*
X010004Y027425D01*
X010250Y027671D01*
X010250Y028019D01*
X010090Y028179D01*
X010090Y029237D01*
X012278Y031425D01*
X012504Y031425D01*
X012750Y031671D01*
X012750Y032019D01*
X012603Y032166D01*
X018275Y032166D01*
X018275Y031836D01*
X018083Y031915D01*
X017077Y031915D01*
X016867Y031828D01*
X016707Y031668D01*
X016681Y031605D01*
X016153Y031605D01*
X016058Y031565D01*
X015985Y031492D01*
X014860Y030367D01*
X014820Y030272D01*
X014820Y028600D01*
X014818Y028554D01*
X014820Y028549D01*
X014820Y028543D01*
X014838Y028500D01*
X014854Y028457D01*
X014858Y028453D01*
X014860Y028448D01*
X014892Y028415D01*
X016160Y027042D01*
X016160Y026796D01*
X016406Y026550D01*
X016754Y026550D01*
X017000Y026796D01*
X017000Y027144D01*
X016754Y027390D01*
X016546Y027390D01*
X015340Y028697D01*
X015340Y030112D01*
X016313Y031085D01*
X016681Y031085D01*
X016707Y031022D01*
X016867Y030862D01*
X017077Y030775D01*
X018083Y030775D01*
X018275Y030854D01*
X018275Y029836D01*
X018083Y029915D01*
X017077Y029915D01*
X016867Y029828D01*
X016707Y029668D01*
X016620Y029458D01*
X016620Y029232D01*
X016707Y029022D01*
X016867Y028862D01*
X017077Y028775D01*
X018083Y028775D01*
X018275Y028854D01*
X018275Y023643D01*
X016727Y025190D01*
X016632Y025230D01*
X015373Y025230D01*
X015474Y025332D01*
X015545Y025503D01*
X015545Y025687D01*
X015474Y025858D01*
X015343Y025989D01*
X015172Y026060D01*
X014988Y026060D01*
X014817Y025989D01*
X014686Y025858D01*
X014615Y025687D01*
X014615Y025503D01*
X014668Y025375D01*
X014544Y025499D01*
X014545Y025503D01*
X014545Y025687D01*
X014474Y025858D01*
X014343Y025989D01*
X014172Y026060D01*
X013988Y026060D01*
X013817Y025989D01*
X013686Y025858D01*
X013615Y025687D01*
X013615Y025503D01*
X013668Y025375D01*
X013544Y025499D01*
X013545Y025503D01*
X013545Y025687D01*
X013474Y025858D01*
X013343Y025989D01*
X013172Y026060D01*
X012988Y026060D01*
X012840Y025999D01*
X012840Y026163D01*
X012883Y026120D01*
X013277Y026120D01*
X013555Y026398D01*
X013555Y026792D01*
X013277Y027070D01*
X013048Y027070D01*
X013800Y027823D01*
X013840Y027918D01*
X013840Y029446D01*
X013903Y029472D01*
X014063Y029632D01*
X014150Y029842D01*
X014150Y030848D01*
X014063Y031058D01*
X013903Y031218D01*
X013693Y031305D01*
X013467Y031305D01*
X013257Y031218D01*
X013097Y031058D01*
X013010Y030848D01*
X013010Y029842D01*
X013097Y029632D01*
X013257Y029472D01*
X013320Y029446D01*
X013320Y028078D01*
X012433Y027190D01*
X012360Y027117D01*
X012322Y027026D01*
X012277Y027070D01*
X011923Y027070D01*
X012278Y027425D01*
X012504Y027425D01*
X012750Y027671D01*
X012750Y028019D01*
X012504Y028265D01*
X012156Y028265D01*
X011910Y028019D01*
X011910Y027793D01*
X011597Y027480D01*
X011309Y027480D01*
X011500Y027671D01*
X011500Y028019D01*
X011254Y028265D01*
X010906Y028265D01*
X010660Y028019D01*
X010660Y027671D01*
X010851Y027480D01*
X010778Y027480D01*
X010683Y027440D01*
X010610Y027367D01*
X010433Y027190D01*
X010360Y027117D01*
X010322Y027026D01*
X010277Y027070D01*
X009883Y027070D01*
X009605Y026792D01*
X009605Y026398D01*
X009883Y026120D01*
X010277Y026120D01*
X010320Y026163D01*
X010320Y025999D01*
X010172Y026060D01*
X009988Y026060D01*
X009817Y025989D01*
X009686Y025858D01*
X009615Y025687D01*
X009615Y025503D01*
X009686Y025332D01*
X009817Y025201D01*
X009988Y025130D01*
X009997Y025130D01*
X009437Y024570D01*
X009436Y024573D01*
X009318Y024691D01*
X009164Y024755D01*
X008996Y024755D01*
X008842Y024691D01*
X008724Y024573D01*
X008660Y024419D01*
X008660Y023771D01*
X008724Y023617D01*
X008842Y023499D01*
X008996Y023435D01*
X009164Y023435D01*
X009318Y023499D01*
X009436Y023617D01*
X009500Y023771D01*
X009500Y023897D01*
X009550Y023948D01*
X010800Y025198D01*
X010806Y025211D01*
X010817Y025201D01*
X010988Y025130D01*
X011172Y025130D01*
X011343Y025201D01*
X011474Y025332D01*
X011545Y025503D01*
X011545Y025687D01*
X011474Y025858D01*
X011343Y025989D01*
X011172Y026060D01*
X010988Y026060D01*
X010840Y025999D01*
X010840Y026163D01*
X010883Y026120D01*
X011277Y026120D01*
X011555Y026398D01*
X011555Y026792D01*
X011387Y026960D01*
X011757Y026960D01*
X011784Y026971D01*
X011605Y026792D01*
X011605Y026398D01*
X011883Y026120D01*
X012277Y026120D01*
X012320Y026163D01*
X012320Y025999D01*
X012172Y026060D01*
X011988Y026060D01*
X011817Y025989D01*
X011686Y025858D01*
X011615Y025687D01*
X011615Y025503D01*
X011686Y025332D01*
X011787Y025230D01*
X011653Y025230D01*
X011558Y025190D01*
X011183Y024815D01*
X011110Y024742D01*
X011070Y024647D01*
X011070Y023328D01*
X010972Y023230D01*
X010866Y023230D01*
X011040Y023404D01*
X011040Y023595D01*
X011040Y023786D01*
X010771Y024055D01*
X010580Y024055D01*
X010580Y023595D01*
X010580Y023595D01*
X011040Y023595D01*
X010580Y023595D01*
X010580Y023595D01*
X010580Y023595D01*
X010120Y023595D01*
X010120Y023786D01*
X010389Y024055D01*
X010580Y024055D01*
X010580Y023595D01*
X010120Y023595D01*
X010120Y023404D01*
X010294Y023230D01*
X007688Y023230D01*
X007665Y023253D02*
X010272Y023253D01*
X010120Y023491D02*
X009299Y023491D01*
X009483Y023730D02*
X010120Y023730D01*
X010302Y023968D02*
X009571Y023968D01*
X009809Y024207D02*
X011070Y024207D01*
X011070Y024445D02*
X010048Y024445D01*
X010286Y024684D02*
X011085Y024684D01*
X011289Y024922D02*
X010525Y024922D01*
X010763Y025161D02*
X010914Y025161D01*
X011246Y025161D02*
X011528Y025161D01*
X011502Y025399D02*
X011658Y025399D01*
X011615Y025638D02*
X011545Y025638D01*
X011457Y025876D02*
X011703Y025876D01*
X011650Y026353D02*
X011510Y026353D01*
X011555Y026592D02*
X011605Y026592D01*
X011643Y026830D02*
X011517Y026830D01*
X011374Y027546D02*
X011663Y027546D01*
X011500Y027784D02*
X011901Y027784D01*
X011914Y028023D02*
X011496Y028023D01*
X011258Y028261D02*
X012152Y028261D01*
X012508Y028261D02*
X013320Y028261D01*
X013320Y028500D02*
X010090Y028500D01*
X010090Y028738D02*
X013320Y028738D01*
X013320Y028977D02*
X010090Y028977D01*
X010090Y029215D02*
X013320Y029215D01*
X013301Y029454D02*
X010306Y029454D01*
X010545Y029692D02*
X013072Y029692D01*
X013010Y029931D02*
X010783Y029931D01*
X011022Y030169D02*
X013010Y030169D01*
X013010Y030408D02*
X011260Y030408D01*
X011499Y030646D02*
X013010Y030646D01*
X013025Y030885D02*
X011737Y030885D01*
X011976Y031123D02*
X013162Y031123D01*
X012750Y031839D02*
X016892Y031839D01*
X016844Y030885D02*
X016112Y030885D01*
X015874Y030646D02*
X018275Y030646D01*
X018275Y030408D02*
X015635Y030408D01*
X015397Y030169D02*
X018275Y030169D01*
X018275Y029931D02*
X015340Y029931D01*
X015340Y029692D02*
X016731Y029692D01*
X016620Y029454D02*
X015340Y029454D01*
X015340Y029215D02*
X016627Y029215D01*
X016752Y028977D02*
X015340Y028977D01*
X015340Y028738D02*
X018275Y028738D01*
X018275Y028500D02*
X015522Y028500D01*
X015742Y028261D02*
X018275Y028261D01*
X018275Y028023D02*
X015962Y028023D01*
X016182Y027784D02*
X018275Y027784D01*
X018275Y027546D02*
X016403Y027546D01*
X016837Y027307D02*
X018275Y027307D01*
X018275Y027069D02*
X017000Y027069D01*
X017000Y026830D02*
X018275Y026830D01*
X018275Y026592D02*
X016795Y026592D01*
X016365Y026592D02*
X015555Y026592D01*
X015555Y026398D02*
X015555Y026792D01*
X015277Y027070D01*
X014883Y027070D01*
X014605Y026792D01*
X014605Y026398D01*
X014883Y026120D01*
X015277Y026120D01*
X015555Y026398D01*
X015510Y026353D02*
X018275Y026353D01*
X018275Y026115D02*
X012840Y026115D01*
X012320Y026115D02*
X010840Y026115D01*
X010320Y026115D02*
X006840Y026115D01*
X006320Y026115D02*
X003328Y026115D01*
X003080Y026115D02*
X003080Y026115D01*
X003080Y026353D02*
X003080Y026353D01*
X003080Y026592D02*
X003080Y026592D01*
X003080Y026830D02*
X003080Y026830D01*
X003080Y027069D02*
X003080Y027069D01*
X003335Y027069D02*
X003881Y027069D01*
X003883Y027070D02*
X003605Y026792D01*
X003605Y026398D01*
X003883Y026120D01*
X004277Y026120D01*
X004555Y026398D01*
X004555Y026792D01*
X004277Y027070D01*
X003883Y027070D01*
X003912Y027307D02*
X006424Y027307D01*
X006320Y027069D02*
X006279Y027069D01*
X006289Y027546D02*
X004151Y027546D01*
X004262Y027784D02*
X006051Y027784D01*
X005968Y028023D02*
X004262Y028023D01*
X004174Y028261D02*
X005968Y028261D01*
X006084Y028500D02*
X003936Y028500D01*
X003900Y028738D02*
X006323Y028738D01*
X006857Y028738D02*
X008355Y028738D01*
X008498Y028977D02*
X003900Y028977D01*
X003900Y029215D02*
X008348Y029215D01*
X008339Y029454D02*
X003900Y029454D01*
X003900Y029692D02*
X008477Y029692D01*
X008544Y029931D02*
X003900Y029931D01*
X003900Y030169D02*
X004760Y030169D01*
X005040Y030169D02*
X008335Y030169D01*
X008335Y030408D02*
X005403Y030408D01*
X005516Y030646D02*
X008431Y030646D01*
X008570Y030885D02*
X005522Y030885D01*
X005434Y031123D02*
X008570Y031123D01*
X008446Y031362D02*
X005917Y031362D01*
X004901Y032077D02*
X001630Y032077D01*
X001630Y031839D02*
X003956Y031839D01*
X003717Y031600D02*
X001630Y031600D01*
X001630Y031362D02*
X003479Y031362D01*
X003380Y031123D02*
X001630Y031123D01*
X001630Y030885D02*
X003380Y030885D01*
X003380Y030646D02*
X001630Y030646D01*
X001630Y030408D02*
X003380Y030408D01*
X003380Y030169D02*
X002836Y030169D01*
X002982Y030023D02*
X002618Y030387D01*
X002102Y030387D01*
X001738Y030023D01*
X001738Y029507D01*
X002102Y029143D01*
X002618Y029143D01*
X002982Y029507D01*
X002982Y030023D01*
X002982Y029931D02*
X003380Y029931D01*
X003380Y029692D02*
X002982Y029692D01*
X002929Y029454D02*
X003380Y029454D01*
X003380Y029215D02*
X002690Y029215D01*
X002030Y029215D02*
X001630Y029215D01*
X001630Y028977D02*
X003380Y028977D01*
X003380Y028738D02*
X001630Y028738D01*
X001630Y028500D02*
X003344Y028500D01*
X003106Y028261D02*
X001630Y028261D01*
X001630Y028023D02*
X003018Y028023D01*
X003018Y027784D02*
X001630Y027784D01*
X001630Y027546D02*
X003129Y027546D01*
X003368Y027307D02*
X001630Y027307D01*
X001630Y027069D02*
X001881Y027069D01*
X001643Y026830D02*
X001630Y026830D01*
X001630Y026353D02*
X001650Y026353D01*
X001630Y026115D02*
X002832Y026115D01*
X002660Y025876D02*
X002457Y025876D01*
X002545Y025638D02*
X002575Y025638D01*
X002575Y025595D02*
X002575Y025555D01*
X002587Y025477D01*
X002612Y025401D01*
X002648Y025330D01*
X002695Y025266D01*
X002751Y025210D01*
X002815Y025163D01*
X002886Y025127D01*
X002962Y025102D01*
X003040Y025090D01*
X003080Y025090D01*
X003080Y025595D01*
X003080Y025595D01*
X003080Y025595D01*
X002575Y025595D01*
X002613Y025399D02*
X002502Y025399D01*
X002246Y025161D02*
X002820Y025161D01*
X003080Y025161D02*
X003080Y025161D01*
X003080Y025399D02*
X003080Y025399D01*
X003080Y025638D02*
X003080Y025638D01*
X003080Y025876D02*
X003080Y025876D01*
X003500Y025876D02*
X003703Y025876D01*
X003615Y025638D02*
X003585Y025638D01*
X003567Y026353D02*
X003650Y026353D01*
X003605Y026592D02*
X003595Y026592D01*
X003574Y026830D02*
X003643Y026830D01*
X004279Y027069D02*
X004881Y027069D01*
X004883Y027070D02*
X004605Y026792D01*
X004605Y026398D01*
X004883Y026120D01*
X005277Y026120D01*
X005555Y026398D01*
X005555Y026792D01*
X005277Y027070D01*
X004883Y027070D01*
X004643Y026830D02*
X004517Y026830D01*
X004555Y026592D02*
X004605Y026592D01*
X004650Y026353D02*
X004510Y026353D01*
X004457Y025876D02*
X004703Y025876D01*
X004615Y025638D02*
X004545Y025638D01*
X004516Y025399D02*
X004502Y025399D01*
X004278Y025161D02*
X004246Y025161D01*
X004080Y024922D02*
X003775Y024922D01*
X003536Y024684D02*
X004070Y024684D01*
X004070Y024445D02*
X003298Y024445D01*
X003402Y024425D02*
X003150Y024173D01*
X003150Y023817D01*
X003387Y023580D01*
X003336Y023560D01*
X003215Y023439D01*
X003150Y023281D01*
X003150Y023109D01*
X003215Y022951D01*
X003336Y022830D01*
X003494Y022765D01*
X003666Y022765D01*
X003824Y022830D01*
X003945Y022951D01*
X004010Y023109D01*
X004010Y023281D01*
X003945Y023439D01*
X003824Y023560D01*
X003773Y023580D01*
X004010Y023817D01*
X004010Y024173D01*
X003758Y024425D01*
X003402Y024425D01*
X003183Y024207D02*
X003059Y024207D01*
X003150Y023968D02*
X002821Y023968D01*
X002582Y023730D02*
X003237Y023730D01*
X003268Y023491D02*
X002344Y023491D01*
X002340Y023253D02*
X003150Y023253D01*
X003190Y023014D02*
X002340Y023014D01*
X002438Y022776D02*
X003469Y022776D01*
X003691Y022776D02*
X003893Y022776D01*
X003970Y023014D02*
X004070Y023014D01*
X004070Y023253D02*
X004010Y023253D01*
X004070Y023491D02*
X003892Y023491D01*
X003923Y023730D02*
X004070Y023730D01*
X004070Y023968D02*
X004010Y023968D01*
X003977Y024207D02*
X004070Y024207D01*
X003039Y024922D02*
X001630Y024922D01*
X001630Y024684D02*
X002801Y024684D01*
X002562Y024445D02*
X001630Y024445D01*
X001630Y024207D02*
X002324Y024207D01*
X002085Y023968D02*
X001630Y023968D01*
X001630Y023730D02*
X001854Y023730D01*
X001820Y023491D02*
X001630Y023491D01*
X001630Y023253D02*
X001820Y023253D01*
X001820Y023014D02*
X001630Y023014D01*
X001630Y022776D02*
X001722Y022776D01*
X001722Y022537D02*
X001630Y022537D01*
X001630Y022299D02*
X001766Y022299D01*
X001630Y022060D02*
X003177Y022060D01*
X003070Y021822D02*
X001630Y021822D01*
X001630Y021583D02*
X003070Y021583D01*
X003070Y021345D02*
X002981Y021345D01*
X003040Y021106D02*
X003070Y021106D01*
X002746Y020629D02*
X001630Y020629D01*
X001630Y020391D02*
X002508Y020391D01*
X002580Y020635D02*
X002580Y021095D01*
X002580Y021095D01*
X002580Y021095D01*
X002120Y021095D01*
X002120Y021286D01*
X002389Y021555D01*
X002580Y021555D01*
X002580Y021095D01*
X002120Y021095D01*
X002120Y020904D01*
X002389Y020635D01*
X002580Y020635D01*
X002580Y020868D02*
X002580Y020868D01*
X002580Y021106D02*
X002580Y021106D01*
X002580Y021345D02*
X002580Y021345D01*
X002179Y021345D02*
X001630Y021345D01*
X001630Y021106D02*
X002120Y021106D01*
X002157Y020868D02*
X001630Y020868D01*
X001630Y020152D02*
X002322Y020152D01*
X002080Y019914D02*
X002080Y019914D01*
X002080Y019675D02*
X002080Y019675D01*
X002080Y019437D02*
X002080Y019437D01*
X002080Y019198D02*
X002080Y019198D01*
X002080Y018960D02*
X002080Y018960D01*
X002080Y018721D02*
X002080Y018721D01*
X002080Y018595D02*
X002080Y018080D01*
X002197Y018080D01*
X001630Y017513D01*
X001630Y018316D01*
X001867Y018080D01*
X002080Y018080D01*
X002080Y018595D01*
X002080Y018595D01*
X002080Y018483D02*
X002080Y018483D01*
X002080Y018244D02*
X002080Y018244D01*
X002123Y018006D02*
X001630Y018006D01*
X001630Y018244D02*
X001702Y018244D01*
X001630Y017767D02*
X001884Y017767D01*
X001646Y017529D02*
X001630Y017529D01*
X001630Y019914D02*
X001687Y019914D01*
X002394Y022299D02*
X003416Y022299D01*
X003654Y022537D02*
X002438Y022537D01*
X003993Y020391D02*
X012820Y020391D01*
X012820Y020152D02*
X003840Y020152D01*
X001914Y025161D02*
X001630Y025161D01*
X001630Y025399D02*
X001658Y025399D01*
X001630Y025876D02*
X001703Y025876D01*
X002510Y026353D02*
X002593Y026353D01*
X002565Y026592D02*
X002555Y026592D01*
X002586Y026830D02*
X002517Y026830D01*
X002279Y027069D02*
X002825Y027069D01*
X001791Y029454D02*
X001630Y029454D01*
X001630Y029692D02*
X001738Y029692D01*
X001738Y029931D02*
X001630Y029931D01*
X001630Y030169D02*
X001884Y030169D01*
X003900Y030408D02*
X004397Y030408D01*
X004284Y030646D02*
X003900Y030646D01*
X003900Y030885D02*
X004278Y030885D01*
X004366Y031123D02*
X003976Y031123D01*
X004214Y031362D02*
X004665Y031362D01*
X007096Y028500D02*
X008117Y028500D01*
X008375Y028023D02*
X009414Y028023D01*
X009410Y027784D02*
X008250Y027784D01*
X008124Y027546D02*
X009536Y027546D01*
X009277Y027070D02*
X008883Y027070D01*
X008605Y026792D01*
X008605Y026398D01*
X008883Y026120D01*
X009277Y026120D01*
X009555Y026398D01*
X009555Y026792D01*
X009277Y027070D01*
X009279Y027069D02*
X009881Y027069D01*
X009643Y026830D02*
X009517Y026830D01*
X009555Y026592D02*
X009605Y026592D01*
X009650Y026353D02*
X009510Y026353D01*
X009343Y025989D02*
X009172Y026060D01*
X008988Y026060D01*
X008817Y025989D01*
X008686Y025858D01*
X008615Y025687D01*
X008615Y025503D01*
X008686Y025332D01*
X008817Y025201D01*
X008988Y025130D01*
X009172Y025130D01*
X009343Y025201D01*
X009474Y025332D01*
X009545Y025503D01*
X009545Y025687D01*
X009474Y025858D01*
X009343Y025989D01*
X009457Y025876D02*
X009703Y025876D01*
X009615Y025638D02*
X009545Y025638D01*
X009502Y025399D02*
X009658Y025399D01*
X009789Y024922D02*
X006840Y024922D01*
X006840Y025161D02*
X006914Y025161D01*
X007246Y025161D02*
X007914Y025161D01*
X007988Y025130D02*
X007817Y025201D01*
X007686Y025332D01*
X007615Y025503D01*
X007615Y025687D01*
X007686Y025858D01*
X007817Y025989D01*
X007988Y026060D01*
X008172Y026060D01*
X008343Y025989D01*
X008474Y025858D01*
X008545Y025687D01*
X008545Y025503D01*
X008474Y025332D01*
X008343Y025201D01*
X008172Y025130D01*
X007988Y025130D01*
X008246Y025161D02*
X008914Y025161D01*
X009246Y025161D02*
X009914Y025161D01*
X009551Y024684D02*
X009325Y024684D01*
X008835Y024684D02*
X008325Y024684D01*
X008318Y024691D02*
X008164Y024755D01*
X007996Y024755D01*
X007842Y024691D01*
X007724Y024573D01*
X007660Y024419D01*
X007660Y023771D01*
X007724Y023617D01*
X007842Y023499D01*
X007996Y023435D01*
X008164Y023435D01*
X008318Y023499D01*
X008436Y023617D01*
X008500Y023771D01*
X008500Y024419D01*
X008436Y024573D01*
X008318Y024691D01*
X008489Y024445D02*
X008671Y024445D01*
X008660Y024207D02*
X008500Y024207D01*
X008500Y023968D02*
X008660Y023968D01*
X008677Y023730D02*
X008483Y023730D01*
X008299Y023491D02*
X008861Y023491D01*
X007861Y023491D02*
X007427Y023491D01*
X007483Y023730D02*
X007677Y023730D01*
X007660Y023968D02*
X007500Y023968D01*
X007500Y024207D02*
X007660Y024207D01*
X007671Y024445D02*
X007489Y024445D01*
X007325Y024684D02*
X007835Y024684D01*
X007658Y025399D02*
X007502Y025399D01*
X007545Y025638D02*
X007615Y025638D01*
X007703Y025876D02*
X007457Y025876D01*
X007510Y026353D02*
X007650Y026353D01*
X007605Y026398D02*
X007883Y026120D01*
X008277Y026120D01*
X008555Y026398D01*
X008555Y026792D01*
X008277Y027070D01*
X007883Y027070D01*
X007605Y026792D01*
X007605Y026398D01*
X007605Y026592D02*
X007555Y026592D01*
X007517Y026830D02*
X007643Y026830D01*
X007881Y027069D02*
X007279Y027069D01*
X007660Y027307D02*
X010549Y027307D01*
X010339Y027069D02*
X010279Y027069D01*
X010124Y027546D02*
X010786Y027546D01*
X010660Y027784D02*
X010250Y027784D01*
X010246Y028023D02*
X010664Y028023D01*
X010902Y028261D02*
X010090Y028261D01*
X009570Y028261D02*
X008614Y028261D01*
X008852Y028500D02*
X009570Y028500D01*
X009570Y028738D02*
X009067Y028738D01*
X009162Y028977D02*
X009570Y028977D01*
X009570Y029215D02*
X009312Y029215D01*
X009321Y029454D02*
X009594Y029454D01*
X009809Y029692D02*
X009183Y029692D01*
X009116Y029931D02*
X010048Y029931D01*
X010286Y030169D02*
X009325Y030169D01*
X009325Y030408D02*
X010525Y030408D01*
X010763Y030646D02*
X009229Y030646D01*
X009090Y030885D02*
X011002Y030885D01*
X011240Y031123D02*
X009090Y031123D01*
X009090Y031362D02*
X011479Y031362D01*
X011429Y031600D02*
X011717Y031600D01*
X011910Y031839D02*
X011500Y031839D01*
X011442Y032077D02*
X011968Y032077D01*
X012214Y031362D02*
X015854Y031362D01*
X015615Y031123D02*
X013998Y031123D01*
X014135Y030885D02*
X015377Y030885D01*
X015138Y030646D02*
X014150Y030646D01*
X014150Y030408D02*
X014900Y030408D01*
X014820Y030169D02*
X014150Y030169D01*
X014150Y029931D02*
X014820Y029931D01*
X014820Y029692D02*
X014088Y029692D01*
X013859Y029454D02*
X014820Y029454D01*
X014820Y029215D02*
X013840Y029215D01*
X013840Y028977D02*
X014820Y028977D01*
X014820Y028738D02*
X013840Y028738D01*
X013840Y028500D02*
X014838Y028500D01*
X015034Y028261D02*
X013840Y028261D01*
X013840Y028023D02*
X015255Y028023D01*
X015475Y027784D02*
X013762Y027784D01*
X013523Y027546D02*
X015695Y027546D01*
X015915Y027307D02*
X013285Y027307D01*
X013279Y027069D02*
X013881Y027069D01*
X013883Y027070D02*
X013605Y026792D01*
X013605Y026398D01*
X013883Y026120D01*
X014277Y026120D01*
X014555Y026398D01*
X014555Y026792D01*
X014277Y027070D01*
X013883Y027070D01*
X013643Y026830D02*
X013517Y026830D01*
X013555Y026592D02*
X013605Y026592D01*
X013650Y026353D02*
X013510Y026353D01*
X013457Y025876D02*
X013703Y025876D01*
X013615Y025638D02*
X013545Y025638D01*
X013644Y025399D02*
X013658Y025399D01*
X013385Y024922D02*
X012525Y024922D01*
X012325Y024684D02*
X012778Y024684D01*
X012780Y024686D02*
X012729Y024635D01*
X012687Y024576D01*
X012654Y024512D01*
X012631Y024443D01*
X012620Y024371D01*
X012620Y024095D01*
X013080Y024095D01*
X013540Y024095D01*
X013540Y024371D01*
X013529Y024443D01*
X013506Y024512D01*
X013473Y024576D01*
X013431Y024635D01*
X013380Y024686D01*
X013321Y024728D01*
X013257Y024761D01*
X013188Y024784D01*
X013116Y024795D01*
X013080Y024795D01*
X013080Y024095D01*
X013080Y024095D01*
X013080Y024095D01*
X013540Y024095D01*
X013540Y023819D01*
X013529Y023747D01*
X013506Y023678D01*
X013473Y023614D01*
X013431Y023555D01*
X013380Y023504D01*
X013321Y023462D01*
X013257Y023429D01*
X013188Y023406D01*
X013116Y023395D01*
X013080Y023395D01*
X013080Y024095D01*
X013080Y024095D01*
X013080Y024095D01*
X013080Y024795D01*
X013044Y024795D01*
X012972Y024784D01*
X012903Y024761D01*
X012839Y024728D01*
X012780Y024686D01*
X012632Y024445D02*
X012489Y024445D01*
X012500Y024207D02*
X012620Y024207D01*
X012620Y024095D02*
X012620Y023819D01*
X012631Y023747D01*
X012654Y023678D01*
X012687Y023614D01*
X012729Y023555D01*
X012780Y023504D01*
X012839Y023462D01*
X012903Y023429D01*
X012972Y023406D01*
X013044Y023395D01*
X013080Y023395D01*
X013080Y024095D01*
X012620Y024095D01*
X012620Y023968D02*
X012500Y023968D01*
X012483Y023730D02*
X012637Y023730D01*
X012798Y023491D02*
X012340Y023491D01*
X012340Y023253D02*
X014430Y023253D01*
X014320Y023491D02*
X014299Y023491D01*
X013861Y023491D02*
X013362Y023491D01*
X013523Y023730D02*
X013677Y023730D01*
X013660Y023968D02*
X013540Y023968D01*
X013540Y024207D02*
X013660Y024207D01*
X013671Y024445D02*
X013528Y024445D01*
X013624Y024684D02*
X013382Y024684D01*
X013080Y024684D02*
X013080Y024684D01*
X013080Y024445D02*
X013080Y024445D01*
X013080Y024207D02*
X013080Y024207D01*
X013080Y023968D02*
X013080Y023968D01*
X013080Y023730D02*
X013080Y023730D01*
X013080Y023491D02*
X013080Y023491D01*
X012529Y023014D02*
X014668Y023014D01*
X015506Y022537D02*
X016320Y022537D01*
X016275Y022299D02*
X015744Y022299D01*
X015983Y022060D02*
X016150Y022060D01*
X016150Y021822D02*
X016090Y021822D01*
X016210Y021583D02*
X016384Y021583D01*
X017552Y023491D02*
X017691Y023491D01*
X017727Y023315D02*
X017102Y023940D01*
X017007Y023980D01*
X015653Y023980D01*
X015558Y023940D01*
X015540Y023923D01*
X015540Y024095D01*
X015540Y024371D01*
X015529Y024443D01*
X015506Y024512D01*
X015473Y024576D01*
X015431Y024635D01*
X015380Y024686D01*
X015346Y024710D01*
X016472Y024710D01*
X017945Y023237D01*
X017945Y009723D01*
X017840Y009828D01*
X017840Y023147D01*
X017800Y023242D01*
X017727Y023315D01*
X017790Y023253D02*
X017930Y023253D01*
X017945Y023014D02*
X017840Y023014D01*
X017840Y022776D02*
X017945Y022776D01*
X017945Y022537D02*
X017840Y022537D01*
X017840Y022299D02*
X017945Y022299D01*
X017945Y022060D02*
X017840Y022060D01*
X017840Y021822D02*
X017945Y021822D01*
X017945Y021583D02*
X017840Y021583D01*
X017840Y021345D02*
X017945Y021345D01*
X017945Y021106D02*
X017840Y021106D01*
X017840Y020868D02*
X017945Y020868D01*
X017945Y020629D02*
X017840Y020629D01*
X017840Y020391D02*
X017945Y020391D01*
X017945Y020152D02*
X017840Y020152D01*
X017840Y019914D02*
X017945Y019914D01*
X017945Y019675D02*
X017840Y019675D01*
X017840Y019437D02*
X017945Y019437D01*
X017945Y019198D02*
X017840Y019198D01*
X017840Y018960D02*
X017945Y018960D01*
X017945Y018721D02*
X017840Y018721D01*
X017840Y018483D02*
X017945Y018483D01*
X017945Y018244D02*
X017840Y018244D01*
X017840Y018006D02*
X017945Y018006D01*
X017945Y017767D02*
X017840Y017767D01*
X017840Y017529D02*
X017945Y017529D01*
X017945Y017290D02*
X017840Y017290D01*
X017840Y017052D02*
X017945Y017052D01*
X017945Y016813D02*
X017840Y016813D01*
X017840Y016575D02*
X017945Y016575D01*
X017945Y016336D02*
X017840Y016336D01*
X017840Y016098D02*
X017945Y016098D01*
X017945Y015859D02*
X017840Y015859D01*
X017840Y015621D02*
X017945Y015621D01*
X017945Y015382D02*
X017840Y015382D01*
X017840Y015144D02*
X017945Y015144D01*
X017945Y014905D02*
X017840Y014905D01*
X017840Y014667D02*
X017945Y014667D01*
X017945Y014428D02*
X017840Y014428D01*
X017840Y014190D02*
X017945Y014190D01*
X017945Y013951D02*
X017840Y013951D01*
X017840Y013713D02*
X017945Y013713D01*
X017945Y013474D02*
X017840Y013474D01*
X017840Y013236D02*
X017945Y013236D01*
X017945Y012997D02*
X017840Y012997D01*
X017840Y012759D02*
X017945Y012759D01*
X017945Y012520D02*
X017840Y012520D01*
X017840Y012282D02*
X017945Y012282D01*
X017945Y012043D02*
X017840Y012043D01*
X017840Y011805D02*
X017945Y011805D01*
X017945Y011566D02*
X017840Y011566D01*
X017840Y011328D02*
X017945Y011328D01*
X017945Y011089D02*
X017840Y011089D01*
X017840Y010851D02*
X017945Y010851D01*
X017945Y010612D02*
X017840Y010612D01*
X017840Y010374D02*
X017945Y010374D01*
X017945Y010135D02*
X017840Y010135D01*
X017840Y009897D02*
X017945Y009897D01*
X016962Y009420D02*
X016392Y009420D01*
X016630Y009181D02*
X016723Y009181D01*
X016715Y008943D02*
X016655Y008943D01*
X016591Y008704D02*
X016575Y008704D01*
X016333Y008466D02*
X012840Y008466D01*
X012941Y008227D02*
X015826Y008227D01*
X015755Y007989D02*
X013179Y007989D01*
X013340Y007750D02*
X015789Y007750D01*
X016019Y007420D02*
X015755Y007156D01*
X015755Y006784D01*
X016019Y006520D01*
X016391Y006520D01*
X016655Y006784D01*
X016655Y007156D01*
X016391Y007420D01*
X016019Y007420D01*
X015872Y007273D02*
X013340Y007273D01*
X013340Y007512D02*
X018275Y007512D01*
X018275Y007750D02*
X017978Y007750D01*
X018216Y007989D02*
X018275Y007989D01*
X018275Y007273D02*
X017538Y007273D01*
X017655Y007156D02*
X017391Y007420D01*
X017019Y007420D01*
X016755Y007156D01*
X016755Y006784D01*
X017019Y006520D01*
X017391Y006520D01*
X017655Y006784D01*
X017655Y007156D01*
X017655Y007035D02*
X018275Y007035D01*
X018275Y006796D02*
X017655Y006796D01*
X017429Y006558D02*
X018275Y006558D01*
X018275Y006319D02*
X014500Y006319D01*
X014500Y006558D02*
X015981Y006558D01*
X015755Y006796D02*
X014499Y006796D01*
X014349Y007035D02*
X015755Y007035D01*
X016538Y007273D02*
X016872Y007273D01*
X016755Y007035D02*
X016655Y007035D01*
X016655Y006796D02*
X016755Y006796D01*
X016981Y006558D02*
X016429Y006558D01*
X016621Y007750D02*
X016789Y007750D01*
X016755Y007989D02*
X016655Y007989D01*
X018275Y006081D02*
X014473Y006081D01*
X014420Y005842D02*
X018275Y005842D01*
X018275Y005604D02*
X014389Y005604D01*
X014181Y005365D02*
X018275Y005365D01*
X018275Y005127D02*
X013942Y005127D01*
X014102Y004888D02*
X018275Y004888D01*
X018275Y004650D02*
X014200Y004650D01*
X014200Y004411D02*
X018275Y004411D01*
X018275Y004173D02*
X013972Y004173D01*
X013730Y004173D02*
X013730Y004173D01*
X013730Y004411D02*
X013730Y004411D01*
X013488Y004173D02*
X013270Y004173D01*
X013270Y003934D02*
X018275Y003934D01*
X018275Y003696D02*
X013161Y003696D01*
X012923Y003457D02*
X018275Y003457D01*
X018275Y003219D02*
X012684Y003219D01*
X012446Y002980D02*
X018275Y002980D01*
X018275Y002742D02*
X012207Y002742D01*
X011969Y002503D02*
X016786Y002503D01*
X016849Y002566D02*
X016609Y002326D01*
X016480Y002014D01*
X016480Y001676D01*
X016609Y001364D01*
X016849Y001124D01*
X017161Y000995D01*
X017499Y000995D01*
X017811Y001124D01*
X018051Y001364D01*
X018180Y001676D01*
X018180Y002014D01*
X018051Y002326D01*
X017811Y002566D01*
X017499Y002695D01*
X017161Y002695D01*
X016849Y002566D01*
X016584Y002265D02*
X011169Y002265D01*
X011312Y002026D02*
X016485Y002026D01*
X016480Y001788D02*
X011330Y001788D01*
X011330Y001549D02*
X016533Y001549D01*
X016663Y001311D02*
X011330Y001311D01*
X011277Y001072D02*
X016975Y001072D01*
X017685Y001072D02*
X018275Y001072D01*
X018275Y001311D02*
X017997Y001311D01*
X018127Y001549D02*
X018275Y001549D01*
X018275Y001788D02*
X018180Y001788D01*
X018175Y002026D02*
X018275Y002026D01*
X018275Y002265D02*
X018076Y002265D01*
X018275Y002503D02*
X017874Y002503D01*
X013811Y007035D02*
X013349Y007035D01*
X013499Y006796D02*
X013661Y006796D01*
X013660Y006558D02*
X013500Y006558D01*
X013500Y006319D02*
X013660Y006319D01*
X013687Y006081D02*
X013473Y006081D01*
X013696Y005842D02*
X013241Y005842D01*
X013458Y005604D02*
X011525Y005604D01*
X011590Y005365D02*
X013219Y005365D01*
X012981Y005127D02*
X011542Y005127D01*
X011309Y004888D02*
X012615Y004888D01*
X012590Y004173D02*
X011310Y004173D01*
X011310Y003934D02*
X012438Y003934D01*
X012200Y003696D02*
X011310Y003696D01*
X011310Y003457D02*
X011961Y003457D01*
X011723Y003219D02*
X011182Y003219D01*
X010478Y003219D02*
X010236Y003219D01*
X010227Y003206D02*
X010275Y003272D01*
X010312Y003345D01*
X010337Y003423D01*
X010350Y003504D01*
X010350Y003845D01*
X009830Y003845D01*
X009830Y003025D01*
X009871Y003025D01*
X009952Y003038D01*
X010030Y003063D01*
X010103Y003100D01*
X010169Y003148D01*
X010227Y003206D01*
X010109Y002980D02*
X007249Y002980D01*
X007249Y002742D02*
X009871Y002742D01*
X009830Y003025D02*
X009830Y003845D01*
X009830Y003845D01*
X009310Y003845D01*
X009310Y003504D01*
X009323Y003423D01*
X009348Y003345D01*
X009385Y003272D01*
X009433Y003206D01*
X009491Y003148D01*
X009557Y003100D01*
X009630Y003063D01*
X009708Y003038D01*
X009789Y003025D01*
X009830Y003025D01*
X009830Y003219D02*
X009830Y003219D01*
X009830Y003457D02*
X009830Y003457D01*
X009830Y003696D02*
X009830Y003696D01*
X009830Y003934D02*
X009830Y003934D01*
X009830Y004173D02*
X009830Y004173D01*
X009830Y004411D02*
X009830Y004411D01*
X009382Y004411D02*
X009239Y004411D01*
X009310Y004173D02*
X009310Y004173D01*
X009310Y003934D02*
X009310Y003934D01*
X009310Y003696D02*
X009310Y003696D01*
X009310Y003457D02*
X009317Y003457D01*
X009424Y003219D02*
X009182Y003219D01*
X009632Y002503D02*
X007214Y002503D01*
X007050Y002265D02*
X008548Y002265D01*
X008370Y001549D02*
X006358Y001549D01*
X006453Y001311D02*
X008370Y001311D01*
X008426Y001072D02*
X006449Y001072D01*
X005455Y001205D02*
X005455Y001205D01*
X005455Y001819D01*
X005455Y001205D01*
X005455Y001311D02*
X005455Y001311D01*
X005455Y001549D02*
X005455Y001549D01*
X005455Y001788D02*
X005455Y001788D01*
X007249Y003219D02*
X008478Y003219D01*
X008350Y003457D02*
X007249Y003457D01*
X007370Y004173D02*
X008350Y004173D01*
X008421Y004411D02*
X007132Y004411D01*
X009241Y005842D02*
X009831Y005842D01*
X009645Y006081D02*
X009473Y006081D01*
X009500Y006319D02*
X009620Y006319D01*
X009620Y006558D02*
X009500Y006558D01*
X009499Y006796D02*
X009628Y006796D01*
X009754Y007035D02*
X009349Y007035D01*
X010406Y007035D02*
X010754Y007035D01*
X010628Y006796D02*
X010532Y006796D01*
X010540Y006558D02*
X010620Y006558D01*
X010620Y006319D02*
X010540Y006319D01*
X010515Y006081D02*
X010645Y006081D01*
X011080Y006558D02*
X011080Y006558D01*
X011080Y006796D02*
X011080Y006796D01*
X011080Y007035D02*
X011080Y007035D01*
X011406Y007035D02*
X011811Y007035D01*
X011842Y007066D02*
X011724Y006948D01*
X011660Y006794D01*
X011660Y006146D01*
X011724Y005992D01*
X011842Y005874D01*
X011996Y005810D01*
X012164Y005810D01*
X012318Y005874D01*
X012436Y005992D01*
X012500Y006146D01*
X012500Y006794D01*
X012436Y006948D01*
X012318Y007066D01*
X012164Y007130D01*
X011996Y007130D01*
X011842Y007066D01*
X011661Y006796D02*
X011532Y006796D01*
X011540Y006558D02*
X011660Y006558D01*
X011660Y006319D02*
X011540Y006319D01*
X011515Y006081D02*
X011687Y006081D01*
X011919Y005842D02*
X011329Y005842D01*
X012241Y005842D02*
X012919Y005842D01*
X012687Y006081D02*
X012473Y006081D01*
X012500Y006319D02*
X012660Y006319D01*
X012660Y006558D02*
X012500Y006558D01*
X012499Y006796D02*
X012661Y006796D01*
X012811Y007035D02*
X012349Y007035D01*
X013386Y008943D02*
X013774Y008943D01*
X013660Y009181D02*
X013500Y009181D01*
X013500Y009420D02*
X013660Y009420D01*
X013660Y009658D02*
X013500Y009658D01*
X013457Y009897D02*
X013703Y009897D01*
X013547Y010135D02*
X013283Y010135D01*
X012660Y010758D02*
X012500Y010918D01*
X012500Y011294D01*
X012436Y011448D01*
X012324Y011560D01*
X012486Y011328D02*
X012674Y011328D01*
X012660Y011294D02*
X012660Y010758D01*
X012660Y010851D02*
X012567Y010851D01*
X012500Y011089D02*
X012660Y011089D01*
X012660Y011294D02*
X012724Y011448D01*
X012842Y011566D01*
X012664Y011820D02*
X012818Y011884D01*
X012936Y012002D01*
X013000Y012156D01*
X013000Y012804D01*
X012936Y012958D01*
X012818Y013076D01*
X012664Y013140D01*
X012496Y013140D01*
X012342Y013076D01*
X012224Y012958D01*
X012160Y012804D01*
X012160Y012156D01*
X012224Y012002D01*
X012342Y011884D01*
X012496Y011820D01*
X012664Y011820D01*
X012953Y012043D02*
X013207Y012043D01*
X013172Y011805D02*
X012113Y011805D01*
X012207Y012043D02*
X011953Y012043D01*
X012000Y012282D02*
X012160Y012282D01*
X012160Y012520D02*
X012000Y012520D01*
X012000Y012759D02*
X012160Y012759D01*
X012263Y012997D02*
X011897Y012997D01*
X011263Y012997D02*
X010397Y012997D01*
X010500Y012759D02*
X011160Y012759D01*
X011160Y012520D02*
X010500Y012520D01*
X010500Y012282D02*
X011160Y012282D01*
X011207Y012043D02*
X010453Y012043D01*
X009707Y012043D02*
X009453Y012043D01*
X009500Y012282D02*
X009660Y012282D01*
X009660Y012520D02*
X009500Y012520D01*
X009500Y012759D02*
X009660Y012759D01*
X009763Y012997D02*
X009397Y012997D01*
X010493Y015621D02*
X010812Y015621D01*
X010695Y015859D02*
X010500Y015859D01*
X010500Y016098D02*
X010695Y016098D01*
X010596Y016336D02*
X010478Y016336D01*
X010855Y016813D02*
X010989Y016813D01*
X011171Y016813D02*
X011369Y016813D01*
X011387Y016575D02*
X011093Y016575D01*
X010699Y017052D02*
X010461Y017052D01*
X010500Y017290D02*
X010660Y017290D01*
X010660Y017529D02*
X010500Y017529D01*
X010500Y017767D02*
X010660Y017767D01*
X010782Y018006D02*
X010378Y018006D01*
X010401Y018244D02*
X010759Y018244D01*
X010605Y018483D02*
X010555Y018483D01*
X010555Y018721D02*
X010605Y018721D01*
X010772Y018960D02*
X010388Y018960D01*
X010337Y019198D02*
X010823Y019198D01*
X010817Y019201D02*
X010988Y019130D01*
X011172Y019130D01*
X011343Y019201D01*
X011474Y019332D01*
X011545Y019503D01*
X011545Y019687D01*
X011474Y019858D01*
X011343Y019989D01*
X011172Y020060D01*
X010988Y020060D01*
X010817Y019989D01*
X010686Y019858D01*
X010615Y019687D01*
X010615Y019503D01*
X010686Y019332D01*
X010817Y019201D01*
X010642Y019437D02*
X010518Y019437D01*
X010545Y019503D02*
X010474Y019332D01*
X010343Y019201D01*
X010172Y019130D01*
X009988Y019130D01*
X009817Y019201D01*
X009686Y019332D01*
X009615Y019503D01*
X009615Y019687D01*
X009686Y019858D01*
X009817Y019989D01*
X009988Y020060D01*
X010172Y020060D01*
X010343Y019989D01*
X010474Y019858D01*
X010545Y019687D01*
X010545Y019503D01*
X010545Y019675D02*
X010615Y019675D01*
X010741Y019914D02*
X010419Y019914D01*
X009741Y019914D02*
X009419Y019914D01*
X009545Y019675D02*
X009615Y019675D01*
X009642Y019437D02*
X009518Y019437D01*
X009337Y019198D02*
X009823Y019198D01*
X009772Y018960D02*
X009388Y018960D01*
X009555Y018721D02*
X009605Y018721D01*
X009605Y018483D02*
X009560Y018483D01*
X011401Y018244D02*
X011759Y018244D01*
X011782Y018006D02*
X011378Y018006D01*
X011500Y017767D02*
X011660Y017767D01*
X011605Y018483D02*
X011555Y018483D01*
X011555Y018721D02*
X011605Y018721D01*
X011772Y018960D02*
X011388Y018960D01*
X011337Y019198D02*
X011823Y019198D01*
X011817Y019201D02*
X011988Y019130D01*
X012172Y019130D01*
X012343Y019201D01*
X012474Y019332D01*
X012545Y019503D01*
X012545Y019687D01*
X012474Y019858D01*
X012343Y019989D01*
X012172Y020060D01*
X011988Y020060D01*
X011817Y019989D01*
X011686Y019858D01*
X011615Y019687D01*
X011615Y019503D01*
X011686Y019332D01*
X011817Y019201D01*
X011642Y019437D02*
X011518Y019437D01*
X011545Y019675D02*
X011615Y019675D01*
X011741Y019914D02*
X011419Y019914D01*
X012419Y019914D02*
X012741Y019914D01*
X012615Y019675D02*
X012545Y019675D01*
X012518Y019437D02*
X012642Y019437D01*
X012823Y019198D02*
X012337Y019198D01*
X012388Y018960D02*
X012772Y018960D01*
X012605Y018721D02*
X012555Y018721D01*
X012555Y018483D02*
X012605Y018483D01*
X012759Y018244D02*
X012401Y018244D01*
X012378Y018006D02*
X012782Y018006D01*
X012660Y017767D02*
X012500Y017767D01*
X013500Y017767D02*
X017320Y017767D01*
X017320Y017529D02*
X015865Y017529D01*
X016378Y017290D02*
X017320Y017290D01*
X017320Y017052D02*
X016616Y017052D01*
X016823Y016813D02*
X017320Y016813D01*
X017320Y016575D02*
X016840Y016575D01*
X017000Y016336D02*
X017320Y016336D01*
X017320Y016098D02*
X017000Y016098D01*
X016813Y015859D02*
X017320Y015859D01*
X016119Y016813D02*
X015767Y016813D01*
X014945Y012997D02*
X014897Y012997D01*
X014263Y012997D02*
X013897Y012997D01*
X014000Y012759D02*
X014160Y012759D01*
X014160Y012520D02*
X014000Y012520D01*
X014000Y012282D02*
X014160Y012282D01*
X014035Y012043D02*
X013953Y012043D01*
X013160Y012282D02*
X013000Y012282D01*
X013000Y012520D02*
X013160Y012520D01*
X013160Y012759D02*
X013000Y012759D01*
X012897Y012997D02*
X013263Y012997D01*
X008703Y009897D02*
X008457Y009897D01*
X008500Y009658D02*
X008660Y009658D01*
X008660Y009420D02*
X008500Y009420D01*
X008500Y009181D02*
X008660Y009181D01*
X008774Y008943D02*
X008386Y008943D01*
X010278Y004411D02*
X010421Y004411D01*
X010350Y004173D02*
X010350Y004173D01*
X010350Y003934D02*
X010350Y003934D01*
X010350Y003696D02*
X010350Y003696D01*
X010343Y003457D02*
X010350Y003457D01*
X009490Y002265D02*
X009144Y002265D01*
X009304Y002026D02*
X009372Y002026D01*
X009355Y001788D02*
X009321Y001788D01*
X009321Y001549D02*
X009355Y001549D01*
X009355Y001311D02*
X009321Y001311D01*
X009266Y001072D02*
X009410Y001072D01*
X011253Y022776D02*
X012032Y022776D01*
X011832Y023014D02*
X011492Y023014D01*
X011590Y023253D02*
X011820Y023253D01*
X011820Y023491D02*
X011590Y023491D01*
X011590Y023730D02*
X011677Y023730D01*
X011660Y023968D02*
X011590Y023968D01*
X011590Y024207D02*
X011660Y024207D01*
X011671Y024445D02*
X011590Y024445D01*
X011786Y024684D02*
X011835Y024684D01*
X011070Y023968D02*
X010858Y023968D01*
X010580Y023968D02*
X010580Y023968D01*
X010580Y023730D02*
X010580Y023730D01*
X010888Y023253D02*
X010995Y023253D01*
X011040Y023491D02*
X011070Y023491D01*
X011070Y023730D02*
X011040Y023730D01*
X012763Y025161D02*
X012914Y025161D01*
X012339Y027069D02*
X012279Y027069D01*
X012160Y027307D02*
X012549Y027307D01*
X012624Y027546D02*
X012788Y027546D01*
X012750Y027784D02*
X013026Y027784D01*
X013265Y028023D02*
X012746Y028023D01*
X014279Y027069D02*
X014881Y027069D01*
X015279Y027069D02*
X016135Y027069D01*
X016160Y026830D02*
X015517Y026830D01*
X015457Y025876D02*
X018275Y025876D01*
X018275Y025638D02*
X015545Y025638D01*
X015502Y025399D02*
X018275Y025399D01*
X018275Y025161D02*
X016757Y025161D01*
X016996Y024922D02*
X018275Y024922D01*
X018275Y024684D02*
X017234Y024684D01*
X017473Y024445D02*
X018275Y024445D01*
X018275Y024207D02*
X017711Y024207D01*
X017950Y023968D02*
X018275Y023968D01*
X018275Y023730D02*
X018188Y023730D01*
X017453Y023730D02*
X017313Y023730D01*
X017214Y023968D02*
X017036Y023968D01*
X016976Y024207D02*
X015540Y024207D01*
X015540Y024095D02*
X015080Y024095D01*
X015080Y024095D01*
X015540Y024095D01*
X015540Y023968D02*
X015624Y023968D01*
X015528Y024445D02*
X016737Y024445D01*
X016499Y024684D02*
X015382Y024684D01*
X014658Y025399D02*
X014644Y025399D01*
X014615Y025638D02*
X014545Y025638D01*
X014457Y025876D02*
X014703Y025876D01*
X014650Y026353D02*
X014510Y026353D01*
X014555Y026592D02*
X014605Y026592D01*
X014643Y026830D02*
X014517Y026830D01*
X016141Y031600D02*
X012679Y031600D01*
X012692Y032077D02*
X018275Y032077D01*
X018268Y031839D02*
X018275Y031839D01*
X009481Y031600D02*
X008943Y031600D01*
X008704Y031839D02*
X009410Y031839D01*
X009468Y032077D02*
X008449Y032077D01*
X007652Y028261D02*
X007212Y028261D01*
X007212Y028023D02*
X007414Y028023D01*
X007401Y027784D02*
X007129Y027784D01*
X008279Y027069D02*
X008881Y027069D01*
X008643Y026830D02*
X008517Y026830D01*
X008555Y026592D02*
X008605Y026592D01*
X008650Y026353D02*
X008510Y026353D01*
X008457Y025876D02*
X008703Y025876D01*
X008615Y025638D02*
X008545Y025638D01*
X008502Y025399D02*
X008658Y025399D01*
X005881Y027069D02*
X005279Y027069D01*
X005517Y026830D02*
X005643Y026830D01*
X005605Y026592D02*
X005555Y026592D01*
X005510Y026353D02*
X005650Y026353D01*
X005703Y025876D02*
X005457Y025876D01*
X005545Y025638D02*
X005615Y025638D01*
X005516Y025399D02*
X005502Y025399D01*
D30*
X002080Y022595D03*
X004955Y009970D03*
X004955Y007595D03*
D31*
X009830Y002220D02*
X009830Y001595D01*
X009830Y002220D02*
X010330Y002720D01*
X011705Y002720D01*
X012930Y003945D01*
X012930Y004595D01*
X014080Y005745D01*
X014080Y006470D01*
M02*
