G75*
%MOIN*%
%OFA0B0*%
%FSLAX24Y24*%
%IPPOS*%
%LPD*%
%AMOC8*
5,1,8,0,0,1.08239X$1,22.5*
%
%ADD10C,0.0160*%
%ADD11C,0.0000*%
%ADD12C,0.1300*%
%ADD13OC8,0.0520*%
%ADD14OC8,0.0925*%
%ADD15C,0.0925*%
%ADD16C,0.0520*%
%ADD17OC8,0.0670*%
%ADD18C,0.0670*%
%ADD19OC8,0.0540*%
%ADD20C,0.0540*%
%ADD21C,0.0820*%
%ADD22R,0.0520X0.0520*%
%ADD23C,0.0610*%
%ADD24C,0.0827*%
%ADD25C,0.0640*%
%ADD26OC8,0.0580*%
%ADD27C,0.0631*%
%ADD28C,0.0700*%
%ADD29OC8,0.0631*%
D10*
X001330Y000595D02*
X001330Y032466D01*
X018575Y032466D01*
X018575Y000595D01*
X001330Y000595D01*
D11*
X016700Y001845D02*
X016702Y001895D01*
X016708Y001945D01*
X016718Y001994D01*
X016732Y002042D01*
X016749Y002089D01*
X016770Y002134D01*
X016795Y002178D01*
X016823Y002219D01*
X016855Y002258D01*
X016889Y002295D01*
X016926Y002329D01*
X016966Y002359D01*
X017008Y002386D01*
X017052Y002410D01*
X017098Y002431D01*
X017145Y002447D01*
X017193Y002460D01*
X017243Y002469D01*
X017292Y002474D01*
X017343Y002475D01*
X017393Y002472D01*
X017442Y002465D01*
X017491Y002454D01*
X017539Y002439D01*
X017585Y002421D01*
X017630Y002399D01*
X017673Y002373D01*
X017714Y002344D01*
X017753Y002312D01*
X017789Y002277D01*
X017821Y002239D01*
X017851Y002199D01*
X017878Y002156D01*
X017901Y002112D01*
X017920Y002066D01*
X017936Y002018D01*
X017948Y001969D01*
X017956Y001920D01*
X017960Y001870D01*
X017960Y001820D01*
X017956Y001770D01*
X017948Y001721D01*
X017936Y001672D01*
X017920Y001624D01*
X017901Y001578D01*
X017878Y001534D01*
X017851Y001491D01*
X017821Y001451D01*
X017789Y001413D01*
X017753Y001378D01*
X017714Y001346D01*
X017673Y001317D01*
X017630Y001291D01*
X017585Y001269D01*
X017539Y001251D01*
X017491Y001236D01*
X017442Y001225D01*
X017393Y001218D01*
X017343Y001215D01*
X017292Y001216D01*
X017243Y001221D01*
X017193Y001230D01*
X017145Y001243D01*
X017098Y001259D01*
X017052Y001280D01*
X017008Y001304D01*
X016966Y001331D01*
X016926Y001361D01*
X016889Y001395D01*
X016855Y001432D01*
X016823Y001471D01*
X016795Y001512D01*
X016770Y001556D01*
X016749Y001601D01*
X016732Y001648D01*
X016718Y001696D01*
X016708Y001745D01*
X016702Y001795D01*
X016700Y001845D01*
D12*
X017330Y001845D03*
D13*
X016580Y016220D03*
X015580Y017220D03*
X014580Y017220D03*
X016580Y020220D03*
X016580Y022970D03*
X016580Y026970D03*
X012330Y027845D03*
X011080Y027845D03*
X009830Y027845D03*
X007830Y027845D03*
X007830Y031845D03*
X009830Y031845D03*
X011080Y031845D03*
X012330Y031845D03*
X010580Y023595D03*
X010580Y021595D03*
X004580Y021095D03*
X002580Y021095D03*
X005830Y008970D03*
X005830Y006970D03*
D14*
X003640Y027915D03*
X002360Y029765D03*
X006590Y028125D03*
D15*
X004900Y030785D03*
X005450Y031775D03*
D16*
X006080Y024335D02*
X006080Y023855D01*
X007080Y023855D02*
X007080Y024335D01*
X008080Y024335D02*
X008080Y023855D01*
X009080Y023855D02*
X009080Y024335D01*
X009080Y021335D02*
X009080Y020855D01*
X008080Y020855D02*
X008080Y021335D01*
X007080Y021335D02*
X007080Y020855D01*
X006080Y020855D02*
X006080Y021335D01*
X006080Y017710D02*
X006080Y017230D01*
X005580Y016200D02*
X005580Y015720D01*
X004580Y015720D02*
X004580Y016200D01*
X005080Y017230D02*
X005080Y017710D01*
X003580Y016200D02*
X003580Y015720D01*
X002580Y015720D02*
X002580Y016200D01*
X002580Y012720D02*
X002580Y012240D01*
X003580Y012240D02*
X003580Y012720D01*
X004580Y012720D02*
X004580Y012240D01*
X005580Y012240D02*
X005580Y012720D01*
X006080Y011210D02*
X006080Y010730D01*
X007080Y010730D02*
X007080Y011210D01*
X007080Y012240D02*
X007080Y012720D01*
X008080Y012720D02*
X008080Y012240D01*
X008080Y011210D02*
X008080Y010730D01*
X008080Y009710D02*
X008080Y009230D01*
X007080Y009230D02*
X007080Y009710D01*
X007080Y006710D02*
X007080Y006230D01*
X008080Y006230D02*
X008080Y006710D01*
X009080Y006710D02*
X009080Y006230D01*
X010080Y006230D02*
X010080Y006710D01*
X011080Y006710D02*
X011080Y006230D01*
X012080Y006230D02*
X012080Y006710D01*
X013080Y006710D02*
X013080Y006230D01*
X014080Y006230D02*
X014080Y006710D01*
X014080Y009230D02*
X014080Y009710D01*
X014080Y010730D02*
X014080Y011210D01*
X013580Y012240D02*
X013580Y012720D01*
X014580Y012720D02*
X014580Y012240D01*
X015830Y012480D02*
X015830Y012960D01*
X015830Y015480D02*
X015830Y015960D01*
X014580Y015720D02*
X014580Y016200D01*
X013580Y016200D02*
X013580Y015720D01*
X013080Y017230D02*
X013080Y017710D01*
X012080Y017710D02*
X012080Y017230D01*
X011580Y016200D02*
X011580Y015720D01*
X011080Y017230D02*
X011080Y017710D01*
X010080Y017710D02*
X010080Y017230D01*
X010080Y016200D02*
X010080Y015720D01*
X009080Y015720D02*
X009080Y016200D01*
X009080Y017230D02*
X009080Y017710D01*
X008080Y017710D02*
X008080Y017230D01*
X008080Y016200D02*
X008080Y015720D01*
X007080Y015720D02*
X007080Y016200D01*
X007080Y017230D02*
X007080Y017710D01*
X009080Y012720D02*
X009080Y012240D01*
X009080Y011210D02*
X009080Y010730D01*
X009080Y009710D02*
X009080Y009230D01*
X010080Y009230D02*
X010080Y009710D01*
X010080Y010730D02*
X010080Y011210D01*
X010080Y012240D02*
X010080Y012720D01*
X011080Y011210D02*
X011080Y010730D01*
X011080Y009710D02*
X011080Y009230D01*
X012080Y009230D02*
X012080Y009710D01*
X012080Y010730D02*
X012080Y011210D01*
X011580Y012240D02*
X011580Y012720D01*
X012580Y012720D02*
X012580Y012240D01*
X013080Y011210D02*
X013080Y010730D01*
X013080Y009710D02*
X013080Y009230D01*
X012580Y015720D02*
X012580Y016200D01*
X013080Y020855D02*
X013080Y021335D01*
X014080Y021335D02*
X014080Y020855D01*
X015080Y020855D02*
X015080Y021335D01*
X015080Y023855D02*
X015080Y024335D01*
X014080Y024335D02*
X014080Y023855D01*
X013080Y023855D02*
X013080Y024335D01*
X012080Y024335D02*
X012080Y023855D01*
D17*
X008830Y030345D03*
D18*
X008830Y029345D03*
D19*
X003580Y023995D03*
X013730Y004595D03*
X016580Y021995D03*
D20*
X016580Y021195D03*
X012930Y004595D03*
X003580Y023195D03*
D21*
X013580Y029955D02*
X013580Y030735D01*
X017190Y031345D02*
X017970Y031345D01*
X017970Y029345D02*
X017190Y029345D01*
D22*
X012080Y021095D03*
D23*
X012080Y019595D03*
X013080Y019595D03*
X014080Y019595D03*
X015080Y019595D03*
X011080Y019595D03*
X010080Y019595D03*
X009080Y019595D03*
X008080Y019595D03*
X007080Y019595D03*
X006080Y019595D03*
X005080Y019595D03*
X004080Y019595D03*
X003080Y019595D03*
X002080Y019595D03*
X002080Y025595D03*
X003080Y025595D03*
X004080Y025595D03*
X005080Y025595D03*
X006080Y025595D03*
X007080Y025595D03*
X008080Y025595D03*
X009080Y025595D03*
X010080Y025595D03*
X011080Y025595D03*
X012080Y025595D03*
X013080Y025595D03*
X014080Y025595D03*
X015080Y025595D03*
D24*
X006675Y003489D02*
X006675Y002701D01*
X005849Y001205D02*
X005061Y001205D01*
X004274Y002701D02*
X004274Y003489D01*
D25*
X008830Y003545D02*
X008830Y004145D01*
X009830Y004145D02*
X009830Y003545D01*
X010830Y003545D02*
X010830Y004145D01*
D26*
X016205Y006970D03*
X016205Y007970D03*
X016205Y008970D03*
X017205Y008970D03*
X017205Y007970D03*
X017205Y006970D03*
X003705Y006970D03*
X003705Y007970D03*
X003705Y008970D03*
X002705Y008970D03*
X002705Y007970D03*
X002705Y006970D03*
D27*
X008846Y001890D02*
X008846Y001300D01*
X009830Y001300D02*
X009830Y001890D01*
X010814Y001890D02*
X010814Y001300D01*
D28*
X011080Y005345D03*
X007080Y005345D03*
D29*
X007080Y018595D03*
X006080Y018595D03*
X005080Y018595D03*
X004080Y018595D03*
X003080Y018595D03*
X002080Y018595D03*
X002080Y026595D03*
X003080Y026595D03*
X004080Y026595D03*
X005080Y026595D03*
X006080Y026595D03*
X007080Y026595D03*
X008080Y026595D03*
X009080Y026595D03*
X010080Y026595D03*
X011080Y026595D03*
X012080Y026595D03*
X013080Y026595D03*
X014080Y026595D03*
X015080Y026595D03*
X015080Y018595D03*
X014080Y018595D03*
X013080Y018595D03*
X012080Y018595D03*
X011080Y018595D03*
X010080Y018595D03*
X009080Y018595D03*
X008080Y018595D03*
M02*
