G75*
%MOIN*%
%OFA0B0*%
%FSLAX24Y24*%
%IPPOS*%
%LPD*%
%AMOC8*
5,1,8,0,0,1.08239X$1,22.5*
%
%ADD10C,0.0160*%
%ADD11C,0.0000*%
%ADD12C,0.0050*%
%ADD13C,0.0030*%
%ADD14C,0.0040*%
%ADD15C,0.0060*%
%ADD16R,0.0240X0.0340*%
%ADD17C,0.0120*%
%ADD18R,0.0400X0.1250*%
%ADD19R,0.1050X0.0600*%
%ADD20C,0.0080*%
%ADD21C,0.0100*%
%ADD22R,0.4200X0.0300*%
%ADD23R,0.0750X0.0200*%
%ADD24R,0.0300X0.0200*%
%ADD25C,0.0020*%
%ADD26R,0.0200X0.1000*%
%ADD27R,0.0750X0.0300*%
%ADD28R,0.0800X0.0200*%
%ADD29R,0.0200X0.0250*%
D10*
X001330Y000595D02*
X001330Y032466D01*
X018575Y032466D01*
X018575Y000595D01*
X001330Y000595D01*
D11*
X016700Y001845D02*
X016702Y001895D01*
X016708Y001945D01*
X016718Y001994D01*
X016732Y002042D01*
X016749Y002089D01*
X016770Y002134D01*
X016795Y002178D01*
X016823Y002219D01*
X016855Y002258D01*
X016889Y002295D01*
X016926Y002329D01*
X016966Y002359D01*
X017008Y002386D01*
X017052Y002410D01*
X017098Y002431D01*
X017145Y002447D01*
X017193Y002460D01*
X017243Y002469D01*
X017292Y002474D01*
X017343Y002475D01*
X017393Y002472D01*
X017442Y002465D01*
X017491Y002454D01*
X017539Y002439D01*
X017585Y002421D01*
X017630Y002399D01*
X017673Y002373D01*
X017714Y002344D01*
X017753Y002312D01*
X017789Y002277D01*
X017821Y002239D01*
X017851Y002199D01*
X017878Y002156D01*
X017901Y002112D01*
X017920Y002066D01*
X017936Y002018D01*
X017948Y001969D01*
X017956Y001920D01*
X017960Y001870D01*
X017960Y001820D01*
X017956Y001770D01*
X017948Y001721D01*
X017936Y001672D01*
X017920Y001624D01*
X017901Y001578D01*
X017878Y001534D01*
X017851Y001491D01*
X017821Y001451D01*
X017789Y001413D01*
X017753Y001378D01*
X017714Y001346D01*
X017673Y001317D01*
X017630Y001291D01*
X017585Y001269D01*
X017539Y001251D01*
X017491Y001236D01*
X017442Y001225D01*
X017393Y001218D01*
X017343Y001215D01*
X017292Y001216D01*
X017243Y001221D01*
X017193Y001230D01*
X017145Y001243D01*
X017098Y001259D01*
X017052Y001280D01*
X017008Y001304D01*
X016966Y001331D01*
X016926Y001361D01*
X016889Y001395D01*
X016855Y001432D01*
X016823Y001471D01*
X016795Y001512D01*
X016770Y001556D01*
X016749Y001601D01*
X016732Y001648D01*
X016718Y001696D01*
X016708Y001745D01*
X016702Y001795D01*
X016700Y001845D01*
D12*
X016176Y002087D02*
X016074Y001985D01*
X015870Y001985D01*
X015769Y002087D01*
X015568Y001985D02*
X015364Y002189D01*
X015466Y002189D02*
X015161Y002189D01*
X015161Y001985D02*
X015161Y002596D01*
X015466Y002596D01*
X015568Y002494D01*
X015568Y002290D01*
X015466Y002189D01*
X015769Y002392D02*
X015870Y002290D01*
X016074Y002290D01*
X016176Y002189D01*
X016176Y002087D01*
X016176Y002494D02*
X016074Y002596D01*
X015870Y002596D01*
X015769Y002494D01*
X015769Y002392D01*
X015668Y001606D02*
X015566Y001504D01*
X015566Y001097D01*
X015668Y000995D01*
X015871Y000995D01*
X015973Y001097D01*
X015973Y001504D02*
X015871Y001606D01*
X015668Y001606D01*
X015364Y001606D02*
X015161Y001606D01*
X015263Y001606D02*
X015263Y000995D01*
X015364Y000995D02*
X015161Y000995D01*
X014960Y001097D02*
X014858Y000995D01*
X014655Y000995D01*
X014553Y001097D01*
X014352Y001097D02*
X014251Y000995D01*
X014047Y000995D01*
X013945Y001097D01*
X013945Y001606D01*
X013745Y001606D02*
X013745Y000995D01*
X013338Y000995D02*
X013338Y001606D01*
X013541Y001402D01*
X013745Y001606D01*
X013643Y001985D02*
X013439Y001985D01*
X013338Y002087D01*
X013338Y002494D01*
X013439Y002596D01*
X013643Y002596D01*
X013745Y002494D01*
X013745Y002087D01*
X013643Y001985D01*
X014149Y001985D02*
X014149Y002596D01*
X014352Y002596D02*
X013945Y002596D01*
X014553Y002494D02*
X014553Y002087D01*
X014655Y001985D01*
X014858Y001985D01*
X014960Y002087D01*
X014960Y002494D01*
X014858Y002596D01*
X014655Y002596D01*
X014553Y002494D01*
X014655Y001606D02*
X014553Y001504D01*
X014553Y001402D01*
X014655Y001300D01*
X014858Y001300D01*
X014960Y001199D01*
X014960Y001097D01*
X014960Y001504D02*
X014858Y001606D01*
X014655Y001606D01*
X014352Y001606D02*
X014352Y001097D01*
X013137Y001199D02*
X012934Y000995D01*
X012832Y000995D01*
X012730Y001097D01*
X012730Y001199D01*
X012934Y001402D01*
X012934Y001504D01*
X012832Y001606D01*
X012730Y001504D01*
X012730Y001402D01*
X013137Y000995D01*
X013137Y001985D02*
X013137Y002596D01*
X012934Y002392D01*
X012730Y002596D01*
X012730Y001985D01*
X011830Y003295D02*
X011780Y004445D01*
X011680Y004545D01*
X007980Y004545D01*
X007880Y004445D01*
X007830Y003295D01*
X006530Y005120D02*
X006230Y005120D01*
X006380Y005120D02*
X006380Y005570D01*
X006230Y005420D01*
X006070Y005495D02*
X005995Y005570D01*
X005770Y005570D01*
X005770Y005120D01*
X005995Y005120D01*
X006070Y005195D01*
X006070Y005495D01*
X007994Y007745D02*
X007919Y007820D01*
X007994Y007745D02*
X008145Y007745D01*
X008220Y007820D01*
X008220Y007895D01*
X008145Y007970D01*
X007994Y007970D01*
X007919Y008045D01*
X007919Y008120D01*
X007994Y008195D01*
X008145Y008195D01*
X008220Y008120D01*
X008380Y008195D02*
X008680Y007745D01*
X008680Y008195D01*
X008840Y008195D02*
X009140Y008195D01*
X009140Y008120D01*
X008840Y007820D01*
X008840Y007745D01*
X009301Y007820D02*
X009376Y007745D01*
X009526Y007745D01*
X009601Y007820D01*
X009601Y007970D01*
X009526Y008045D01*
X009451Y008045D01*
X009301Y007970D01*
X009301Y008195D01*
X009601Y008195D01*
X009761Y007970D02*
X010061Y007970D01*
X010221Y007970D02*
X010522Y007970D01*
X010682Y008045D02*
X010832Y008195D01*
X010832Y007745D01*
X010682Y007745D02*
X010982Y007745D01*
X011142Y007820D02*
X011142Y008120D01*
X011217Y008195D01*
X011367Y008195D01*
X011442Y008120D01*
X011142Y007820D01*
X011217Y007745D01*
X011367Y007745D01*
X011442Y007820D01*
X011442Y008120D01*
X011603Y008195D02*
X011828Y008195D01*
X011903Y008120D01*
X011903Y007970D01*
X011828Y007895D01*
X011603Y007895D01*
X011603Y007745D02*
X011603Y008195D01*
X012063Y008195D02*
X012063Y007745D01*
X012288Y007745D01*
X012363Y007820D01*
X012363Y008120D01*
X012288Y008195D01*
X012063Y008195D01*
X012523Y008195D02*
X012673Y008195D01*
X012598Y008195D02*
X012598Y007745D01*
X012523Y007745D02*
X012673Y007745D01*
X012830Y007745D02*
X012830Y008195D01*
X013055Y008195D01*
X013130Y008120D01*
X013130Y007970D01*
X013055Y007895D01*
X012830Y007895D01*
X012330Y005720D02*
X012180Y005720D01*
X012105Y005645D01*
X012105Y005570D01*
X012180Y005495D01*
X012330Y005495D01*
X012405Y005420D01*
X012405Y005345D01*
X012330Y005270D01*
X012180Y005270D01*
X012105Y005345D01*
X012105Y005420D01*
X012180Y005495D01*
X012330Y005495D02*
X012405Y005570D01*
X012405Y005645D01*
X012330Y005720D01*
X011945Y005645D02*
X011870Y005720D01*
X011720Y005720D01*
X011645Y005645D01*
X011645Y005345D01*
X011720Y005270D01*
X011870Y005270D01*
X011945Y005345D01*
X011500Y004305D02*
X011502Y004325D01*
X011508Y004343D01*
X011517Y004361D01*
X011529Y004376D01*
X011544Y004388D01*
X011562Y004397D01*
X011580Y004403D01*
X011600Y004405D01*
X011620Y004403D01*
X011638Y004397D01*
X011656Y004388D01*
X011671Y004376D01*
X011683Y004361D01*
X011692Y004343D01*
X011698Y004325D01*
X011700Y004305D01*
X011698Y004285D01*
X011692Y004267D01*
X011683Y004249D01*
X011671Y004234D01*
X011656Y004222D01*
X011638Y004213D01*
X011620Y004207D01*
X011600Y004205D01*
X011580Y004207D01*
X011562Y004213D01*
X011544Y004222D01*
X011529Y004234D01*
X011517Y004249D01*
X011508Y004267D01*
X011502Y004285D01*
X011500Y004305D01*
X010447Y007745D02*
X010447Y008195D01*
X010221Y007970D01*
X009986Y007745D02*
X009986Y008195D01*
X009761Y007970D01*
X008380Y007745D02*
X008380Y008195D01*
X006180Y009695D02*
X006105Y009620D01*
X005955Y009620D01*
X005880Y009695D01*
X005720Y009695D02*
X005645Y009620D01*
X005495Y009620D01*
X005420Y009695D01*
X005420Y009995D01*
X005495Y010070D01*
X005645Y010070D01*
X005720Y009995D01*
X005880Y009995D02*
X005880Y009920D01*
X005955Y009845D01*
X006180Y009845D01*
X006180Y009695D02*
X006180Y009995D01*
X006105Y010070D01*
X005955Y010070D01*
X005880Y009995D01*
X003930Y009835D02*
X003930Y009535D01*
X003630Y009835D01*
X003555Y009835D01*
X003480Y009760D01*
X003480Y009610D01*
X003555Y009535D01*
X002930Y009535D02*
X002930Y009835D01*
X002930Y009685D02*
X002480Y009685D01*
X002630Y009535D01*
X002005Y007985D02*
X001930Y007985D01*
X001855Y007910D01*
X001855Y007685D01*
X002005Y007685D01*
X002080Y007760D01*
X002080Y007910D01*
X002005Y007985D01*
X001705Y007835D02*
X001855Y007685D01*
X001705Y007835D02*
X001630Y007985D01*
X002138Y013995D02*
X002138Y014445D01*
X002289Y014295D01*
X002439Y014445D01*
X002439Y013995D01*
X002599Y014070D02*
X002599Y014370D01*
X002674Y014445D01*
X002824Y014445D01*
X002899Y014370D01*
X003059Y014445D02*
X003359Y014445D01*
X003209Y014445D02*
X003209Y013995D01*
X002899Y014070D02*
X002824Y013995D01*
X002674Y013995D01*
X002599Y014070D01*
X003520Y014070D02*
X003595Y013995D01*
X003745Y013995D01*
X003820Y014070D01*
X003820Y014145D01*
X003745Y014220D01*
X003520Y014220D01*
X003520Y014070D01*
X003520Y014220D02*
X003670Y014370D01*
X003820Y014445D01*
X003980Y014370D02*
X004055Y014445D01*
X004205Y014445D01*
X004280Y014370D01*
X004280Y014295D01*
X003980Y013995D01*
X004280Y013995D01*
X004440Y013995D02*
X004440Y014445D01*
X004440Y014220D02*
X004741Y014220D01*
X004901Y014220D02*
X005201Y014220D01*
X005361Y014295D02*
X005511Y014445D01*
X005511Y013995D01*
X005361Y013995D02*
X005661Y013995D01*
X006638Y013995D02*
X006638Y014445D01*
X006789Y014295D01*
X006939Y014445D01*
X006939Y013995D01*
X007099Y014070D02*
X007174Y013995D01*
X007324Y013995D01*
X007399Y014070D01*
X007399Y014370D02*
X007324Y014445D01*
X007174Y014445D01*
X007099Y014370D01*
X007099Y014070D01*
X007559Y014445D02*
X007859Y014445D01*
X007709Y014445D02*
X007709Y013995D01*
X008020Y014070D02*
X008095Y013995D01*
X008245Y013995D01*
X008320Y014070D01*
X008320Y014145D01*
X008245Y014220D01*
X008020Y014220D01*
X008020Y014070D01*
X008020Y014220D02*
X008170Y014370D01*
X008320Y014445D01*
X008480Y014370D02*
X008555Y014445D01*
X008705Y014445D01*
X008780Y014370D01*
X008780Y014295D01*
X008480Y013995D01*
X008780Y013995D01*
X008940Y013995D02*
X008940Y014445D01*
X008940Y014220D02*
X009241Y014220D01*
X009401Y014220D02*
X009701Y014220D01*
X009861Y014370D02*
X009936Y014445D01*
X010086Y014445D01*
X010161Y014370D01*
X010161Y014295D01*
X009861Y013995D01*
X010161Y013995D01*
X011138Y013995D02*
X011138Y014445D01*
X011289Y014295D01*
X011439Y014445D01*
X011439Y013995D01*
X011599Y014070D02*
X011674Y013995D01*
X011824Y013995D01*
X011899Y014070D01*
X011899Y014370D02*
X011824Y014445D01*
X011674Y014445D01*
X011599Y014370D01*
X011599Y014070D01*
X012059Y014445D02*
X012359Y014445D01*
X012209Y014445D02*
X012209Y013995D01*
X012520Y014070D02*
X012595Y013995D01*
X012745Y013995D01*
X012820Y014070D01*
X012820Y014145D01*
X012745Y014220D01*
X012520Y014220D01*
X012520Y014070D01*
X012520Y014220D02*
X012670Y014370D01*
X012820Y014445D01*
X012980Y014370D02*
X013055Y014445D01*
X013205Y014445D01*
X013280Y014370D01*
X013280Y014295D01*
X012980Y013995D01*
X013280Y013995D01*
X013440Y013995D02*
X013440Y014445D01*
X013440Y014220D02*
X013741Y014220D01*
X013901Y014220D02*
X014201Y014220D01*
X014361Y014070D02*
X014436Y013995D01*
X014586Y013995D01*
X014661Y014070D01*
X014661Y014145D01*
X014586Y014220D01*
X014511Y014220D01*
X014586Y014220D02*
X014661Y014295D01*
X014661Y014370D01*
X014586Y014445D01*
X014436Y014445D01*
X014361Y014370D01*
X013741Y014445D02*
X013741Y013995D01*
X014789Y011695D02*
X015015Y011695D01*
X015090Y011620D01*
X015090Y011470D01*
X015015Y011395D01*
X014789Y011395D01*
X014789Y011245D02*
X014789Y011695D01*
X014940Y011395D02*
X015090Y011245D01*
X015250Y011245D02*
X015250Y011695D01*
X015550Y011245D01*
X015550Y011695D01*
X015710Y011620D02*
X015785Y011695D01*
X015935Y011695D01*
X016010Y011620D01*
X016010Y011545D01*
X015710Y011245D01*
X016010Y011245D01*
X017830Y008145D02*
X017905Y007995D01*
X018055Y007845D01*
X018055Y008070D01*
X018130Y008145D01*
X018205Y008145D01*
X018280Y008070D01*
X018280Y007920D01*
X018205Y007845D01*
X018055Y007845D01*
X017430Y006295D02*
X017430Y005995D01*
X017430Y006145D02*
X016980Y006145D01*
X017130Y005995D01*
X016430Y005995D02*
X016130Y006295D01*
X016055Y006295D01*
X015980Y006220D01*
X015980Y006070D01*
X016055Y005995D01*
X016430Y005995D02*
X016430Y006295D01*
X016520Y015245D02*
X016295Y015245D01*
X016295Y015695D01*
X016520Y015695D01*
X016595Y015620D01*
X016595Y015320D01*
X016520Y015245D01*
X016755Y015320D02*
X016830Y015245D01*
X016980Y015245D01*
X017055Y015320D01*
X017055Y015395D01*
X016980Y015470D01*
X016905Y015470D01*
X016980Y015470D02*
X017055Y015545D01*
X017055Y015620D01*
X016980Y015695D01*
X016830Y015695D01*
X016755Y015620D01*
X016805Y017785D02*
X016355Y017785D01*
X016355Y018010D01*
X016430Y018085D01*
X016580Y018085D01*
X016655Y018010D01*
X016655Y017785D01*
X016655Y017935D02*
X016805Y018085D01*
X016730Y018245D02*
X016805Y018320D01*
X016805Y018470D01*
X016730Y018545D01*
X016580Y018545D01*
X016505Y018470D01*
X016505Y018395D01*
X016580Y018245D01*
X016355Y018245D01*
X016355Y018545D01*
X017220Y020145D02*
X017370Y020145D01*
X017445Y020220D01*
X017605Y020220D02*
X017680Y020145D01*
X017830Y020145D01*
X017905Y020220D01*
X017905Y020295D01*
X017830Y020370D01*
X017755Y020370D01*
X017830Y020370D02*
X017905Y020445D01*
X017905Y020520D01*
X017830Y020595D01*
X017680Y020595D01*
X017605Y020520D01*
X017445Y020520D02*
X017370Y020595D01*
X017220Y020595D01*
X017145Y020520D01*
X017145Y020220D01*
X017220Y020145D01*
X015056Y022370D02*
X014756Y022370D01*
X014906Y022370D02*
X014906Y022820D01*
X014756Y022670D01*
X014596Y022670D02*
X014596Y022745D01*
X014521Y022820D01*
X014371Y022820D01*
X014296Y022745D01*
X014135Y022745D02*
X014135Y022445D01*
X014060Y022370D01*
X013910Y022370D01*
X013835Y022445D01*
X013910Y022595D02*
X014135Y022595D01*
X014135Y022745D02*
X014060Y022820D01*
X013910Y022820D01*
X013835Y022745D01*
X013835Y022670D01*
X013910Y022595D01*
X013675Y022595D02*
X013375Y022595D01*
X013600Y022820D01*
X013600Y022370D01*
X013215Y022595D02*
X013140Y022520D01*
X012914Y022520D01*
X012914Y022370D02*
X012914Y022820D01*
X013140Y022820D01*
X013215Y022745D01*
X013215Y022595D01*
X012754Y022445D02*
X012679Y022370D01*
X012529Y022370D01*
X012454Y022445D01*
X012454Y022745D01*
X012529Y022820D01*
X012679Y022820D01*
X012754Y022745D01*
X012294Y022820D02*
X012294Y022370D01*
X012144Y022670D02*
X012294Y022820D01*
X012144Y022670D02*
X011994Y022820D01*
X011994Y022370D01*
X010780Y020970D02*
X010780Y020520D01*
X010630Y020520D02*
X010930Y020520D01*
X010630Y020820D02*
X010780Y020970D01*
X010470Y020895D02*
X010395Y020970D01*
X010245Y020970D01*
X010170Y020895D01*
X010170Y020595D01*
X010245Y020520D01*
X010395Y020520D01*
X010470Y020595D01*
X008596Y022445D02*
X008596Y022520D01*
X008521Y022595D01*
X008296Y022595D01*
X008296Y022445D01*
X008371Y022370D01*
X008521Y022370D01*
X008596Y022445D01*
X008446Y022745D02*
X008296Y022595D01*
X008135Y022520D02*
X008135Y022445D01*
X008060Y022370D01*
X007910Y022370D01*
X007835Y022445D01*
X007835Y022520D01*
X007910Y022595D01*
X008060Y022595D01*
X008135Y022520D01*
X008060Y022595D02*
X008135Y022670D01*
X008135Y022745D01*
X008060Y022820D01*
X007910Y022820D01*
X007835Y022745D01*
X007835Y022670D01*
X007910Y022595D01*
X007675Y022520D02*
X007675Y022445D01*
X007600Y022370D01*
X007450Y022370D01*
X007375Y022445D01*
X007215Y022370D02*
X007215Y022820D01*
X007065Y022670D01*
X006914Y022820D01*
X006914Y022370D01*
X006754Y022370D02*
X006454Y022370D01*
X006454Y022820D01*
X007375Y022745D02*
X007450Y022820D01*
X007600Y022820D01*
X007675Y022745D01*
X007675Y022670D01*
X007600Y022595D01*
X007675Y022520D01*
X007600Y022595D02*
X007525Y022595D01*
X008446Y022745D02*
X008596Y022820D01*
X005005Y022220D02*
X004930Y022295D01*
X004780Y022295D01*
X004705Y022220D01*
X004545Y022220D02*
X004470Y022295D01*
X004320Y022295D01*
X004245Y022220D01*
X004245Y021920D01*
X004320Y021845D01*
X004470Y021845D01*
X004545Y021920D01*
X004705Y021845D02*
X005005Y022145D01*
X005005Y022220D01*
X005005Y021845D02*
X004705Y021845D01*
X002455Y024395D02*
X002455Y024845D01*
X002230Y024620D01*
X002530Y024620D01*
X002070Y024470D02*
X001995Y024395D01*
X001845Y024395D01*
X001770Y024470D01*
X001770Y024770D01*
X001845Y024845D01*
X001995Y024845D01*
X002070Y024770D01*
X002165Y031220D02*
X002316Y031370D01*
X002240Y031370D01*
X002240Y031445D01*
X002316Y031445D01*
X002316Y031370D01*
X002472Y031445D02*
X002547Y031370D01*
X002698Y031370D01*
X002773Y031445D01*
X002773Y031595D01*
X002698Y031670D01*
X002622Y031670D01*
X002472Y031595D01*
X002472Y031820D01*
X002773Y031820D01*
X002933Y031670D02*
X002933Y031370D01*
X003083Y031370D02*
X003083Y031595D01*
X003158Y031670D01*
X003233Y031595D01*
X003233Y031370D01*
X003393Y031370D02*
X003393Y031670D01*
X003468Y031670D01*
X003543Y031595D01*
X003618Y031670D01*
X003693Y031595D01*
X003693Y031370D01*
X003543Y031370D02*
X003543Y031595D01*
X003083Y031595D02*
X003008Y031670D01*
X002933Y031670D01*
X002005Y031670D02*
X001930Y031595D01*
X002005Y031520D01*
X002005Y031445D01*
X001930Y031370D01*
X001780Y031370D01*
X001705Y031445D01*
X001855Y031595D02*
X001930Y031595D01*
X002005Y031670D02*
X002005Y031745D01*
X001930Y031820D01*
X001780Y031820D01*
X001705Y031745D01*
X007730Y030170D02*
X007805Y030020D01*
X007955Y029870D01*
X007955Y030095D01*
X008030Y030170D01*
X008105Y030170D01*
X008180Y030095D01*
X008180Y029945D01*
X008105Y029870D01*
X007955Y029870D01*
X008105Y029710D02*
X008180Y029635D01*
X008180Y029485D01*
X008105Y029410D01*
X007805Y029410D01*
X007730Y029485D01*
X007730Y029635D01*
X007805Y029710D01*
X010855Y029635D02*
X010855Y029410D01*
X011305Y029410D01*
X011155Y029410D02*
X011155Y029635D01*
X011080Y029710D01*
X010930Y029710D01*
X010855Y029635D01*
X011155Y029560D02*
X011305Y029710D01*
X011080Y029870D02*
X011080Y030170D01*
X011305Y030095D02*
X010855Y030095D01*
X011080Y029870D01*
X012105Y029945D02*
X012180Y029870D01*
X012105Y029945D02*
X012105Y030095D01*
X012180Y030170D01*
X012255Y030170D01*
X012330Y030095D01*
X012405Y030170D01*
X012480Y030170D01*
X012555Y030095D01*
X012555Y029945D01*
X012480Y029870D01*
X012555Y029710D02*
X012405Y029560D01*
X012405Y029635D02*
X012405Y029410D01*
X012555Y029410D02*
X012105Y029410D01*
X012105Y029635D01*
X012180Y029710D01*
X012330Y029710D01*
X012405Y029635D01*
X012330Y030020D02*
X012330Y030095D01*
X013755Y029145D02*
X014205Y029145D01*
X014205Y028995D02*
X014205Y029295D01*
X013905Y028995D02*
X013755Y029145D01*
X013830Y028835D02*
X013755Y028760D01*
X013755Y028535D01*
X014205Y028535D01*
X014055Y028535D02*
X014055Y028760D01*
X013980Y028835D01*
X013830Y028835D01*
X014055Y028685D02*
X014205Y028835D01*
X016430Y025295D02*
X016355Y025220D01*
X016355Y025070D01*
X016430Y024995D01*
X016430Y024835D02*
X016355Y024760D01*
X016355Y024535D01*
X016805Y024535D01*
X016655Y024535D02*
X016655Y024760D01*
X016580Y024835D01*
X016430Y024835D01*
X016655Y024685D02*
X016805Y024835D01*
X016805Y024995D02*
X016505Y025295D01*
X016430Y025295D01*
X016805Y025295D02*
X016805Y024995D01*
X014596Y022670D02*
X014296Y022370D01*
X014596Y022370D01*
X009241Y014445D02*
X009241Y013995D01*
X004741Y013995D02*
X004741Y014445D01*
X004385Y017245D02*
X004085Y017245D01*
X004235Y017245D02*
X004235Y017695D01*
X004085Y017545D01*
X003925Y017695D02*
X003925Y017245D01*
X003625Y017695D01*
X003625Y017245D01*
X003465Y017245D02*
X003315Y017395D01*
X003390Y017395D02*
X003164Y017395D01*
X003164Y017245D02*
X003164Y017695D01*
X003390Y017695D01*
X003465Y017620D01*
X003465Y017470D01*
X003390Y017395D01*
D13*
X002032Y019160D02*
X002032Y019563D01*
X001898Y019563D02*
X002167Y019563D01*
X002167Y019295D02*
X002032Y019160D01*
X007349Y028575D02*
X007300Y028623D01*
X007300Y028817D01*
X007349Y028865D01*
X007445Y028865D01*
X007494Y028817D01*
X007595Y028865D02*
X007595Y028720D01*
X007692Y028768D01*
X007740Y028768D01*
X007788Y028720D01*
X007788Y028623D01*
X007740Y028575D01*
X007643Y028575D01*
X007595Y028623D01*
X007494Y028623D02*
X007445Y028575D01*
X007349Y028575D01*
X007595Y028865D02*
X007788Y028865D01*
X007595Y030825D02*
X007595Y030873D01*
X007788Y031067D01*
X007788Y031115D01*
X007595Y031115D01*
X007494Y031067D02*
X007445Y031115D01*
X007349Y031115D01*
X007300Y031067D01*
X007300Y030873D01*
X007349Y030825D01*
X007445Y030825D01*
X007494Y030873D01*
X014993Y025895D02*
X015128Y026030D01*
X015128Y025627D01*
X015262Y025627D02*
X014993Y025627D01*
X015059Y004360D02*
X015059Y004070D01*
X015059Y004167D02*
X015204Y004263D01*
X015305Y004215D02*
X015305Y004118D01*
X015353Y004070D01*
X015450Y004070D01*
X015498Y004118D01*
X015498Y004215D01*
X015450Y004263D01*
X015353Y004263D01*
X015305Y004215D01*
X015204Y004070D02*
X015059Y004167D01*
X014958Y004167D02*
X014813Y004167D01*
X014765Y004118D01*
X014813Y004070D01*
X014958Y004070D01*
X014958Y004215D01*
X014910Y004263D01*
X014813Y004263D01*
X014663Y004360D02*
X014567Y004360D01*
X014615Y004360D02*
X014615Y004118D01*
X014567Y004070D01*
X014518Y004070D01*
X014470Y004118D01*
X014470Y003880D02*
X014615Y003880D01*
X014663Y003832D01*
X014663Y003638D01*
X014615Y003590D01*
X014470Y003590D01*
X014470Y003880D01*
X014813Y003783D02*
X014910Y003783D01*
X014958Y003735D01*
X014958Y003590D01*
X014813Y003590D01*
X014765Y003638D01*
X014813Y003687D01*
X014958Y003687D01*
X015059Y003783D02*
X015156Y003590D01*
X015253Y003783D01*
X015354Y003783D02*
X015402Y003783D01*
X015402Y003590D01*
X015354Y003590D02*
X015451Y003590D01*
X015550Y003638D02*
X015550Y003735D01*
X015599Y003783D01*
X015744Y003783D01*
X015744Y003880D02*
X015744Y003590D01*
X015599Y003590D01*
X015550Y003638D01*
X015649Y003400D02*
X015649Y003207D01*
X015745Y003110D01*
X015842Y003207D01*
X015842Y003400D01*
X015943Y003255D02*
X015992Y003303D01*
X016088Y003303D01*
X016137Y003255D01*
X016137Y003207D01*
X015943Y003207D01*
X015943Y003255D02*
X015943Y003158D01*
X015992Y003110D01*
X016088Y003110D01*
X016238Y003110D02*
X016238Y003303D01*
X016238Y003207D02*
X016335Y003303D01*
X016383Y003303D01*
X016483Y003303D02*
X016629Y003303D01*
X016677Y003255D01*
X016677Y003158D01*
X016629Y003110D01*
X016483Y003110D01*
X016483Y003013D02*
X016483Y003303D01*
X016483Y003590D02*
X016434Y003638D01*
X016483Y003687D01*
X016628Y003687D01*
X016628Y003735D02*
X016628Y003590D01*
X016483Y003590D01*
X016333Y003638D02*
X016333Y003735D01*
X016236Y003735D01*
X016140Y003638D02*
X016188Y003590D01*
X016285Y003590D01*
X016333Y003638D01*
X016140Y003638D02*
X016140Y003832D01*
X016188Y003880D01*
X016285Y003880D01*
X016333Y003832D01*
X016483Y003783D02*
X016579Y003783D01*
X016628Y003735D01*
X016729Y003783D02*
X016729Y003638D01*
X016777Y003590D01*
X016922Y003590D01*
X016922Y003783D01*
X017024Y003783D02*
X017120Y003783D01*
X017072Y003832D02*
X017072Y003638D01*
X017120Y003590D01*
X017220Y003590D02*
X017220Y003880D01*
X017268Y003783D02*
X017220Y003735D01*
X017268Y003783D02*
X017365Y003783D01*
X017414Y003735D01*
X017414Y003590D01*
X017515Y003590D02*
X017611Y003590D01*
X017563Y003590D02*
X017563Y003783D01*
X017515Y003783D01*
X017563Y003880D02*
X017563Y003929D01*
X017711Y003735D02*
X017711Y003638D01*
X017760Y003590D01*
X017856Y003590D01*
X017905Y003687D02*
X017711Y003687D01*
X017711Y003735D02*
X017760Y003783D01*
X017856Y003783D01*
X017905Y003735D01*
X017905Y003687D01*
X018006Y003687D02*
X018103Y003783D01*
X018151Y003783D01*
X018006Y003783D02*
X018006Y003590D01*
X017709Y003303D02*
X017564Y003207D01*
X017709Y003110D01*
X017564Y003110D02*
X017564Y003400D01*
X017463Y003255D02*
X017414Y003303D01*
X017269Y003303D01*
X017269Y003110D01*
X017168Y003110D02*
X017023Y003110D01*
X016975Y003158D01*
X017023Y003207D01*
X017168Y003207D01*
X017168Y003255D02*
X017168Y003110D01*
X017168Y003255D02*
X017120Y003303D01*
X017023Y003303D01*
X016826Y003400D02*
X016826Y003110D01*
X016778Y003110D02*
X016875Y003110D01*
X016826Y003400D02*
X016778Y003400D01*
X016778Y004070D02*
X016778Y004360D01*
X016923Y004263D02*
X016778Y004167D01*
X016923Y004070D01*
X016677Y004070D02*
X016532Y004070D01*
X016483Y004118D01*
X016532Y004167D01*
X016677Y004167D01*
X016677Y004215D02*
X016677Y004070D01*
X016677Y004215D02*
X016629Y004263D01*
X016532Y004263D01*
X016382Y004263D02*
X016334Y004215D01*
X016189Y004215D01*
X016334Y004215D02*
X016382Y004167D01*
X016382Y004118D01*
X016334Y004070D01*
X016189Y004070D01*
X016189Y004360D01*
X016334Y004360D01*
X016382Y004312D01*
X016382Y004263D01*
X015793Y004215D02*
X015745Y004263D01*
X015599Y004263D01*
X015599Y004360D02*
X015599Y004070D01*
X015745Y004070D01*
X015793Y004118D01*
X015793Y004215D01*
X015402Y003929D02*
X015402Y003880D01*
X015206Y003400D02*
X015206Y003110D01*
X015158Y003110D02*
X015254Y003110D01*
X015058Y003110D02*
X014961Y003110D01*
X015009Y003110D02*
X015009Y003400D01*
X014961Y003400D01*
X014813Y003400D02*
X014813Y003449D01*
X014813Y003303D02*
X014813Y003110D01*
X014765Y003110D02*
X014861Y003110D01*
X014813Y003303D02*
X014765Y003303D01*
X014663Y003303D02*
X014615Y003255D01*
X014470Y003255D01*
X014470Y003110D02*
X014615Y003110D01*
X014663Y003158D01*
X014663Y003207D01*
X014615Y003255D01*
X014663Y003303D02*
X014663Y003352D01*
X014615Y003400D01*
X014470Y003400D01*
X014470Y003110D01*
X015158Y003400D02*
X015206Y003400D01*
X017463Y003255D02*
X017463Y003110D01*
D14*
X017435Y013115D02*
X017128Y013422D01*
X017051Y013422D01*
X016975Y013345D01*
X016975Y013192D01*
X017051Y013115D01*
X017435Y013115D02*
X017435Y013422D01*
X017358Y013575D02*
X017051Y013882D01*
X017358Y013882D01*
X017435Y013806D01*
X017435Y013652D01*
X017358Y013575D01*
X017051Y013575D01*
X016975Y013652D01*
X016975Y013806D01*
X017051Y013882D01*
X017128Y014036D02*
X016975Y014189D01*
X017435Y014189D01*
X017435Y014036D02*
X017435Y014343D01*
X017358Y014496D02*
X017435Y014573D01*
X017435Y014726D01*
X017358Y014803D01*
X017282Y014803D01*
X017205Y014726D01*
X017205Y014650D01*
X017205Y014726D02*
X017128Y014803D01*
X017051Y014803D01*
X016975Y014726D01*
X016975Y014573D01*
X017051Y014496D01*
X017725Y014573D02*
X017801Y014496D01*
X017878Y014496D01*
X017955Y014573D01*
X017955Y014726D01*
X018032Y014803D01*
X018108Y014803D01*
X018185Y014726D01*
X018185Y014573D01*
X018108Y014496D01*
X018108Y014343D02*
X018185Y014266D01*
X018185Y014036D01*
X017725Y014036D01*
X017725Y014266D01*
X017801Y014343D01*
X017878Y014343D01*
X017955Y014266D01*
X017955Y014036D01*
X017955Y013882D02*
X017955Y013575D01*
X017878Y013575D02*
X017725Y013729D01*
X017878Y013882D01*
X018185Y013882D01*
X018185Y013575D02*
X017878Y013575D01*
X017725Y013115D02*
X018185Y013115D01*
X018185Y013422D01*
X017955Y014266D02*
X018032Y014343D01*
X018108Y014343D01*
X017725Y014573D02*
X017725Y014726D01*
X017801Y014803D01*
X017801Y015187D02*
X018108Y015187D01*
X018185Y015263D01*
X018185Y015417D01*
X018108Y015494D01*
X018185Y015647D02*
X018185Y015801D01*
X018185Y015724D02*
X017725Y015724D01*
X017725Y015647D02*
X017725Y015801D01*
X017725Y015954D02*
X017725Y016108D01*
X017725Y016031D02*
X018185Y016031D01*
X018185Y015954D02*
X018185Y016108D01*
X018185Y016261D02*
X018185Y016491D01*
X018108Y016568D01*
X017801Y016568D01*
X017725Y016491D01*
X017725Y016261D01*
X018185Y016261D01*
X018185Y016721D02*
X018185Y016798D01*
X018108Y016798D01*
X018108Y016721D01*
X018185Y016721D01*
X018185Y016952D02*
X018185Y017182D01*
X018108Y017259D01*
X017801Y017259D01*
X017725Y017182D01*
X017725Y016952D01*
X018185Y016952D01*
X018185Y017412D02*
X017725Y017412D01*
X017955Y017489D02*
X018185Y017719D01*
X018032Y017412D02*
X017725Y017719D01*
X017801Y015494D02*
X017725Y015417D01*
X017725Y015263D01*
X017801Y015187D01*
X018108Y015033D02*
X018185Y015033D01*
X018185Y014957D01*
X018108Y014957D01*
X018108Y015033D01*
D15*
X016930Y016970D02*
X016230Y016970D01*
X016213Y016972D01*
X016196Y016976D01*
X016180Y016983D01*
X016166Y016993D01*
X016153Y017006D01*
X016143Y017020D01*
X016136Y017036D01*
X016132Y017053D01*
X016130Y017070D01*
X016130Y017220D01*
X016180Y017270D01*
X016180Y019170D01*
X016130Y019220D01*
X016130Y019370D01*
X016132Y019387D01*
X016136Y019404D01*
X016143Y019420D01*
X016153Y019434D01*
X016166Y019447D01*
X016180Y019457D01*
X016196Y019464D01*
X016213Y019468D01*
X016230Y019470D01*
X016930Y019470D01*
X016947Y019468D01*
X016964Y019464D01*
X016980Y019457D01*
X016994Y019447D01*
X017007Y019434D01*
X017017Y019420D01*
X017024Y019404D01*
X017028Y019387D01*
X017030Y019370D01*
X017030Y019220D01*
X016980Y019170D01*
X016980Y017270D01*
X017030Y017220D01*
X017030Y017070D01*
X017028Y017053D01*
X017024Y017036D01*
X017017Y017020D01*
X017007Y017006D01*
X016994Y016993D01*
X016980Y016983D01*
X016964Y016976D01*
X016947Y016972D01*
X016930Y016970D01*
X016130Y015120D02*
X015530Y015120D01*
X015513Y015118D01*
X015496Y015114D01*
X015480Y015107D01*
X015466Y015097D01*
X015453Y015084D01*
X015443Y015070D01*
X015436Y015054D01*
X015432Y015037D01*
X015430Y015020D01*
X015430Y013420D01*
X015432Y013403D01*
X015436Y013386D01*
X015443Y013370D01*
X015453Y013356D01*
X015466Y013343D01*
X015480Y013333D01*
X015496Y013326D01*
X015513Y013322D01*
X015530Y013320D01*
X016130Y013320D01*
X016147Y013322D01*
X016164Y013326D01*
X016180Y013333D01*
X016194Y013343D01*
X016207Y013356D01*
X016217Y013370D01*
X016224Y013386D01*
X016228Y013403D01*
X016230Y013420D01*
X016230Y015020D01*
X016228Y015037D01*
X016224Y015054D01*
X016217Y015070D01*
X016207Y015084D01*
X016194Y015097D01*
X016180Y015107D01*
X016164Y015114D01*
X016147Y015118D01*
X016130Y015120D01*
X015830Y014820D02*
X015830Y014220D01*
X016080Y014220D01*
X015830Y014220D02*
X015580Y014220D01*
X015830Y014220D02*
X015580Y014620D01*
X016080Y014620D01*
X015830Y014220D01*
X015830Y013970D01*
X015080Y013820D02*
X015080Y013070D01*
X011080Y013070D01*
X011080Y015370D01*
X015080Y015370D01*
X015080Y014620D01*
X015041Y014618D01*
X015002Y014612D01*
X014964Y014603D01*
X014927Y014590D01*
X014891Y014573D01*
X014858Y014553D01*
X014826Y014529D01*
X014797Y014503D01*
X014771Y014474D01*
X014747Y014442D01*
X014727Y014409D01*
X014710Y014373D01*
X014697Y014336D01*
X014688Y014298D01*
X014682Y014259D01*
X014680Y014220D01*
X014682Y014181D01*
X014688Y014142D01*
X014697Y014104D01*
X014710Y014067D01*
X014727Y014031D01*
X014747Y013998D01*
X014771Y013966D01*
X014797Y013937D01*
X014826Y013911D01*
X014858Y013887D01*
X014891Y013867D01*
X014927Y013850D01*
X014964Y013837D01*
X015002Y013828D01*
X015041Y013822D01*
X015080Y013820D01*
X014580Y011470D02*
X013580Y011470D01*
X005580Y011470D01*
X005580Y010470D01*
X013580Y010470D01*
X014580Y010470D01*
X014330Y010720D01*
X014580Y010470D02*
X014580Y011470D01*
X014330Y011220D01*
X013830Y011220D02*
X013580Y011470D01*
X013580Y010470D01*
X013830Y010720D01*
X014855Y010470D02*
X014855Y009970D01*
X014955Y009970D01*
X014955Y008220D01*
X014855Y008220D01*
X014855Y007720D01*
X014955Y007720D01*
X014955Y005970D01*
X014855Y005970D01*
X014855Y005470D01*
X014955Y005470D01*
X014955Y004970D01*
X018455Y004970D01*
X018455Y006470D01*
X018405Y006470D01*
X018405Y006970D01*
X018455Y006970D01*
X018455Y007170D01*
X018055Y007170D01*
X017955Y007170D01*
X017955Y005470D01*
X015455Y005470D01*
X015455Y010470D01*
X017955Y010470D01*
X017955Y008770D01*
X018055Y008770D01*
X018455Y008770D01*
X018455Y007170D01*
X017955Y007170D02*
X017655Y007170D01*
X017655Y008770D01*
X017955Y008770D01*
X018455Y008770D02*
X018455Y010970D01*
X014955Y010970D01*
X014955Y010470D01*
X014855Y010470D01*
X014580Y009120D02*
X014580Y006820D01*
X006580Y006820D01*
X006580Y007570D01*
X006619Y007572D01*
X006658Y007578D01*
X006696Y007587D01*
X006733Y007600D01*
X006769Y007617D01*
X006802Y007637D01*
X006834Y007661D01*
X006863Y007687D01*
X006889Y007716D01*
X006913Y007748D01*
X006933Y007781D01*
X006950Y007817D01*
X006963Y007854D01*
X006972Y007892D01*
X006978Y007931D01*
X006980Y007970D01*
X006978Y008009D01*
X006972Y008048D01*
X006963Y008086D01*
X006950Y008123D01*
X006933Y008159D01*
X006913Y008192D01*
X006889Y008224D01*
X006863Y008253D01*
X006834Y008279D01*
X006802Y008303D01*
X006769Y008323D01*
X006733Y008340D01*
X006696Y008353D01*
X006658Y008362D01*
X006619Y008368D01*
X006580Y008370D01*
X006580Y009120D01*
X014580Y009120D01*
X016705Y011960D02*
X016705Y012150D01*
X016945Y012200D01*
X016959Y012178D02*
X017284Y012178D01*
X017255Y012120D02*
X017255Y011920D01*
X017405Y011770D01*
X017705Y011770D01*
X017805Y011920D01*
X018055Y011770D01*
X018055Y011720D01*
X018155Y011570D01*
X018055Y011470D01*
X017905Y011570D01*
X017655Y011470D01*
X017605Y011270D01*
X017455Y011270D01*
X017455Y011470D01*
X017205Y011570D01*
X017005Y011420D01*
X016905Y011570D01*
X017055Y011720D01*
X016955Y011920D01*
X016755Y011970D01*
X016755Y012120D01*
X016955Y012170D01*
X017055Y012370D01*
X016905Y012570D01*
X017005Y012670D01*
X017205Y012570D01*
X017455Y012670D01*
X017455Y012870D01*
X017605Y012870D01*
X017655Y012620D01*
X017905Y012570D01*
X018055Y012670D01*
X018155Y012570D01*
X018055Y012420D01*
X018105Y012320D01*
X017805Y012220D01*
X017605Y012370D01*
X017355Y012320D01*
X017255Y012120D01*
X016755Y012120D01*
X016755Y012061D02*
X017255Y012061D01*
X017255Y012003D02*
X016755Y012003D01*
X016705Y011960D02*
X016945Y011910D01*
X016972Y011886D02*
X017289Y011886D01*
X017255Y011944D02*
X016859Y011944D01*
X017001Y011827D02*
X017348Y011827D01*
X017701Y011442D02*
X017748Y011457D01*
X017794Y011475D01*
X017838Y011497D01*
X017880Y011522D01*
X017885Y011520D02*
X018065Y011400D01*
X018205Y011540D01*
X018085Y011720D01*
X018125Y011790D01*
X017785Y011940D01*
X017782Y011886D02*
X017862Y011886D01*
X017960Y011827D02*
X017743Y011827D01*
X017019Y011732D02*
X016996Y011774D01*
X016977Y011817D01*
X016960Y011862D01*
X016948Y011908D01*
X017031Y011769D02*
X018055Y011769D01*
X018062Y011710D02*
X017045Y011710D01*
X017015Y011730D02*
X016885Y011540D01*
X017025Y011400D01*
X017215Y011530D01*
X017158Y011535D02*
X016929Y011535D01*
X016928Y011593D02*
X018140Y011593D01*
X018120Y011535D02*
X017958Y011535D01*
X018046Y011476D02*
X018061Y011476D01*
X018101Y011652D02*
X016987Y011652D01*
X016968Y011476D02*
X017080Y011476D01*
X017294Y011535D02*
X017816Y011535D01*
X017670Y011476D02*
X017440Y011476D01*
X017405Y011450D02*
X017445Y011220D01*
X017645Y011220D01*
X017685Y011440D01*
X017642Y011418D02*
X017455Y011418D01*
X017455Y011359D02*
X017627Y011359D01*
X017613Y011301D02*
X017455Y011301D01*
X017883Y012589D02*
X017846Y012611D01*
X017807Y012630D01*
X017767Y012646D01*
X017726Y012659D01*
X017684Y012669D01*
X017685Y012670D02*
X017645Y012890D01*
X017445Y012890D01*
X017405Y012670D01*
X017395Y012646D02*
X017650Y012646D01*
X017638Y012705D02*
X017455Y012705D01*
X017455Y012763D02*
X017626Y012763D01*
X017615Y012822D02*
X017455Y012822D01*
X017249Y012588D02*
X017817Y012588D01*
X017885Y012590D02*
X018065Y012720D01*
X018205Y012580D01*
X018085Y012400D01*
X018125Y012320D01*
X017785Y012180D01*
X017783Y012237D02*
X017855Y012237D01*
X017705Y012295D02*
X018030Y012295D01*
X018088Y012354D02*
X017627Y012354D01*
X017523Y012354D02*
X017047Y012354D01*
X017015Y012380D02*
X016885Y012580D01*
X017025Y012720D01*
X017215Y012580D01*
X017170Y012588D02*
X016923Y012588D01*
X016936Y012529D02*
X018128Y012529D01*
X018137Y012588D02*
X017931Y012588D01*
X018019Y012646D02*
X018079Y012646D01*
X018089Y012471D02*
X016980Y012471D01*
X017023Y012412D02*
X018059Y012412D01*
X017405Y012672D02*
X017365Y012660D01*
X017326Y012645D01*
X017288Y012627D01*
X017252Y012607D01*
X017217Y012585D01*
X017053Y012646D02*
X016981Y012646D01*
X017018Y012295D02*
X017343Y012295D01*
X017313Y012237D02*
X016988Y012237D01*
X017785Y012180D02*
X017769Y012208D01*
X017750Y012235D01*
X017728Y012258D01*
X017703Y012279D01*
X017675Y012297D01*
X017646Y012312D01*
X017615Y012322D01*
X017584Y012330D01*
X017551Y012333D01*
X017519Y012332D01*
X017486Y012328D01*
X017455Y012319D01*
X017425Y012307D01*
X017396Y012292D01*
X017369Y012273D01*
X017345Y012251D01*
X017324Y012227D01*
X017305Y012200D01*
X017290Y012171D01*
X017279Y012140D01*
X017271Y012109D01*
X017267Y012076D01*
X017267Y012044D01*
X017271Y012011D01*
X017279Y011980D01*
X017290Y011949D01*
X017305Y011920D01*
X017324Y011893D01*
X017345Y011869D01*
X017369Y011847D01*
X017396Y011828D01*
X017425Y011813D01*
X017455Y011801D01*
X017486Y011792D01*
X017519Y011788D01*
X017551Y011787D01*
X017584Y011790D01*
X017615Y011798D01*
X017646Y011808D01*
X017675Y011823D01*
X017703Y011841D01*
X017728Y011862D01*
X017750Y011885D01*
X017769Y011912D01*
X017785Y011940D01*
X017403Y011448D02*
X017363Y011459D01*
X017324Y011473D01*
X017287Y011489D01*
X017250Y011508D01*
X017215Y011529D01*
X016944Y012200D02*
X016956Y012246D01*
X016972Y012292D01*
X016992Y012336D01*
X017015Y012379D01*
X015080Y016620D02*
X015033Y016622D01*
X014985Y016628D01*
X014939Y016637D01*
X014893Y016650D01*
X014849Y016666D01*
X014805Y016687D01*
X014764Y016710D01*
X014725Y016736D01*
X014688Y016766D01*
X014653Y016799D01*
X014621Y016834D01*
X014592Y016871D01*
X015080Y017820D02*
X015125Y017818D01*
X015171Y017813D01*
X015215Y017805D01*
X015259Y017793D01*
X015302Y017777D01*
X015344Y017759D01*
X015384Y017737D01*
X015422Y017713D01*
X015458Y017686D01*
X015493Y017656D01*
X015524Y017623D01*
X015554Y017588D01*
X015080Y017820D02*
X015035Y017818D01*
X014989Y017813D01*
X014945Y017805D01*
X014901Y017793D01*
X014858Y017777D01*
X014816Y017759D01*
X014776Y017737D01*
X014738Y017713D01*
X014702Y017686D01*
X014667Y017656D01*
X014636Y017623D01*
X014606Y017588D01*
X015080Y016620D02*
X015126Y016622D01*
X015172Y016627D01*
X015218Y016636D01*
X015263Y016648D01*
X015306Y016664D01*
X015348Y016683D01*
X015389Y016706D01*
X015428Y016731D01*
X015464Y016759D01*
X015499Y016790D01*
X015531Y016824D01*
X015560Y016860D01*
X013580Y016970D02*
X012580Y016970D01*
X012580Y017970D01*
X004580Y017970D01*
X004580Y016970D01*
X012580Y016970D01*
X012830Y017220D01*
X012830Y017720D02*
X012580Y017970D01*
X013580Y017970D01*
X013330Y017720D01*
X013580Y017970D02*
X013580Y016970D01*
X013330Y017220D01*
X010580Y015370D02*
X010580Y014620D01*
X010541Y014618D01*
X010502Y014612D01*
X010464Y014603D01*
X010427Y014590D01*
X010391Y014573D01*
X010358Y014553D01*
X010326Y014529D01*
X010297Y014503D01*
X010271Y014474D01*
X010247Y014442D01*
X010227Y014409D01*
X010210Y014373D01*
X010197Y014336D01*
X010188Y014298D01*
X010182Y014259D01*
X010180Y014220D01*
X010182Y014181D01*
X010188Y014142D01*
X010197Y014104D01*
X010210Y014067D01*
X010227Y014031D01*
X010247Y013998D01*
X010271Y013966D01*
X010297Y013937D01*
X010326Y013911D01*
X010358Y013887D01*
X010391Y013867D01*
X010427Y013850D01*
X010464Y013837D01*
X010502Y013828D01*
X010541Y013822D01*
X010580Y013820D01*
X010580Y013070D01*
X006580Y013070D01*
X006580Y015370D01*
X010580Y015370D01*
X010530Y012870D02*
X011130Y012870D01*
X011147Y012868D01*
X011164Y012864D01*
X011180Y012857D01*
X011194Y012847D01*
X011207Y012834D01*
X011217Y012820D01*
X011224Y012804D01*
X011228Y012787D01*
X011230Y012770D01*
X011230Y011670D01*
X011228Y011653D01*
X011224Y011636D01*
X011217Y011620D01*
X011207Y011606D01*
X011194Y011593D01*
X011180Y011583D01*
X011164Y011576D01*
X011147Y011572D01*
X011130Y011570D01*
X010530Y011570D01*
X010513Y011572D01*
X010496Y011576D01*
X010480Y011583D01*
X010466Y011593D01*
X010453Y011606D01*
X010443Y011620D01*
X010436Y011636D01*
X010432Y011653D01*
X010430Y011670D01*
X010430Y012770D01*
X010432Y012787D01*
X010436Y012804D01*
X010443Y012820D01*
X010453Y012834D01*
X010466Y012847D01*
X010480Y012857D01*
X010496Y012864D01*
X010513Y012868D01*
X010530Y012870D01*
X006430Y009320D02*
X006430Y006620D01*
X006428Y006603D01*
X006424Y006586D01*
X006417Y006570D01*
X006407Y006556D01*
X006394Y006543D01*
X006380Y006533D01*
X006364Y006526D01*
X006347Y006522D01*
X006330Y006520D01*
X005330Y006520D01*
X005313Y006522D01*
X005296Y006526D01*
X005280Y006533D01*
X005266Y006543D01*
X005253Y006556D01*
X005243Y006570D01*
X005236Y006586D01*
X005232Y006603D01*
X005230Y006620D01*
X005230Y009320D01*
X005232Y009337D01*
X005236Y009354D01*
X005243Y009370D01*
X005253Y009384D01*
X005266Y009397D01*
X005280Y009407D01*
X005296Y009414D01*
X005313Y009418D01*
X005330Y009420D01*
X006330Y009420D01*
X006347Y009418D01*
X006364Y009414D01*
X006380Y009407D01*
X006394Y009397D01*
X006407Y009384D01*
X006417Y009370D01*
X006424Y009354D01*
X006428Y009337D01*
X006430Y009320D01*
X005830Y008570D02*
X005830Y008090D01*
X005830Y007840D02*
X005830Y007370D01*
X005055Y007720D02*
X004955Y007720D01*
X004955Y005970D01*
X005055Y005970D01*
X005055Y005470D01*
X004955Y005470D01*
X004955Y004970D01*
X001455Y004970D01*
X001455Y007170D01*
X001855Y007170D01*
X001955Y007170D01*
X001955Y005470D01*
X004455Y005470D01*
X004455Y010470D01*
X001955Y010470D01*
X001955Y008770D01*
X001855Y008770D01*
X001455Y008770D01*
X001455Y008970D01*
X001505Y008970D01*
X001505Y009470D01*
X001455Y009470D01*
X001455Y010970D01*
X004955Y010970D01*
X004955Y010470D01*
X005055Y010470D01*
X005055Y009970D01*
X004955Y009970D01*
X004955Y008220D01*
X005055Y008220D01*
X005055Y007720D01*
X002255Y007170D02*
X002255Y008770D01*
X001955Y008770D01*
X001455Y008770D02*
X001455Y007170D01*
X001955Y007170D02*
X002255Y007170D01*
X002080Y013070D02*
X002080Y015370D01*
X006080Y015370D01*
X006080Y014620D01*
X006041Y014618D01*
X006002Y014612D01*
X005964Y014603D01*
X005927Y014590D01*
X005891Y014573D01*
X005858Y014553D01*
X005826Y014529D01*
X005797Y014503D01*
X005771Y014474D01*
X005747Y014442D01*
X005727Y014409D01*
X005710Y014373D01*
X005697Y014336D01*
X005688Y014298D01*
X005682Y014259D01*
X005680Y014220D01*
X005682Y014181D01*
X005688Y014142D01*
X005697Y014104D01*
X005710Y014067D01*
X005727Y014031D01*
X005747Y013998D01*
X005771Y013966D01*
X005797Y013937D01*
X005826Y013911D01*
X005858Y013887D01*
X005891Y013867D01*
X005927Y013850D01*
X005964Y013837D01*
X006002Y013828D01*
X006041Y013822D01*
X006080Y013820D01*
X006080Y013070D01*
X002080Y013070D01*
X002230Y020495D02*
X004930Y020495D01*
X004947Y020497D01*
X004964Y020501D01*
X004980Y020508D01*
X004994Y020518D01*
X005007Y020531D01*
X005017Y020545D01*
X005024Y020561D01*
X005028Y020578D01*
X005030Y020595D01*
X005030Y021595D01*
X005028Y021612D01*
X005024Y021629D01*
X005017Y021645D01*
X005007Y021659D01*
X004994Y021672D01*
X004980Y021682D01*
X004964Y021689D01*
X004947Y021693D01*
X004930Y021695D01*
X002230Y021695D01*
X002213Y021693D01*
X002196Y021689D01*
X002180Y021682D01*
X002166Y021672D01*
X002153Y021659D01*
X002143Y021645D01*
X002136Y021629D01*
X002132Y021612D01*
X002130Y021595D01*
X002130Y020595D01*
X002132Y020578D01*
X002136Y020561D01*
X002143Y020545D01*
X002153Y020531D01*
X002166Y020518D01*
X002180Y020508D01*
X002196Y020501D01*
X002213Y020497D01*
X002230Y020495D01*
X002980Y021095D02*
X003450Y021095D01*
X003700Y021095D02*
X004180Y021095D01*
X005580Y021445D02*
X005580Y023745D01*
X009580Y023745D01*
X009580Y022995D01*
X009541Y022993D01*
X009502Y022987D01*
X009464Y022978D01*
X009427Y022965D01*
X009391Y022948D01*
X009358Y022928D01*
X009326Y022904D01*
X009297Y022878D01*
X009271Y022849D01*
X009247Y022817D01*
X009227Y022784D01*
X009210Y022748D01*
X009197Y022711D01*
X009188Y022673D01*
X009182Y022634D01*
X009180Y022595D01*
X009182Y022556D01*
X009188Y022517D01*
X009197Y022479D01*
X009210Y022442D01*
X009227Y022406D01*
X009247Y022373D01*
X009271Y022341D01*
X009297Y022312D01*
X009326Y022286D01*
X009358Y022262D01*
X009391Y022242D01*
X009427Y022225D01*
X009464Y022212D01*
X009502Y022203D01*
X009541Y022197D01*
X009580Y022195D01*
X009580Y021445D01*
X005580Y021445D01*
X002580Y023595D02*
X002582Y023658D01*
X002588Y023720D01*
X002598Y023782D01*
X002611Y023844D01*
X002629Y023904D01*
X002650Y023963D01*
X002675Y024021D01*
X002704Y024077D01*
X002736Y024131D01*
X002771Y024183D01*
X002809Y024232D01*
X002851Y024280D01*
X002895Y024324D01*
X002943Y024366D01*
X002992Y024404D01*
X003044Y024439D01*
X003098Y024471D01*
X003154Y024500D01*
X003212Y024525D01*
X003271Y024546D01*
X003331Y024564D01*
X003393Y024577D01*
X003455Y024587D01*
X003517Y024593D01*
X003580Y024595D01*
X003643Y024593D01*
X003705Y024587D01*
X003767Y024577D01*
X003829Y024564D01*
X003889Y024546D01*
X003948Y024525D01*
X004006Y024500D01*
X004062Y024471D01*
X004116Y024439D01*
X004168Y024404D01*
X004217Y024366D01*
X004265Y024324D01*
X004309Y024280D01*
X004351Y024232D01*
X004389Y024183D01*
X004424Y024131D01*
X004456Y024077D01*
X004485Y024021D01*
X004510Y023963D01*
X004531Y023904D01*
X004549Y023844D01*
X004562Y023782D01*
X004572Y023720D01*
X004578Y023658D01*
X004580Y023595D01*
X004578Y023532D01*
X004572Y023470D01*
X004562Y023408D01*
X004549Y023346D01*
X004531Y023286D01*
X004510Y023227D01*
X004485Y023169D01*
X004456Y023113D01*
X004424Y023059D01*
X004389Y023007D01*
X004351Y022958D01*
X004309Y022910D01*
X004265Y022866D01*
X004217Y022824D01*
X004168Y022786D01*
X004116Y022751D01*
X004062Y022719D01*
X004006Y022690D01*
X003948Y022665D01*
X003889Y022644D01*
X003829Y022626D01*
X003767Y022613D01*
X003705Y022603D01*
X003643Y022597D01*
X003580Y022595D01*
X003517Y022597D01*
X003455Y022603D01*
X003393Y022613D01*
X003331Y022626D01*
X003271Y022644D01*
X003212Y022665D01*
X003154Y022690D01*
X003098Y022719D01*
X003044Y022751D01*
X002992Y022786D01*
X002943Y022824D01*
X002895Y022866D01*
X002851Y022910D01*
X002809Y022958D01*
X002771Y023007D01*
X002736Y023059D01*
X002704Y023113D01*
X002675Y023169D01*
X002650Y023227D01*
X002629Y023286D01*
X002611Y023346D01*
X002598Y023408D01*
X002588Y023470D01*
X002582Y023532D01*
X002580Y023595D01*
X002880Y023295D02*
X002880Y023095D01*
X002980Y023195D02*
X002780Y023195D01*
X003230Y027545D02*
X001530Y027545D01*
X001530Y028645D01*
X001530Y031045D01*
X001530Y032145D01*
X005080Y032145D01*
X005830Y032145D02*
X007130Y032145D01*
X007130Y027545D01*
X004080Y027545D01*
X001530Y028645D02*
X000330Y028645D01*
X000330Y031045D01*
X000130Y030845D01*
X000130Y028845D01*
X000330Y028645D01*
X000330Y031045D02*
X001530Y031045D01*
X007380Y031345D02*
X007380Y032345D01*
X007382Y032362D01*
X007386Y032379D01*
X007393Y032395D01*
X007403Y032409D01*
X007416Y032422D01*
X007430Y032432D01*
X007446Y032439D01*
X007463Y032443D01*
X007480Y032445D01*
X010180Y032445D01*
X010197Y032443D01*
X010214Y032439D01*
X010230Y032432D01*
X010244Y032422D01*
X010257Y032409D01*
X010267Y032395D01*
X010274Y032379D01*
X010278Y032362D01*
X010280Y032345D01*
X010280Y031345D01*
X010278Y031328D01*
X010274Y031311D01*
X010267Y031295D01*
X010257Y031281D01*
X010244Y031268D01*
X010230Y031258D01*
X010214Y031251D01*
X010197Y031247D01*
X010180Y031245D01*
X007480Y031245D01*
X007463Y031247D01*
X007446Y031251D01*
X007430Y031258D01*
X007416Y031268D01*
X007403Y031281D01*
X007393Y031295D01*
X007386Y031311D01*
X007382Y031328D01*
X007380Y031345D01*
X008230Y031845D02*
X008710Y031845D01*
X008960Y031845D02*
X009430Y031845D01*
X010630Y030995D02*
X010630Y030845D01*
X010680Y030795D01*
X010680Y028895D01*
X010630Y028845D01*
X010630Y028695D01*
X010632Y028678D01*
X010636Y028661D01*
X010643Y028645D01*
X010653Y028631D01*
X010666Y028618D01*
X010680Y028608D01*
X010696Y028601D01*
X010713Y028597D01*
X010730Y028595D01*
X011430Y028595D01*
X011447Y028597D01*
X011464Y028601D01*
X011480Y028608D01*
X011494Y028618D01*
X011507Y028631D01*
X011517Y028645D01*
X011524Y028661D01*
X011528Y028678D01*
X011530Y028695D01*
X011530Y028845D01*
X011480Y028895D01*
X011480Y030795D01*
X011530Y030845D01*
X011530Y030995D01*
X011528Y031012D01*
X011524Y031029D01*
X011517Y031045D01*
X011507Y031059D01*
X011494Y031072D01*
X011480Y031082D01*
X011464Y031089D01*
X011447Y031093D01*
X011430Y031095D01*
X010730Y031095D01*
X010713Y031093D01*
X010696Y031089D01*
X010680Y031082D01*
X010666Y031072D01*
X010653Y031059D01*
X010643Y031045D01*
X010636Y031029D01*
X010632Y031012D01*
X010630Y030995D01*
X011880Y030995D02*
X011880Y030845D01*
X011930Y030795D01*
X011930Y028895D01*
X011880Y028845D01*
X011880Y028695D01*
X011882Y028678D01*
X011886Y028661D01*
X011893Y028645D01*
X011903Y028631D01*
X011916Y028618D01*
X011930Y028608D01*
X011946Y028601D01*
X011963Y028597D01*
X011980Y028595D01*
X012680Y028595D01*
X012697Y028597D01*
X012714Y028601D01*
X012730Y028608D01*
X012744Y028618D01*
X012757Y028631D01*
X012767Y028645D01*
X012774Y028661D01*
X012778Y028678D01*
X012780Y028695D01*
X012780Y028845D01*
X012730Y028895D01*
X012730Y030795D01*
X012780Y030845D01*
X012780Y030995D01*
X012778Y031012D01*
X012774Y031029D01*
X012767Y031045D01*
X012757Y031059D01*
X012744Y031072D01*
X012730Y031082D01*
X012714Y031089D01*
X012697Y031093D01*
X012680Y031095D01*
X011980Y031095D01*
X011963Y031093D01*
X011946Y031089D01*
X011930Y031082D01*
X011916Y031072D01*
X011903Y031059D01*
X011893Y031045D01*
X011886Y031029D01*
X011882Y031012D01*
X011880Y030995D01*
X013580Y030945D02*
X013580Y032145D01*
X013582Y032168D01*
X013587Y032191D01*
X013596Y032213D01*
X013609Y032233D01*
X013624Y032251D01*
X013642Y032266D01*
X013662Y032279D01*
X013684Y032288D01*
X013707Y032293D01*
X013730Y032295D01*
X017430Y032295D01*
X017453Y032293D01*
X017476Y032288D01*
X017498Y032279D01*
X017518Y032266D01*
X017536Y032251D01*
X017551Y032233D01*
X017564Y032213D01*
X017573Y032191D01*
X017578Y032168D01*
X017580Y032145D01*
X017580Y031895D01*
X017580Y030795D02*
X017580Y029895D01*
X017580Y028795D02*
X017580Y028545D01*
X017578Y028522D01*
X017573Y028499D01*
X017564Y028477D01*
X017551Y028457D01*
X017536Y028439D01*
X017518Y028424D01*
X017498Y028411D01*
X017476Y028402D01*
X017453Y028397D01*
X017430Y028395D01*
X013730Y028395D01*
X013707Y028397D01*
X013684Y028402D01*
X013662Y028411D01*
X013642Y028424D01*
X013624Y028439D01*
X013609Y028457D01*
X013596Y028477D01*
X013587Y028499D01*
X013582Y028522D01*
X013580Y028545D01*
X013580Y029745D01*
X014430Y030345D02*
X014630Y030345D01*
X014930Y030195D02*
X014930Y030495D01*
X015430Y030495D01*
X015630Y030745D01*
X015730Y030745D01*
X015730Y030495D01*
X016230Y030495D01*
X016230Y030195D01*
X015730Y030195D01*
X015730Y029945D01*
X015630Y029945D01*
X015430Y030195D01*
X014930Y030195D01*
X014880Y029645D02*
X014780Y029545D01*
X015580Y029395D02*
X015580Y029195D01*
X016180Y029745D02*
X016380Y029545D01*
X014430Y030345D02*
X014432Y030412D01*
X014438Y030480D01*
X014448Y030547D01*
X014462Y030613D01*
X014479Y030678D01*
X014501Y030742D01*
X014526Y030805D01*
X014555Y030866D01*
X014587Y030925D01*
X014623Y030982D01*
X014662Y031037D01*
X014704Y031090D01*
X014749Y031140D01*
X014797Y031187D01*
X014848Y031232D01*
X014901Y031273D01*
X014957Y031312D01*
X015015Y031347D01*
X015075Y031378D01*
X015136Y031406D01*
X015199Y031430D01*
X015263Y031451D01*
X015329Y031467D01*
X015395Y031480D01*
X015462Y031489D01*
X015529Y031494D01*
X015597Y031495D01*
X015664Y031492D01*
X015731Y031485D01*
X015798Y031474D01*
X015864Y031459D01*
X015929Y031441D01*
X015993Y031418D01*
X016055Y031392D01*
X016116Y031363D01*
X016174Y031329D01*
X016231Y031293D01*
X016286Y031253D01*
X016338Y031210D01*
X016387Y031164D01*
X016434Y031115D01*
X016478Y031064D01*
X016518Y031010D01*
X016556Y030954D01*
X016590Y030895D01*
X016620Y030835D01*
X016647Y030773D01*
X016671Y030710D01*
X016690Y030645D01*
X016706Y030580D01*
X016718Y030513D01*
X016726Y030446D01*
X016730Y030379D01*
X016730Y030311D01*
X016726Y030244D01*
X016718Y030177D01*
X016706Y030110D01*
X016690Y030045D01*
X016671Y029980D01*
X016647Y029917D01*
X016620Y029855D01*
X016590Y029795D01*
X016556Y029736D01*
X016518Y029680D01*
X016478Y029626D01*
X016434Y029575D01*
X016387Y029526D01*
X016338Y029480D01*
X016286Y029437D01*
X016231Y029397D01*
X016174Y029361D01*
X016116Y029327D01*
X016055Y029298D01*
X015993Y029272D01*
X015929Y029249D01*
X015864Y029231D01*
X015798Y029216D01*
X015731Y029205D01*
X015664Y029198D01*
X015597Y029195D01*
X015529Y029196D01*
X015462Y029201D01*
X015395Y029210D01*
X015329Y029223D01*
X015263Y029239D01*
X015199Y029260D01*
X015136Y029284D01*
X015075Y029312D01*
X015015Y029343D01*
X014957Y029378D01*
X014901Y029417D01*
X014848Y029458D01*
X014797Y029503D01*
X014749Y029550D01*
X014704Y029600D01*
X014662Y029653D01*
X014623Y029708D01*
X014587Y029765D01*
X014555Y029824D01*
X014526Y029885D01*
X014501Y029948D01*
X014479Y030012D01*
X014462Y030077D01*
X014448Y030143D01*
X014438Y030210D01*
X014432Y030278D01*
X014430Y030345D01*
X014880Y031045D02*
X014780Y031145D01*
X015580Y031295D02*
X015580Y031495D01*
X016180Y030945D02*
X016380Y031145D01*
X014780Y030345D02*
X014782Y030401D01*
X014788Y030458D01*
X014798Y030513D01*
X014812Y030568D01*
X014829Y030622D01*
X014851Y030674D01*
X014876Y030724D01*
X014904Y030773D01*
X014936Y030820D01*
X014971Y030864D01*
X015009Y030906D01*
X015050Y030945D01*
X015094Y030980D01*
X015140Y031013D01*
X015188Y031042D01*
X015238Y031068D01*
X015290Y031091D01*
X015344Y031109D01*
X015398Y031124D01*
X015453Y031135D01*
X015509Y031142D01*
X015566Y031145D01*
X015622Y031144D01*
X015679Y031139D01*
X015734Y031130D01*
X015789Y031117D01*
X015843Y031100D01*
X015896Y031080D01*
X015947Y031056D01*
X015996Y031028D01*
X016043Y030997D01*
X016088Y030963D01*
X016131Y030925D01*
X016170Y030885D01*
X016207Y030842D01*
X016240Y030797D01*
X016270Y030749D01*
X016297Y030699D01*
X016320Y030648D01*
X016340Y030595D01*
X016356Y030541D01*
X016368Y030485D01*
X016376Y030430D01*
X016380Y030373D01*
X016380Y030317D01*
X016376Y030260D01*
X016368Y030205D01*
X016356Y030149D01*
X016340Y030095D01*
X016320Y030042D01*
X016297Y029991D01*
X016270Y029941D01*
X016240Y029893D01*
X016207Y029848D01*
X016170Y029805D01*
X016131Y029765D01*
X016088Y029727D01*
X016043Y029693D01*
X015996Y029662D01*
X015947Y029634D01*
X015896Y029610D01*
X015843Y029590D01*
X015789Y029573D01*
X015734Y029560D01*
X015679Y029551D01*
X015622Y029546D01*
X015566Y029545D01*
X015509Y029548D01*
X015453Y029555D01*
X015398Y029566D01*
X015344Y029581D01*
X015290Y029599D01*
X015238Y029622D01*
X015188Y029648D01*
X015140Y029677D01*
X015094Y029710D01*
X015050Y029745D01*
X015009Y029784D01*
X014971Y029826D01*
X014936Y029870D01*
X014904Y029917D01*
X014876Y029966D01*
X014851Y030016D01*
X014829Y030068D01*
X014812Y030122D01*
X014798Y030177D01*
X014788Y030232D01*
X014782Y030289D01*
X014780Y030345D01*
X016530Y028245D02*
X017630Y028245D01*
X017647Y028243D01*
X017664Y028239D01*
X017680Y028232D01*
X017694Y028222D01*
X017707Y028209D01*
X017717Y028195D01*
X017724Y028179D01*
X017728Y028162D01*
X017730Y028145D01*
X017730Y027545D01*
X017728Y027528D01*
X017724Y027511D01*
X017717Y027495D01*
X017707Y027481D01*
X017694Y027468D01*
X017680Y027458D01*
X017664Y027451D01*
X017647Y027447D01*
X017630Y027445D01*
X016530Y027445D01*
X016513Y027447D01*
X016496Y027451D01*
X016480Y027458D01*
X016466Y027468D01*
X016453Y027481D01*
X016443Y027495D01*
X016436Y027511D01*
X016432Y027528D01*
X016430Y027545D01*
X016430Y028145D01*
X016432Y028162D01*
X016436Y028179D01*
X016443Y028195D01*
X016453Y028209D01*
X016466Y028222D01*
X016480Y028232D01*
X016496Y028239D01*
X016513Y028243D01*
X016530Y028245D01*
X016230Y026220D02*
X016930Y026220D01*
X016947Y026218D01*
X016964Y026214D01*
X016980Y026207D01*
X016994Y026197D01*
X017007Y026184D01*
X017017Y026170D01*
X017024Y026154D01*
X017028Y026137D01*
X017030Y026120D01*
X017030Y025970D01*
X016980Y025920D01*
X016980Y024020D01*
X017030Y023970D01*
X017030Y023820D01*
X017028Y023803D01*
X017024Y023786D01*
X017017Y023770D01*
X017007Y023756D01*
X016994Y023743D01*
X016980Y023733D01*
X016964Y023726D01*
X016947Y023722D01*
X016930Y023720D01*
X016230Y023720D01*
X016213Y023722D01*
X016196Y023726D01*
X016180Y023733D01*
X016166Y023743D01*
X016153Y023756D01*
X016143Y023770D01*
X016136Y023786D01*
X016132Y023803D01*
X016130Y023820D01*
X016130Y023970D01*
X016180Y024020D01*
X016180Y025920D01*
X016130Y025970D01*
X016130Y026120D01*
X016132Y026137D01*
X016136Y026154D01*
X016143Y026170D01*
X016153Y026184D01*
X016166Y026197D01*
X016180Y026207D01*
X016196Y026214D01*
X016213Y026218D01*
X016230Y026220D01*
X015580Y023595D02*
X011580Y023595D01*
X011580Y022845D01*
X011610Y022843D01*
X011640Y022838D01*
X011669Y022829D01*
X011696Y022816D01*
X011722Y022801D01*
X011746Y022782D01*
X011767Y022761D01*
X011786Y022737D01*
X011801Y022711D01*
X011814Y022684D01*
X011823Y022655D01*
X011828Y022625D01*
X011830Y022595D01*
X011828Y022565D01*
X011823Y022535D01*
X011814Y022506D01*
X011801Y022479D01*
X011786Y022453D01*
X011767Y022429D01*
X011746Y022408D01*
X011722Y022389D01*
X011696Y022374D01*
X011669Y022361D01*
X011640Y022352D01*
X011610Y022347D01*
X011580Y022345D01*
X011580Y021595D01*
X015580Y021595D01*
X015580Y023595D01*
X015580Y021595D02*
X015582Y021658D01*
X015588Y021720D01*
X015598Y021782D01*
X015611Y021844D01*
X015629Y021904D01*
X015650Y021963D01*
X015675Y022021D01*
X015704Y022077D01*
X015736Y022131D01*
X015771Y022183D01*
X015809Y022232D01*
X015851Y022280D01*
X015895Y022324D01*
X015943Y022366D01*
X015992Y022404D01*
X016044Y022439D01*
X016098Y022471D01*
X016154Y022500D01*
X016212Y022525D01*
X016271Y022546D01*
X016331Y022564D01*
X016393Y022577D01*
X016455Y022587D01*
X016517Y022593D01*
X016580Y022595D01*
X016643Y022593D01*
X016705Y022587D01*
X016767Y022577D01*
X016829Y022564D01*
X016889Y022546D01*
X016948Y022525D01*
X017006Y022500D01*
X017062Y022471D01*
X017116Y022439D01*
X017168Y022404D01*
X017217Y022366D01*
X017265Y022324D01*
X017309Y022280D01*
X017351Y022232D01*
X017389Y022183D01*
X017424Y022131D01*
X017456Y022077D01*
X017485Y022021D01*
X017510Y021963D01*
X017531Y021904D01*
X017549Y021844D01*
X017562Y021782D01*
X017572Y021720D01*
X017578Y021658D01*
X017580Y021595D01*
X017578Y021532D01*
X017572Y021470D01*
X017562Y021408D01*
X017549Y021346D01*
X017531Y021286D01*
X017510Y021227D01*
X017485Y021169D01*
X017456Y021113D01*
X017424Y021059D01*
X017389Y021007D01*
X017351Y020958D01*
X017309Y020910D01*
X017265Y020866D01*
X017217Y020824D01*
X017168Y020786D01*
X017116Y020751D01*
X017062Y020719D01*
X017006Y020690D01*
X016948Y020665D01*
X016889Y020644D01*
X016829Y020626D01*
X016767Y020613D01*
X016705Y020603D01*
X016643Y020597D01*
X016580Y020595D01*
X016517Y020597D01*
X016455Y020603D01*
X016393Y020613D01*
X016331Y020626D01*
X016271Y020644D01*
X016212Y020665D01*
X016154Y020690D01*
X016098Y020719D01*
X016044Y020751D01*
X015992Y020786D01*
X015943Y020824D01*
X015895Y020866D01*
X015851Y020910D01*
X015809Y020958D01*
X015771Y021007D01*
X015736Y021059D01*
X015704Y021113D01*
X015675Y021169D01*
X015650Y021227D01*
X015629Y021286D01*
X015611Y021346D01*
X015598Y021408D01*
X015588Y021470D01*
X015582Y021532D01*
X015580Y021595D01*
X015880Y021295D02*
X015880Y021095D01*
X015980Y021195D02*
X015780Y021195D01*
X011180Y021245D02*
X011180Y023945D01*
X011178Y023962D01*
X011174Y023979D01*
X011167Y023995D01*
X011157Y024009D01*
X011144Y024022D01*
X011130Y024032D01*
X011114Y024039D01*
X011097Y024043D01*
X011080Y024045D01*
X010080Y024045D01*
X010063Y024043D01*
X010046Y024039D01*
X010030Y024032D01*
X010016Y024022D01*
X010003Y024009D01*
X009993Y023995D01*
X009986Y023979D01*
X009982Y023962D01*
X009980Y023945D01*
X009980Y021245D01*
X009982Y021228D01*
X009986Y021211D01*
X009993Y021195D01*
X010003Y021181D01*
X010016Y021168D01*
X010030Y021158D01*
X010046Y021151D01*
X010063Y021147D01*
X010080Y021145D01*
X011080Y021145D01*
X011097Y021147D01*
X011114Y021151D01*
X011130Y021158D01*
X011144Y021168D01*
X011157Y021181D01*
X011167Y021195D01*
X011174Y021211D01*
X011178Y021228D01*
X011180Y021245D01*
X010580Y021995D02*
X010580Y022475D01*
X010580Y022725D02*
X010580Y023195D01*
X010180Y027245D02*
X007480Y027245D01*
X007463Y027247D01*
X007446Y027251D01*
X007430Y027258D01*
X007416Y027268D01*
X007403Y027281D01*
X007393Y027295D01*
X007386Y027311D01*
X007382Y027328D01*
X007380Y027345D01*
X007380Y028345D01*
X007382Y028362D01*
X007386Y028379D01*
X007393Y028395D01*
X007403Y028409D01*
X007416Y028422D01*
X007430Y028432D01*
X007446Y028439D01*
X007463Y028443D01*
X007480Y028445D01*
X010180Y028445D01*
X010197Y028443D01*
X010214Y028439D01*
X010230Y028432D01*
X010244Y028422D01*
X010257Y028409D01*
X010267Y028395D01*
X010274Y028379D01*
X010278Y028362D01*
X010280Y028345D01*
X010280Y027345D01*
X010278Y027328D01*
X010274Y027311D01*
X010267Y027295D01*
X010257Y027281D01*
X010244Y027268D01*
X010230Y027258D01*
X010214Y027251D01*
X010197Y027247D01*
X010180Y027245D01*
X009430Y027845D02*
X008950Y027845D01*
X008700Y027845D02*
X008230Y027845D01*
X008830Y028645D02*
X008830Y028945D01*
X008980Y028795D02*
X008680Y028795D01*
X007480Y029845D02*
X007482Y029918D01*
X007488Y029991D01*
X007498Y030063D01*
X007512Y030135D01*
X007529Y030206D01*
X007551Y030276D01*
X007576Y030345D01*
X007605Y030412D01*
X007637Y030477D01*
X007673Y030541D01*
X007713Y030603D01*
X007755Y030662D01*
X007801Y030719D01*
X007850Y030773D01*
X007902Y030825D01*
X007956Y030874D01*
X008013Y030920D01*
X008072Y030962D01*
X008134Y031002D01*
X008198Y031038D01*
X008263Y031070D01*
X008330Y031099D01*
X008399Y031124D01*
X008469Y031146D01*
X008540Y031163D01*
X008612Y031177D01*
X008684Y031187D01*
X008757Y031193D01*
X008830Y031195D01*
X008903Y031193D01*
X008976Y031187D01*
X009048Y031177D01*
X009120Y031163D01*
X009191Y031146D01*
X009261Y031124D01*
X009330Y031099D01*
X009397Y031070D01*
X009462Y031038D01*
X009526Y031002D01*
X009588Y030962D01*
X009647Y030920D01*
X009704Y030874D01*
X009758Y030825D01*
X009810Y030773D01*
X009859Y030719D01*
X009905Y030662D01*
X009947Y030603D01*
X009987Y030541D01*
X010023Y030477D01*
X010055Y030412D01*
X010084Y030345D01*
X010109Y030276D01*
X010131Y030206D01*
X010148Y030135D01*
X010162Y030063D01*
X010172Y029991D01*
X010178Y029918D01*
X010180Y029845D01*
X010178Y029772D01*
X010172Y029699D01*
X010162Y029627D01*
X010148Y029555D01*
X010131Y029484D01*
X010109Y029414D01*
X010084Y029345D01*
X010055Y029278D01*
X010023Y029213D01*
X009987Y029149D01*
X009947Y029087D01*
X009905Y029028D01*
X009859Y028971D01*
X009810Y028917D01*
X009758Y028865D01*
X009704Y028816D01*
X009647Y028770D01*
X009588Y028728D01*
X009526Y028688D01*
X009462Y028652D01*
X009397Y028620D01*
X009330Y028591D01*
X009261Y028566D01*
X009191Y028544D01*
X009120Y028527D01*
X009048Y028513D01*
X008976Y028503D01*
X008903Y028497D01*
X008830Y028495D01*
X008757Y028497D01*
X008684Y028503D01*
X008612Y028513D01*
X008540Y028527D01*
X008469Y028544D01*
X008399Y028566D01*
X008330Y028591D01*
X008263Y028620D01*
X008198Y028652D01*
X008134Y028688D01*
X008072Y028728D01*
X008013Y028770D01*
X007956Y028816D01*
X007902Y028865D01*
X007850Y028917D01*
X007801Y028971D01*
X007755Y029028D01*
X007713Y029087D01*
X007673Y029149D01*
X007637Y029213D01*
X007605Y029278D01*
X007576Y029345D01*
X007551Y029414D01*
X007529Y029484D01*
X007512Y029555D01*
X007498Y029627D01*
X007488Y029699D01*
X007482Y029772D01*
X007480Y029845D01*
X008280Y005845D02*
X008280Y004845D01*
X009880Y004845D01*
X009880Y005845D01*
X008280Y005845D01*
X008480Y005345D02*
X009080Y005345D01*
X009080Y005595D01*
X009080Y005345D02*
X009080Y005095D01*
X009080Y005345D02*
X008680Y005095D01*
X008680Y005595D01*
X009080Y005345D01*
X009330Y005345D01*
X007468Y002382D02*
X007468Y000808D01*
X012192Y000808D01*
X012192Y002382D01*
X007468Y002382D01*
X008885Y002067D02*
X008885Y001123D01*
X010775Y001123D01*
X010775Y002067D01*
X008885Y002067D01*
X012830Y005295D02*
X013030Y005295D01*
X012930Y005195D02*
X012930Y005395D01*
X012330Y004595D02*
X012332Y004658D01*
X012338Y004720D01*
X012348Y004782D01*
X012361Y004844D01*
X012379Y004904D01*
X012400Y004963D01*
X012425Y005021D01*
X012454Y005077D01*
X012486Y005131D01*
X012521Y005183D01*
X012559Y005232D01*
X012601Y005280D01*
X012645Y005324D01*
X012693Y005366D01*
X012742Y005404D01*
X012794Y005439D01*
X012848Y005471D01*
X012904Y005500D01*
X012962Y005525D01*
X013021Y005546D01*
X013081Y005564D01*
X013143Y005577D01*
X013205Y005587D01*
X013267Y005593D01*
X013330Y005595D01*
X013393Y005593D01*
X013455Y005587D01*
X013517Y005577D01*
X013579Y005564D01*
X013639Y005546D01*
X013698Y005525D01*
X013756Y005500D01*
X013812Y005471D01*
X013866Y005439D01*
X013918Y005404D01*
X013967Y005366D01*
X014015Y005324D01*
X014059Y005280D01*
X014101Y005232D01*
X014139Y005183D01*
X014174Y005131D01*
X014206Y005077D01*
X014235Y005021D01*
X014260Y004963D01*
X014281Y004904D01*
X014299Y004844D01*
X014312Y004782D01*
X014322Y004720D01*
X014328Y004658D01*
X014330Y004595D01*
X014328Y004532D01*
X014322Y004470D01*
X014312Y004408D01*
X014299Y004346D01*
X014281Y004286D01*
X014260Y004227D01*
X014235Y004169D01*
X014206Y004113D01*
X014174Y004059D01*
X014139Y004007D01*
X014101Y003958D01*
X014059Y003910D01*
X014015Y003866D01*
X013967Y003824D01*
X013918Y003786D01*
X013866Y003751D01*
X013812Y003719D01*
X013756Y003690D01*
X013698Y003665D01*
X013639Y003644D01*
X013579Y003626D01*
X013517Y003613D01*
X013455Y003603D01*
X013393Y003597D01*
X013330Y003595D01*
X013267Y003597D01*
X013205Y003603D01*
X013143Y003613D01*
X013081Y003626D01*
X013021Y003644D01*
X012962Y003665D01*
X012904Y003690D01*
X012848Y003719D01*
X012794Y003751D01*
X012742Y003786D01*
X012693Y003824D01*
X012645Y003866D01*
X012601Y003910D01*
X012559Y003958D01*
X012521Y004007D01*
X012486Y004059D01*
X012454Y004113D01*
X012425Y004169D01*
X012400Y004227D01*
X012379Y004286D01*
X012361Y004346D01*
X012348Y004408D01*
X012338Y004470D01*
X012332Y004532D01*
X012330Y004595D01*
D16*
X016580Y016800D03*
X016580Y019640D03*
X016580Y023550D03*
X016580Y026390D03*
X012330Y028425D03*
X011080Y028425D03*
X011080Y031265D03*
X012330Y031265D03*
D17*
X008960Y031595D02*
X008960Y031845D01*
X008960Y032095D01*
X008710Y032095D02*
X008710Y031845D01*
X008710Y031595D01*
X008700Y028095D02*
X008700Y027845D01*
X008700Y027595D01*
X008950Y027595D02*
X008950Y027845D01*
X008950Y028095D01*
X010330Y022725D02*
X010580Y022725D01*
X010830Y022725D01*
X010830Y022475D02*
X010580Y022475D01*
X010330Y022475D01*
X003700Y021345D02*
X003700Y021095D01*
X003700Y020845D01*
X003450Y020845D02*
X003450Y021095D01*
X003450Y021345D01*
X005580Y008090D02*
X005830Y008090D01*
X006080Y008090D01*
X006080Y007840D02*
X005830Y007840D01*
X005580Y007840D01*
D18*
X016830Y029170D03*
X016830Y031520D03*
D19*
X016105Y031845D03*
X016105Y028845D03*
D20*
X015631Y027050D02*
X015631Y026140D01*
X001529Y026140D01*
X001529Y027050D01*
X015631Y027050D01*
X015580Y026095D02*
X015580Y019095D01*
X001580Y019095D01*
X001580Y022095D01*
X002080Y022095D01*
X002080Y023095D01*
X001580Y023095D01*
X001580Y026095D01*
X015580Y026095D01*
X015631Y019050D02*
X015631Y018140D01*
X001529Y018140D01*
X001529Y019050D01*
X015631Y019050D01*
X006990Y004788D02*
X006990Y004158D01*
X006990Y004788D02*
X001361Y004788D01*
X001361Y001402D01*
X004490Y001402D01*
X006361Y001402D02*
X006990Y001402D01*
X006990Y002032D01*
D21*
X008944Y001989D02*
X008944Y001201D01*
X009732Y001201D01*
X009732Y001989D01*
X008944Y001989D01*
X015080Y016420D02*
X015134Y016422D01*
X015188Y016427D01*
X015241Y016436D01*
X015294Y016449D01*
X015345Y016465D01*
X015395Y016485D01*
X015444Y016508D01*
X015492Y016534D01*
X015537Y016563D01*
X015580Y016596D01*
X015621Y016631D01*
X015660Y016669D01*
X015696Y016709D01*
X015729Y016752D01*
X015759Y016797D01*
X015786Y016844D01*
X015775Y017617D02*
X015745Y017665D01*
X015712Y017710D01*
X015676Y017753D01*
X015638Y017794D01*
X015596Y017831D01*
X015552Y017866D01*
X015506Y017897D01*
X015457Y017926D01*
X015407Y017950D01*
X015355Y017971D01*
X015301Y017989D01*
X015247Y018002D01*
X015192Y018012D01*
X015136Y018018D01*
X015080Y018020D01*
X015027Y018018D01*
X014973Y018013D01*
X014921Y018004D01*
X014869Y017992D01*
X014818Y017976D01*
X014768Y017957D01*
X014719Y017934D01*
X014672Y017908D01*
X014627Y017880D01*
X014584Y017848D01*
X014544Y017814D01*
X014505Y017776D01*
X014469Y017737D01*
X014465Y016708D02*
X014501Y016668D01*
X014540Y016630D01*
X014581Y016595D01*
X014624Y016563D01*
X014669Y016533D01*
X014716Y016507D01*
X014765Y016485D01*
X014816Y016465D01*
X014867Y016449D01*
X014919Y016436D01*
X014973Y016427D01*
X015026Y016422D01*
X015080Y016420D01*
D22*
X009830Y002995D03*
D23*
X008105Y003245D03*
X011555Y003245D03*
D24*
X010330Y003245D03*
X009330Y003245D03*
D25*
X004555Y005370D02*
X004555Y010570D01*
X001855Y010570D01*
X001855Y008770D01*
X001855Y007170D02*
X001855Y005370D01*
X004555Y005370D01*
X015355Y005370D02*
X018055Y005370D01*
X018055Y007170D01*
X018055Y008770D02*
X018055Y010570D01*
X015355Y010570D01*
X015355Y005370D01*
D26*
X009630Y005345D03*
D27*
X010255Y005345D03*
X007905Y005345D03*
D28*
X015830Y013570D03*
D29*
X015830Y013195D03*
X015830Y015245D03*
M02*
