%
M48
M72
T01C0.0200
T02C0.0236
T03C0.0320
T04C0.0360
T05C0.0380
T06C0.0394
T07C0.0400
T08C0.0440
T09C0.0590
T10C0.1260
%
T01
X15830Y29595
X15830Y30595
X15830Y31595
T02
X12580Y23095
X5580Y30595
X2080Y22595
X4955Y9970
X4955Y7595
T03
X5830Y6970
X7080Y6470
X8080Y6470
X9080Y6470
X10080Y6470
X11080Y6470
X12080Y6470
X13080Y6470
X14080Y6470
X13730Y4595
X12930Y4595
X13080Y9470
X12080Y9470
X11080Y9470
X10080Y9470
X9080Y9470
X8080Y9470
X7080Y9470
X5830Y8970
X6080Y10970
X7080Y10970
X8080Y10970
X9080Y10970
X10080Y10970
X11080Y10970
X12080Y10970
X13080Y10970
X14080Y10970
X14080Y9470
X13580Y12720
X14580Y12720
X15830Y12720
X15830Y15720
X15830Y17095
X14830Y17095
X14580Y15720
X13580Y15720
X12580Y15720
X11580Y15720
X11080Y17470
X10080Y17470
X9080Y17470
X8080Y17470
X7080Y17470
X6080Y17470
X5080Y17470
X4580Y15720
X5580Y15720
X7080Y15720
X8080Y15720
X9080Y15720
X10080Y15720
X10080Y12720
X9080Y12720
X8080Y12720
X7080Y12720
X5580Y12720
X4580Y12720
X3580Y12720
X2580Y12720
X2580Y15720
X3580Y15720
X11330Y21095
X12080Y17470
X13080Y17470
X14330Y21095
X17080Y23195
X17080Y23995
X17080Y25695
X17080Y26495
X18080Y27845
X15080Y27845
X14080Y27845
X14080Y28970
X14080Y29970
X14080Y30970
X14080Y31970
X11080Y31970
X11080Y30970
X11080Y29970
X11080Y28970
X11080Y27845
X9830Y27845
X8830Y29345
X8830Y30345
X7830Y31845
X9830Y31845
X7830Y27845
X11580Y12720
X12580Y12720
T04
X16205Y8970
X16205Y7970
X16205Y6970
X17205Y6970
X17205Y7970
X17205Y8970
X3705Y8970
X3705Y7970
X3705Y6970
X2705Y6970
X2705Y7970
X2705Y8970
T05
X3080Y19595
X4080Y19595
X5080Y19595
X6080Y19595
X7080Y19595
X8080Y19595
X9080Y19595
X10080Y19595
X11080Y19595
X12080Y19595
X13080Y19595
X14080Y19595
X15080Y19595
X15080Y20595
X15080Y21595
X15080Y22595
X15080Y23595
X15080Y24595
X15080Y25595
X14080Y25595
X13080Y25595
X12080Y25595
X11080Y25595
X10080Y25595
X9080Y25595
X8080Y25595
X7080Y25595
X6080Y25595
X5080Y25595
X4080Y25595
X3080Y25595
X2080Y25595
X2080Y19595
T06
X4274Y3095
X5455Y1205
X6675Y3095
X8846Y1595
X9830Y1595
X10814Y1595
X11080Y18595
X10080Y18595
X9080Y18595
X8080Y18595
X7080Y18595
X6080Y18595
X5080Y18595
X4080Y18595
X3080Y18595
X2080Y18595
X2080Y26595
X3080Y26595
X4080Y26595
X5080Y26595
X6080Y26595
X7080Y26595
X8080Y26595
X9080Y26595
X10080Y26595
X11080Y26595
X12080Y26595
X13080Y26595
X14080Y26595
X15080Y26595
X15080Y18595
X14080Y18595
X13080Y18595
X12080Y18595
T07
X10830Y3845
X9830Y3845
X8830Y3845
T08
X7080Y5345
X11080Y5345
T09
X6590Y28125
X4900Y30785
X5450Y31775
X3640Y27915
X2360Y29765
T10
X9830Y21845
X17330Y1845
M30
