G75*
%MOIN*%
%OFA0B0*%
%FSLAX24Y24*%
%IPPOS*%
%LPD*%
%AMOC8*
5,1,8,0,0,1.08239X$1,22.5*
%
%ADD10C,0.0160*%
%ADD11C,0.0000*%
%ADD12C,0.0050*%
%ADD13C,0.0030*%
%ADD14C,0.0040*%
%ADD15C,0.0060*%
%ADD16C,0.0120*%
%ADD17C,0.0080*%
%ADD18C,0.0100*%
%ADD19R,0.4200X0.0300*%
%ADD20R,0.0750X0.0200*%
%ADD21R,0.0300X0.0200*%
%ADD22C,0.0020*%
%ADD23R,0.0200X0.1000*%
%ADD24R,0.0750X0.0300*%
%ADD25R,0.0800X0.0200*%
%ADD26R,0.0200X0.0250*%
D10*
X001330Y000595D02*
X001330Y032466D01*
X018575Y032466D01*
X018575Y000595D01*
X001330Y000595D01*
D11*
X009200Y021845D02*
X009202Y021895D01*
X009208Y021945D01*
X009218Y021994D01*
X009232Y022042D01*
X009249Y022089D01*
X009270Y022134D01*
X009295Y022178D01*
X009323Y022219D01*
X009355Y022258D01*
X009389Y022295D01*
X009426Y022329D01*
X009466Y022359D01*
X009508Y022386D01*
X009552Y022410D01*
X009598Y022431D01*
X009645Y022447D01*
X009693Y022460D01*
X009743Y022469D01*
X009792Y022474D01*
X009843Y022475D01*
X009893Y022472D01*
X009942Y022465D01*
X009991Y022454D01*
X010039Y022439D01*
X010085Y022421D01*
X010130Y022399D01*
X010173Y022373D01*
X010214Y022344D01*
X010253Y022312D01*
X010289Y022277D01*
X010321Y022239D01*
X010351Y022199D01*
X010378Y022156D01*
X010401Y022112D01*
X010420Y022066D01*
X010436Y022018D01*
X010448Y021969D01*
X010456Y021920D01*
X010460Y021870D01*
X010460Y021820D01*
X010456Y021770D01*
X010448Y021721D01*
X010436Y021672D01*
X010420Y021624D01*
X010401Y021578D01*
X010378Y021534D01*
X010351Y021491D01*
X010321Y021451D01*
X010289Y021413D01*
X010253Y021378D01*
X010214Y021346D01*
X010173Y021317D01*
X010130Y021291D01*
X010085Y021269D01*
X010039Y021251D01*
X009991Y021236D01*
X009942Y021225D01*
X009893Y021218D01*
X009843Y021215D01*
X009792Y021216D01*
X009743Y021221D01*
X009693Y021230D01*
X009645Y021243D01*
X009598Y021259D01*
X009552Y021280D01*
X009508Y021304D01*
X009466Y021331D01*
X009426Y021361D01*
X009389Y021395D01*
X009355Y021432D01*
X009323Y021471D01*
X009295Y021512D01*
X009270Y021556D01*
X009249Y021601D01*
X009232Y021648D01*
X009218Y021696D01*
X009208Y021745D01*
X009202Y021795D01*
X009200Y021845D01*
X016700Y001845D02*
X016702Y001895D01*
X016708Y001945D01*
X016718Y001994D01*
X016732Y002042D01*
X016749Y002089D01*
X016770Y002134D01*
X016795Y002178D01*
X016823Y002219D01*
X016855Y002258D01*
X016889Y002295D01*
X016926Y002329D01*
X016966Y002359D01*
X017008Y002386D01*
X017052Y002410D01*
X017098Y002431D01*
X017145Y002447D01*
X017193Y002460D01*
X017243Y002469D01*
X017292Y002474D01*
X017343Y002475D01*
X017393Y002472D01*
X017442Y002465D01*
X017491Y002454D01*
X017539Y002439D01*
X017585Y002421D01*
X017630Y002399D01*
X017673Y002373D01*
X017714Y002344D01*
X017753Y002312D01*
X017789Y002277D01*
X017821Y002239D01*
X017851Y002199D01*
X017878Y002156D01*
X017901Y002112D01*
X017920Y002066D01*
X017936Y002018D01*
X017948Y001969D01*
X017956Y001920D01*
X017960Y001870D01*
X017960Y001820D01*
X017956Y001770D01*
X017948Y001721D01*
X017936Y001672D01*
X017920Y001624D01*
X017901Y001578D01*
X017878Y001534D01*
X017851Y001491D01*
X017821Y001451D01*
X017789Y001413D01*
X017753Y001378D01*
X017714Y001346D01*
X017673Y001317D01*
X017630Y001291D01*
X017585Y001269D01*
X017539Y001251D01*
X017491Y001236D01*
X017442Y001225D01*
X017393Y001218D01*
X017343Y001215D01*
X017292Y001216D01*
X017243Y001221D01*
X017193Y001230D01*
X017145Y001243D01*
X017098Y001259D01*
X017052Y001280D01*
X017008Y001304D01*
X016966Y001331D01*
X016926Y001361D01*
X016889Y001395D01*
X016855Y001432D01*
X016823Y001471D01*
X016795Y001512D01*
X016770Y001556D01*
X016749Y001601D01*
X016732Y001648D01*
X016718Y001696D01*
X016708Y001745D01*
X016702Y001795D01*
X016700Y001845D01*
D12*
X016176Y002087D02*
X016074Y001985D01*
X015870Y001985D01*
X015769Y002087D01*
X015568Y001985D02*
X015364Y002189D01*
X015466Y002189D02*
X015161Y002189D01*
X015161Y001985D02*
X015161Y002596D01*
X015466Y002596D01*
X015568Y002494D01*
X015568Y002290D01*
X015466Y002189D01*
X015769Y002392D02*
X015870Y002290D01*
X016074Y002290D01*
X016176Y002189D01*
X016176Y002087D01*
X016176Y002494D02*
X016074Y002596D01*
X015870Y002596D01*
X015769Y002494D01*
X015769Y002392D01*
X015668Y001606D02*
X015566Y001504D01*
X015566Y001097D01*
X015668Y000995D01*
X015871Y000995D01*
X015973Y001097D01*
X015973Y001504D02*
X015871Y001606D01*
X015668Y001606D01*
X015364Y001606D02*
X015161Y001606D01*
X015263Y001606D02*
X015263Y000995D01*
X015364Y000995D02*
X015161Y000995D01*
X014960Y001097D02*
X014858Y000995D01*
X014655Y000995D01*
X014553Y001097D01*
X014352Y001097D02*
X014251Y000995D01*
X014047Y000995D01*
X013945Y001097D01*
X013945Y001606D01*
X013745Y001606D02*
X013745Y000995D01*
X013338Y000995D02*
X013338Y001606D01*
X013541Y001402D01*
X013745Y001606D01*
X013643Y001985D02*
X013439Y001985D01*
X013338Y002087D01*
X013338Y002494D01*
X013439Y002596D01*
X013643Y002596D01*
X013745Y002494D01*
X013745Y002087D01*
X013643Y001985D01*
X014149Y001985D02*
X014149Y002596D01*
X014352Y002596D02*
X013945Y002596D01*
X014553Y002494D02*
X014553Y002087D01*
X014655Y001985D01*
X014858Y001985D01*
X014960Y002087D01*
X014960Y002494D01*
X014858Y002596D01*
X014655Y002596D01*
X014553Y002494D01*
X014655Y001606D02*
X014553Y001504D01*
X014553Y001402D01*
X014655Y001300D01*
X014858Y001300D01*
X014960Y001199D01*
X014960Y001097D01*
X014960Y001504D02*
X014858Y001606D01*
X014655Y001606D01*
X014352Y001606D02*
X014352Y001097D01*
X013137Y001199D02*
X012934Y000995D01*
X012832Y000995D01*
X012730Y001097D01*
X012730Y001199D01*
X012934Y001402D01*
X012934Y001504D01*
X012832Y001606D01*
X012730Y001504D01*
X012730Y001402D01*
X013137Y000995D01*
X013137Y001985D02*
X013137Y002596D01*
X012934Y002392D01*
X012730Y002596D01*
X012730Y001985D01*
X011830Y003295D02*
X011780Y004445D01*
X011680Y004545D01*
X007980Y004545D01*
X007880Y004445D01*
X007830Y003295D01*
X006530Y005120D02*
X006230Y005120D01*
X006530Y005420D01*
X006530Y005495D01*
X006455Y005570D01*
X006305Y005570D01*
X006230Y005495D01*
X006070Y005495D02*
X005995Y005570D01*
X005770Y005570D01*
X005770Y005120D01*
X005995Y005120D01*
X006070Y005195D01*
X006070Y005495D01*
X007994Y007745D02*
X007919Y007820D01*
X007994Y007745D02*
X008145Y007745D01*
X008220Y007820D01*
X008220Y007895D01*
X008145Y007970D01*
X007994Y007970D01*
X007919Y008045D01*
X007919Y008120D01*
X007994Y008195D01*
X008145Y008195D01*
X008220Y008120D01*
X008380Y008195D02*
X008680Y007745D01*
X008680Y008195D01*
X008840Y008195D02*
X009140Y008195D01*
X009140Y008120D01*
X008840Y007820D01*
X008840Y007745D01*
X009301Y007820D02*
X009376Y007745D01*
X009526Y007745D01*
X009601Y007820D01*
X009601Y007970D01*
X009526Y008045D01*
X009451Y008045D01*
X009301Y007970D01*
X009301Y008195D01*
X009601Y008195D01*
X009761Y007970D02*
X010061Y007970D01*
X010221Y007970D02*
X010522Y007970D01*
X010682Y008045D02*
X010832Y008195D01*
X010832Y007745D01*
X010682Y007745D02*
X010982Y007745D01*
X011142Y007820D02*
X011142Y008120D01*
X011217Y008195D01*
X011367Y008195D01*
X011442Y008120D01*
X011142Y007820D01*
X011217Y007745D01*
X011367Y007745D01*
X011442Y007820D01*
X011442Y008120D01*
X011603Y008195D02*
X011828Y008195D01*
X011903Y008120D01*
X011903Y007970D01*
X011828Y007895D01*
X011603Y007895D01*
X011603Y007745D02*
X011603Y008195D01*
X012063Y008195D02*
X012063Y007745D01*
X012288Y007745D01*
X012363Y007820D01*
X012363Y008120D01*
X012288Y008195D01*
X012063Y008195D01*
X012523Y008195D02*
X012673Y008195D01*
X012598Y008195D02*
X012598Y007745D01*
X012523Y007745D02*
X012673Y007745D01*
X012830Y007745D02*
X012830Y008195D01*
X013055Y008195D01*
X013130Y008120D01*
X013130Y007970D01*
X013055Y007895D01*
X012830Y007895D01*
X012405Y005720D02*
X012255Y005645D01*
X012105Y005495D01*
X012330Y005495D01*
X012405Y005420D01*
X012405Y005345D01*
X012330Y005270D01*
X012180Y005270D01*
X012105Y005345D01*
X012105Y005495D01*
X011945Y005345D02*
X011870Y005270D01*
X011720Y005270D01*
X011645Y005345D01*
X011645Y005645D01*
X011720Y005720D01*
X011870Y005720D01*
X011945Y005645D01*
X011500Y004305D02*
X011502Y004325D01*
X011508Y004343D01*
X011517Y004361D01*
X011529Y004376D01*
X011544Y004388D01*
X011562Y004397D01*
X011580Y004403D01*
X011600Y004405D01*
X011620Y004403D01*
X011638Y004397D01*
X011656Y004388D01*
X011671Y004376D01*
X011683Y004361D01*
X011692Y004343D01*
X011698Y004325D01*
X011700Y004305D01*
X011698Y004285D01*
X011692Y004267D01*
X011683Y004249D01*
X011671Y004234D01*
X011656Y004222D01*
X011638Y004213D01*
X011620Y004207D01*
X011600Y004205D01*
X011580Y004207D01*
X011562Y004213D01*
X011544Y004222D01*
X011529Y004234D01*
X011517Y004249D01*
X011508Y004267D01*
X011502Y004285D01*
X011500Y004305D01*
X010447Y007745D02*
X010447Y008195D01*
X010221Y007970D01*
X009986Y007745D02*
X009986Y008195D01*
X009761Y007970D01*
X008380Y007745D02*
X008380Y008195D01*
X006180Y009695D02*
X006105Y009620D01*
X005955Y009620D01*
X005880Y009695D01*
X005720Y009695D02*
X005645Y009620D01*
X005495Y009620D01*
X005420Y009695D01*
X005420Y009995D01*
X005495Y010070D01*
X005645Y010070D01*
X005720Y009995D01*
X005880Y009995D02*
X005955Y010070D01*
X006105Y010070D01*
X006180Y009995D01*
X006180Y009920D01*
X006105Y009845D01*
X006180Y009770D01*
X006180Y009695D01*
X006105Y009845D02*
X006030Y009845D01*
X005260Y011245D02*
X004960Y011245D01*
X005260Y011545D01*
X005260Y011620D01*
X005185Y011695D01*
X005035Y011695D01*
X004960Y011620D01*
X004800Y011695D02*
X004800Y011245D01*
X004500Y011695D01*
X004500Y011245D01*
X004340Y011245D02*
X004190Y011395D01*
X004265Y011395D02*
X004039Y011395D01*
X004039Y011245D02*
X004039Y011695D01*
X004265Y011695D01*
X004340Y011620D01*
X004340Y011470D01*
X004265Y011395D01*
X003930Y009835D02*
X003930Y009535D01*
X003630Y009835D01*
X003555Y009835D01*
X003480Y009760D01*
X003480Y009610D01*
X003555Y009535D01*
X002930Y009535D02*
X002930Y009835D01*
X002930Y009685D02*
X002480Y009685D01*
X002630Y009535D01*
X002005Y007985D02*
X001930Y007985D01*
X001855Y007910D01*
X001855Y007685D01*
X002005Y007685D01*
X002080Y007760D01*
X002080Y007910D01*
X002005Y007985D01*
X001705Y007835D02*
X001855Y007685D01*
X001705Y007835D02*
X001630Y007985D01*
X002138Y013995D02*
X002138Y014445D01*
X002289Y014295D01*
X002439Y014445D01*
X002439Y013995D01*
X002599Y014070D02*
X002599Y014370D01*
X002674Y014445D01*
X002824Y014445D01*
X002899Y014370D01*
X003059Y014445D02*
X003359Y014445D01*
X003209Y014445D02*
X003209Y013995D01*
X002899Y014070D02*
X002824Y013995D01*
X002674Y013995D01*
X002599Y014070D01*
X003520Y014070D02*
X003595Y013995D01*
X003745Y013995D01*
X003820Y014070D01*
X003820Y014145D01*
X003745Y014220D01*
X003520Y014220D01*
X003520Y014070D01*
X003520Y014220D02*
X003670Y014370D01*
X003820Y014445D01*
X003980Y014370D02*
X004055Y014445D01*
X004205Y014445D01*
X004280Y014370D01*
X004280Y014295D01*
X003980Y013995D01*
X004280Y013995D01*
X004440Y013995D02*
X004440Y014445D01*
X004440Y014220D02*
X004741Y014220D01*
X004901Y014220D02*
X005201Y014220D01*
X005361Y014295D02*
X005511Y014445D01*
X005511Y013995D01*
X005361Y013995D02*
X005661Y013995D01*
X006638Y013995D02*
X006638Y014445D01*
X006789Y014295D01*
X006939Y014445D01*
X006939Y013995D01*
X007099Y014070D02*
X007174Y013995D01*
X007324Y013995D01*
X007399Y014070D01*
X007399Y014370D02*
X007324Y014445D01*
X007174Y014445D01*
X007099Y014370D01*
X007099Y014070D01*
X007559Y014445D02*
X007859Y014445D01*
X007709Y014445D02*
X007709Y013995D01*
X008020Y014070D02*
X008095Y013995D01*
X008245Y013995D01*
X008320Y014070D01*
X008320Y014145D01*
X008245Y014220D01*
X008020Y014220D01*
X008020Y014070D01*
X008020Y014220D02*
X008170Y014370D01*
X008320Y014445D01*
X008480Y014370D02*
X008555Y014445D01*
X008705Y014445D01*
X008780Y014370D01*
X008780Y014295D01*
X008480Y013995D01*
X008780Y013995D01*
X008940Y013995D02*
X008940Y014445D01*
X008940Y014220D02*
X009241Y014220D01*
X009401Y014220D02*
X009701Y014220D01*
X009861Y014370D02*
X009936Y014445D01*
X010086Y014445D01*
X010161Y014370D01*
X010161Y014295D01*
X009861Y013995D01*
X010161Y013995D01*
X011138Y013995D02*
X011138Y014445D01*
X011289Y014295D01*
X011439Y014445D01*
X011439Y013995D01*
X011599Y014070D02*
X011674Y013995D01*
X011824Y013995D01*
X011899Y014070D01*
X011899Y014370D02*
X011824Y014445D01*
X011674Y014445D01*
X011599Y014370D01*
X011599Y014070D01*
X012059Y014445D02*
X012359Y014445D01*
X012209Y014445D02*
X012209Y013995D01*
X012520Y014070D02*
X012595Y013995D01*
X012745Y013995D01*
X012820Y014070D01*
X012820Y014145D01*
X012745Y014220D01*
X012520Y014220D01*
X012520Y014070D01*
X012520Y014220D02*
X012670Y014370D01*
X012820Y014445D01*
X012980Y014370D02*
X013055Y014445D01*
X013205Y014445D01*
X013280Y014370D01*
X013280Y014295D01*
X012980Y013995D01*
X013280Y013995D01*
X013440Y013995D02*
X013440Y014445D01*
X013440Y014220D02*
X013741Y014220D01*
X013901Y014220D02*
X014201Y014220D01*
X014361Y014070D02*
X014436Y013995D01*
X014586Y013995D01*
X014661Y014070D01*
X014661Y014145D01*
X014586Y014220D01*
X014511Y014220D01*
X014586Y014220D02*
X014661Y014295D01*
X014661Y014370D01*
X014586Y014445D01*
X014436Y014445D01*
X014361Y014370D01*
X013741Y014445D02*
X013741Y013995D01*
X015420Y012070D02*
X015420Y011620D01*
X015645Y011620D01*
X015720Y011695D01*
X015720Y011995D01*
X015645Y012070D01*
X015420Y012070D01*
X015880Y011920D02*
X016030Y012070D01*
X016030Y011620D01*
X015880Y011620D02*
X016180Y011620D01*
X017830Y008145D02*
X017905Y007995D01*
X018055Y007845D01*
X018055Y008070D01*
X018130Y008145D01*
X018205Y008145D01*
X018280Y008070D01*
X018280Y007920D01*
X018205Y007845D01*
X018055Y007845D01*
X017430Y006295D02*
X017430Y005995D01*
X017430Y006145D02*
X016980Y006145D01*
X017130Y005995D01*
X016430Y005995D02*
X016130Y006295D01*
X016055Y006295D01*
X015980Y006220D01*
X015980Y006070D01*
X016055Y005995D01*
X016430Y005995D02*
X016430Y006295D01*
X009241Y013995D02*
X009241Y014445D01*
X012395Y020870D02*
X012395Y021320D01*
X012620Y021320D01*
X012695Y021245D01*
X012695Y021095D01*
X012620Y021020D01*
X012395Y021020D01*
X012545Y021020D02*
X012695Y020870D01*
X012855Y021095D02*
X013155Y021095D01*
X013080Y020870D02*
X013080Y021320D01*
X012855Y021095D01*
X012830Y027620D02*
X012680Y027620D01*
X012605Y027695D01*
X012445Y027620D02*
X012295Y027770D01*
X012370Y027770D02*
X012145Y027770D01*
X012145Y027620D02*
X012145Y028070D01*
X012370Y028070D01*
X012445Y027995D01*
X012445Y027845D01*
X012370Y027770D01*
X012605Y027995D02*
X012680Y028070D01*
X012830Y028070D01*
X012905Y027995D01*
X012905Y027920D01*
X012830Y027845D01*
X012905Y027770D01*
X012905Y027695D01*
X012830Y027620D01*
X012830Y027845D02*
X012755Y027845D01*
X012805Y029344D02*
X012355Y029344D01*
X012355Y029804D02*
X012505Y029955D01*
X012355Y030105D01*
X012805Y030105D01*
X012730Y030265D02*
X012805Y030340D01*
X012805Y030490D01*
X012730Y030565D01*
X012655Y030565D01*
X012580Y030490D01*
X012580Y030415D01*
X012580Y030490D02*
X012505Y030565D01*
X012430Y030565D01*
X012355Y030490D01*
X012355Y030340D01*
X012430Y030265D01*
X012430Y030725D02*
X012505Y030725D01*
X012580Y030800D01*
X012580Y030950D01*
X012655Y031025D01*
X012730Y031025D01*
X012805Y030950D01*
X012805Y030800D01*
X012730Y030725D01*
X012655Y030725D01*
X012580Y030800D01*
X012580Y030950D02*
X012505Y031025D01*
X012430Y031025D01*
X012355Y030950D01*
X012355Y030800D01*
X012430Y030725D01*
X012580Y031186D02*
X012580Y031411D01*
X012655Y031486D01*
X012730Y031486D01*
X012805Y031411D01*
X012805Y031261D01*
X012730Y031186D01*
X012580Y031186D01*
X012430Y031336D01*
X012355Y031486D01*
X012355Y029804D02*
X012805Y029804D01*
X012805Y029644D02*
X012805Y029344D01*
X016145Y028070D02*
X016145Y027620D01*
X016145Y027770D02*
X016370Y027770D01*
X016445Y027845D01*
X016445Y027995D01*
X016370Y028070D01*
X016145Y028070D01*
X016295Y027770D02*
X016445Y027620D01*
X016605Y027620D02*
X016905Y027920D01*
X016905Y027995D01*
X016830Y028070D01*
X016680Y028070D01*
X016605Y027995D01*
X016605Y027620D02*
X016905Y027620D01*
X017595Y025070D02*
X017520Y024995D01*
X017520Y024695D01*
X017595Y024620D01*
X017745Y024620D01*
X017820Y024695D01*
X017980Y024845D02*
X018280Y024845D01*
X018205Y024620D02*
X018205Y025070D01*
X017980Y024845D01*
X017820Y024995D02*
X017745Y025070D01*
X017595Y025070D01*
X017595Y022570D02*
X017520Y022495D01*
X017520Y022195D01*
X017595Y022120D01*
X017745Y022120D01*
X017820Y022195D01*
X017980Y022195D02*
X018055Y022120D01*
X018205Y022120D01*
X018280Y022195D01*
X018280Y022345D01*
X018205Y022420D01*
X018130Y022420D01*
X017980Y022345D01*
X017980Y022570D01*
X018280Y022570D01*
X017820Y022495D02*
X017745Y022570D01*
X017595Y022570D01*
X008180Y029485D02*
X008180Y029635D01*
X008105Y029710D01*
X008105Y029870D02*
X008180Y029870D01*
X008105Y029870D02*
X007805Y030170D01*
X007730Y030170D01*
X007730Y029870D01*
X007805Y029710D02*
X007730Y029635D01*
X007730Y029485D01*
X007805Y029410D01*
X008105Y029410D01*
X008180Y029485D01*
X003693Y031370D02*
X003693Y031595D01*
X003618Y031670D01*
X003543Y031595D01*
X003543Y031370D01*
X003393Y031370D02*
X003393Y031670D01*
X003468Y031670D01*
X003543Y031595D01*
X003233Y031595D02*
X003233Y031370D01*
X003083Y031370D02*
X003083Y031595D01*
X003158Y031670D01*
X003233Y031595D01*
X003083Y031595D02*
X003008Y031670D01*
X002933Y031670D01*
X002933Y031370D01*
X002773Y031445D02*
X002773Y031595D01*
X002698Y031670D01*
X002622Y031670D01*
X002472Y031595D01*
X002472Y031820D01*
X002773Y031820D01*
X002773Y031445D02*
X002698Y031370D01*
X002547Y031370D01*
X002472Y031445D01*
X002316Y031445D02*
X002240Y031445D01*
X002240Y031370D01*
X002316Y031370D01*
X002316Y031445D01*
X002316Y031370D02*
X002165Y031220D01*
X002005Y031445D02*
X001930Y031370D01*
X001780Y031370D01*
X001705Y031445D01*
X001855Y031595D02*
X001930Y031595D01*
X002005Y031520D01*
X002005Y031445D01*
X001930Y031595D02*
X002005Y031670D01*
X002005Y031745D01*
X001930Y031820D01*
X001780Y031820D01*
X001705Y031745D01*
X003164Y017695D02*
X003390Y017695D01*
X003465Y017620D01*
X003465Y017470D01*
X003390Y017395D01*
X003164Y017395D01*
X003164Y017245D02*
X003164Y017695D01*
X003315Y017395D02*
X003465Y017245D01*
X003625Y017245D02*
X003625Y017695D01*
X003925Y017245D01*
X003925Y017695D01*
X004085Y017545D02*
X004235Y017695D01*
X004235Y017245D01*
X004085Y017245D02*
X004385Y017245D01*
X004741Y014445D02*
X004741Y013995D01*
D13*
X002032Y019160D02*
X002032Y019563D01*
X001898Y019563D02*
X002167Y019563D01*
X002167Y019295D02*
X002032Y019160D01*
X007349Y028575D02*
X007300Y028623D01*
X007300Y028817D01*
X007349Y028865D01*
X007445Y028865D01*
X007494Y028817D01*
X007595Y028768D02*
X007692Y028865D01*
X007692Y028575D01*
X007788Y028575D02*
X007595Y028575D01*
X007494Y028623D02*
X007445Y028575D01*
X007349Y028575D01*
X007324Y030800D02*
X007420Y030800D01*
X007469Y030848D01*
X007570Y030800D02*
X007763Y030993D01*
X007763Y031042D01*
X007715Y031090D01*
X007618Y031090D01*
X007570Y031042D01*
X007469Y031042D02*
X007420Y031090D01*
X007324Y031090D01*
X007275Y031042D01*
X007275Y030848D01*
X007324Y030800D01*
X007570Y030800D02*
X007763Y030800D01*
X014993Y025895D02*
X015128Y026030D01*
X015128Y025627D01*
X015262Y025627D02*
X014993Y025627D01*
X015059Y004360D02*
X015059Y004070D01*
X015059Y004167D02*
X015204Y004263D01*
X015305Y004215D02*
X015305Y004118D01*
X015353Y004070D01*
X015450Y004070D01*
X015498Y004118D01*
X015498Y004215D01*
X015450Y004263D01*
X015353Y004263D01*
X015305Y004215D01*
X015204Y004070D02*
X015059Y004167D01*
X014958Y004167D02*
X014813Y004167D01*
X014765Y004118D01*
X014813Y004070D01*
X014958Y004070D01*
X014958Y004215D01*
X014910Y004263D01*
X014813Y004263D01*
X014663Y004360D02*
X014567Y004360D01*
X014615Y004360D02*
X014615Y004118D01*
X014567Y004070D01*
X014518Y004070D01*
X014470Y004118D01*
X014470Y003880D02*
X014615Y003880D01*
X014663Y003832D01*
X014663Y003638D01*
X014615Y003590D01*
X014470Y003590D01*
X014470Y003880D01*
X014813Y003783D02*
X014910Y003783D01*
X014958Y003735D01*
X014958Y003590D01*
X014813Y003590D01*
X014765Y003638D01*
X014813Y003687D01*
X014958Y003687D01*
X015059Y003783D02*
X015156Y003590D01*
X015253Y003783D01*
X015354Y003783D02*
X015402Y003783D01*
X015402Y003590D01*
X015354Y003590D02*
X015451Y003590D01*
X015550Y003638D02*
X015550Y003735D01*
X015599Y003783D01*
X015744Y003783D01*
X015744Y003880D02*
X015744Y003590D01*
X015599Y003590D01*
X015550Y003638D01*
X015649Y003400D02*
X015649Y003207D01*
X015745Y003110D01*
X015842Y003207D01*
X015842Y003400D01*
X015943Y003255D02*
X015992Y003303D01*
X016088Y003303D01*
X016137Y003255D01*
X016137Y003207D01*
X015943Y003207D01*
X015943Y003255D02*
X015943Y003158D01*
X015992Y003110D01*
X016088Y003110D01*
X016238Y003110D02*
X016238Y003303D01*
X016238Y003207D02*
X016335Y003303D01*
X016383Y003303D01*
X016483Y003303D02*
X016629Y003303D01*
X016677Y003255D01*
X016677Y003158D01*
X016629Y003110D01*
X016483Y003110D01*
X016483Y003013D02*
X016483Y003303D01*
X016483Y003590D02*
X016434Y003638D01*
X016483Y003687D01*
X016628Y003687D01*
X016628Y003735D02*
X016628Y003590D01*
X016483Y003590D01*
X016333Y003638D02*
X016333Y003735D01*
X016236Y003735D01*
X016140Y003638D02*
X016188Y003590D01*
X016285Y003590D01*
X016333Y003638D01*
X016140Y003638D02*
X016140Y003832D01*
X016188Y003880D01*
X016285Y003880D01*
X016333Y003832D01*
X016483Y003783D02*
X016579Y003783D01*
X016628Y003735D01*
X016729Y003783D02*
X016729Y003638D01*
X016777Y003590D01*
X016922Y003590D01*
X016922Y003783D01*
X017024Y003783D02*
X017120Y003783D01*
X017072Y003832D02*
X017072Y003638D01*
X017120Y003590D01*
X017220Y003590D02*
X017220Y003880D01*
X017268Y003783D02*
X017220Y003735D01*
X017268Y003783D02*
X017365Y003783D01*
X017414Y003735D01*
X017414Y003590D01*
X017515Y003590D02*
X017611Y003590D01*
X017563Y003590D02*
X017563Y003783D01*
X017515Y003783D01*
X017563Y003880D02*
X017563Y003929D01*
X017711Y003735D02*
X017711Y003638D01*
X017760Y003590D01*
X017856Y003590D01*
X017905Y003687D02*
X017711Y003687D01*
X017711Y003735D02*
X017760Y003783D01*
X017856Y003783D01*
X017905Y003735D01*
X017905Y003687D01*
X018006Y003687D02*
X018103Y003783D01*
X018151Y003783D01*
X018006Y003783D02*
X018006Y003590D01*
X017709Y003303D02*
X017564Y003207D01*
X017709Y003110D01*
X017564Y003110D02*
X017564Y003400D01*
X017463Y003255D02*
X017414Y003303D01*
X017269Y003303D01*
X017269Y003110D01*
X017168Y003110D02*
X017023Y003110D01*
X016975Y003158D01*
X017023Y003207D01*
X017168Y003207D01*
X017168Y003255D02*
X017168Y003110D01*
X017168Y003255D02*
X017120Y003303D01*
X017023Y003303D01*
X016826Y003400D02*
X016826Y003110D01*
X016778Y003110D02*
X016875Y003110D01*
X016826Y003400D02*
X016778Y003400D01*
X016778Y004070D02*
X016778Y004360D01*
X016923Y004263D02*
X016778Y004167D01*
X016923Y004070D01*
X016677Y004070D02*
X016532Y004070D01*
X016483Y004118D01*
X016532Y004167D01*
X016677Y004167D01*
X016677Y004215D02*
X016677Y004070D01*
X016677Y004215D02*
X016629Y004263D01*
X016532Y004263D01*
X016382Y004263D02*
X016334Y004215D01*
X016189Y004215D01*
X016334Y004215D02*
X016382Y004167D01*
X016382Y004118D01*
X016334Y004070D01*
X016189Y004070D01*
X016189Y004360D01*
X016334Y004360D01*
X016382Y004312D01*
X016382Y004263D01*
X015793Y004215D02*
X015745Y004263D01*
X015599Y004263D01*
X015599Y004360D02*
X015599Y004070D01*
X015745Y004070D01*
X015793Y004118D01*
X015793Y004215D01*
X015402Y003929D02*
X015402Y003880D01*
X015206Y003400D02*
X015206Y003110D01*
X015158Y003110D02*
X015254Y003110D01*
X015058Y003110D02*
X014961Y003110D01*
X015009Y003110D02*
X015009Y003400D01*
X014961Y003400D01*
X014813Y003400D02*
X014813Y003449D01*
X014813Y003303D02*
X014813Y003110D01*
X014765Y003110D02*
X014861Y003110D01*
X014813Y003303D02*
X014765Y003303D01*
X014663Y003303D02*
X014615Y003255D01*
X014470Y003255D01*
X014470Y003110D02*
X014615Y003110D01*
X014663Y003158D01*
X014663Y003207D01*
X014615Y003255D01*
X014663Y003303D02*
X014663Y003352D01*
X014615Y003400D01*
X014470Y003400D01*
X014470Y003110D01*
X015158Y003400D02*
X015206Y003400D01*
X017463Y003255D02*
X017463Y003110D01*
D14*
X017435Y013115D02*
X017128Y013422D01*
X017051Y013422D01*
X016975Y013345D01*
X016975Y013192D01*
X017051Y013115D01*
X017435Y013115D02*
X017435Y013422D01*
X017358Y013575D02*
X017051Y013882D01*
X017358Y013882D01*
X017435Y013806D01*
X017435Y013652D01*
X017358Y013575D01*
X017051Y013575D01*
X016975Y013652D01*
X016975Y013806D01*
X017051Y013882D01*
X017128Y014036D02*
X016975Y014189D01*
X017435Y014189D01*
X017435Y014036D02*
X017435Y014343D01*
X017358Y014496D02*
X017435Y014573D01*
X017435Y014726D01*
X017358Y014803D01*
X017205Y014803D01*
X017128Y014726D01*
X017128Y014650D01*
X017205Y014496D01*
X016975Y014496D01*
X016975Y014803D01*
X017725Y014880D02*
X017725Y015110D01*
X017801Y015187D01*
X018108Y015187D01*
X018185Y015110D01*
X018185Y014880D01*
X017725Y014880D01*
X017801Y014496D02*
X017725Y014419D01*
X017725Y014189D01*
X018185Y014189D01*
X018185Y014419D01*
X018108Y014496D01*
X017801Y014496D01*
X017725Y014036D02*
X017725Y013882D01*
X017725Y013959D02*
X018185Y013959D01*
X018185Y013882D02*
X018185Y014036D01*
X018185Y013729D02*
X018185Y013575D01*
X018185Y013652D02*
X017725Y013652D01*
X017725Y013575D02*
X017725Y013729D01*
X017801Y013422D02*
X017725Y013345D01*
X017725Y013192D01*
X017801Y013115D01*
X018108Y013115D01*
X018185Y013192D01*
X018185Y013345D01*
X018108Y013422D01*
X018108Y014650D02*
X018108Y014726D01*
X018185Y014726D01*
X018185Y014650D01*
X018108Y014650D01*
X018032Y015340D02*
X017725Y015647D01*
X017725Y015340D02*
X018185Y015340D01*
X017955Y015417D02*
X018185Y015647D01*
X017157Y030365D02*
X016850Y030365D01*
X017003Y030365D02*
X017003Y030825D01*
X016850Y030672D01*
X016697Y030749D02*
X016697Y030595D01*
X016620Y030518D01*
X016390Y030518D01*
X016390Y030365D02*
X016390Y030825D01*
X016620Y030825D01*
X016697Y030749D01*
X016543Y030518D02*
X016697Y030365D01*
D15*
X017580Y028295D02*
X017730Y028295D01*
X017747Y028293D01*
X017764Y028289D01*
X017780Y028282D01*
X017794Y028272D01*
X017807Y028259D01*
X017817Y028245D01*
X017824Y028229D01*
X017828Y028212D01*
X017830Y028195D01*
X017580Y028295D02*
X017530Y028245D01*
X015630Y028245D01*
X015580Y028295D01*
X015430Y028295D01*
X015413Y028293D01*
X015396Y028289D01*
X015380Y028282D01*
X015366Y028272D01*
X015353Y028259D01*
X015343Y028245D01*
X015336Y028229D01*
X015332Y028212D01*
X015330Y028195D01*
X015330Y027495D02*
X015332Y027478D01*
X015336Y027461D01*
X015343Y027445D01*
X015353Y027431D01*
X015366Y027418D01*
X015380Y027408D01*
X015396Y027401D01*
X015413Y027397D01*
X015430Y027395D01*
X015580Y027395D01*
X015630Y027445D01*
X017530Y027445D01*
X017580Y027395D01*
X017730Y027395D01*
X017747Y027397D01*
X017764Y027401D01*
X017780Y027408D01*
X017794Y027418D01*
X017807Y027431D01*
X017817Y027445D01*
X017824Y027461D01*
X017828Y027478D01*
X017830Y027495D01*
X016080Y026095D02*
X016082Y026158D01*
X016088Y026220D01*
X016098Y026282D01*
X016111Y026344D01*
X016129Y026404D01*
X016150Y026463D01*
X016175Y026521D01*
X016204Y026577D01*
X016236Y026631D01*
X016271Y026683D01*
X016309Y026732D01*
X016351Y026780D01*
X016395Y026824D01*
X016443Y026866D01*
X016492Y026904D01*
X016544Y026939D01*
X016598Y026971D01*
X016654Y027000D01*
X016712Y027025D01*
X016771Y027046D01*
X016831Y027064D01*
X016893Y027077D01*
X016955Y027087D01*
X017017Y027093D01*
X017080Y027095D01*
X017143Y027093D01*
X017205Y027087D01*
X017267Y027077D01*
X017329Y027064D01*
X017389Y027046D01*
X017448Y027025D01*
X017506Y027000D01*
X017562Y026971D01*
X017616Y026939D01*
X017668Y026904D01*
X017717Y026866D01*
X017765Y026824D01*
X017809Y026780D01*
X017851Y026732D01*
X017889Y026683D01*
X017924Y026631D01*
X017956Y026577D01*
X017985Y026521D01*
X018010Y026463D01*
X018031Y026404D01*
X018049Y026344D01*
X018062Y026282D01*
X018072Y026220D01*
X018078Y026158D01*
X018080Y026095D01*
X018078Y026032D01*
X018072Y025970D01*
X018062Y025908D01*
X018049Y025846D01*
X018031Y025786D01*
X018010Y025727D01*
X017985Y025669D01*
X017956Y025613D01*
X017924Y025559D01*
X017889Y025507D01*
X017851Y025458D01*
X017809Y025410D01*
X017765Y025366D01*
X017717Y025324D01*
X017668Y025286D01*
X017616Y025251D01*
X017562Y025219D01*
X017506Y025190D01*
X017448Y025165D01*
X017389Y025144D01*
X017329Y025126D01*
X017267Y025113D01*
X017205Y025103D01*
X017143Y025097D01*
X017080Y025095D01*
X017017Y025097D01*
X016955Y025103D01*
X016893Y025113D01*
X016831Y025126D01*
X016771Y025144D01*
X016712Y025165D01*
X016654Y025190D01*
X016598Y025219D01*
X016544Y025251D01*
X016492Y025286D01*
X016443Y025324D01*
X016395Y025366D01*
X016351Y025410D01*
X016309Y025458D01*
X016271Y025507D01*
X016236Y025559D01*
X016204Y025613D01*
X016175Y025669D01*
X016150Y025727D01*
X016129Y025786D01*
X016111Y025846D01*
X016098Y025908D01*
X016088Y025970D01*
X016082Y026032D01*
X016080Y026095D01*
X016280Y025695D02*
X016480Y025695D01*
X016380Y025595D02*
X016380Y025795D01*
X017780Y024095D02*
X017780Y023895D01*
X017680Y023995D02*
X017880Y023995D01*
X016080Y023595D02*
X016082Y023658D01*
X016088Y023720D01*
X016098Y023782D01*
X016111Y023844D01*
X016129Y023904D01*
X016150Y023963D01*
X016175Y024021D01*
X016204Y024077D01*
X016236Y024131D01*
X016271Y024183D01*
X016309Y024232D01*
X016351Y024280D01*
X016395Y024324D01*
X016443Y024366D01*
X016492Y024404D01*
X016544Y024439D01*
X016598Y024471D01*
X016654Y024500D01*
X016712Y024525D01*
X016771Y024546D01*
X016831Y024564D01*
X016893Y024577D01*
X016955Y024587D01*
X017017Y024593D01*
X017080Y024595D01*
X017143Y024593D01*
X017205Y024587D01*
X017267Y024577D01*
X017329Y024564D01*
X017389Y024546D01*
X017448Y024525D01*
X017506Y024500D01*
X017562Y024471D01*
X017616Y024439D01*
X017668Y024404D01*
X017717Y024366D01*
X017765Y024324D01*
X017809Y024280D01*
X017851Y024232D01*
X017889Y024183D01*
X017924Y024131D01*
X017956Y024077D01*
X017985Y024021D01*
X018010Y023963D01*
X018031Y023904D01*
X018049Y023844D01*
X018062Y023782D01*
X018072Y023720D01*
X018078Y023658D01*
X018080Y023595D01*
X018078Y023532D01*
X018072Y023470D01*
X018062Y023408D01*
X018049Y023346D01*
X018031Y023286D01*
X018010Y023227D01*
X017985Y023169D01*
X017956Y023113D01*
X017924Y023059D01*
X017889Y023007D01*
X017851Y022958D01*
X017809Y022910D01*
X017765Y022866D01*
X017717Y022824D01*
X017668Y022786D01*
X017616Y022751D01*
X017562Y022719D01*
X017506Y022690D01*
X017448Y022665D01*
X017389Y022644D01*
X017329Y022626D01*
X017267Y022613D01*
X017205Y022603D01*
X017143Y022597D01*
X017080Y022595D01*
X017017Y022597D01*
X016955Y022603D01*
X016893Y022613D01*
X016831Y022626D01*
X016771Y022644D01*
X016712Y022665D01*
X016654Y022690D01*
X016598Y022719D01*
X016544Y022751D01*
X016492Y022786D01*
X016443Y022824D01*
X016395Y022866D01*
X016351Y022910D01*
X016309Y022958D01*
X016271Y023007D01*
X016236Y023059D01*
X016204Y023113D01*
X016175Y023169D01*
X016150Y023227D01*
X016129Y023286D01*
X016111Y023346D01*
X016098Y023408D01*
X016088Y023470D01*
X016082Y023532D01*
X016080Y023595D01*
X013980Y021545D02*
X013830Y021545D01*
X013780Y021495D01*
X011880Y021495D01*
X011830Y021545D01*
X011680Y021545D01*
X011663Y021543D01*
X011646Y021539D01*
X011630Y021532D01*
X011616Y021522D01*
X011603Y021509D01*
X011593Y021495D01*
X011586Y021479D01*
X011582Y021462D01*
X011580Y021445D01*
X011580Y020745D02*
X011582Y020728D01*
X011586Y020711D01*
X011593Y020695D01*
X011603Y020681D01*
X011616Y020668D01*
X011630Y020658D01*
X011646Y020651D01*
X011663Y020647D01*
X011680Y020645D01*
X011830Y020645D01*
X011880Y020695D01*
X013780Y020695D01*
X013830Y020645D01*
X013980Y020645D01*
X013997Y020647D01*
X014014Y020651D01*
X014030Y020658D01*
X014044Y020668D01*
X014057Y020681D01*
X014067Y020695D01*
X014074Y020711D01*
X014078Y020728D01*
X014080Y020745D01*
X014080Y021445D02*
X014078Y021462D01*
X014074Y021479D01*
X014067Y021495D01*
X014057Y021509D01*
X014044Y021522D01*
X014030Y021532D01*
X014014Y021539D01*
X013997Y021543D01*
X013980Y021545D01*
X013580Y017970D02*
X012580Y017970D01*
X004580Y017970D01*
X004580Y016970D01*
X012580Y016970D01*
X013580Y016970D01*
X013330Y017220D01*
X013580Y016970D02*
X013580Y017970D01*
X013330Y017720D01*
X012830Y017720D02*
X012580Y017970D01*
X012580Y016970D01*
X012830Y017220D01*
X011080Y015370D02*
X011080Y013070D01*
X015080Y013070D01*
X015080Y013820D01*
X015041Y013822D01*
X015002Y013828D01*
X014964Y013837D01*
X014927Y013850D01*
X014891Y013867D01*
X014858Y013887D01*
X014826Y013911D01*
X014797Y013937D01*
X014771Y013966D01*
X014747Y013998D01*
X014727Y014031D01*
X014710Y014067D01*
X014697Y014104D01*
X014688Y014142D01*
X014682Y014181D01*
X014680Y014220D01*
X014682Y014259D01*
X014688Y014298D01*
X014697Y014336D01*
X014710Y014373D01*
X014727Y014409D01*
X014747Y014442D01*
X014771Y014474D01*
X014797Y014503D01*
X014826Y014529D01*
X014858Y014553D01*
X014891Y014573D01*
X014927Y014590D01*
X014964Y014603D01*
X015002Y014612D01*
X015041Y014618D01*
X015080Y014620D01*
X015080Y015370D01*
X011080Y015370D01*
X010580Y015370D02*
X010580Y014620D01*
X010541Y014618D01*
X010502Y014612D01*
X010464Y014603D01*
X010427Y014590D01*
X010391Y014573D01*
X010358Y014553D01*
X010326Y014529D01*
X010297Y014503D01*
X010271Y014474D01*
X010247Y014442D01*
X010227Y014409D01*
X010210Y014373D01*
X010197Y014336D01*
X010188Y014298D01*
X010182Y014259D01*
X010180Y014220D01*
X010182Y014181D01*
X010188Y014142D01*
X010197Y014104D01*
X010210Y014067D01*
X010227Y014031D01*
X010247Y013998D01*
X010271Y013966D01*
X010297Y013937D01*
X010326Y013911D01*
X010358Y013887D01*
X010391Y013867D01*
X010427Y013850D01*
X010464Y013837D01*
X010502Y013828D01*
X010541Y013822D01*
X010580Y013820D01*
X010580Y013070D01*
X006580Y013070D01*
X006580Y015370D01*
X010580Y015370D01*
X010530Y012870D02*
X011130Y012870D01*
X011147Y012868D01*
X011164Y012864D01*
X011180Y012857D01*
X011194Y012847D01*
X011207Y012834D01*
X011217Y012820D01*
X011224Y012804D01*
X011228Y012787D01*
X011230Y012770D01*
X011230Y011670D01*
X011228Y011653D01*
X011224Y011636D01*
X011217Y011620D01*
X011207Y011606D01*
X011194Y011593D01*
X011180Y011583D01*
X011164Y011576D01*
X011147Y011572D01*
X011130Y011570D01*
X010530Y011570D01*
X010513Y011572D01*
X010496Y011576D01*
X010480Y011583D01*
X010466Y011593D01*
X010453Y011606D01*
X010443Y011620D01*
X010436Y011636D01*
X010432Y011653D01*
X010430Y011670D01*
X010430Y012770D01*
X010432Y012787D01*
X010436Y012804D01*
X010443Y012820D01*
X010453Y012834D01*
X010466Y012847D01*
X010480Y012857D01*
X010496Y012864D01*
X010513Y012868D01*
X010530Y012870D01*
X013580Y011470D02*
X013580Y010470D01*
X014580Y010470D01*
X014330Y010720D01*
X014580Y010470D02*
X014580Y011470D01*
X013580Y011470D01*
X005580Y011470D01*
X005580Y010470D01*
X013580Y010470D01*
X013830Y010720D01*
X013830Y011220D02*
X013580Y011470D01*
X014330Y011220D02*
X014580Y011470D01*
X014955Y010970D02*
X014955Y010470D01*
X014855Y010470D01*
X014855Y009970D01*
X014955Y009970D01*
X014955Y008220D01*
X014855Y008220D01*
X014855Y007720D01*
X014955Y007720D01*
X014955Y005970D01*
X014855Y005970D01*
X014855Y005470D01*
X014955Y005470D01*
X014955Y004970D01*
X018455Y004970D01*
X018455Y006470D01*
X018405Y006470D01*
X018405Y006970D01*
X018455Y006970D01*
X018455Y007170D01*
X018055Y007170D01*
X017955Y007170D01*
X017955Y005470D01*
X015455Y005470D01*
X015455Y010470D01*
X017955Y010470D01*
X017955Y008770D01*
X018055Y008770D01*
X018455Y008770D01*
X018455Y007170D01*
X017955Y007170D02*
X017655Y007170D01*
X017655Y008770D01*
X017955Y008770D01*
X018455Y008770D02*
X018455Y010970D01*
X014955Y010970D01*
X014580Y009120D02*
X014580Y006820D01*
X006580Y006820D01*
X006580Y007570D01*
X006619Y007572D01*
X006658Y007578D01*
X006696Y007587D01*
X006733Y007600D01*
X006769Y007617D01*
X006802Y007637D01*
X006834Y007661D01*
X006863Y007687D01*
X006889Y007716D01*
X006913Y007748D01*
X006933Y007781D01*
X006950Y007817D01*
X006963Y007854D01*
X006972Y007892D01*
X006978Y007931D01*
X006980Y007970D01*
X006978Y008009D01*
X006972Y008048D01*
X006963Y008086D01*
X006950Y008123D01*
X006933Y008159D01*
X006913Y008192D01*
X006889Y008224D01*
X006863Y008253D01*
X006834Y008279D01*
X006802Y008303D01*
X006769Y008323D01*
X006733Y008340D01*
X006696Y008353D01*
X006658Y008362D01*
X006619Y008368D01*
X006580Y008370D01*
X006580Y009120D01*
X014580Y009120D01*
X016705Y011960D02*
X016705Y012150D01*
X016945Y012200D01*
X016959Y012178D02*
X017284Y012178D01*
X017255Y012120D02*
X017255Y011920D01*
X017405Y011770D01*
X017705Y011770D01*
X017805Y011920D01*
X018055Y011770D01*
X018055Y011720D01*
X018155Y011570D01*
X018055Y011470D01*
X017905Y011570D01*
X017655Y011470D01*
X017605Y011270D01*
X017455Y011270D01*
X017455Y011470D01*
X017205Y011570D01*
X017005Y011420D01*
X016905Y011570D01*
X017055Y011720D01*
X016955Y011920D01*
X016755Y011970D01*
X016755Y012120D01*
X016955Y012170D01*
X017055Y012370D01*
X016905Y012570D01*
X017005Y012670D01*
X017205Y012570D01*
X017455Y012670D01*
X017455Y012870D01*
X017605Y012870D01*
X017655Y012620D01*
X017905Y012570D01*
X018055Y012670D01*
X018155Y012570D01*
X018055Y012420D01*
X018105Y012320D01*
X017805Y012220D01*
X017605Y012370D01*
X017355Y012320D01*
X017255Y012120D01*
X016755Y012120D01*
X016755Y012061D02*
X017255Y012061D01*
X017255Y012003D02*
X016755Y012003D01*
X016705Y011960D02*
X016945Y011910D01*
X016972Y011886D02*
X017289Y011886D01*
X017255Y011944D02*
X016859Y011944D01*
X017001Y011827D02*
X017348Y011827D01*
X017701Y011442D02*
X017748Y011457D01*
X017794Y011475D01*
X017838Y011497D01*
X017880Y011522D01*
X017885Y011520D02*
X018065Y011400D01*
X018205Y011540D01*
X018085Y011720D01*
X018125Y011790D01*
X017785Y011940D01*
X017782Y011886D02*
X017862Y011886D01*
X017960Y011827D02*
X017743Y011827D01*
X017019Y011732D02*
X016996Y011774D01*
X016977Y011817D01*
X016960Y011862D01*
X016948Y011908D01*
X017031Y011769D02*
X018055Y011769D01*
X018062Y011710D02*
X017045Y011710D01*
X017015Y011730D02*
X016885Y011540D01*
X017025Y011400D01*
X017215Y011530D01*
X017158Y011535D02*
X016929Y011535D01*
X016928Y011593D02*
X018140Y011593D01*
X018120Y011535D02*
X017958Y011535D01*
X018046Y011476D02*
X018061Y011476D01*
X018101Y011652D02*
X016987Y011652D01*
X016968Y011476D02*
X017080Y011476D01*
X017294Y011535D02*
X017816Y011535D01*
X017670Y011476D02*
X017440Y011476D01*
X017405Y011450D02*
X017445Y011220D01*
X017645Y011220D01*
X017685Y011440D01*
X017642Y011418D02*
X017455Y011418D01*
X017455Y011359D02*
X017627Y011359D01*
X017613Y011301D02*
X017455Y011301D01*
X017883Y012589D02*
X017846Y012611D01*
X017807Y012630D01*
X017767Y012646D01*
X017726Y012659D01*
X017684Y012669D01*
X017685Y012670D02*
X017645Y012890D01*
X017445Y012890D01*
X017405Y012670D01*
X017395Y012646D02*
X017650Y012646D01*
X017638Y012705D02*
X017455Y012705D01*
X017455Y012763D02*
X017626Y012763D01*
X017615Y012822D02*
X017455Y012822D01*
X017249Y012588D02*
X017817Y012588D01*
X017885Y012590D02*
X018065Y012720D01*
X018205Y012580D01*
X018085Y012400D01*
X018125Y012320D01*
X017785Y012180D01*
X017783Y012237D02*
X017855Y012237D01*
X017705Y012295D02*
X018030Y012295D01*
X018088Y012354D02*
X017627Y012354D01*
X017523Y012354D02*
X017047Y012354D01*
X017015Y012380D02*
X016885Y012580D01*
X017025Y012720D01*
X017215Y012580D01*
X017170Y012588D02*
X016923Y012588D01*
X016936Y012529D02*
X018128Y012529D01*
X018137Y012588D02*
X017931Y012588D01*
X018019Y012646D02*
X018079Y012646D01*
X018089Y012471D02*
X016980Y012471D01*
X017023Y012412D02*
X018059Y012412D01*
X017405Y012672D02*
X017365Y012660D01*
X017326Y012645D01*
X017288Y012627D01*
X017252Y012607D01*
X017217Y012585D01*
X017053Y012646D02*
X016981Y012646D01*
X017018Y012295D02*
X017343Y012295D01*
X017313Y012237D02*
X016988Y012237D01*
X017785Y012180D02*
X017769Y012208D01*
X017750Y012235D01*
X017728Y012258D01*
X017703Y012279D01*
X017675Y012297D01*
X017646Y012312D01*
X017615Y012322D01*
X017584Y012330D01*
X017551Y012333D01*
X017519Y012332D01*
X017486Y012328D01*
X017455Y012319D01*
X017425Y012307D01*
X017396Y012292D01*
X017369Y012273D01*
X017345Y012251D01*
X017324Y012227D01*
X017305Y012200D01*
X017290Y012171D01*
X017279Y012140D01*
X017271Y012109D01*
X017267Y012076D01*
X017267Y012044D01*
X017271Y012011D01*
X017279Y011980D01*
X017290Y011949D01*
X017305Y011920D01*
X017324Y011893D01*
X017345Y011869D01*
X017369Y011847D01*
X017396Y011828D01*
X017425Y011813D01*
X017455Y011801D01*
X017486Y011792D01*
X017519Y011788D01*
X017551Y011787D01*
X017584Y011790D01*
X017615Y011798D01*
X017646Y011808D01*
X017675Y011823D01*
X017703Y011841D01*
X017728Y011862D01*
X017750Y011885D01*
X017769Y011912D01*
X017785Y011940D01*
X017403Y011448D02*
X017363Y011459D01*
X017324Y011473D01*
X017287Y011489D01*
X017250Y011508D01*
X017215Y011529D01*
X016944Y012200D02*
X016956Y012246D01*
X016972Y012292D01*
X016992Y012336D01*
X017015Y012379D01*
X016230Y013420D02*
X016230Y015020D01*
X016228Y015037D01*
X016224Y015054D01*
X016217Y015070D01*
X016207Y015084D01*
X016194Y015097D01*
X016180Y015107D01*
X016164Y015114D01*
X016147Y015118D01*
X016130Y015120D01*
X015530Y015120D01*
X015513Y015118D01*
X015496Y015114D01*
X015480Y015107D01*
X015466Y015097D01*
X015453Y015084D01*
X015443Y015070D01*
X015436Y015054D01*
X015432Y015037D01*
X015430Y015020D01*
X015430Y013420D01*
X015432Y013403D01*
X015436Y013386D01*
X015443Y013370D01*
X015453Y013356D01*
X015466Y013343D01*
X015480Y013333D01*
X015496Y013326D01*
X015513Y013322D01*
X015530Y013320D01*
X016130Y013320D01*
X016147Y013322D01*
X016164Y013326D01*
X016180Y013333D01*
X016194Y013343D01*
X016207Y013356D01*
X016217Y013370D01*
X016224Y013386D01*
X016228Y013403D01*
X016230Y013420D01*
X015830Y013970D02*
X015830Y014220D01*
X016080Y014220D01*
X015830Y014220D02*
X015580Y014220D01*
X015830Y014220D02*
X015580Y014620D01*
X016080Y014620D01*
X015830Y014220D01*
X015830Y014820D01*
X015330Y016495D02*
X015283Y016497D01*
X015235Y016503D01*
X015189Y016512D01*
X015143Y016525D01*
X015099Y016541D01*
X015055Y016562D01*
X015014Y016585D01*
X014975Y016611D01*
X014938Y016641D01*
X014903Y016674D01*
X014871Y016709D01*
X014842Y016746D01*
X015330Y017695D02*
X015375Y017693D01*
X015421Y017688D01*
X015465Y017680D01*
X015509Y017668D01*
X015552Y017652D01*
X015594Y017634D01*
X015634Y017612D01*
X015672Y017588D01*
X015708Y017561D01*
X015743Y017531D01*
X015774Y017498D01*
X015804Y017463D01*
X015330Y017695D02*
X015285Y017693D01*
X015239Y017688D01*
X015195Y017680D01*
X015151Y017668D01*
X015108Y017652D01*
X015066Y017634D01*
X015026Y017612D01*
X014988Y017588D01*
X014952Y017561D01*
X014917Y017531D01*
X014886Y017498D01*
X014856Y017463D01*
X015330Y016495D02*
X015376Y016497D01*
X015422Y016502D01*
X015468Y016511D01*
X015513Y016523D01*
X015556Y016539D01*
X015598Y016558D01*
X015639Y016581D01*
X015678Y016606D01*
X015714Y016634D01*
X015749Y016665D01*
X015781Y016699D01*
X015810Y016735D01*
X013730Y027395D02*
X013580Y027395D01*
X013530Y027445D01*
X011630Y027445D01*
X011580Y027395D01*
X011430Y027395D01*
X011413Y027397D01*
X011396Y027401D01*
X011380Y027408D01*
X011366Y027418D01*
X011353Y027431D01*
X011343Y027445D01*
X011336Y027461D01*
X011332Y027478D01*
X011330Y027495D01*
X011330Y028195D02*
X011332Y028212D01*
X011336Y028229D01*
X011343Y028245D01*
X011353Y028259D01*
X011366Y028272D01*
X011380Y028282D01*
X011396Y028289D01*
X011413Y028293D01*
X011430Y028295D01*
X011580Y028295D01*
X011630Y028245D01*
X013530Y028245D01*
X013580Y028295D01*
X013730Y028295D01*
X013747Y028293D01*
X013764Y028289D01*
X013780Y028282D01*
X013794Y028272D01*
X013807Y028259D01*
X013817Y028245D01*
X013824Y028229D01*
X013828Y028212D01*
X013830Y028195D01*
X013730Y028470D02*
X012980Y028470D01*
X012978Y028509D01*
X012972Y028548D01*
X012963Y028586D01*
X012950Y028623D01*
X012933Y028659D01*
X012913Y028692D01*
X012889Y028724D01*
X012863Y028753D01*
X012834Y028779D01*
X012802Y028803D01*
X012769Y028823D01*
X012733Y028840D01*
X012696Y028853D01*
X012658Y028862D01*
X012619Y028868D01*
X012580Y028870D01*
X012541Y028868D01*
X012502Y028862D01*
X012464Y028853D01*
X012427Y028840D01*
X012391Y028823D01*
X012358Y028803D01*
X012326Y028779D01*
X012297Y028753D01*
X012271Y028724D01*
X012247Y028692D01*
X012227Y028659D01*
X012210Y028623D01*
X012197Y028586D01*
X012188Y028548D01*
X012182Y028509D01*
X012180Y028470D01*
X011430Y028470D01*
X011430Y032470D01*
X013730Y032470D01*
X013730Y028470D01*
X013830Y027495D02*
X013828Y027478D01*
X013824Y027461D01*
X013817Y027445D01*
X013807Y027431D01*
X013794Y027418D01*
X013780Y027408D01*
X013764Y027401D01*
X013747Y027397D01*
X013730Y027395D01*
X010280Y027345D02*
X010280Y028345D01*
X010278Y028362D01*
X010274Y028379D01*
X010267Y028395D01*
X010257Y028409D01*
X010244Y028422D01*
X010230Y028432D01*
X010214Y028439D01*
X010197Y028443D01*
X010180Y028445D01*
X007480Y028445D01*
X007463Y028443D01*
X007446Y028439D01*
X007430Y028432D01*
X007416Y028422D01*
X007403Y028409D01*
X007393Y028395D01*
X007386Y028379D01*
X007382Y028362D01*
X007380Y028345D01*
X007380Y027345D01*
X007382Y027328D01*
X007386Y027311D01*
X007393Y027295D01*
X007403Y027281D01*
X007416Y027268D01*
X007430Y027258D01*
X007446Y027251D01*
X007463Y027247D01*
X007480Y027245D01*
X010180Y027245D01*
X010197Y027247D01*
X010214Y027251D01*
X010230Y027258D01*
X010244Y027268D01*
X010257Y027281D01*
X010267Y027295D01*
X010274Y027311D01*
X010278Y027328D01*
X010280Y027345D01*
X009430Y027845D02*
X008950Y027845D01*
X008700Y027845D02*
X008230Y027845D01*
X008830Y028645D02*
X008830Y028945D01*
X008980Y028795D02*
X008680Y028795D01*
X007480Y029845D02*
X007482Y029918D01*
X007488Y029991D01*
X007498Y030063D01*
X007512Y030135D01*
X007529Y030206D01*
X007551Y030276D01*
X007576Y030345D01*
X007605Y030412D01*
X007637Y030477D01*
X007673Y030541D01*
X007713Y030603D01*
X007755Y030662D01*
X007801Y030719D01*
X007850Y030773D01*
X007902Y030825D01*
X007956Y030874D01*
X008013Y030920D01*
X008072Y030962D01*
X008134Y031002D01*
X008198Y031038D01*
X008263Y031070D01*
X008330Y031099D01*
X008399Y031124D01*
X008469Y031146D01*
X008540Y031163D01*
X008612Y031177D01*
X008684Y031187D01*
X008757Y031193D01*
X008830Y031195D01*
X008903Y031193D01*
X008976Y031187D01*
X009048Y031177D01*
X009120Y031163D01*
X009191Y031146D01*
X009261Y031124D01*
X009330Y031099D01*
X009397Y031070D01*
X009462Y031038D01*
X009526Y031002D01*
X009588Y030962D01*
X009647Y030920D01*
X009704Y030874D01*
X009758Y030825D01*
X009810Y030773D01*
X009859Y030719D01*
X009905Y030662D01*
X009947Y030603D01*
X009987Y030541D01*
X010023Y030477D01*
X010055Y030412D01*
X010084Y030345D01*
X010109Y030276D01*
X010131Y030206D01*
X010148Y030135D01*
X010162Y030063D01*
X010172Y029991D01*
X010178Y029918D01*
X010180Y029845D01*
X010178Y029772D01*
X010172Y029699D01*
X010162Y029627D01*
X010148Y029555D01*
X010131Y029484D01*
X010109Y029414D01*
X010084Y029345D01*
X010055Y029278D01*
X010023Y029213D01*
X009987Y029149D01*
X009947Y029087D01*
X009905Y029028D01*
X009859Y028971D01*
X009810Y028917D01*
X009758Y028865D01*
X009704Y028816D01*
X009647Y028770D01*
X009588Y028728D01*
X009526Y028688D01*
X009462Y028652D01*
X009397Y028620D01*
X009330Y028591D01*
X009261Y028566D01*
X009191Y028544D01*
X009120Y028527D01*
X009048Y028513D01*
X008976Y028503D01*
X008903Y028497D01*
X008830Y028495D01*
X008757Y028497D01*
X008684Y028503D01*
X008612Y028513D01*
X008540Y028527D01*
X008469Y028544D01*
X008399Y028566D01*
X008330Y028591D01*
X008263Y028620D01*
X008198Y028652D01*
X008134Y028688D01*
X008072Y028728D01*
X008013Y028770D01*
X007956Y028816D01*
X007902Y028865D01*
X007850Y028917D01*
X007801Y028971D01*
X007755Y029028D01*
X007713Y029087D01*
X007673Y029149D01*
X007637Y029213D01*
X007605Y029278D01*
X007576Y029345D01*
X007551Y029414D01*
X007529Y029484D01*
X007512Y029555D01*
X007498Y029627D01*
X007488Y029699D01*
X007482Y029772D01*
X007480Y029845D01*
X007480Y031245D02*
X010180Y031245D01*
X010197Y031247D01*
X010214Y031251D01*
X010230Y031258D01*
X010244Y031268D01*
X010257Y031281D01*
X010267Y031295D01*
X010274Y031311D01*
X010278Y031328D01*
X010280Y031345D01*
X010280Y032345D01*
X010278Y032362D01*
X010274Y032379D01*
X010267Y032395D01*
X010257Y032409D01*
X010244Y032422D01*
X010230Y032432D01*
X010214Y032439D01*
X010197Y032443D01*
X010180Y032445D01*
X007480Y032445D01*
X007463Y032443D01*
X007446Y032439D01*
X007430Y032432D01*
X007416Y032422D01*
X007403Y032409D01*
X007393Y032395D01*
X007386Y032379D01*
X007382Y032362D01*
X007380Y032345D01*
X007380Y031345D01*
X007382Y031328D01*
X007386Y031311D01*
X007393Y031295D01*
X007403Y031281D01*
X007416Y031268D01*
X007430Y031258D01*
X007446Y031251D01*
X007463Y031247D01*
X007480Y031245D01*
X007130Y032145D02*
X005830Y032145D01*
X005080Y032145D02*
X001530Y032145D01*
X001530Y031045D01*
X001530Y028645D01*
X000330Y028645D01*
X000330Y031045D01*
X000130Y030845D01*
X000130Y028845D01*
X000330Y028645D01*
X001530Y028645D02*
X001530Y027545D01*
X003230Y027545D01*
X004080Y027545D02*
X007130Y027545D01*
X007130Y032145D01*
X008230Y031845D02*
X008700Y031845D01*
X008950Y031845D02*
X009430Y031845D01*
X001530Y031045D02*
X000330Y031045D01*
X002080Y015370D02*
X002080Y013070D01*
X006080Y013070D01*
X006080Y013820D01*
X006041Y013822D01*
X006002Y013828D01*
X005964Y013837D01*
X005927Y013850D01*
X005891Y013867D01*
X005858Y013887D01*
X005826Y013911D01*
X005797Y013937D01*
X005771Y013966D01*
X005747Y013998D01*
X005727Y014031D01*
X005710Y014067D01*
X005697Y014104D01*
X005688Y014142D01*
X005682Y014181D01*
X005680Y014220D01*
X005682Y014259D01*
X005688Y014298D01*
X005697Y014336D01*
X005710Y014373D01*
X005727Y014409D01*
X005747Y014442D01*
X005771Y014474D01*
X005797Y014503D01*
X005826Y014529D01*
X005858Y014553D01*
X005891Y014573D01*
X005927Y014590D01*
X005964Y014603D01*
X006002Y014612D01*
X006041Y014618D01*
X006080Y014620D01*
X006080Y015370D01*
X002080Y015370D01*
X001455Y010970D02*
X001455Y009470D01*
X001505Y009470D01*
X001505Y008970D01*
X001455Y008970D01*
X001455Y008770D01*
X001855Y008770D01*
X001955Y008770D01*
X001955Y010470D01*
X004455Y010470D01*
X004455Y005470D01*
X001955Y005470D01*
X001955Y007170D01*
X001855Y007170D01*
X001455Y007170D01*
X001455Y008770D01*
X001955Y008770D02*
X002255Y008770D01*
X002255Y007170D01*
X001955Y007170D01*
X001455Y007170D02*
X001455Y004970D01*
X004955Y004970D01*
X004955Y005470D01*
X005055Y005470D01*
X005055Y005970D01*
X004955Y005970D01*
X004955Y007720D01*
X005055Y007720D01*
X005055Y008220D01*
X004955Y008220D01*
X004955Y009970D01*
X005055Y009970D01*
X005055Y010470D01*
X004955Y010470D01*
X004955Y010970D01*
X001455Y010970D01*
X005230Y009320D02*
X005230Y006620D01*
X005232Y006603D01*
X005236Y006586D01*
X005243Y006570D01*
X005253Y006556D01*
X005266Y006543D01*
X005280Y006533D01*
X005296Y006526D01*
X005313Y006522D01*
X005330Y006520D01*
X006330Y006520D01*
X006347Y006522D01*
X006364Y006526D01*
X006380Y006533D01*
X006394Y006543D01*
X006407Y006556D01*
X006417Y006570D01*
X006424Y006586D01*
X006428Y006603D01*
X006430Y006620D01*
X006430Y009320D01*
X006428Y009337D01*
X006424Y009354D01*
X006417Y009370D01*
X006407Y009384D01*
X006394Y009397D01*
X006380Y009407D01*
X006364Y009414D01*
X006347Y009418D01*
X006330Y009420D01*
X005330Y009420D01*
X005313Y009418D01*
X005296Y009414D01*
X005280Y009407D01*
X005266Y009397D01*
X005253Y009384D01*
X005243Y009370D01*
X005236Y009354D01*
X005232Y009337D01*
X005230Y009320D01*
X005830Y008570D02*
X005830Y008090D01*
X005830Y007840D02*
X005830Y007370D01*
X008280Y005845D02*
X008280Y004845D01*
X009880Y004845D01*
X009880Y005845D01*
X008280Y005845D01*
X008480Y005345D02*
X009080Y005345D01*
X009080Y005595D01*
X009080Y005345D02*
X009080Y005095D01*
X009080Y005345D02*
X008680Y005095D01*
X008680Y005595D01*
X009080Y005345D01*
X009330Y005345D01*
X007468Y002382D02*
X007468Y000808D01*
X012192Y000808D01*
X012192Y002382D01*
X007468Y002382D01*
X008885Y002067D02*
X008885Y001123D01*
X010775Y001123D01*
X010775Y002067D01*
X008885Y002067D01*
X012830Y005295D02*
X013030Y005295D01*
X012930Y005195D02*
X012930Y005395D01*
X012330Y004595D02*
X012332Y004658D01*
X012338Y004720D01*
X012348Y004782D01*
X012361Y004844D01*
X012379Y004904D01*
X012400Y004963D01*
X012425Y005021D01*
X012454Y005077D01*
X012486Y005131D01*
X012521Y005183D01*
X012559Y005232D01*
X012601Y005280D01*
X012645Y005324D01*
X012693Y005366D01*
X012742Y005404D01*
X012794Y005439D01*
X012848Y005471D01*
X012904Y005500D01*
X012962Y005525D01*
X013021Y005546D01*
X013081Y005564D01*
X013143Y005577D01*
X013205Y005587D01*
X013267Y005593D01*
X013330Y005595D01*
X013393Y005593D01*
X013455Y005587D01*
X013517Y005577D01*
X013579Y005564D01*
X013639Y005546D01*
X013698Y005525D01*
X013756Y005500D01*
X013812Y005471D01*
X013866Y005439D01*
X013918Y005404D01*
X013967Y005366D01*
X014015Y005324D01*
X014059Y005280D01*
X014101Y005232D01*
X014139Y005183D01*
X014174Y005131D01*
X014206Y005077D01*
X014235Y005021D01*
X014260Y004963D01*
X014281Y004904D01*
X014299Y004844D01*
X014312Y004782D01*
X014322Y004720D01*
X014328Y004658D01*
X014330Y004595D01*
X014328Y004532D01*
X014322Y004470D01*
X014312Y004408D01*
X014299Y004346D01*
X014281Y004286D01*
X014260Y004227D01*
X014235Y004169D01*
X014206Y004113D01*
X014174Y004059D01*
X014139Y004007D01*
X014101Y003958D01*
X014059Y003910D01*
X014015Y003866D01*
X013967Y003824D01*
X013918Y003786D01*
X013866Y003751D01*
X013812Y003719D01*
X013756Y003690D01*
X013698Y003665D01*
X013639Y003644D01*
X013579Y003626D01*
X013517Y003613D01*
X013455Y003603D01*
X013393Y003597D01*
X013330Y003595D01*
X013267Y003597D01*
X013205Y003603D01*
X013143Y003613D01*
X013081Y003626D01*
X013021Y003644D01*
X012962Y003665D01*
X012904Y003690D01*
X012848Y003719D01*
X012794Y003751D01*
X012742Y003786D01*
X012693Y003824D01*
X012645Y003866D01*
X012601Y003910D01*
X012559Y003958D01*
X012521Y004007D01*
X012486Y004059D01*
X012454Y004113D01*
X012425Y004169D01*
X012400Y004227D01*
X012379Y004286D01*
X012361Y004346D01*
X012348Y004408D01*
X012338Y004470D01*
X012332Y004532D01*
X012330Y004595D01*
D16*
X006080Y007840D02*
X005830Y007840D01*
X005580Y007840D01*
X005580Y008090D02*
X005830Y008090D01*
X006080Y008090D01*
X008700Y027595D02*
X008700Y027845D01*
X008700Y028095D01*
X008950Y028095D02*
X008950Y027845D01*
X008950Y027595D01*
X008950Y031595D02*
X008950Y031845D01*
X008950Y032095D01*
X008700Y032095D02*
X008700Y031845D01*
X008700Y031595D01*
D17*
X002080Y023095D02*
X002080Y022095D01*
X001580Y022095D01*
X001580Y019095D01*
X015580Y019095D01*
X015580Y026095D01*
X001580Y026095D01*
X001580Y023095D01*
X002080Y023095D01*
X001529Y026140D02*
X001529Y027050D01*
X015631Y027050D01*
X015631Y026140D01*
X001529Y026140D01*
X001529Y019050D02*
X015631Y019050D01*
X015631Y018140D01*
X001529Y018140D01*
X001529Y019050D01*
X001361Y004788D02*
X006990Y004788D01*
X006990Y004158D01*
X006990Y002032D02*
X006990Y001402D01*
X006361Y001402D01*
X004490Y001402D02*
X001361Y001402D01*
X001361Y004788D01*
X014955Y030595D02*
X014957Y030681D01*
X014963Y030767D01*
X014973Y030852D01*
X014986Y030937D01*
X015004Y031021D01*
X015026Y031104D01*
X015051Y031187D01*
X015080Y031268D01*
X015112Y031347D01*
X015149Y031425D01*
X015189Y031501D01*
X015232Y031576D01*
X015278Y031648D01*
X015328Y031718D01*
X015381Y031786D01*
X015438Y031851D01*
X015497Y031913D01*
X015558Y031973D01*
X015623Y032030D01*
X015690Y032084D01*
X015759Y032134D01*
X015831Y032182D01*
X015905Y032226D01*
X015981Y032267D01*
X016058Y032304D01*
X016137Y032337D01*
X016218Y032367D01*
X016300Y032393D01*
X016383Y032416D01*
X016467Y032434D01*
X016552Y032449D01*
X016637Y032460D01*
X016723Y032467D01*
X016809Y032470D01*
X016894Y032469D01*
X016980Y032464D01*
X017066Y032455D01*
X017151Y032442D01*
X017235Y032426D01*
X017319Y032405D01*
X017401Y032381D01*
X017482Y032353D01*
X017562Y032321D01*
X017641Y032286D01*
X017717Y032247D01*
X017792Y032204D01*
X017865Y032158D01*
X017936Y032109D01*
X018004Y032057D01*
X018070Y032002D01*
X018133Y031943D01*
X018193Y031882D01*
X018251Y031818D01*
X018305Y031752D01*
X018357Y031683D01*
X018405Y031612D01*
X018450Y031539D01*
X018492Y031463D01*
X018530Y031386D01*
X018564Y031308D01*
X018595Y031227D01*
X018622Y031146D01*
X018646Y031063D01*
X018665Y030979D01*
X018681Y030895D01*
X018693Y030810D01*
X018701Y030724D01*
X018705Y030638D01*
X018705Y030552D01*
X018701Y030466D01*
X018693Y030380D01*
X018681Y030295D01*
X018665Y030211D01*
X018646Y030127D01*
X018622Y030044D01*
X018595Y029963D01*
X018564Y029882D01*
X018530Y029804D01*
X018492Y029727D01*
X018450Y029651D01*
X018405Y029578D01*
X018357Y029507D01*
X018305Y029438D01*
X018251Y029372D01*
X018193Y029308D01*
X018133Y029247D01*
X018070Y029188D01*
X018004Y029133D01*
X017936Y029081D01*
X017865Y029032D01*
X017792Y028986D01*
X017717Y028943D01*
X017641Y028904D01*
X017562Y028869D01*
X017482Y028837D01*
X017401Y028809D01*
X017319Y028785D01*
X017235Y028764D01*
X017151Y028748D01*
X017066Y028735D01*
X016980Y028726D01*
X016894Y028721D01*
X016809Y028720D01*
X016723Y028723D01*
X016637Y028730D01*
X016552Y028741D01*
X016467Y028756D01*
X016383Y028774D01*
X016300Y028797D01*
X016218Y028823D01*
X016137Y028853D01*
X016058Y028886D01*
X015981Y028923D01*
X015905Y028964D01*
X015831Y029008D01*
X015759Y029056D01*
X015690Y029106D01*
X015623Y029160D01*
X015558Y029217D01*
X015497Y029277D01*
X015438Y029339D01*
X015381Y029404D01*
X015328Y029472D01*
X015278Y029542D01*
X015232Y029614D01*
X015189Y029689D01*
X015149Y029765D01*
X015112Y029843D01*
X015080Y029922D01*
X015051Y030003D01*
X015026Y030086D01*
X015004Y030169D01*
X014986Y030253D01*
X014973Y030338D01*
X014963Y030423D01*
X014957Y030509D01*
X014955Y030595D01*
D18*
X016036Y016719D02*
X016009Y016672D01*
X015979Y016627D01*
X015946Y016584D01*
X015910Y016544D01*
X015871Y016506D01*
X015830Y016471D01*
X015787Y016438D01*
X015742Y016409D01*
X015694Y016383D01*
X015645Y016360D01*
X015595Y016340D01*
X015544Y016324D01*
X015491Y016311D01*
X015438Y016302D01*
X015384Y016297D01*
X015330Y016295D01*
X016025Y017492D02*
X015995Y017540D01*
X015962Y017585D01*
X015926Y017628D01*
X015888Y017669D01*
X015846Y017706D01*
X015802Y017741D01*
X015756Y017772D01*
X015707Y017801D01*
X015657Y017825D01*
X015605Y017846D01*
X015551Y017864D01*
X015497Y017877D01*
X015442Y017887D01*
X015386Y017893D01*
X015330Y017895D01*
X015277Y017893D01*
X015223Y017888D01*
X015171Y017879D01*
X015119Y017867D01*
X015068Y017851D01*
X015018Y017832D01*
X014969Y017809D01*
X014922Y017783D01*
X014877Y017755D01*
X014834Y017723D01*
X014794Y017689D01*
X014755Y017651D01*
X014719Y017612D01*
X014715Y016583D02*
X014751Y016543D01*
X014790Y016505D01*
X014831Y016470D01*
X014874Y016438D01*
X014919Y016408D01*
X014966Y016382D01*
X015015Y016360D01*
X015066Y016340D01*
X015117Y016324D01*
X015169Y016311D01*
X015223Y016302D01*
X015276Y016297D01*
X015330Y016295D01*
X009732Y001989D02*
X008944Y001989D01*
X008944Y001201D01*
X009732Y001201D01*
X009732Y001989D01*
D19*
X009830Y002995D03*
D20*
X008105Y003245D03*
X011555Y003245D03*
D21*
X010330Y003245D03*
X009330Y003245D03*
D22*
X004555Y005370D02*
X004555Y010570D01*
X001855Y010570D01*
X001855Y008770D01*
X001855Y007170D02*
X001855Y005370D01*
X004555Y005370D01*
X015355Y005370D02*
X018055Y005370D01*
X018055Y007170D01*
X018055Y008770D02*
X018055Y010570D01*
X015355Y010570D01*
X015355Y005370D01*
D23*
X009630Y005345D03*
D24*
X010255Y005345D03*
X007905Y005345D03*
D25*
X015830Y013570D03*
D26*
X015830Y013195D03*
X015830Y015245D03*
M02*
