G75*
%MOIN*%
%OFA0B0*%
%FSLAX24Y24*%
%IPPOS*%
%LPD*%
%AMOC8*
5,1,8,0,0,1.08239X$1,22.5*
%
%ADD10C,0.0160*%
%ADD11C,0.0000*%
%ADD12R,0.0630X0.0460*%
D10*
X001330Y000595D02*
X001330Y032466D01*
X018575Y032466D01*
X018575Y000595D01*
X001330Y000595D01*
D11*
X009200Y021845D02*
X009202Y021895D01*
X009208Y021945D01*
X009218Y021994D01*
X009232Y022042D01*
X009249Y022089D01*
X009270Y022134D01*
X009295Y022178D01*
X009323Y022219D01*
X009355Y022258D01*
X009389Y022295D01*
X009426Y022329D01*
X009466Y022359D01*
X009508Y022386D01*
X009552Y022410D01*
X009598Y022431D01*
X009645Y022447D01*
X009693Y022460D01*
X009743Y022469D01*
X009792Y022474D01*
X009843Y022475D01*
X009893Y022472D01*
X009942Y022465D01*
X009991Y022454D01*
X010039Y022439D01*
X010085Y022421D01*
X010130Y022399D01*
X010173Y022373D01*
X010214Y022344D01*
X010253Y022312D01*
X010289Y022277D01*
X010321Y022239D01*
X010351Y022199D01*
X010378Y022156D01*
X010401Y022112D01*
X010420Y022066D01*
X010436Y022018D01*
X010448Y021969D01*
X010456Y021920D01*
X010460Y021870D01*
X010460Y021820D01*
X010456Y021770D01*
X010448Y021721D01*
X010436Y021672D01*
X010420Y021624D01*
X010401Y021578D01*
X010378Y021534D01*
X010351Y021491D01*
X010321Y021451D01*
X010289Y021413D01*
X010253Y021378D01*
X010214Y021346D01*
X010173Y021317D01*
X010130Y021291D01*
X010085Y021269D01*
X010039Y021251D01*
X009991Y021236D01*
X009942Y021225D01*
X009893Y021218D01*
X009843Y021215D01*
X009792Y021216D01*
X009743Y021221D01*
X009693Y021230D01*
X009645Y021243D01*
X009598Y021259D01*
X009552Y021280D01*
X009508Y021304D01*
X009466Y021331D01*
X009426Y021361D01*
X009389Y021395D01*
X009355Y021432D01*
X009323Y021471D01*
X009295Y021512D01*
X009270Y021556D01*
X009249Y021601D01*
X009232Y021648D01*
X009218Y021696D01*
X009208Y021745D01*
X009202Y021795D01*
X009200Y021845D01*
X016700Y001845D02*
X016702Y001895D01*
X016708Y001945D01*
X016718Y001994D01*
X016732Y002042D01*
X016749Y002089D01*
X016770Y002134D01*
X016795Y002178D01*
X016823Y002219D01*
X016855Y002258D01*
X016889Y002295D01*
X016926Y002329D01*
X016966Y002359D01*
X017008Y002386D01*
X017052Y002410D01*
X017098Y002431D01*
X017145Y002447D01*
X017193Y002460D01*
X017243Y002469D01*
X017292Y002474D01*
X017343Y002475D01*
X017393Y002472D01*
X017442Y002465D01*
X017491Y002454D01*
X017539Y002439D01*
X017585Y002421D01*
X017630Y002399D01*
X017673Y002373D01*
X017714Y002344D01*
X017753Y002312D01*
X017789Y002277D01*
X017821Y002239D01*
X017851Y002199D01*
X017878Y002156D01*
X017901Y002112D01*
X017920Y002066D01*
X017936Y002018D01*
X017948Y001969D01*
X017956Y001920D01*
X017960Y001870D01*
X017960Y001820D01*
X017956Y001770D01*
X017948Y001721D01*
X017936Y001672D01*
X017920Y001624D01*
X017901Y001578D01*
X017878Y001534D01*
X017851Y001491D01*
X017821Y001451D01*
X017789Y001413D01*
X017753Y001378D01*
X017714Y001346D01*
X017673Y001317D01*
X017630Y001291D01*
X017585Y001269D01*
X017539Y001251D01*
X017491Y001236D01*
X017442Y001225D01*
X017393Y001218D01*
X017343Y001215D01*
X017292Y001216D01*
X017243Y001221D01*
X017193Y001230D01*
X017145Y001243D01*
X017098Y001259D01*
X017052Y001280D01*
X017008Y001304D01*
X016966Y001331D01*
X016926Y001361D01*
X016889Y001395D01*
X016855Y001432D01*
X016823Y001471D01*
X016795Y001512D01*
X016770Y001556D01*
X016749Y001601D01*
X016732Y001648D01*
X016718Y001696D01*
X016708Y001745D01*
X016702Y001795D01*
X016700Y001845D01*
D12*
X010830Y011920D03*
X010830Y012520D03*
M02*
