G75*
G70*
%OFA0B0*%
%FSLAX24Y24*%
%IPPOS*%
%LPD*%
%AMOC8*
5,1,8,0,0,1.08239X$1,22.5*
%
%ADD10C,0.0160*%
%ADD11C,0.0000*%
%ADD12OC8,0.0480*%
%ADD13OC8,0.0885*%
%ADD14C,0.0885*%
%ADD15C,0.0480*%
%ADD16OC8,0.0630*%
%ADD17C,0.0630*%
%ADD18OC8,0.0500*%
%ADD19C,0.0500*%
%ADD20C,0.0780*%
%ADD21R,0.0480X0.0480*%
%ADD22C,0.0570*%
%ADD23C,0.0787*%
%ADD24C,0.0600*%
%ADD25OC8,0.0540*%
%ADD26C,0.0591*%
%ADD27OC8,0.0850*%
%ADD28OC8,0.0591*%
%ADD29C,0.0240*%
%ADD30R,0.0356X0.0356*%
D10*
X000970Y000595D02*
X000970Y021216D01*
X020840Y021216D01*
X020840Y000595D01*
X000970Y000595D01*
X003220Y004595D02*
X002845Y004970D01*
X002845Y005720D01*
X003845Y005720D02*
X003845Y005220D01*
X004095Y004970D01*
X006970Y004970D01*
X008720Y003220D01*
X008845Y003220D01*
X008970Y003345D01*
X011970Y003345D01*
X012220Y003595D01*
X011720Y004095D02*
X017970Y004095D01*
X018845Y003220D01*
X020095Y003220D01*
X019845Y001470D02*
X017720Y003595D01*
X016220Y003595D01*
X016220Y004595D02*
X016595Y004970D01*
X018345Y004970D01*
X019345Y006720D02*
X019720Y006720D01*
X020220Y007220D01*
X020220Y011720D01*
X019595Y013095D02*
X017595Y013095D01*
X016845Y013695D02*
X016845Y012345D01*
X016220Y011720D01*
X016220Y012595D02*
X016220Y013720D01*
X015220Y014720D01*
X015570Y015220D02*
X014720Y015220D01*
X014345Y014845D01*
X014345Y011470D01*
X014095Y011220D01*
X005095Y011220D01*
X004720Y010845D01*
X004720Y010220D01*
X004345Y011095D02*
X004345Y013095D01*
X004470Y013220D01*
X004470Y015470D01*
X003970Y015970D01*
X003970Y016845D01*
X004970Y016845D02*
X004970Y020095D01*
X005220Y020345D01*
X006720Y020345D01*
X006970Y020095D01*
X006970Y019220D01*
X007470Y018720D01*
X007970Y019220D02*
X007970Y016845D01*
X007470Y015970D02*
X006970Y015470D01*
X005470Y015470D01*
X005220Y014720D02*
X004970Y014470D01*
X004970Y013845D01*
X005220Y014720D02*
X007345Y014720D01*
X008470Y015970D01*
X008470Y019470D01*
X009720Y020720D01*
X013220Y020720D01*
X013720Y020220D01*
X013720Y019720D01*
X013220Y020095D02*
X013220Y019220D01*
X013720Y018720D01*
X013220Y020095D02*
X012970Y020345D01*
X010220Y020345D01*
X009595Y019720D01*
X009470Y016095D01*
X007970Y014595D01*
X007970Y013845D01*
X007845Y012720D02*
X007845Y011720D01*
X008845Y011720D02*
X008845Y012720D01*
X009845Y012720D02*
X009845Y011720D01*
X010845Y011720D02*
X010845Y012720D01*
X011845Y012720D02*
X011845Y011720D01*
X012845Y011720D02*
X012845Y012720D01*
X013845Y012720D02*
X013845Y011720D01*
X014845Y011720D02*
X014845Y012720D01*
X015470Y013595D02*
X015220Y013845D01*
X015470Y013595D02*
X015470Y009970D01*
X014220Y008720D01*
X012720Y008720D01*
X012220Y008220D01*
X011220Y008220D01*
X010720Y007720D01*
X010720Y007220D01*
X009720Y006470D02*
X008970Y007220D01*
X007720Y007220D01*
X006720Y007220D02*
X006720Y008220D01*
X007220Y008720D01*
X011720Y008720D01*
X012470Y009470D01*
X013970Y009470D01*
X014845Y010345D01*
X014845Y011720D01*
X016845Y013695D02*
X017370Y014220D01*
X016570Y014220D02*
X015570Y015220D01*
X014720Y016220D02*
X013220Y016220D01*
X013220Y015220D02*
X012720Y015220D01*
X011220Y016720D01*
X011220Y014720D02*
X011220Y013845D01*
X014720Y016220D02*
X015220Y016720D01*
X015720Y017220D01*
X015720Y018340D01*
X016290Y018910D01*
X018480Y016720D01*
X019720Y016720D01*
X020100Y017100D01*
X020150Y017100D01*
X019870Y014220D02*
X019845Y014195D01*
X019845Y013345D01*
X019595Y013095D01*
X018345Y010720D02*
X018345Y008845D01*
X017720Y008220D01*
X013220Y008220D01*
X012720Y007720D01*
X012720Y007220D01*
X012970Y006470D02*
X009720Y006470D01*
X009220Y006220D02*
X008970Y006470D01*
X006095Y006470D01*
X005720Y006845D01*
X005720Y007220D01*
X004845Y006470D02*
X004345Y006470D01*
X003845Y006970D01*
X003845Y010595D01*
X004345Y011095D01*
X004845Y011720D02*
X004845Y012720D01*
X005845Y012720D02*
X005845Y011720D01*
X006845Y011720D02*
X006845Y012720D01*
X007470Y015970D02*
X007470Y017720D01*
X006470Y018720D01*
X005970Y019220D02*
X005970Y017970D01*
X006470Y017470D01*
X006470Y016095D01*
X005970Y019220D02*
X006470Y019720D01*
X007470Y019720D02*
X007970Y019220D01*
X004845Y006470D02*
X005095Y006220D01*
X007220Y006220D01*
X007845Y005720D01*
X008845Y005720D02*
X009345Y005220D01*
X010970Y005220D01*
X011470Y004720D01*
X011470Y004345D01*
X011720Y004095D01*
X012220Y004595D02*
X012220Y005345D01*
X011845Y005720D01*
X012220Y006220D02*
X009220Y006220D01*
X006720Y004595D02*
X003220Y004595D01*
X006720Y004595D02*
X008470Y002845D01*
X011095Y002845D01*
X011345Y002595D01*
X012220Y001470D01*
X016220Y001470D02*
X016720Y000970D01*
X018345Y000970D01*
X018845Y001470D01*
X013845Y005720D02*
X012970Y006470D01*
X012845Y005720D02*
X012220Y006220D01*
D11*
X016840Y002220D02*
X016842Y002270D01*
X016848Y002320D01*
X016858Y002369D01*
X016872Y002417D01*
X016889Y002464D01*
X016910Y002509D01*
X016935Y002553D01*
X016963Y002594D01*
X016995Y002633D01*
X017029Y002670D01*
X017066Y002704D01*
X017106Y002734D01*
X017148Y002761D01*
X017192Y002785D01*
X017238Y002806D01*
X017285Y002822D01*
X017333Y002835D01*
X017383Y002844D01*
X017432Y002849D01*
X017483Y002850D01*
X017533Y002847D01*
X017582Y002840D01*
X017631Y002829D01*
X017679Y002814D01*
X017725Y002796D01*
X017770Y002774D01*
X017813Y002748D01*
X017854Y002719D01*
X017893Y002687D01*
X017929Y002652D01*
X017961Y002614D01*
X017991Y002574D01*
X018018Y002531D01*
X018041Y002487D01*
X018060Y002441D01*
X018076Y002393D01*
X018088Y002344D01*
X018096Y002295D01*
X018100Y002245D01*
X018100Y002195D01*
X018096Y002145D01*
X018088Y002096D01*
X018076Y002047D01*
X018060Y001999D01*
X018041Y001953D01*
X018018Y001909D01*
X017991Y001866D01*
X017961Y001826D01*
X017929Y001788D01*
X017893Y001753D01*
X017854Y001721D01*
X017813Y001692D01*
X017770Y001666D01*
X017725Y001644D01*
X017679Y001626D01*
X017631Y001611D01*
X017582Y001600D01*
X017533Y001593D01*
X017483Y001590D01*
X017432Y001591D01*
X017383Y001596D01*
X017333Y001605D01*
X017285Y001618D01*
X017238Y001634D01*
X017192Y001655D01*
X017148Y001679D01*
X017106Y001706D01*
X017066Y001736D01*
X017029Y001770D01*
X016995Y001807D01*
X016963Y001846D01*
X016935Y001887D01*
X016910Y001931D01*
X016889Y001976D01*
X016872Y002023D01*
X016858Y002071D01*
X016848Y002120D01*
X016842Y002170D01*
X016840Y002220D01*
X001340Y020220D02*
X001342Y020270D01*
X001348Y020320D01*
X001358Y020369D01*
X001372Y020417D01*
X001389Y020464D01*
X001410Y020509D01*
X001435Y020553D01*
X001463Y020594D01*
X001495Y020633D01*
X001529Y020670D01*
X001566Y020704D01*
X001606Y020734D01*
X001648Y020761D01*
X001692Y020785D01*
X001738Y020806D01*
X001785Y020822D01*
X001833Y020835D01*
X001883Y020844D01*
X001932Y020849D01*
X001983Y020850D01*
X002033Y020847D01*
X002082Y020840D01*
X002131Y020829D01*
X002179Y020814D01*
X002225Y020796D01*
X002270Y020774D01*
X002313Y020748D01*
X002354Y020719D01*
X002393Y020687D01*
X002429Y020652D01*
X002461Y020614D01*
X002491Y020574D01*
X002518Y020531D01*
X002541Y020487D01*
X002560Y020441D01*
X002576Y020393D01*
X002588Y020344D01*
X002596Y020295D01*
X002600Y020245D01*
X002600Y020195D01*
X002596Y020145D01*
X002588Y020096D01*
X002576Y020047D01*
X002560Y019999D01*
X002541Y019953D01*
X002518Y019909D01*
X002491Y019866D01*
X002461Y019826D01*
X002429Y019788D01*
X002393Y019753D01*
X002354Y019721D01*
X002313Y019692D01*
X002270Y019666D01*
X002225Y019644D01*
X002179Y019626D01*
X002131Y019611D01*
X002082Y019600D01*
X002033Y019593D01*
X001983Y019590D01*
X001932Y019591D01*
X001883Y019596D01*
X001833Y019605D01*
X001785Y019618D01*
X001738Y019634D01*
X001692Y019655D01*
X001648Y019679D01*
X001606Y019706D01*
X001566Y019736D01*
X001529Y019770D01*
X001495Y019807D01*
X001463Y019846D01*
X001435Y019887D01*
X001410Y019931D01*
X001389Y019976D01*
X001372Y020023D01*
X001358Y020071D01*
X001348Y020120D01*
X001342Y020170D01*
X001340Y020220D01*
D12*
X001720Y016345D03*
X001720Y014345D03*
X003220Y009720D03*
X003220Y007720D03*
X009220Y007720D03*
X009220Y009720D03*
X011220Y013845D03*
X011220Y014720D03*
X011220Y016720D03*
X015220Y016720D03*
X015220Y014720D03*
X015220Y013845D03*
X016220Y012595D03*
X016220Y011720D03*
X020220Y011720D03*
X020220Y012595D03*
X018345Y005970D03*
X018345Y004970D03*
X016220Y004595D03*
X016220Y003595D03*
X016220Y001470D03*
X012220Y001470D03*
X012220Y003595D03*
X012220Y004595D03*
D13*
X016500Y015960D03*
X016290Y018910D03*
X018140Y020190D03*
D14*
X019160Y017650D03*
X020150Y017100D03*
D15*
X013720Y010460D02*
X013720Y009980D01*
X012720Y009980D02*
X012720Y010460D01*
X011720Y010460D02*
X011720Y009980D01*
X010720Y009980D02*
X010720Y010460D01*
X010720Y007460D02*
X010720Y006980D01*
X011720Y006980D02*
X011720Y007460D01*
X012720Y007460D02*
X012720Y006980D01*
X013720Y006980D02*
X013720Y007460D01*
X012460Y002595D02*
X011980Y002595D01*
X015980Y002595D02*
X016460Y002595D01*
X007720Y006980D02*
X007720Y007460D01*
X006720Y007460D02*
X006720Y006980D01*
X005720Y006980D02*
X005720Y007460D01*
X005720Y009980D02*
X005720Y010460D01*
X004720Y010460D02*
X004720Y009980D01*
X006720Y009980D02*
X006720Y010460D01*
X007720Y010460D02*
X007720Y009980D01*
X007970Y013605D02*
X007970Y014085D01*
X006970Y014085D02*
X006970Y013605D01*
X005970Y013605D02*
X005970Y014085D01*
X004970Y014085D02*
X004970Y013605D01*
X003970Y013605D02*
X003970Y014085D01*
X002970Y014085D02*
X002970Y013605D01*
X002970Y016605D02*
X002970Y017085D01*
X003970Y017085D02*
X003970Y016605D01*
X004970Y016605D02*
X004970Y017085D01*
X005970Y017085D02*
X005970Y016605D01*
X006970Y016605D02*
X006970Y017085D01*
X007970Y017085D02*
X007970Y016605D01*
X008970Y016605D02*
X008970Y017085D01*
X009970Y017085D02*
X009970Y016605D01*
X009970Y014085D02*
X009970Y013605D01*
X008970Y013605D02*
X008970Y014085D01*
D16*
X013220Y016220D03*
D17*
X013220Y015220D03*
D18*
X017370Y014220D03*
X019070Y014220D03*
X002220Y018870D03*
D19*
X002220Y018070D03*
X016570Y014220D03*
X019870Y014220D03*
D20*
X018735Y010720D02*
X017955Y010720D01*
X017345Y007110D02*
X017345Y006330D01*
X019345Y006330D02*
X019345Y007110D01*
D21*
X004720Y007220D03*
D22*
X004845Y005720D03*
X003845Y005720D03*
X002845Y005720D03*
X001845Y005720D03*
X005845Y005720D03*
X006845Y005720D03*
X007845Y005720D03*
X008845Y005720D03*
X009845Y005720D03*
X010845Y005720D03*
X011845Y005720D03*
X012845Y005720D03*
X013845Y005720D03*
X014845Y005720D03*
X014845Y011720D03*
X013845Y011720D03*
X012845Y011720D03*
X011845Y011720D03*
X010845Y011720D03*
X009845Y011720D03*
X008845Y011720D03*
X007845Y011720D03*
X006845Y011720D03*
X005845Y011720D03*
X004845Y011720D03*
X003845Y011720D03*
X002845Y011720D03*
X001845Y011720D03*
D23*
X004164Y003739D02*
X004164Y002951D01*
X004951Y001455D02*
X005739Y001455D01*
X006565Y002951D02*
X006565Y003739D01*
D24*
X008720Y004045D02*
X008720Y004645D01*
X009720Y004645D02*
X009720Y004045D01*
X010720Y004045D02*
X010720Y004645D01*
D25*
X011720Y018720D03*
X011720Y019720D03*
X012720Y019720D03*
X012720Y018720D03*
X013720Y018720D03*
X013720Y019720D03*
X007470Y019720D03*
X007470Y018720D03*
X006470Y018720D03*
X006470Y019720D03*
X005470Y019720D03*
X005470Y018720D03*
D26*
X008486Y002265D02*
X008486Y001675D01*
X009470Y001675D02*
X009470Y002265D01*
X010454Y002265D02*
X010454Y001675D01*
D27*
X018845Y001470D03*
X019845Y001470D03*
X020095Y003220D03*
D28*
X014845Y012720D03*
X013845Y012720D03*
X012845Y012720D03*
X011845Y012720D03*
X010845Y012720D03*
X009845Y012720D03*
X008845Y012720D03*
X007845Y012720D03*
X006845Y012720D03*
X005845Y012720D03*
X004845Y012720D03*
X003845Y012720D03*
X002845Y012720D03*
X001845Y012720D03*
D29*
X002320Y012759D02*
X002330Y012759D01*
X002330Y012720D02*
X002845Y012720D01*
X002845Y012225D01*
X002845Y011720D01*
X002845Y011720D01*
X002845Y012720D01*
X002845Y012720D01*
X002845Y012720D01*
X002330Y012720D01*
X002330Y012507D01*
X002632Y012205D01*
X002703Y012205D01*
X002651Y012188D01*
X002580Y012152D01*
X002516Y012105D01*
X002460Y012049D01*
X002413Y011985D01*
X002377Y011914D01*
X002352Y011838D01*
X002340Y011760D01*
X002340Y011720D01*
X002845Y011720D01*
X002845Y011215D01*
X002885Y011215D01*
X002922Y011221D01*
X002091Y010390D01*
X002045Y010280D01*
X002045Y006185D01*
X002039Y006188D01*
X001963Y006213D01*
X001885Y006225D01*
X001845Y006225D01*
X001845Y005720D01*
X002045Y005720D01*
X002045Y005720D01*
X001845Y005720D01*
X001845Y005720D01*
X001845Y005720D01*
X001845Y005215D01*
X001885Y005215D01*
X001963Y005227D01*
X002039Y005252D01*
X002045Y005255D01*
X002045Y003035D01*
X002091Y002925D01*
X002175Y002841D01*
X003050Y001966D01*
X003160Y001920D01*
X004605Y001920D01*
X004465Y001780D01*
X004378Y001569D01*
X004378Y001341D01*
X004465Y001130D01*
X004626Y000969D01*
X004805Y000895D01*
X001270Y000895D01*
X001270Y016144D01*
X001529Y015885D01*
X001720Y015885D01*
X001911Y015885D01*
X002180Y016154D01*
X002180Y016345D01*
X002180Y016536D01*
X001911Y016805D01*
X001720Y016805D01*
X001720Y016345D01*
X001720Y016345D01*
X002180Y016345D01*
X001720Y016345D01*
X001720Y016345D01*
X001720Y016805D01*
X001529Y016805D01*
X001270Y016546D01*
X001270Y019718D01*
X001489Y019499D01*
X001801Y019370D01*
X002139Y019370D01*
X002451Y019499D01*
X002691Y019739D01*
X002820Y020051D01*
X002820Y020389D01*
X002691Y020701D01*
X002476Y020916D01*
X009548Y020916D01*
X008323Y019690D01*
X008250Y019617D01*
X008210Y019522D01*
X008210Y019320D01*
X008190Y019367D01*
X008117Y019440D01*
X007920Y019638D01*
X007920Y019906D01*
X007656Y020170D01*
X007284Y020170D01*
X007230Y020116D01*
X007230Y020147D01*
X007190Y020242D01*
X006940Y020492D01*
X006867Y020565D01*
X006772Y020605D01*
X005168Y020605D01*
X005073Y020565D01*
X004823Y020315D01*
X004750Y020242D01*
X004710Y020147D01*
X004710Y017419D01*
X004614Y017323D01*
X004550Y017169D01*
X004550Y016521D01*
X004614Y016367D01*
X004732Y016249D01*
X004886Y016185D01*
X005054Y016185D01*
X005208Y016249D01*
X005326Y016367D01*
X005390Y016521D01*
X005390Y017169D01*
X005326Y017323D01*
X005230Y017419D01*
X005230Y018324D01*
X005284Y018270D01*
X005656Y018270D01*
X005710Y018324D01*
X005710Y017918D01*
X005750Y017823D01*
X006031Y017541D01*
X006006Y017545D01*
X005970Y017545D01*
X005970Y016845D01*
X005970Y016845D01*
X005970Y016145D01*
X006006Y016145D01*
X006078Y016156D01*
X006112Y016167D01*
X006112Y015842D01*
X006217Y015737D01*
X006723Y015737D01*
X006828Y015842D01*
X006828Y016167D01*
X006862Y016156D01*
X006934Y016145D01*
X006970Y016145D01*
X007006Y016145D01*
X007078Y016156D01*
X007147Y016179D01*
X007210Y016211D01*
X007210Y016078D01*
X006862Y015730D01*
X005821Y015730D01*
X005723Y015828D01*
X005217Y015828D01*
X005112Y015723D01*
X005112Y015217D01*
X005217Y015112D01*
X005723Y015112D01*
X005821Y015210D01*
X007022Y015210D01*
X007117Y015250D01*
X007190Y015323D01*
X007690Y015823D01*
X007730Y015918D01*
X007730Y016251D01*
X007732Y016249D01*
X007886Y016185D01*
X008054Y016185D01*
X008208Y016249D01*
X008210Y016251D01*
X008210Y016070D01*
X007229Y014980D01*
X005168Y014980D01*
X005073Y014940D01*
X004823Y014690D01*
X004750Y014617D01*
X004730Y014570D01*
X004730Y015522D01*
X004690Y015617D01*
X004230Y016078D01*
X004230Y016271D01*
X004326Y016367D01*
X004390Y016521D01*
X004390Y017169D01*
X004326Y017323D01*
X004208Y017441D01*
X004054Y017505D01*
X003886Y017505D01*
X003770Y017457D01*
X003770Y017659D01*
X003828Y017717D01*
X003828Y018223D01*
X003723Y018328D01*
X003217Y018328D01*
X003159Y018270D01*
X002603Y018270D01*
X002585Y018314D01*
X002464Y018435D01*
X002453Y018439D01*
X002690Y018675D01*
X002690Y018870D01*
X002690Y019065D01*
X002415Y019340D01*
X002220Y019340D01*
X002220Y018870D01*
X002220Y018870D01*
X002690Y018870D01*
X002220Y018870D01*
X002220Y018870D01*
X002220Y018870D01*
X001750Y018870D01*
X001750Y019065D01*
X002025Y019340D01*
X002220Y019340D01*
X002220Y018870D01*
X001750Y018870D01*
X001750Y018675D01*
X001987Y018439D01*
X001976Y018435D01*
X001855Y018314D01*
X001790Y018156D01*
X001790Y017984D01*
X001855Y017826D01*
X001976Y017705D01*
X002134Y017640D01*
X002306Y017640D01*
X002382Y017672D01*
X002385Y017670D01*
X002441Y017670D01*
X002497Y017669D01*
X002501Y017670D01*
X003159Y017670D01*
X003170Y017659D01*
X003170Y017457D01*
X003054Y017505D01*
X002886Y017505D01*
X002732Y017441D01*
X002614Y017323D01*
X002550Y017169D01*
X002550Y016521D01*
X002614Y016367D01*
X002732Y016249D01*
X002886Y016185D01*
X003054Y016185D01*
X003170Y016233D01*
X003170Y014457D01*
X003054Y014505D01*
X002886Y014505D01*
X002732Y014441D01*
X002614Y014323D01*
X002550Y014169D01*
X002550Y013521D01*
X002614Y013367D01*
X002732Y013249D01*
X002765Y013235D01*
X002632Y013235D01*
X002330Y012933D01*
X002330Y012720D01*
X002320Y012523D02*
X002320Y012917D01*
X002042Y013195D01*
X001648Y013195D01*
X001370Y012917D01*
X001370Y012523D01*
X001648Y012245D01*
X002042Y012245D01*
X002320Y012523D01*
X002317Y012520D02*
X002330Y012520D01*
X002555Y012282D02*
X002079Y012282D01*
X002108Y012114D02*
X001937Y012185D01*
X001753Y012185D01*
X001582Y012114D01*
X001451Y011983D01*
X001380Y011812D01*
X001380Y011628D01*
X001451Y011457D01*
X001582Y011326D01*
X001753Y011255D01*
X001937Y011255D01*
X002108Y011326D01*
X002239Y011457D01*
X002310Y011628D01*
X002310Y011812D01*
X002239Y011983D01*
X002108Y012114D01*
X002180Y012043D02*
X002455Y012043D01*
X002347Y011805D02*
X002310Y011805D01*
X002340Y011720D02*
X002340Y011680D01*
X002352Y011602D01*
X002377Y011526D01*
X002413Y011455D01*
X002460Y011391D01*
X002516Y011335D01*
X002580Y011288D01*
X002651Y011252D01*
X002727Y011227D01*
X002805Y011215D01*
X002845Y011215D01*
X002845Y011720D01*
X002845Y011720D01*
X002845Y011720D01*
X002340Y011720D01*
X002364Y011566D02*
X002285Y011566D01*
X002110Y011328D02*
X002526Y011328D01*
X002845Y011328D02*
X002845Y011328D01*
X002845Y011566D02*
X002845Y011566D01*
X002845Y011805D02*
X002845Y011805D01*
X002845Y012043D02*
X002845Y012043D01*
X002845Y012282D02*
X002845Y012282D01*
X002845Y012520D02*
X002845Y012520D01*
X002393Y012997D02*
X002240Y012997D01*
X002570Y013474D02*
X001270Y013474D01*
X001270Y013236D02*
X002765Y013236D01*
X002550Y013713D02*
X001270Y013713D01*
X001270Y013951D02*
X001520Y013951D01*
X001546Y013925D02*
X001894Y013925D01*
X002140Y014171D01*
X002140Y014519D01*
X001894Y014765D01*
X001546Y014765D01*
X001300Y014519D01*
X001300Y014171D01*
X001546Y013925D01*
X001300Y014190D02*
X001270Y014190D01*
X001270Y014428D02*
X001300Y014428D01*
X001270Y014667D02*
X001448Y014667D01*
X001270Y014905D02*
X003170Y014905D01*
X003170Y014667D02*
X001992Y014667D01*
X002140Y014428D02*
X002719Y014428D01*
X002559Y014190D02*
X002140Y014190D01*
X001920Y013951D02*
X002550Y013951D01*
X003345Y013220D02*
X003470Y013345D01*
X003470Y017970D01*
X002445Y017970D01*
X002220Y018070D01*
X002497Y018483D02*
X004710Y018483D01*
X004710Y018244D02*
X003807Y018244D01*
X003828Y018006D02*
X004710Y018006D01*
X004710Y017767D02*
X003828Y017767D01*
X003770Y017529D02*
X004710Y017529D01*
X004600Y017290D02*
X004340Y017290D01*
X004390Y017052D02*
X004550Y017052D01*
X004550Y016813D02*
X004390Y016813D01*
X004390Y016575D02*
X004550Y016575D01*
X004645Y016336D02*
X004295Y016336D01*
X004230Y016098D02*
X006112Y016098D01*
X005970Y016145D02*
X005970Y016845D01*
X005970Y016845D01*
X005970Y016845D01*
X005510Y016845D01*
X005510Y017121D01*
X005521Y017193D01*
X005544Y017262D01*
X005577Y017326D01*
X005619Y017385D01*
X005670Y017436D01*
X005729Y017478D01*
X005793Y017511D01*
X005862Y017534D01*
X005934Y017545D01*
X005970Y017545D01*
X005970Y016845D01*
X005510Y016845D01*
X005510Y016569D01*
X005521Y016497D01*
X005544Y016428D01*
X005577Y016364D01*
X005619Y016305D01*
X005670Y016254D01*
X005729Y016212D01*
X005793Y016179D01*
X005862Y016156D01*
X005934Y016145D01*
X005970Y016145D01*
X005970Y016336D02*
X005970Y016336D01*
X005970Y016575D02*
X005970Y016575D01*
X005970Y016813D02*
X005970Y016813D01*
X005970Y017052D02*
X005970Y017052D01*
X005970Y017290D02*
X005970Y017290D01*
X005970Y017529D02*
X005970Y017529D01*
X005846Y017529D02*
X005230Y017529D01*
X005230Y017767D02*
X005805Y017767D01*
X005710Y018006D02*
X005230Y018006D01*
X005230Y018244D02*
X005710Y018244D01*
X006230Y018244D02*
X006578Y018244D01*
X006552Y018270D02*
X007210Y017612D01*
X007210Y017479D01*
X007147Y017511D01*
X007078Y017534D01*
X007006Y017545D01*
X006970Y017545D01*
X006970Y016845D01*
X006970Y016845D01*
X006970Y017545D01*
X006934Y017545D01*
X006862Y017534D01*
X006793Y017511D01*
X006730Y017479D01*
X006730Y017522D01*
X006690Y017617D01*
X006617Y017690D01*
X006230Y018078D01*
X006230Y018324D01*
X006284Y018270D01*
X006552Y018270D01*
X006302Y018006D02*
X006817Y018006D01*
X007055Y017767D02*
X006541Y017767D01*
X006727Y017529D02*
X006846Y017529D01*
X006970Y017529D02*
X006970Y017529D01*
X007094Y017529D02*
X007210Y017529D01*
X006970Y017290D02*
X006970Y017290D01*
X006970Y017052D02*
X006970Y017052D01*
X006970Y016845D02*
X006970Y016145D01*
X006970Y016845D01*
X006970Y016845D01*
X006970Y016813D02*
X006970Y016813D01*
X006970Y016575D02*
X006970Y016575D01*
X006970Y016336D02*
X006970Y016336D01*
X006828Y016098D02*
X007210Y016098D01*
X006991Y015859D02*
X006828Y015859D01*
X007250Y015382D02*
X007591Y015382D01*
X007488Y015621D02*
X007806Y015621D01*
X007705Y015859D02*
X008020Y015859D01*
X008210Y016098D02*
X007730Y016098D01*
X008291Y015382D02*
X008389Y015382D01*
X008505Y015621D02*
X008628Y015621D01*
X008659Y015791D02*
X008690Y015823D01*
X008693Y015829D01*
X008698Y015835D01*
X008713Y015877D01*
X008730Y015918D01*
X008730Y015925D01*
X008732Y015932D01*
X008730Y015977D01*
X008730Y016251D01*
X008732Y016249D01*
X008886Y016185D01*
X009054Y016185D01*
X009208Y016249D01*
X009215Y016256D01*
X009214Y016206D01*
X007823Y014815D01*
X007750Y014742D01*
X007710Y014647D01*
X007710Y014419D01*
X007614Y014323D01*
X007550Y014169D01*
X007550Y013521D01*
X007614Y013367D01*
X007732Y013249D01*
X007862Y013195D01*
X007648Y013195D01*
X007370Y012917D01*
X007370Y012523D01*
X007585Y012308D01*
X007585Y012116D01*
X007582Y012114D01*
X007451Y011983D01*
X007380Y011812D01*
X007380Y011628D01*
X007441Y011480D01*
X007249Y011480D01*
X007310Y011628D01*
X007310Y011812D01*
X007239Y011983D01*
X007108Y012114D01*
X007105Y012116D01*
X007105Y012308D01*
X007320Y012523D01*
X007320Y012917D01*
X007080Y013157D01*
X007147Y013179D01*
X007211Y013212D01*
X007270Y013254D01*
X007321Y013305D01*
X007363Y013364D01*
X007396Y013428D01*
X007419Y013497D01*
X007430Y013569D01*
X007430Y013845D01*
X007430Y014121D01*
X007419Y014193D01*
X007396Y014262D01*
X007363Y014326D01*
X007321Y014385D01*
X007270Y014436D01*
X007236Y014460D01*
X007300Y014460D01*
X007307Y014458D01*
X007352Y014460D01*
X007397Y014460D01*
X007403Y014463D01*
X007410Y014463D01*
X007451Y014482D01*
X007492Y014500D01*
X007497Y014505D01*
X007504Y014508D01*
X007534Y014541D01*
X007565Y014573D01*
X007568Y014579D01*
X008659Y015791D01*
X008707Y015859D02*
X008866Y015859D01*
X008730Y016098D02*
X009105Y016098D01*
X008151Y015144D02*
X008076Y015144D01*
X007912Y014905D02*
X007861Y014905D01*
X007718Y014667D02*
X007647Y014667D01*
X007710Y014428D02*
X007278Y014428D01*
X007419Y014190D02*
X007559Y014190D01*
X007550Y013951D02*
X007430Y013951D01*
X007430Y013845D02*
X006970Y013845D01*
X006970Y013845D01*
X007430Y013845D01*
X007430Y013713D02*
X007550Y013713D01*
X007570Y013474D02*
X007411Y013474D01*
X007244Y013236D02*
X007765Y013236D01*
X007450Y012997D02*
X007240Y012997D01*
X007320Y012759D02*
X007370Y012759D01*
X007373Y012520D02*
X007317Y012520D01*
X007105Y012282D02*
X007585Y012282D01*
X007510Y012043D02*
X007180Y012043D01*
X007310Y011805D02*
X007380Y011805D01*
X007405Y011566D02*
X007285Y011566D01*
X007543Y010886D02*
X007479Y010853D01*
X007420Y010811D01*
X007369Y010760D01*
X007327Y010701D01*
X007294Y010637D01*
X007271Y010568D01*
X007260Y010496D01*
X007260Y010220D01*
X007720Y010220D01*
X007720Y010220D01*
X007720Y010920D01*
X007756Y010920D01*
X007828Y010909D01*
X007897Y010886D01*
X007961Y010853D01*
X008020Y010811D01*
X008071Y010760D01*
X008113Y010701D01*
X008146Y010637D01*
X008169Y010568D01*
X008180Y010496D01*
X008180Y010220D01*
X007720Y010220D01*
X007720Y010220D01*
X007720Y010220D01*
X007720Y010920D01*
X007684Y010920D01*
X007612Y010909D01*
X007543Y010886D01*
X007475Y010851D02*
X006875Y010851D01*
X006804Y010880D02*
X006636Y010880D01*
X006482Y010816D01*
X006364Y010698D01*
X006300Y010544D01*
X006300Y009896D01*
X006350Y009775D01*
X004550Y007974D01*
X004466Y007890D01*
X004420Y007780D01*
X004420Y007640D01*
X004405Y007640D01*
X004300Y007535D01*
X004300Y006905D01*
X004405Y006800D01*
X005035Y006800D01*
X005140Y006905D01*
X005140Y007535D01*
X005049Y007625D01*
X006720Y009296D01*
X006800Y009216D01*
X006910Y009170D01*
X008155Y009170D01*
X008265Y009216D01*
X008349Y009300D01*
X008469Y009420D01*
X008926Y009420D01*
X009046Y009300D01*
X009216Y009300D01*
X009300Y009216D01*
X009410Y009170D01*
X011802Y009170D01*
X011612Y008980D01*
X007168Y008980D01*
X007073Y008940D01*
X006573Y008440D01*
X006500Y008367D01*
X006460Y008272D01*
X006460Y007794D01*
X006364Y007698D01*
X006300Y007544D01*
X006300Y006896D01*
X006364Y006742D01*
X006376Y006730D01*
X006203Y006730D01*
X006110Y006823D01*
X006140Y006896D01*
X006140Y007544D01*
X006076Y007698D01*
X005958Y007816D01*
X005804Y007880D01*
X005636Y007880D01*
X005482Y007816D01*
X005364Y007698D01*
X005300Y007544D01*
X005300Y006896D01*
X005364Y006742D01*
X005482Y006624D01*
X005636Y006560D01*
X005637Y006560D01*
X005717Y006480D01*
X005203Y006480D01*
X005065Y006617D01*
X004992Y006690D01*
X004897Y006730D01*
X004453Y006730D01*
X004105Y007078D01*
X004105Y010487D01*
X004460Y010842D01*
X004460Y010794D01*
X004364Y010698D01*
X004300Y010544D01*
X004300Y009896D01*
X004364Y009742D01*
X004482Y009624D01*
X004636Y009560D01*
X004804Y009560D01*
X004958Y009624D01*
X005076Y009742D01*
X005140Y009896D01*
X005140Y010544D01*
X005076Y010698D01*
X005008Y010766D01*
X005203Y010960D01*
X014147Y010960D01*
X014242Y011000D01*
X014565Y011323D01*
X014571Y011336D01*
X014582Y011326D01*
X014585Y011324D01*
X014585Y010453D01*
X014140Y010008D01*
X014140Y010544D01*
X014076Y010698D01*
X013958Y010816D01*
X013804Y010880D01*
X013636Y010880D01*
X013482Y010816D01*
X013364Y010698D01*
X013300Y010544D01*
X013300Y009896D01*
X013364Y009742D01*
X013376Y009730D01*
X013064Y009730D01*
X013076Y009742D01*
X013140Y009896D01*
X013140Y010544D01*
X013076Y010698D01*
X012958Y010816D01*
X012804Y010880D01*
X012636Y010880D01*
X012482Y010816D01*
X012364Y010698D01*
X012300Y010544D01*
X012300Y010224D01*
X012140Y010064D01*
X012140Y010544D01*
X012076Y010698D01*
X011958Y010816D01*
X011804Y010880D01*
X011636Y010880D01*
X011482Y010816D01*
X011364Y010698D01*
X011300Y010544D01*
X011300Y009896D01*
X011352Y009770D01*
X011088Y009770D01*
X011140Y009896D01*
X011140Y010544D01*
X011076Y010698D01*
X010958Y010816D01*
X010804Y010880D01*
X010636Y010880D01*
X010482Y010816D01*
X010364Y010698D01*
X010300Y010544D01*
X010300Y009896D01*
X010352Y009770D01*
X009640Y009770D01*
X009640Y009894D01*
X009394Y010140D01*
X009046Y010140D01*
X008926Y010020D01*
X008285Y010020D01*
X008180Y009976D01*
X008180Y010220D01*
X007720Y010220D01*
X007260Y010220D01*
X007260Y009944D01*
X007271Y009872D01*
X007294Y009803D01*
X007311Y009770D01*
X007094Y009770D01*
X007090Y009775D01*
X007140Y009896D01*
X007140Y010544D01*
X007076Y010698D01*
X006958Y010816D01*
X006804Y010880D01*
X007112Y010612D02*
X007286Y010612D01*
X007260Y010374D02*
X007140Y010374D01*
X007140Y010135D02*
X007260Y010135D01*
X007267Y009897D02*
X007140Y009897D01*
X006720Y009720D02*
X006720Y010220D01*
X006300Y010135D02*
X006180Y010135D01*
X006180Y010220D02*
X006180Y009944D01*
X006169Y009872D01*
X006146Y009803D01*
X006113Y009739D01*
X006071Y009680D01*
X006020Y009629D01*
X005961Y009587D01*
X005897Y009554D01*
X005828Y009531D01*
X005756Y009520D01*
X005720Y009520D01*
X005720Y010220D01*
X006180Y010220D01*
X006180Y010496D01*
X006169Y010568D01*
X006146Y010637D01*
X006113Y010701D01*
X006071Y010760D01*
X006020Y010811D01*
X005961Y010853D01*
X005897Y010886D01*
X005828Y010909D01*
X005756Y010920D01*
X005720Y010920D01*
X005720Y010220D01*
X005720Y010220D01*
X005720Y010220D01*
X006180Y010220D01*
X006180Y010374D02*
X006300Y010374D01*
X006328Y010612D02*
X006154Y010612D01*
X005965Y010851D02*
X006565Y010851D01*
X006441Y011480D02*
X006249Y011480D01*
X006310Y011628D01*
X006310Y011812D01*
X006239Y011983D01*
X006108Y012114D01*
X006105Y012116D01*
X006105Y012308D01*
X006320Y012523D01*
X006320Y012917D01*
X006080Y013157D01*
X006147Y013179D01*
X006211Y013212D01*
X006270Y013254D01*
X006321Y013305D01*
X006363Y013364D01*
X006396Y013428D01*
X006419Y013497D01*
X006430Y013569D01*
X006430Y013845D01*
X006430Y014121D01*
X006419Y014193D01*
X006396Y014262D01*
X006363Y014326D01*
X006321Y014385D01*
X006270Y014436D01*
X006236Y014460D01*
X006704Y014460D01*
X006670Y014436D01*
X006619Y014385D01*
X006577Y014326D01*
X006544Y014262D01*
X006521Y014193D01*
X006510Y014121D01*
X006510Y013845D01*
X006970Y013845D01*
X006970Y013845D01*
X006510Y013845D01*
X006510Y013569D01*
X006521Y013497D01*
X006544Y013428D01*
X006577Y013364D01*
X006619Y013305D01*
X006670Y013254D01*
X006729Y013212D01*
X006761Y013195D01*
X006648Y013195D01*
X006370Y012917D01*
X006370Y012523D01*
X006585Y012308D01*
X006585Y012116D01*
X006582Y012114D01*
X006451Y011983D01*
X006380Y011812D01*
X006380Y011628D01*
X006441Y011480D01*
X006405Y011566D02*
X006285Y011566D01*
X006310Y011805D02*
X006380Y011805D01*
X006510Y012043D02*
X006180Y012043D01*
X006105Y012282D02*
X006585Y012282D01*
X006373Y012520D02*
X006317Y012520D01*
X006320Y012759D02*
X006370Y012759D01*
X006450Y012997D02*
X006240Y012997D01*
X006244Y013236D02*
X006696Y013236D01*
X006529Y013474D02*
X006411Y013474D01*
X006430Y013713D02*
X006510Y013713D01*
X006430Y013845D02*
X005970Y013845D01*
X006430Y013845D01*
X006430Y013951D02*
X006510Y013951D01*
X006521Y014190D02*
X006419Y014190D01*
X006278Y014428D02*
X006662Y014428D01*
X005970Y013845D02*
X005970Y013845D01*
X005970Y013845D01*
X005510Y013845D01*
X005510Y014121D01*
X005521Y014193D01*
X005544Y014262D01*
X005577Y014326D01*
X005619Y014385D01*
X005670Y014436D01*
X005704Y014460D01*
X005328Y014460D01*
X005258Y014391D01*
X005326Y014323D01*
X005390Y014169D01*
X005390Y013521D01*
X005326Y013367D01*
X005208Y013249D01*
X005054Y013185D01*
X005052Y013185D01*
X005320Y012917D01*
X005320Y012523D01*
X005105Y012308D01*
X005105Y012116D01*
X005108Y012114D01*
X005239Y011983D01*
X005310Y011812D01*
X005310Y011628D01*
X005249Y011480D01*
X005441Y011480D01*
X005380Y011628D01*
X005380Y011812D01*
X005451Y011983D01*
X005582Y012114D01*
X005585Y012116D01*
X005585Y012308D01*
X005370Y012523D01*
X005370Y012917D01*
X005648Y013195D01*
X005761Y013195D01*
X005729Y013212D01*
X005670Y013254D01*
X005619Y013305D01*
X005577Y013364D01*
X005544Y013428D01*
X005521Y013497D01*
X005510Y013569D01*
X005510Y013845D01*
X005970Y013845D01*
X005510Y013951D02*
X005390Y013951D01*
X005390Y013713D02*
X005510Y013713D01*
X005529Y013474D02*
X005370Y013474D01*
X005175Y013236D02*
X005696Y013236D01*
X005450Y012997D02*
X005240Y012997D01*
X005320Y012759D02*
X005370Y012759D01*
X005373Y012520D02*
X005317Y012520D01*
X005105Y012282D02*
X005585Y012282D01*
X005510Y012043D02*
X005180Y012043D01*
X005310Y011805D02*
X005380Y011805D01*
X005405Y011566D02*
X005285Y011566D01*
X005543Y010886D02*
X005479Y010853D01*
X005420Y010811D01*
X005369Y010760D01*
X005327Y010701D01*
X005294Y010637D01*
X005271Y010568D01*
X005260Y010496D01*
X005260Y010220D01*
X005720Y010220D01*
X005720Y010220D01*
X005720Y010220D01*
X005720Y010920D01*
X005684Y010920D01*
X005612Y010909D01*
X005543Y010886D01*
X005475Y010851D02*
X005093Y010851D01*
X005112Y010612D02*
X005286Y010612D01*
X005260Y010374D02*
X005140Y010374D01*
X005260Y010220D02*
X005260Y009944D01*
X005271Y009872D01*
X005294Y009803D01*
X005327Y009739D01*
X005369Y009680D01*
X005420Y009629D01*
X005479Y009587D01*
X005543Y009554D01*
X005612Y009531D01*
X005684Y009520D01*
X005720Y009520D01*
X005720Y010220D01*
X005260Y010220D01*
X005260Y010135D02*
X005140Y010135D01*
X005140Y009897D02*
X005267Y009897D01*
X005391Y009658D02*
X004992Y009658D01*
X004448Y009658D02*
X004105Y009658D01*
X004105Y009420D02*
X005995Y009420D01*
X006049Y009658D02*
X006234Y009658D01*
X006173Y009897D02*
X006300Y009897D01*
X006720Y009720D02*
X004720Y007720D01*
X004720Y007220D01*
X005140Y007273D02*
X005300Y007273D01*
X005300Y007035D02*
X005140Y007035D01*
X005342Y006796D02*
X004387Y006796D01*
X004300Y007035D02*
X004148Y007035D01*
X004105Y007273D02*
X004300Y007273D01*
X004300Y007512D02*
X004105Y007512D01*
X004105Y007750D02*
X004420Y007750D01*
X004564Y007989D02*
X004105Y007989D01*
X004105Y008227D02*
X004803Y008227D01*
X005041Y008466D02*
X004105Y008466D01*
X004105Y008704D02*
X005280Y008704D01*
X005518Y008943D02*
X004105Y008943D01*
X004105Y009181D02*
X005757Y009181D01*
X005720Y009658D02*
X005720Y009658D01*
X005720Y009897D02*
X005720Y009897D01*
X005720Y010135D02*
X005720Y010135D01*
X005720Y010374D02*
X005720Y010374D01*
X005720Y010612D02*
X005720Y010612D01*
X005720Y010851D02*
X005720Y010851D01*
X006720Y009720D02*
X006970Y009470D01*
X008095Y009470D01*
X008345Y009720D01*
X009220Y009720D01*
X009470Y009470D01*
X011970Y009470D01*
X012720Y010220D01*
X013140Y010135D02*
X013300Y010135D01*
X013300Y009897D02*
X013140Y009897D01*
X013140Y010374D02*
X013300Y010374D01*
X013328Y010612D02*
X013112Y010612D01*
X012875Y010851D02*
X013565Y010851D01*
X013875Y010851D02*
X014585Y010851D01*
X014585Y011089D02*
X014332Y011089D01*
X014567Y011328D02*
X014580Y011328D01*
X014585Y010612D02*
X014112Y010612D01*
X014140Y010374D02*
X014506Y010374D01*
X014267Y010135D02*
X014140Y010135D01*
X015049Y009181D02*
X018085Y009181D01*
X018085Y008953D02*
X017612Y008480D01*
X014320Y008480D01*
X014367Y008500D01*
X015617Y009750D01*
X015690Y009823D01*
X015730Y009918D01*
X015730Y013647D01*
X015690Y013742D01*
X015640Y013793D01*
X015640Y013932D01*
X015960Y013612D01*
X015960Y012929D01*
X015800Y012769D01*
X015800Y012421D01*
X016046Y012175D01*
X016307Y012175D01*
X016272Y012140D01*
X016046Y012140D01*
X015800Y011894D01*
X015800Y011546D01*
X016046Y011300D01*
X016394Y011300D01*
X016640Y011546D01*
X016640Y011772D01*
X017065Y012198D01*
X017105Y012293D01*
X017105Y013587D01*
X017308Y013790D01*
X017548Y013790D01*
X017800Y014042D01*
X017800Y014398D01*
X017548Y014650D01*
X017192Y014650D01*
X016955Y014413D01*
X016935Y014464D01*
X016814Y014585D01*
X016656Y014650D01*
X016508Y014650D01*
X015790Y015367D01*
X015717Y015440D01*
X015622Y015480D01*
X014668Y015480D01*
X014573Y015440D01*
X014198Y015065D01*
X014125Y014992D01*
X014085Y014897D01*
X014085Y013152D01*
X014042Y013195D01*
X013648Y013195D01*
X013370Y012917D01*
X013370Y012523D01*
X013585Y012308D01*
X013585Y012116D01*
X013582Y012114D01*
X013451Y011983D01*
X013380Y011812D01*
X013380Y011628D01*
X013441Y011480D01*
X013249Y011480D01*
X013310Y011628D01*
X013310Y011812D01*
X013239Y011983D01*
X013108Y012114D01*
X013105Y012116D01*
X013105Y012308D01*
X013320Y012523D01*
X013320Y012917D01*
X013042Y013195D01*
X012648Y013195D01*
X012370Y012917D01*
X012370Y012523D01*
X012585Y012308D01*
X012585Y012116D01*
X012582Y012114D01*
X012451Y011983D01*
X012380Y011812D01*
X012380Y011628D01*
X012441Y011480D01*
X012249Y011480D01*
X012310Y011628D01*
X012310Y011812D01*
X012239Y011983D01*
X012108Y012114D01*
X012105Y012116D01*
X012105Y012308D01*
X012320Y012523D01*
X012320Y012917D01*
X012042Y013195D01*
X011648Y013195D01*
X011370Y012917D01*
X011370Y012523D01*
X011585Y012308D01*
X011585Y012116D01*
X011582Y012114D01*
X011451Y011983D01*
X011380Y011812D01*
X011380Y011628D01*
X011441Y011480D01*
X011249Y011480D01*
X011310Y011628D01*
X011310Y011812D01*
X011239Y011983D01*
X011108Y012114D01*
X011105Y012116D01*
X011105Y012308D01*
X011320Y012523D01*
X011320Y012917D01*
X011042Y013195D01*
X010648Y013195D01*
X010370Y012917D01*
X010370Y012523D01*
X010585Y012308D01*
X010585Y012116D01*
X010582Y012114D01*
X010451Y011983D01*
X010380Y011812D01*
X010380Y011628D01*
X010441Y011480D01*
X010249Y011480D01*
X010310Y011628D01*
X010310Y011812D01*
X010239Y011983D01*
X010108Y012114D01*
X010105Y012116D01*
X010105Y012308D01*
X010320Y012523D01*
X010320Y012917D01*
X010052Y013185D01*
X010054Y013185D01*
X010208Y013249D01*
X010326Y013367D01*
X010390Y013521D01*
X010390Y014169D01*
X010326Y014323D01*
X010270Y014379D01*
X010270Y014596D01*
X010849Y015175D01*
X010895Y015285D01*
X010895Y016451D01*
X011046Y016300D01*
X011272Y016300D01*
X012500Y015073D01*
X012573Y015000D01*
X012668Y014960D01*
X012792Y014960D01*
X012800Y014940D01*
X012940Y014800D01*
X013122Y014725D01*
X013318Y014725D01*
X013500Y014800D01*
X013640Y014940D01*
X013715Y015122D01*
X013715Y015318D01*
X013640Y015500D01*
X013500Y015640D01*
X013318Y015715D01*
X013122Y015715D01*
X012940Y015640D01*
X012804Y015504D01*
X011640Y016668D01*
X011640Y016894D01*
X011394Y017140D01*
X011046Y017140D01*
X010895Y016989D01*
X010895Y018284D01*
X010953Y018342D01*
X010953Y018848D01*
X010848Y018953D01*
X010342Y018953D01*
X010237Y018848D01*
X010237Y018342D01*
X010295Y018284D01*
X010295Y017354D01*
X010208Y017441D01*
X010054Y017505D01*
X009886Y017505D01*
X009777Y017460D01*
X009851Y019609D01*
X010328Y020085D01*
X011392Y020085D01*
X011230Y019923D01*
X011230Y019720D01*
X011720Y019720D01*
X012210Y019720D01*
X012210Y019923D01*
X012048Y020085D01*
X012449Y020085D01*
X012270Y019906D01*
X012270Y019534D01*
X012534Y019270D01*
X012906Y019270D01*
X012960Y019324D01*
X012960Y019168D01*
X012997Y019080D01*
X012906Y019170D01*
X012534Y019170D01*
X012270Y018906D01*
X012270Y018534D01*
X012534Y018270D01*
X012906Y018270D01*
X013170Y018534D01*
X013170Y018902D01*
X013270Y018802D01*
X013270Y018534D01*
X013534Y018270D01*
X013906Y018270D01*
X014170Y018534D01*
X014170Y018906D01*
X013906Y019170D01*
X013638Y019170D01*
X013538Y019270D01*
X013906Y019270D01*
X014170Y019534D01*
X014170Y019906D01*
X013980Y020096D01*
X013980Y020272D01*
X013940Y020367D01*
X013440Y020867D01*
X013392Y020916D01*
X020540Y020916D01*
X020540Y017590D01*
X020503Y017628D01*
X020274Y017722D01*
X020026Y017722D01*
X019797Y017628D01*
X019782Y017613D01*
X019782Y017774D01*
X019688Y018003D01*
X019513Y018178D01*
X019284Y018272D01*
X019036Y018272D01*
X018807Y018178D01*
X018632Y018003D01*
X018538Y017774D01*
X018538Y017526D01*
X018632Y017297D01*
X018807Y017122D01*
X019036Y017028D01*
X019284Y017028D01*
X019513Y017122D01*
X019528Y017137D01*
X019528Y016980D01*
X018588Y016980D01*
X016912Y018655D01*
X016912Y019168D01*
X016548Y019532D01*
X016032Y019532D01*
X015668Y019168D01*
X015668Y018655D01*
X015573Y018560D01*
X015500Y018487D01*
X015460Y018392D01*
X015460Y017328D01*
X015272Y017140D01*
X015046Y017140D01*
X014800Y016894D01*
X014800Y016668D01*
X014612Y016480D01*
X013660Y016480D01*
X013425Y016715D01*
X013015Y016715D01*
X012725Y016425D01*
X012725Y016015D01*
X013015Y015725D01*
X013425Y015725D01*
X013660Y015960D01*
X014772Y015960D01*
X014867Y016000D01*
X014940Y016073D01*
X015168Y016300D01*
X015394Y016300D01*
X015640Y016546D01*
X015640Y016772D01*
X015940Y017073D01*
X015980Y017168D01*
X015980Y018232D01*
X016035Y018288D01*
X016545Y018288D01*
X018260Y016573D01*
X018260Y016573D01*
X018333Y016500D01*
X018428Y016460D01*
X019772Y016460D01*
X019867Y016500D01*
X019898Y016531D01*
X020026Y016478D01*
X020274Y016478D01*
X020503Y016572D01*
X020540Y016610D01*
X020540Y012869D01*
X020394Y013015D01*
X020046Y013015D01*
X019800Y012769D01*
X019800Y012421D01*
X020046Y012175D01*
X020394Y012175D01*
X020540Y012321D01*
X020540Y011994D01*
X020394Y012140D01*
X020046Y012140D01*
X019800Y011894D01*
X019800Y011546D01*
X019960Y011386D01*
X019960Y007328D01*
X019898Y007265D01*
X019828Y007433D01*
X019668Y007593D01*
X019458Y007680D01*
X019232Y007680D01*
X019022Y007593D01*
X018862Y007433D01*
X018775Y007223D01*
X018775Y006217D01*
X018793Y006172D01*
X018536Y006430D01*
X018345Y006430D01*
X018345Y005970D01*
X018805Y005970D01*
X018805Y006144D01*
X018862Y006007D01*
X019022Y005847D01*
X019232Y005760D01*
X019458Y005760D01*
X019668Y005847D01*
X019828Y006007D01*
X019915Y006217D01*
X019915Y006547D01*
X019940Y006573D01*
X020440Y007073D01*
X020480Y007168D01*
X020480Y011386D01*
X020540Y011446D01*
X020540Y003631D01*
X020346Y003825D01*
X019844Y003825D01*
X019499Y003480D01*
X018953Y003480D01*
X018190Y004242D01*
X018117Y004315D01*
X018022Y004355D01*
X016574Y004355D01*
X016640Y004421D01*
X016640Y004647D01*
X016703Y004710D01*
X018011Y004710D01*
X018171Y004550D01*
X018519Y004550D01*
X018765Y004796D01*
X018765Y005144D01*
X018519Y005390D01*
X018171Y005390D01*
X018011Y005230D01*
X016543Y005230D01*
X016448Y005190D01*
X016272Y005015D01*
X016046Y005015D01*
X015800Y004769D01*
X015800Y004421D01*
X015866Y004355D01*
X012574Y004355D01*
X012640Y004421D01*
X012640Y004769D01*
X012480Y004929D01*
X012480Y005397D01*
X012458Y005449D01*
X012582Y005326D01*
X012753Y005255D01*
X012937Y005255D01*
X013108Y005326D01*
X013239Y005457D01*
X013310Y005628D01*
X013310Y005812D01*
X013295Y005849D01*
X013380Y005776D01*
X013380Y005628D01*
X013451Y005457D01*
X013582Y005326D01*
X013753Y005255D01*
X013937Y005255D01*
X014108Y005326D01*
X014239Y005457D01*
X014310Y005628D01*
X014310Y005812D01*
X014239Y005983D01*
X014108Y006114D01*
X013937Y006185D01*
X013753Y006185D01*
X013718Y006171D01*
X013147Y006661D01*
X013117Y006690D01*
X013108Y006694D01*
X013100Y006701D01*
X013060Y006714D01*
X013052Y006718D01*
X013076Y006742D01*
X013140Y006896D01*
X013140Y007544D01*
X013076Y007698D01*
X013071Y007703D01*
X013328Y007960D01*
X017772Y007960D01*
X017867Y008000D01*
X017940Y008073D01*
X018565Y008698D01*
X018605Y008793D01*
X018605Y010150D01*
X018848Y010150D01*
X019058Y010237D01*
X019218Y010397D01*
X019305Y010607D01*
X019305Y010833D01*
X019218Y011043D01*
X019058Y011203D01*
X018848Y011290D01*
X017842Y011290D01*
X017632Y011203D01*
X017472Y011043D01*
X017385Y010833D01*
X017385Y010607D01*
X017472Y010397D01*
X017632Y010237D01*
X017842Y010150D01*
X018085Y010150D01*
X018085Y008953D01*
X018075Y008943D02*
X014810Y008943D01*
X014572Y008704D02*
X017836Y008704D01*
X018095Y008227D02*
X019960Y008227D01*
X019960Y007989D02*
X017841Y007989D01*
X017668Y007593D02*
X017458Y007680D01*
X017232Y007680D01*
X017022Y007593D01*
X016862Y007433D01*
X016775Y007223D01*
X016775Y006217D01*
X016862Y006007D01*
X017022Y005847D01*
X017232Y005760D01*
X017458Y005760D01*
X017668Y005847D01*
X017828Y006007D01*
X017885Y006144D01*
X017885Y005970D01*
X018345Y005970D01*
X018345Y005970D01*
X018345Y005970D01*
X018805Y005970D01*
X018805Y005779D01*
X018536Y005510D01*
X018345Y005510D01*
X018345Y005970D01*
X018345Y005970D01*
X018345Y005970D01*
X018345Y006430D01*
X018154Y006430D01*
X017897Y006172D01*
X017915Y006217D01*
X017915Y007223D01*
X017828Y007433D01*
X017668Y007593D01*
X017750Y007512D02*
X018940Y007512D01*
X018796Y007273D02*
X017894Y007273D01*
X017915Y007035D02*
X018775Y007035D01*
X018775Y006796D02*
X017915Y006796D01*
X017915Y006558D02*
X018775Y006558D01*
X018775Y006319D02*
X018647Y006319D01*
X018345Y006319D02*
X018345Y006319D01*
X018043Y006319D02*
X017915Y006319D01*
X017885Y006081D02*
X017859Y006081D01*
X017885Y005970D02*
X017885Y005779D01*
X018154Y005510D01*
X018345Y005510D01*
X018345Y005970D01*
X017885Y005970D01*
X017885Y005842D02*
X017656Y005842D01*
X018061Y005604D02*
X015300Y005604D01*
X015310Y005628D02*
X015239Y005457D01*
X015108Y005326D01*
X014937Y005255D01*
X014753Y005255D01*
X014582Y005326D01*
X014451Y005457D01*
X014380Y005628D01*
X014380Y005812D01*
X014451Y005983D01*
X014582Y006114D01*
X014753Y006185D01*
X014937Y006185D01*
X015108Y006114D01*
X015239Y005983D01*
X015310Y005812D01*
X015310Y005628D01*
X015298Y005842D02*
X017034Y005842D01*
X016831Y006081D02*
X015142Y006081D01*
X014548Y006081D02*
X014142Y006081D01*
X014298Y005842D02*
X014392Y005842D01*
X014390Y005604D02*
X014300Y005604D01*
X014148Y005365D02*
X014542Y005365D01*
X015148Y005365D02*
X018146Y005365D01*
X018345Y005604D02*
X018345Y005604D01*
X018345Y005842D02*
X018345Y005842D01*
X018345Y006081D02*
X018345Y006081D01*
X018805Y006081D02*
X018831Y006081D01*
X018805Y005842D02*
X019034Y005842D01*
X018629Y005604D02*
X020540Y005604D01*
X020540Y005842D02*
X019656Y005842D01*
X019859Y006081D02*
X020540Y006081D01*
X020540Y006319D02*
X019915Y006319D01*
X019925Y006558D02*
X020540Y006558D01*
X020540Y006796D02*
X020164Y006796D01*
X020402Y007035D02*
X020540Y007035D01*
X020540Y007273D02*
X020480Y007273D01*
X020480Y007512D02*
X020540Y007512D01*
X020540Y007750D02*
X020480Y007750D01*
X020480Y007989D02*
X020540Y007989D01*
X020540Y008227D02*
X020480Y008227D01*
X020480Y008466D02*
X020540Y008466D01*
X020540Y008704D02*
X020480Y008704D01*
X020480Y008943D02*
X020540Y008943D01*
X020540Y009181D02*
X020480Y009181D01*
X020480Y009420D02*
X020540Y009420D01*
X020540Y009658D02*
X020480Y009658D01*
X020480Y009897D02*
X020540Y009897D01*
X020540Y010135D02*
X020480Y010135D01*
X020480Y010374D02*
X020540Y010374D01*
X020540Y010612D02*
X020480Y010612D01*
X020480Y010851D02*
X020540Y010851D01*
X020540Y011089D02*
X020480Y011089D01*
X020480Y011328D02*
X020540Y011328D01*
X019960Y011328D02*
X016421Y011328D01*
X016640Y011566D02*
X019800Y011566D01*
X019800Y011805D02*
X016672Y011805D01*
X016911Y012043D02*
X019949Y012043D01*
X019940Y012282D02*
X017100Y012282D01*
X017105Y012520D02*
X019800Y012520D01*
X019800Y012759D02*
X017869Y012759D01*
X017848Y012737D02*
X017946Y012835D01*
X019647Y012835D01*
X019742Y012875D01*
X019815Y012948D01*
X020065Y013198D01*
X020105Y013293D01*
X020105Y013852D01*
X020114Y013855D01*
X020235Y013976D01*
X020300Y014134D01*
X020300Y014306D01*
X020235Y014464D01*
X020114Y014585D01*
X019956Y014650D01*
X019784Y014650D01*
X019626Y014585D01*
X019505Y014464D01*
X019485Y014413D01*
X019248Y014650D01*
X018892Y014650D01*
X018640Y014398D01*
X018640Y014042D01*
X018892Y013790D01*
X019248Y013790D01*
X019485Y014027D01*
X019505Y013976D01*
X019585Y013897D01*
X019585Y013453D01*
X019487Y013355D01*
X017946Y013355D01*
X017848Y013453D01*
X017342Y013453D01*
X017237Y013348D01*
X017237Y012842D01*
X017342Y012737D01*
X017848Y012737D01*
X017321Y012759D02*
X017105Y012759D01*
X017105Y012997D02*
X017237Y012997D01*
X017237Y013236D02*
X017105Y013236D01*
X017105Y013474D02*
X019585Y013474D01*
X019585Y013713D02*
X017230Y013713D01*
X017709Y013951D02*
X018731Y013951D01*
X018640Y014190D02*
X017800Y014190D01*
X017770Y014428D02*
X018670Y014428D01*
X019470Y014428D02*
X019491Y014428D01*
X019531Y013951D02*
X019409Y013951D01*
X020105Y013713D02*
X020540Y013713D01*
X020540Y013951D02*
X020209Y013951D01*
X020300Y014190D02*
X020540Y014190D01*
X020540Y014428D02*
X020249Y014428D01*
X020540Y014667D02*
X016491Y014667D01*
X016253Y014905D02*
X020540Y014905D01*
X020540Y015144D02*
X016014Y015144D01*
X016242Y015338D02*
X016758Y015338D01*
X017122Y015702D01*
X017122Y016218D01*
X016758Y016582D01*
X016242Y016582D01*
X015878Y016218D01*
X015878Y015702D01*
X016242Y015338D01*
X016198Y015382D02*
X015776Y015382D01*
X015959Y015621D02*
X013520Y015621D01*
X013559Y015859D02*
X015878Y015859D01*
X015878Y016098D02*
X014965Y016098D01*
X015430Y016336D02*
X015996Y016336D01*
X016234Y016575D02*
X015640Y016575D01*
X015681Y016813D02*
X018019Y016813D01*
X018258Y016575D02*
X016766Y016575D01*
X017004Y016336D02*
X020540Y016336D01*
X020540Y016098D02*
X017122Y016098D01*
X017122Y015859D02*
X020540Y015859D01*
X020540Y015621D02*
X017041Y015621D01*
X016802Y015382D02*
X020540Y015382D01*
X020505Y016575D02*
X020540Y016575D01*
X019528Y017052D02*
X019342Y017052D01*
X018978Y017052D02*
X018516Y017052D01*
X018640Y017290D02*
X018278Y017290D01*
X018039Y017529D02*
X018538Y017529D01*
X018538Y017767D02*
X017801Y017767D01*
X017562Y018006D02*
X018635Y018006D01*
X018967Y018244D02*
X017324Y018244D01*
X017085Y018483D02*
X020540Y018483D01*
X020540Y018244D02*
X019353Y018244D01*
X019685Y018006D02*
X020540Y018006D01*
X020540Y017767D02*
X019782Y017767D01*
X020540Y018721D02*
X016912Y018721D01*
X016912Y018960D02*
X020540Y018960D01*
X020540Y019198D02*
X016882Y019198D01*
X016644Y019437D02*
X020540Y019437D01*
X020540Y019675D02*
X018505Y019675D01*
X018398Y019568D02*
X018762Y019932D01*
X018762Y020448D01*
X018398Y020812D01*
X017882Y020812D01*
X017518Y020448D01*
X017518Y019932D01*
X017882Y019568D01*
X018398Y019568D01*
X018744Y019914D02*
X020540Y019914D01*
X020540Y020152D02*
X018762Y020152D01*
X018762Y020391D02*
X020540Y020391D01*
X020540Y020629D02*
X018581Y020629D01*
X017699Y020629D02*
X013679Y020629D01*
X013917Y020391D02*
X017518Y020391D01*
X017518Y020152D02*
X013980Y020152D01*
X014163Y019914D02*
X017536Y019914D01*
X017775Y019675D02*
X014170Y019675D01*
X014073Y019437D02*
X015936Y019437D01*
X015698Y019198D02*
X013610Y019198D01*
X014117Y018960D02*
X015668Y018960D01*
X015668Y018721D02*
X014170Y018721D01*
X014119Y018483D02*
X015498Y018483D01*
X015460Y018244D02*
X010895Y018244D01*
X010895Y018006D02*
X015460Y018006D01*
X015460Y017767D02*
X010895Y017767D01*
X010895Y017529D02*
X015460Y017529D01*
X015422Y017290D02*
X010895Y017290D01*
X010895Y017052D02*
X010958Y017052D01*
X011482Y017052D02*
X014958Y017052D01*
X014800Y016813D02*
X011640Y016813D01*
X011733Y016575D02*
X012874Y016575D01*
X012725Y016336D02*
X011972Y016336D01*
X012210Y016098D02*
X012725Y016098D01*
X012881Y015859D02*
X012449Y015859D01*
X012687Y015621D02*
X012920Y015621D01*
X012429Y015144D02*
X010818Y015144D01*
X011046Y015140D02*
X010800Y014894D01*
X010800Y014546D01*
X010960Y014386D01*
X010960Y014179D01*
X010800Y014019D01*
X010800Y013671D01*
X011046Y013425D01*
X011394Y013425D01*
X011640Y013671D01*
X011640Y014019D01*
X011480Y014179D01*
X011480Y014386D01*
X011640Y014546D01*
X011640Y014894D01*
X011394Y015140D01*
X011046Y015140D01*
X010895Y015382D02*
X012190Y015382D01*
X011952Y015621D02*
X010895Y015621D01*
X010895Y015859D02*
X011713Y015859D01*
X011475Y016098D02*
X010895Y016098D01*
X010895Y016336D02*
X011010Y016336D01*
X010595Y015345D02*
X010595Y018595D01*
X010953Y018483D02*
X011321Y018483D01*
X011270Y018534D02*
X011534Y018270D01*
X011906Y018270D01*
X012170Y018534D01*
X012170Y018906D01*
X011906Y019170D01*
X011534Y019170D01*
X011270Y018906D01*
X011270Y018534D01*
X011270Y018721D02*
X010953Y018721D01*
X011323Y018960D02*
X009829Y018960D01*
X009837Y019198D02*
X012960Y019198D01*
X013170Y018721D02*
X013270Y018721D01*
X013321Y018483D02*
X013119Y018483D01*
X012321Y018483D02*
X012119Y018483D01*
X012170Y018721D02*
X012270Y018721D01*
X012323Y018960D02*
X012117Y018960D01*
X011923Y019230D02*
X012210Y019517D01*
X012210Y019720D01*
X011720Y019720D01*
X011720Y019720D01*
X011720Y019230D01*
X011923Y019230D01*
X011720Y019230D02*
X011720Y019720D01*
X011720Y019720D01*
X011720Y019720D01*
X011230Y019720D01*
X011230Y019517D01*
X011517Y019230D01*
X011720Y019230D01*
X011720Y019437D02*
X011720Y019437D01*
X011720Y019675D02*
X011720Y019675D01*
X012129Y019437D02*
X012367Y019437D01*
X012270Y019675D02*
X012210Y019675D01*
X012210Y019914D02*
X012277Y019914D01*
X011311Y019437D02*
X009845Y019437D01*
X009918Y019675D02*
X011230Y019675D01*
X011230Y019914D02*
X010156Y019914D01*
X009261Y020629D02*
X002721Y020629D01*
X002819Y020391D02*
X004898Y020391D01*
X004712Y020152D02*
X002820Y020152D01*
X002763Y019914D02*
X004710Y019914D01*
X004710Y019675D02*
X002627Y019675D01*
X002299Y019437D02*
X004710Y019437D01*
X004710Y019198D02*
X002557Y019198D01*
X002690Y018960D02*
X004710Y018960D01*
X004710Y018721D02*
X002690Y018721D01*
X002220Y018960D02*
X002220Y018960D01*
X002220Y019198D02*
X002220Y019198D01*
X001883Y019198D02*
X001270Y019198D01*
X001270Y018960D02*
X001750Y018960D01*
X001750Y018721D02*
X001270Y018721D01*
X001270Y018483D02*
X001943Y018483D01*
X001827Y018244D02*
X001270Y018244D01*
X001270Y018006D02*
X001790Y018006D01*
X001915Y017767D02*
X001270Y017767D01*
X001270Y017529D02*
X003170Y017529D01*
X002600Y017290D02*
X001270Y017290D01*
X001270Y017052D02*
X002550Y017052D01*
X002550Y016813D02*
X001270Y016813D01*
X001270Y016575D02*
X001299Y016575D01*
X001720Y016575D02*
X001720Y016575D01*
X001720Y016345D02*
X001720Y015885D01*
X001720Y016345D01*
X001720Y016345D01*
X001720Y016336D02*
X001720Y016336D01*
X001720Y016098D02*
X001720Y016098D01*
X002123Y016098D02*
X003170Y016098D01*
X003170Y015859D02*
X001270Y015859D01*
X001270Y015621D02*
X003170Y015621D01*
X003170Y015382D02*
X001270Y015382D01*
X001270Y015144D02*
X003170Y015144D01*
X002645Y016336D02*
X002180Y016336D01*
X002141Y016575D02*
X002550Y016575D01*
X002382Y017672D02*
X002382Y017672D01*
X001317Y016098D02*
X001270Y016098D01*
X003345Y013220D02*
X003345Y011220D01*
X002345Y010220D01*
X002345Y003095D01*
X003220Y002220D01*
X006970Y002220D01*
X008095Y001095D01*
X009220Y001095D01*
X009470Y001345D01*
X009470Y001970D01*
X009945Y001594D02*
X009952Y001554D01*
X009977Y001477D01*
X010014Y001405D01*
X010061Y001339D01*
X010119Y001282D01*
X010184Y001234D01*
X010256Y001197D01*
X010334Y001172D01*
X010414Y001159D01*
X010454Y001159D01*
X010454Y001970D01*
X010454Y001970D01*
X010454Y001159D01*
X010495Y001159D01*
X010575Y001172D01*
X010652Y001197D01*
X010724Y001234D01*
X010790Y001282D01*
X010847Y001339D01*
X010895Y001405D01*
X010932Y001477D01*
X010957Y001554D01*
X010970Y001634D01*
X010970Y001970D01*
X010970Y002306D01*
X010957Y002386D01*
X010932Y002463D01*
X010895Y002535D01*
X010859Y002585D01*
X010987Y002585D01*
X011150Y002423D01*
X011800Y001587D01*
X011800Y001296D01*
X012046Y001050D01*
X012394Y001050D01*
X012640Y001296D01*
X012640Y001644D01*
X012394Y001890D01*
X012223Y001890D01*
X012001Y002175D01*
X012544Y002175D01*
X012698Y002239D01*
X012816Y002357D01*
X012880Y002511D01*
X012880Y002679D01*
X012816Y002833D01*
X012698Y002951D01*
X012544Y003015D01*
X011896Y003015D01*
X011742Y002951D01*
X011624Y002833D01*
X011577Y002720D01*
X011572Y002727D01*
X011565Y002742D01*
X011540Y002767D01*
X011518Y002795D01*
X011504Y002804D01*
X011315Y002992D01*
X011242Y003065D01*
X011195Y003085D01*
X012022Y003085D01*
X012117Y003125D01*
X012168Y003175D01*
X012394Y003175D01*
X012640Y003421D01*
X012640Y003769D01*
X012574Y003835D01*
X015866Y003835D01*
X015800Y003769D01*
X015800Y003421D01*
X016046Y003175D01*
X016394Y003175D01*
X016554Y003335D01*
X017612Y003335D01*
X018872Y002075D01*
X018594Y002075D01*
X018240Y001721D01*
X018240Y001233D01*
X018237Y001230D01*
X016828Y001230D01*
X016640Y001418D01*
X016640Y001644D01*
X016394Y001890D01*
X016046Y001890D01*
X015800Y001644D01*
X015800Y001296D01*
X016046Y001050D01*
X016272Y001050D01*
X016427Y000895D01*
X009444Y000895D01*
X009474Y000925D01*
X009724Y001175D01*
X009770Y001285D01*
X009770Y001303D01*
X009873Y001406D01*
X009945Y001580D01*
X009945Y001594D01*
X009953Y001549D02*
X009932Y001549D01*
X009778Y001311D02*
X010090Y001311D01*
X010454Y001311D02*
X010454Y001311D01*
X010454Y001549D02*
X010454Y001549D01*
X010454Y001788D02*
X010454Y001788D01*
X010454Y001970D02*
X010454Y001970D01*
X010970Y001970D01*
X010454Y001970D01*
X010970Y002026D02*
X011458Y002026D01*
X011644Y001788D02*
X010970Y001788D01*
X010955Y001549D02*
X011800Y001549D01*
X011800Y001311D02*
X010819Y001311D01*
X010970Y002265D02*
X011273Y002265D01*
X011069Y002503D02*
X010911Y002503D01*
X011328Y002980D02*
X011812Y002980D01*
X011586Y002742D02*
X011566Y002742D01*
X012117Y002026D02*
X016630Y002026D01*
X016620Y002051D02*
X016749Y001739D01*
X016989Y001499D01*
X017301Y001370D01*
X017639Y001370D01*
X017951Y001499D01*
X018191Y001739D01*
X018320Y002051D01*
X018320Y002389D01*
X018191Y002701D01*
X017951Y002941D01*
X017639Y003070D01*
X017301Y003070D01*
X016989Y002941D01*
X016835Y002787D01*
X016816Y002833D01*
X016698Y002951D01*
X016544Y003015D01*
X015896Y003015D01*
X015742Y002951D01*
X015624Y002833D01*
X015560Y002679D01*
X015560Y002511D01*
X015624Y002357D01*
X015742Y002239D01*
X015896Y002175D01*
X016544Y002175D01*
X016620Y002207D01*
X016620Y002051D01*
X016729Y001788D02*
X016496Y001788D01*
X016640Y001549D02*
X016939Y001549D01*
X016747Y001311D02*
X018240Y001311D01*
X018240Y001549D02*
X018001Y001549D01*
X018211Y001788D02*
X018307Y001788D01*
X018310Y002026D02*
X018545Y002026D01*
X018683Y002265D02*
X018320Y002265D01*
X018273Y002503D02*
X018444Y002503D01*
X018206Y002742D02*
X018150Y002742D01*
X017967Y002980D02*
X017856Y002980D01*
X017729Y003219D02*
X016437Y003219D01*
X016628Y002980D02*
X017084Y002980D01*
X016003Y003219D02*
X012437Y003219D01*
X012628Y002980D02*
X015812Y002980D01*
X015586Y002742D02*
X012854Y002742D01*
X012876Y002503D02*
X015564Y002503D01*
X015717Y002265D02*
X012723Y002265D01*
X012496Y001788D02*
X015944Y001788D01*
X015800Y001549D02*
X012640Y001549D01*
X012640Y001311D02*
X015800Y001311D01*
X016024Y001072D02*
X012416Y001072D01*
X012024Y001072D02*
X009621Y001072D01*
X008010Y002360D02*
X008083Y002534D01*
X008217Y002668D01*
X008261Y002687D01*
X007179Y003768D01*
X007179Y003345D01*
X006565Y003345D01*
X005952Y003345D01*
X005952Y002903D01*
X005967Y002808D01*
X005997Y002716D01*
X006041Y002630D01*
X006097Y002551D01*
X006129Y002520D01*
X004544Y002520D01*
X004650Y002626D01*
X004738Y002837D01*
X004738Y003853D01*
X004650Y004064D01*
X004489Y004225D01*
X004278Y004312D01*
X004050Y004312D01*
X003839Y004225D01*
X003678Y004064D01*
X003590Y003853D01*
X003590Y002837D01*
X003678Y002626D01*
X003784Y002520D01*
X003344Y002520D01*
X002645Y003219D01*
X002645Y004802D01*
X002698Y004750D01*
X003073Y004375D01*
X003168Y004335D01*
X006415Y004335D01*
X006330Y004307D01*
X006244Y004264D01*
X006166Y004207D01*
X006097Y004138D01*
X006041Y004060D01*
X005997Y003974D01*
X005967Y003882D01*
X005952Y003787D01*
X005952Y003345D01*
X006565Y003345D01*
X006565Y003345D01*
X007179Y003345D01*
X007179Y002903D01*
X007164Y002808D01*
X007134Y002716D01*
X007090Y002630D01*
X007034Y002551D01*
X007002Y002520D01*
X007030Y002520D01*
X007140Y002474D01*
X007224Y002390D01*
X008010Y001604D01*
X008010Y002360D01*
X008010Y002265D02*
X007350Y002265D01*
X007071Y002503D02*
X008070Y002503D01*
X008206Y002742D02*
X007143Y002742D01*
X007179Y002980D02*
X007967Y002980D01*
X007729Y003219D02*
X007179Y003219D01*
X007179Y003457D02*
X007490Y003457D01*
X007252Y003696D02*
X007179Y003696D01*
X006565Y003345D02*
X006565Y003345D01*
X005952Y003457D02*
X004738Y003457D01*
X004738Y003219D02*
X005952Y003219D01*
X005952Y002980D02*
X004738Y002980D01*
X004698Y002742D02*
X005988Y002742D01*
X005952Y003696D02*
X004738Y003696D01*
X004704Y003934D02*
X005984Y003934D01*
X006131Y004173D02*
X004541Y004173D01*
X003842Y004855D02*
X003328Y004855D01*
X003105Y005078D01*
X003105Y005324D01*
X003108Y005326D01*
X003239Y005457D01*
X003310Y005628D01*
X003310Y005812D01*
X003239Y005983D01*
X003108Y006114D01*
X002937Y006185D01*
X002753Y006185D01*
X002645Y006140D01*
X002645Y010096D01*
X003515Y010966D01*
X003599Y011050D01*
X003645Y011160D01*
X003645Y011300D01*
X003753Y011255D01*
X003937Y011255D01*
X004085Y011316D01*
X004085Y011203D01*
X003625Y010742D01*
X003585Y010647D01*
X003585Y010006D01*
X003411Y010180D01*
X003220Y010180D01*
X003220Y009720D01*
X003220Y009720D01*
X003220Y009260D01*
X003411Y009260D01*
X003585Y009434D01*
X003585Y007949D01*
X003394Y008140D01*
X003046Y008140D01*
X002800Y007894D01*
X002800Y007546D01*
X003046Y007300D01*
X003394Y007300D01*
X003585Y007491D01*
X003585Y006918D01*
X003625Y006823D01*
X003698Y006750D01*
X004198Y006250D01*
X004293Y006210D01*
X004737Y006210D01*
X004762Y006185D01*
X004753Y006185D01*
X004582Y006114D01*
X004451Y005983D01*
X004380Y005812D01*
X004380Y005628D01*
X004451Y005457D01*
X004582Y005326D01*
X004753Y005255D01*
X004937Y005255D01*
X005108Y005326D01*
X005239Y005457D01*
X005310Y005628D01*
X005310Y005812D01*
X005249Y005960D01*
X005441Y005960D01*
X005380Y005812D01*
X005380Y005628D01*
X005451Y005457D01*
X005582Y005326D01*
X005753Y005255D01*
X005937Y005255D01*
X006108Y005326D01*
X006239Y005457D01*
X006310Y005628D01*
X006310Y005812D01*
X006249Y005960D01*
X006441Y005960D01*
X006380Y005812D01*
X006380Y005628D01*
X006451Y005457D01*
X006582Y005326D01*
X006753Y005255D01*
X006937Y005255D01*
X007108Y005326D01*
X007239Y005457D01*
X007310Y005628D01*
X007310Y005812D01*
X007308Y005816D01*
X007380Y005759D01*
X007380Y005628D01*
X007451Y005457D01*
X007582Y005326D01*
X007753Y005255D01*
X007937Y005255D01*
X008108Y005326D01*
X008239Y005457D01*
X008310Y005628D01*
X008310Y005812D01*
X008239Y005983D01*
X008108Y006114D01*
X007937Y006185D01*
X007753Y006185D01*
X007705Y006165D01*
X007649Y006210D01*
X008862Y006210D01*
X008887Y006185D01*
X008753Y006185D01*
X008582Y006114D01*
X008451Y005983D01*
X008380Y005812D01*
X008380Y005628D01*
X008451Y005457D01*
X008582Y005326D01*
X008753Y005255D01*
X008937Y005255D01*
X008941Y005256D01*
X009198Y005000D01*
X009293Y004960D01*
X009306Y004960D01*
X009275Y004918D01*
X009238Y004845D01*
X009213Y004767D01*
X009200Y004686D01*
X009200Y004345D01*
X009720Y004345D01*
X010240Y004345D01*
X010240Y004686D01*
X010227Y004767D01*
X010202Y004845D01*
X010165Y004918D01*
X010134Y004960D01*
X010356Y004960D01*
X010313Y004917D01*
X010240Y004740D01*
X010240Y003950D01*
X010313Y003773D01*
X010448Y003638D01*
X010528Y003605D01*
X009999Y003605D01*
X010059Y003648D01*
X010117Y003706D01*
X010165Y003772D01*
X010202Y003845D01*
X010227Y003923D01*
X010240Y004004D01*
X010240Y004345D01*
X009720Y004345D01*
X009720Y004345D01*
X009720Y004345D01*
X009200Y004345D01*
X009200Y004004D01*
X009213Y003923D01*
X009238Y003845D01*
X009275Y003772D01*
X009323Y003706D01*
X009381Y003648D01*
X009441Y003605D01*
X008918Y003605D01*
X008823Y003565D01*
X008782Y003525D01*
X008743Y003565D01*
X008815Y003565D01*
X008992Y003638D01*
X009127Y003773D01*
X009200Y003950D01*
X009200Y004740D01*
X009127Y004917D01*
X008992Y005052D01*
X008815Y005125D01*
X008625Y005125D01*
X008448Y005052D01*
X008313Y004917D01*
X008240Y004740D01*
X008240Y004068D01*
X007117Y005190D01*
X007022Y005230D01*
X004203Y005230D01*
X004107Y005325D01*
X004108Y005326D01*
X004239Y005457D01*
X004310Y005628D01*
X004310Y005812D01*
X004239Y005983D01*
X004108Y006114D01*
X003937Y006185D01*
X003753Y006185D01*
X003582Y006114D01*
X003451Y005983D01*
X003380Y005812D01*
X003380Y005628D01*
X003451Y005457D01*
X003582Y005326D01*
X003585Y005324D01*
X003585Y005168D01*
X003625Y005073D01*
X003842Y004855D01*
X003809Y004888D02*
X003295Y004888D01*
X003105Y005127D02*
X003602Y005127D01*
X003542Y005365D02*
X003148Y005365D01*
X003300Y005604D02*
X003390Y005604D01*
X003392Y005842D02*
X003298Y005842D01*
X003142Y006081D02*
X003548Y006081D01*
X003890Y006558D02*
X002645Y006558D01*
X002645Y006796D02*
X003651Y006796D01*
X003585Y007035D02*
X002645Y007035D01*
X002645Y007273D02*
X003585Y007273D01*
X003585Y007989D02*
X003545Y007989D01*
X003585Y008227D02*
X002645Y008227D01*
X002645Y007989D02*
X002895Y007989D01*
X002800Y007750D02*
X002645Y007750D01*
X002645Y007512D02*
X002835Y007512D01*
X002045Y007512D02*
X001270Y007512D01*
X001270Y007750D02*
X002045Y007750D01*
X002045Y007989D02*
X001270Y007989D01*
X001270Y008227D02*
X002045Y008227D01*
X002045Y008466D02*
X001270Y008466D01*
X001270Y008704D02*
X002045Y008704D01*
X002045Y008943D02*
X001270Y008943D01*
X001270Y009181D02*
X002045Y009181D01*
X002045Y009420D02*
X001270Y009420D01*
X001270Y009658D02*
X002045Y009658D01*
X002045Y009897D02*
X001270Y009897D01*
X001270Y010135D02*
X002045Y010135D01*
X002084Y010374D02*
X001270Y010374D01*
X001270Y010612D02*
X002313Y010612D01*
X002551Y010851D02*
X001270Y010851D01*
X001270Y011089D02*
X002790Y011089D01*
X003161Y010612D02*
X003585Y010612D01*
X003585Y010374D02*
X002923Y010374D01*
X003029Y010180D02*
X002760Y009911D01*
X002760Y009720D01*
X003220Y009720D01*
X003220Y009720D01*
X003220Y009720D01*
X003220Y010180D01*
X003029Y010180D01*
X002984Y010135D02*
X002684Y010135D01*
X002645Y009897D02*
X002760Y009897D01*
X002760Y009720D02*
X002760Y009529D01*
X003029Y009260D01*
X003220Y009260D01*
X003220Y009720D01*
X002760Y009720D01*
X002760Y009658D02*
X002645Y009658D01*
X002645Y009420D02*
X002870Y009420D01*
X002645Y009181D02*
X003585Y009181D01*
X003585Y008943D02*
X002645Y008943D01*
X002645Y008704D02*
X003585Y008704D01*
X003585Y008466D02*
X002645Y008466D01*
X003220Y009420D02*
X003220Y009420D01*
X003220Y009658D02*
X003220Y009658D01*
X003220Y009897D02*
X003220Y009897D01*
X003220Y010135D02*
X003220Y010135D01*
X003456Y010135D02*
X003585Y010135D01*
X004105Y010135D02*
X004300Y010135D01*
X004300Y009897D02*
X004105Y009897D01*
X004105Y010374D02*
X004300Y010374D01*
X004328Y010612D02*
X004230Y010612D01*
X003971Y011089D02*
X003615Y011089D01*
X003733Y010851D02*
X003400Y010851D01*
X003845Y011720D02*
X003845Y012720D01*
X005381Y014190D02*
X005521Y014190D01*
X005662Y014428D02*
X005296Y014428D01*
X004799Y014667D02*
X004730Y014667D01*
X004730Y014905D02*
X005037Y014905D01*
X005186Y015144D02*
X004730Y015144D01*
X004730Y015382D02*
X005112Y015382D01*
X005112Y015621D02*
X004687Y015621D01*
X004449Y015859D02*
X006112Y015859D01*
X005597Y016336D02*
X005295Y016336D01*
X005390Y016575D02*
X005510Y016575D01*
X005510Y016813D02*
X005390Y016813D01*
X005390Y017052D02*
X005510Y017052D01*
X005558Y017290D02*
X005340Y017290D01*
X005230Y019116D02*
X005230Y019267D01*
X005267Y019230D01*
X005470Y019230D01*
X005673Y019230D01*
X005710Y019267D01*
X005710Y019116D01*
X005656Y019170D01*
X005284Y019170D01*
X005230Y019116D01*
X005230Y019198D02*
X005710Y019198D01*
X005470Y019230D02*
X005470Y019720D01*
X005960Y019720D01*
X005960Y019923D01*
X005798Y020085D01*
X006199Y020085D01*
X006020Y019906D01*
X006020Y019638D01*
X005960Y019578D01*
X005960Y019720D01*
X005470Y019720D01*
X005470Y019720D01*
X005470Y019720D01*
X005470Y019230D01*
X005470Y019437D02*
X005470Y019437D01*
X005470Y019675D02*
X005470Y019675D01*
X005960Y019675D02*
X006020Y019675D01*
X006027Y019914D02*
X005960Y019914D01*
X007042Y020391D02*
X009023Y020391D01*
X008784Y020152D02*
X007674Y020152D01*
X007913Y019914D02*
X008546Y019914D01*
X008307Y019675D02*
X007920Y019675D01*
X008121Y019437D02*
X008210Y019437D01*
X007266Y020152D02*
X007228Y020152D01*
X009500Y020868D02*
X002524Y020868D01*
X001313Y019675D02*
X001270Y019675D01*
X001270Y019437D02*
X001641Y019437D01*
X005754Y015144D02*
X007376Y015144D01*
X009780Y017529D02*
X010295Y017529D01*
X010295Y017767D02*
X009788Y017767D01*
X009796Y018006D02*
X010295Y018006D01*
X010295Y018244D02*
X009804Y018244D01*
X009812Y018483D02*
X010237Y018483D01*
X010237Y018721D02*
X009821Y018721D01*
X010595Y015345D02*
X009970Y014720D01*
X009970Y013845D01*
X010381Y014190D02*
X010960Y014190D01*
X010918Y014428D02*
X010270Y014428D01*
X010341Y014667D02*
X010800Y014667D01*
X010811Y014905D02*
X010579Y014905D01*
X010390Y013951D02*
X010800Y013951D01*
X010800Y013713D02*
X010390Y013713D01*
X010370Y013474D02*
X010997Y013474D01*
X011240Y012997D02*
X011450Y012997D01*
X011370Y012759D02*
X011320Y012759D01*
X011317Y012520D02*
X011373Y012520D01*
X011585Y012282D02*
X011105Y012282D01*
X011180Y012043D02*
X011510Y012043D01*
X011380Y011805D02*
X011310Y011805D01*
X011285Y011566D02*
X011405Y011566D01*
X011565Y010851D02*
X010875Y010851D01*
X011112Y010612D02*
X011328Y010612D01*
X011300Y010374D02*
X011140Y010374D01*
X011140Y010135D02*
X011300Y010135D01*
X011300Y009897D02*
X011140Y009897D01*
X010300Y009897D02*
X009637Y009897D01*
X009399Y010135D02*
X010300Y010135D01*
X010300Y010374D02*
X008180Y010374D01*
X008154Y010612D02*
X010328Y010612D01*
X010565Y010851D02*
X007965Y010851D01*
X007720Y010851D02*
X007720Y010851D01*
X007720Y010612D02*
X007720Y010612D01*
X007720Y010374D02*
X007720Y010374D01*
X008180Y010135D02*
X009041Y010135D01*
X008927Y009420D02*
X008469Y009420D01*
X008181Y009181D02*
X009384Y009181D01*
X009411Y008180D02*
X009220Y008180D01*
X009220Y007720D01*
X009220Y007720D01*
X009680Y007720D01*
X009680Y007911D01*
X009411Y008180D01*
X009220Y008180D02*
X009029Y008180D01*
X008760Y007911D01*
X008760Y007720D01*
X009220Y007720D01*
X009220Y007720D01*
X009220Y007720D01*
X009220Y008180D01*
X009220Y007989D02*
X009220Y007989D01*
X009220Y007750D02*
X009220Y007750D01*
X009220Y007720D02*
X008760Y007720D01*
X008760Y007529D01*
X008809Y007480D01*
X008140Y007480D01*
X008140Y007544D01*
X008076Y007698D01*
X007958Y007816D01*
X007804Y007880D01*
X007636Y007880D01*
X007482Y007816D01*
X007364Y007698D01*
X007300Y007544D01*
X007300Y006896D01*
X007364Y006742D01*
X007376Y006730D01*
X007064Y006730D01*
X007076Y006742D01*
X007140Y006896D01*
X007140Y007544D01*
X007076Y007698D01*
X006980Y007794D01*
X006980Y008112D01*
X007328Y008460D01*
X011120Y008460D01*
X011073Y008440D01*
X011000Y008367D01*
X010500Y007867D01*
X010476Y007810D01*
X010364Y007698D01*
X010300Y007544D01*
X010300Y006896D01*
X010364Y006742D01*
X010376Y006730D01*
X009828Y006730D01*
X009298Y007260D01*
X009411Y007260D01*
X009680Y007529D01*
X009680Y007720D01*
X009220Y007720D01*
X009680Y007750D02*
X010416Y007750D01*
X010300Y007512D02*
X009662Y007512D01*
X009424Y007273D02*
X010300Y007273D01*
X010300Y007035D02*
X009523Y007035D01*
X009762Y006796D02*
X010342Y006796D01*
X010621Y007989D02*
X009602Y007989D01*
X008838Y007989D02*
X006980Y007989D01*
X007024Y007750D02*
X007416Y007750D01*
X007300Y007512D02*
X007140Y007512D01*
X007140Y007273D02*
X007300Y007273D01*
X007300Y007035D02*
X007140Y007035D01*
X007098Y006796D02*
X007342Y006796D01*
X008140Y007512D02*
X008778Y007512D01*
X008760Y007750D02*
X008024Y007750D01*
X007095Y008227D02*
X010859Y008227D01*
X012140Y010135D02*
X012211Y010135D01*
X012140Y010374D02*
X012300Y010374D01*
X012328Y010612D02*
X012112Y010612D01*
X011875Y010851D02*
X012565Y010851D01*
X012405Y011566D02*
X012285Y011566D01*
X012310Y011805D02*
X012380Y011805D01*
X012510Y012043D02*
X012180Y012043D01*
X012105Y012282D02*
X012585Y012282D01*
X012373Y012520D02*
X012317Y012520D01*
X012320Y012759D02*
X012370Y012759D01*
X012450Y012997D02*
X012240Y012997D01*
X011443Y013474D02*
X014085Y013474D01*
X014085Y013236D02*
X010175Y013236D01*
X010240Y012997D02*
X010450Y012997D01*
X010370Y012759D02*
X010320Y012759D01*
X010317Y012520D02*
X010373Y012520D01*
X010585Y012282D02*
X010105Y012282D01*
X010180Y012043D02*
X010510Y012043D01*
X010380Y011805D02*
X010310Y011805D01*
X010285Y011566D02*
X010405Y011566D01*
X011640Y013713D02*
X014085Y013713D01*
X014085Y013951D02*
X011640Y013951D01*
X011480Y014190D02*
X014085Y014190D01*
X014085Y014428D02*
X011522Y014428D01*
X011640Y014667D02*
X014085Y014667D01*
X014088Y014905D02*
X013605Y014905D01*
X013715Y015144D02*
X014276Y015144D01*
X014514Y015382D02*
X013689Y015382D01*
X012835Y014905D02*
X011629Y014905D01*
X013240Y012997D02*
X013450Y012997D01*
X013370Y012759D02*
X013320Y012759D01*
X013317Y012520D02*
X013373Y012520D01*
X013585Y012282D02*
X013105Y012282D01*
X013180Y012043D02*
X013510Y012043D01*
X013380Y011805D02*
X013310Y011805D01*
X013285Y011566D02*
X013405Y011566D01*
X015526Y009658D02*
X018085Y009658D01*
X018085Y009420D02*
X015287Y009420D01*
X015721Y009897D02*
X018085Y009897D01*
X018085Y010135D02*
X015730Y010135D01*
X015730Y010374D02*
X017495Y010374D01*
X017385Y010612D02*
X015730Y010612D01*
X015730Y010851D02*
X017392Y010851D01*
X017518Y011089D02*
X015730Y011089D01*
X015730Y011328D02*
X016019Y011328D01*
X015800Y011566D02*
X015730Y011566D01*
X015730Y011805D02*
X015800Y011805D01*
X015730Y012043D02*
X015949Y012043D01*
X015940Y012282D02*
X015730Y012282D01*
X015730Y012520D02*
X015800Y012520D01*
X015800Y012759D02*
X015730Y012759D01*
X015730Y012997D02*
X015960Y012997D01*
X015960Y013236D02*
X015730Y013236D01*
X015730Y013474D02*
X015960Y013474D01*
X015860Y013713D02*
X015703Y013713D01*
X016949Y014428D02*
X016970Y014428D01*
X014707Y016575D02*
X013566Y016575D01*
X015919Y017052D02*
X017781Y017052D01*
X017542Y017290D02*
X015980Y017290D01*
X015980Y017529D02*
X017304Y017529D01*
X017065Y017767D02*
X015980Y017767D01*
X015980Y018006D02*
X016827Y018006D01*
X016588Y018244D02*
X015992Y018244D01*
X013440Y020868D02*
X020540Y020868D01*
X020540Y013474D02*
X020105Y013474D01*
X020081Y013236D02*
X020540Y013236D01*
X020540Y012997D02*
X020412Y012997D01*
X020028Y012997D02*
X019865Y012997D01*
X020500Y012282D02*
X020540Y012282D01*
X020540Y012043D02*
X020491Y012043D01*
X019960Y011089D02*
X019172Y011089D01*
X019298Y010851D02*
X019960Y010851D01*
X019960Y010612D02*
X019305Y010612D01*
X019195Y010374D02*
X019960Y010374D01*
X019960Y010135D02*
X018605Y010135D01*
X018605Y009897D02*
X019960Y009897D01*
X019960Y009658D02*
X018605Y009658D01*
X018605Y009420D02*
X019960Y009420D01*
X019960Y009181D02*
X018605Y009181D01*
X018605Y008943D02*
X019960Y008943D01*
X019960Y008704D02*
X018568Y008704D01*
X018333Y008466D02*
X019960Y008466D01*
X019960Y007750D02*
X014078Y007750D01*
X014071Y007760D02*
X014020Y007811D01*
X013961Y007853D01*
X013897Y007886D01*
X013828Y007909D01*
X013756Y007920D01*
X013720Y007920D01*
X013720Y007220D01*
X014180Y007220D01*
X014180Y007496D01*
X014169Y007568D01*
X014146Y007637D01*
X014113Y007701D01*
X014071Y007760D01*
X014178Y007512D02*
X016940Y007512D01*
X016796Y007273D02*
X014180Y007273D01*
X014180Y007220D02*
X013720Y007220D01*
X013720Y007220D01*
X013720Y007220D01*
X013720Y006520D01*
X013756Y006520D01*
X013828Y006531D01*
X013897Y006554D01*
X013961Y006587D01*
X014020Y006629D01*
X014071Y006680D01*
X014113Y006739D01*
X014146Y006803D01*
X014169Y006872D01*
X014180Y006944D01*
X014180Y007220D01*
X014180Y007035D02*
X016775Y007035D01*
X016775Y006796D02*
X014143Y006796D01*
X013904Y006558D02*
X016775Y006558D01*
X016775Y006319D02*
X013546Y006319D01*
X013612Y006531D02*
X013543Y006554D01*
X013479Y006587D01*
X013420Y006629D01*
X013369Y006680D01*
X013327Y006739D01*
X013294Y006803D01*
X013271Y006872D01*
X013260Y006944D01*
X013260Y007220D01*
X013720Y007220D01*
X013720Y007220D01*
X013720Y007220D01*
X013720Y007920D01*
X013684Y007920D01*
X013612Y007909D01*
X013543Y007886D01*
X013479Y007853D01*
X013420Y007811D01*
X013369Y007760D01*
X013327Y007701D01*
X013294Y007637D01*
X013271Y007568D01*
X013260Y007496D01*
X013260Y007220D01*
X013720Y007220D01*
X013720Y006520D01*
X013684Y006520D01*
X013612Y006531D01*
X013536Y006558D02*
X013267Y006558D01*
X013297Y006796D02*
X013098Y006796D01*
X013140Y007035D02*
X013260Y007035D01*
X013260Y007273D02*
X013140Y007273D01*
X013140Y007512D02*
X013262Y007512D01*
X013362Y007750D02*
X013118Y007750D01*
X013720Y007750D02*
X013720Y007750D01*
X013720Y007512D02*
X013720Y007512D01*
X013720Y007273D02*
X013720Y007273D01*
X013720Y007035D02*
X013720Y007035D01*
X013720Y006796D02*
X013720Y006796D01*
X013720Y006558D02*
X013720Y006558D01*
X013303Y005842D02*
X013298Y005842D01*
X013300Y005604D02*
X013390Y005604D01*
X013542Y005365D02*
X013148Y005365D01*
X012542Y005365D02*
X012480Y005365D01*
X012480Y005127D02*
X016384Y005127D01*
X015919Y004888D02*
X012521Y004888D01*
X012640Y004650D02*
X015800Y004650D01*
X015810Y004411D02*
X012630Y004411D01*
X012640Y003696D02*
X015800Y003696D01*
X015800Y003457D02*
X012640Y003457D01*
X010391Y003696D02*
X010106Y003696D01*
X010229Y003934D02*
X010246Y003934D01*
X010240Y004173D02*
X010240Y004173D01*
X010240Y004411D02*
X010240Y004411D01*
X010240Y004650D02*
X010240Y004650D01*
X010180Y004888D02*
X010301Y004888D01*
X009260Y004888D02*
X009139Y004888D01*
X009200Y004650D02*
X009200Y004650D01*
X009200Y004411D02*
X009200Y004411D01*
X009200Y004173D02*
X009200Y004173D01*
X009194Y003934D02*
X009211Y003934D01*
X009334Y003696D02*
X009049Y003696D01*
X008240Y004173D02*
X008135Y004173D01*
X008240Y004411D02*
X007897Y004411D01*
X007658Y004650D02*
X008240Y004650D01*
X008301Y004888D02*
X007420Y004888D01*
X007181Y005127D02*
X009071Y005127D01*
X008542Y005365D02*
X008148Y005365D01*
X008300Y005604D02*
X008390Y005604D01*
X008392Y005842D02*
X008298Y005842D01*
X008142Y006081D02*
X008548Y006081D01*
X007542Y005365D02*
X007148Y005365D01*
X007300Y005604D02*
X007390Y005604D01*
X006542Y005365D02*
X006148Y005365D01*
X006300Y005604D02*
X006390Y005604D01*
X006392Y005842D02*
X006298Y005842D01*
X005542Y005365D02*
X005148Y005365D01*
X005300Y005604D02*
X005390Y005604D01*
X005392Y005842D02*
X005298Y005842D01*
X005125Y006558D02*
X005640Y006558D01*
X006137Y006796D02*
X006342Y006796D01*
X006300Y007035D02*
X006140Y007035D01*
X006140Y007273D02*
X006300Y007273D01*
X006300Y007512D02*
X006140Y007512D01*
X006024Y007750D02*
X006416Y007750D01*
X006460Y007989D02*
X005413Y007989D01*
X005416Y007750D02*
X005174Y007750D01*
X005140Y007512D02*
X005300Y007512D01*
X005651Y008227D02*
X006460Y008227D01*
X006598Y008466D02*
X005890Y008466D01*
X006128Y008704D02*
X006836Y008704D01*
X007078Y008943D02*
X006367Y008943D01*
X006605Y009181D02*
X006884Y009181D01*
X004128Y006319D02*
X002645Y006319D01*
X002045Y006319D02*
X001270Y006319D01*
X001270Y006558D02*
X002045Y006558D01*
X002045Y006796D02*
X001270Y006796D01*
X001270Y007035D02*
X002045Y007035D01*
X002045Y007273D02*
X001270Y007273D01*
X001651Y006188D02*
X001580Y006152D01*
X001516Y006105D01*
X001460Y006049D01*
X001413Y005985D01*
X001377Y005914D01*
X001352Y005838D01*
X001340Y005760D01*
X001340Y005720D01*
X001845Y005720D01*
X001845Y005720D01*
X001845Y005720D01*
X001845Y006225D01*
X001805Y006225D01*
X001727Y006213D01*
X001651Y006188D01*
X001491Y006081D02*
X001270Y006081D01*
X001270Y005842D02*
X001354Y005842D01*
X001340Y005720D02*
X001340Y005680D01*
X001352Y005602D01*
X001377Y005526D01*
X001413Y005455D01*
X001460Y005391D01*
X001516Y005335D01*
X001580Y005288D01*
X001651Y005252D01*
X001727Y005227D01*
X001805Y005215D01*
X001845Y005215D01*
X001845Y005720D01*
X001340Y005720D01*
X001352Y005604D02*
X001270Y005604D01*
X001270Y005365D02*
X001486Y005365D01*
X001845Y005365D02*
X001845Y005365D01*
X001845Y005604D02*
X001845Y005604D01*
X001845Y005842D02*
X001845Y005842D01*
X001845Y006081D02*
X001845Y006081D01*
X002045Y005127D02*
X001270Y005127D01*
X001270Y004888D02*
X002045Y004888D01*
X002045Y004650D02*
X001270Y004650D01*
X001270Y004411D02*
X002045Y004411D01*
X002045Y004173D02*
X001270Y004173D01*
X001270Y003934D02*
X002045Y003934D01*
X002045Y003696D02*
X001270Y003696D01*
X001270Y003457D02*
X002045Y003457D01*
X002045Y003219D02*
X001270Y003219D01*
X001270Y002980D02*
X002068Y002980D01*
X002274Y002742D02*
X001270Y002742D01*
X001270Y002503D02*
X002513Y002503D01*
X002751Y002265D02*
X001270Y002265D01*
X001270Y002026D02*
X002990Y002026D01*
X003123Y002742D02*
X003630Y002742D01*
X003590Y002980D02*
X002884Y002980D01*
X002646Y003219D02*
X003590Y003219D01*
X003590Y003457D02*
X002645Y003457D01*
X002645Y003696D02*
X003590Y003696D01*
X003624Y003934D02*
X002645Y003934D01*
X002645Y004173D02*
X003786Y004173D01*
X003036Y004411D02*
X002645Y004411D01*
X002645Y004650D02*
X002798Y004650D01*
X004148Y005365D02*
X004542Y005365D01*
X004390Y005604D02*
X004300Y005604D01*
X004298Y005842D02*
X004392Y005842D01*
X004548Y006081D02*
X004142Y006081D01*
X003585Y009420D02*
X003570Y009420D01*
X001580Y011328D02*
X001270Y011328D01*
X001270Y011566D02*
X001405Y011566D01*
X001380Y011805D02*
X001270Y011805D01*
X001270Y012043D02*
X001510Y012043D01*
X001611Y012282D02*
X001270Y012282D01*
X001270Y012520D02*
X001373Y012520D01*
X001370Y012759D02*
X001270Y012759D01*
X001270Y012997D02*
X001450Y012997D01*
X007588Y002026D02*
X008010Y002026D01*
X008010Y001788D02*
X007827Y001788D01*
X004472Y001788D02*
X001270Y001788D01*
X001270Y001549D02*
X004378Y001549D01*
X004390Y001311D02*
X001270Y001311D01*
X001270Y001072D02*
X004523Y001072D01*
X016630Y004411D02*
X020540Y004411D01*
X020540Y004173D02*
X018260Y004173D01*
X018499Y003934D02*
X020540Y003934D01*
X020540Y003696D02*
X020475Y003696D01*
X019715Y003696D02*
X018737Y003696D01*
X018618Y004650D02*
X020540Y004650D01*
X020540Y004888D02*
X018765Y004888D01*
X018765Y005127D02*
X020540Y005127D01*
X020540Y005365D02*
X018544Y005365D01*
X018072Y004650D02*
X016642Y004650D01*
X019894Y007273D02*
X019905Y007273D01*
X019960Y007512D02*
X019750Y007512D01*
D30*
X017595Y013095D03*
X010595Y018595D03*
X006470Y016095D03*
X005470Y015470D03*
X003470Y017970D03*
M02*
