G75*
G70*
%OFA0B0*%
%FSLAX24Y24*%
%IPPOS*%
%LPD*%
%AMOC8*
5,1,8,0,0,1.08239X$1,22.5*
%
%ADD10C,0.0160*%
%ADD11C,0.0000*%
%ADD12C,0.0060*%
%ADD13C,0.0030*%
%ADD14R,0.0340X0.0240*%
%ADD15C,0.0050*%
%ADD16C,0.0120*%
%ADD17R,0.1250X0.0400*%
%ADD18R,0.0600X0.1050*%
%ADD19C,0.0080*%
%ADD20C,0.0100*%
%ADD21R,0.4200X0.0300*%
%ADD22R,0.0750X0.0200*%
%ADD23R,0.0300X0.0200*%
%ADD24C,0.0020*%
%ADD25R,0.0200X0.0800*%
D10*
X000970Y000595D02*
X000970Y021216D01*
X020840Y021216D01*
X020840Y000595D01*
X000970Y000595D01*
D11*
X016840Y002220D02*
X016842Y002270D01*
X016848Y002320D01*
X016858Y002369D01*
X016872Y002417D01*
X016889Y002464D01*
X016910Y002509D01*
X016935Y002553D01*
X016963Y002594D01*
X016995Y002633D01*
X017029Y002670D01*
X017066Y002704D01*
X017106Y002734D01*
X017148Y002761D01*
X017192Y002785D01*
X017238Y002806D01*
X017285Y002822D01*
X017333Y002835D01*
X017383Y002844D01*
X017432Y002849D01*
X017483Y002850D01*
X017533Y002847D01*
X017582Y002840D01*
X017631Y002829D01*
X017679Y002814D01*
X017725Y002796D01*
X017770Y002774D01*
X017813Y002748D01*
X017854Y002719D01*
X017893Y002687D01*
X017929Y002652D01*
X017961Y002614D01*
X017991Y002574D01*
X018018Y002531D01*
X018041Y002487D01*
X018060Y002441D01*
X018076Y002393D01*
X018088Y002344D01*
X018096Y002295D01*
X018100Y002245D01*
X018100Y002195D01*
X018096Y002145D01*
X018088Y002096D01*
X018076Y002047D01*
X018060Y001999D01*
X018041Y001953D01*
X018018Y001909D01*
X017991Y001866D01*
X017961Y001826D01*
X017929Y001788D01*
X017893Y001753D01*
X017854Y001721D01*
X017813Y001692D01*
X017770Y001666D01*
X017725Y001644D01*
X017679Y001626D01*
X017631Y001611D01*
X017582Y001600D01*
X017533Y001593D01*
X017483Y001590D01*
X017432Y001591D01*
X017383Y001596D01*
X017333Y001605D01*
X017285Y001618D01*
X017238Y001634D01*
X017192Y001655D01*
X017148Y001679D01*
X017106Y001706D01*
X017066Y001736D01*
X017029Y001770D01*
X016995Y001807D01*
X016963Y001846D01*
X016935Y001887D01*
X016910Y001931D01*
X016889Y001976D01*
X016872Y002023D01*
X016858Y002071D01*
X016848Y002120D01*
X016842Y002170D01*
X016840Y002220D01*
X001340Y020220D02*
X001342Y020270D01*
X001348Y020320D01*
X001358Y020369D01*
X001372Y020417D01*
X001389Y020464D01*
X001410Y020509D01*
X001435Y020553D01*
X001463Y020594D01*
X001495Y020633D01*
X001529Y020670D01*
X001566Y020704D01*
X001606Y020734D01*
X001648Y020761D01*
X001692Y020785D01*
X001738Y020806D01*
X001785Y020822D01*
X001833Y020835D01*
X001883Y020844D01*
X001932Y020849D01*
X001983Y020850D01*
X002033Y020847D01*
X002082Y020840D01*
X002131Y020829D01*
X002179Y020814D01*
X002225Y020796D01*
X002270Y020774D01*
X002313Y020748D01*
X002354Y020719D01*
X002393Y020687D01*
X002429Y020652D01*
X002461Y020614D01*
X002491Y020574D01*
X002518Y020531D01*
X002541Y020487D01*
X002560Y020441D01*
X002576Y020393D01*
X002588Y020344D01*
X002596Y020295D01*
X002600Y020245D01*
X002600Y020195D01*
X002596Y020145D01*
X002588Y020096D01*
X002576Y020047D01*
X002560Y019999D01*
X002541Y019953D01*
X002518Y019909D01*
X002491Y019866D01*
X002461Y019826D01*
X002429Y019788D01*
X002393Y019753D01*
X002354Y019721D01*
X002313Y019692D01*
X002270Y019666D01*
X002225Y019644D01*
X002179Y019626D01*
X002131Y019611D01*
X002082Y019600D01*
X002033Y019593D01*
X001983Y019590D01*
X001932Y019591D01*
X001883Y019596D01*
X001833Y019605D01*
X001785Y019618D01*
X001738Y019634D01*
X001692Y019655D01*
X001648Y019679D01*
X001606Y019706D01*
X001566Y019736D01*
X001529Y019770D01*
X001495Y019807D01*
X001463Y019846D01*
X001435Y019887D01*
X001410Y019931D01*
X001389Y019976D01*
X001372Y020023D01*
X001358Y020071D01*
X001348Y020120D01*
X001342Y020170D01*
X001340Y020220D01*
D12*
X002750Y020250D02*
X003070Y020250D01*
X003177Y020357D01*
X003177Y020464D01*
X003070Y020570D01*
X002750Y020570D01*
X002750Y020250D02*
X002750Y020891D01*
X003070Y020891D01*
X003177Y020784D01*
X003177Y020677D01*
X003070Y020570D01*
X003470Y020970D02*
X005670Y020970D01*
X005670Y020570D01*
X005670Y020470D01*
X003970Y020470D01*
X003970Y017970D01*
X008970Y017970D01*
X008970Y020470D01*
X007270Y020470D01*
X007270Y020570D01*
X007270Y020970D01*
X007470Y020970D01*
X007470Y020920D01*
X007970Y020920D01*
X007970Y020970D01*
X009470Y020970D01*
X009470Y017470D01*
X008970Y017470D01*
X008970Y017370D01*
X008470Y017370D01*
X008470Y017470D01*
X006720Y017470D01*
X006720Y017370D01*
X006220Y017370D01*
X006220Y017470D01*
X004470Y017470D01*
X004470Y017370D01*
X003970Y017370D01*
X003970Y017470D01*
X003470Y017470D01*
X003470Y020970D01*
X005670Y020970D02*
X007270Y020970D01*
X007270Y020470D02*
X007270Y020170D01*
X005670Y020170D01*
X005670Y020470D01*
X001220Y018470D02*
X001222Y018533D01*
X001228Y018595D01*
X001238Y018657D01*
X001251Y018719D01*
X001269Y018779D01*
X001290Y018838D01*
X001315Y018896D01*
X001344Y018952D01*
X001376Y019006D01*
X001411Y019058D01*
X001449Y019107D01*
X001491Y019155D01*
X001535Y019199D01*
X001583Y019241D01*
X001632Y019279D01*
X001684Y019314D01*
X001738Y019346D01*
X001794Y019375D01*
X001852Y019400D01*
X001911Y019421D01*
X001971Y019439D01*
X002033Y019452D01*
X002095Y019462D01*
X002157Y019468D01*
X002220Y019470D01*
X002283Y019468D01*
X002345Y019462D01*
X002407Y019452D01*
X002469Y019439D01*
X002529Y019421D01*
X002588Y019400D01*
X002646Y019375D01*
X002702Y019346D01*
X002756Y019314D01*
X002808Y019279D01*
X002857Y019241D01*
X002905Y019199D01*
X002949Y019155D01*
X002991Y019107D01*
X003029Y019058D01*
X003064Y019006D01*
X003096Y018952D01*
X003125Y018896D01*
X003150Y018838D01*
X003171Y018779D01*
X003189Y018719D01*
X003202Y018657D01*
X003212Y018595D01*
X003218Y018533D01*
X003220Y018470D01*
X003218Y018407D01*
X003212Y018345D01*
X003202Y018283D01*
X003189Y018221D01*
X003171Y018161D01*
X003150Y018102D01*
X003125Y018044D01*
X003096Y017988D01*
X003064Y017934D01*
X003029Y017882D01*
X002991Y017833D01*
X002949Y017785D01*
X002905Y017741D01*
X002857Y017699D01*
X002808Y017661D01*
X002756Y017626D01*
X002702Y017594D01*
X002646Y017565D01*
X002588Y017540D01*
X002529Y017519D01*
X002469Y017501D01*
X002407Y017488D01*
X002345Y017478D01*
X002283Y017472D01*
X002220Y017470D01*
X002157Y017472D01*
X002095Y017478D01*
X002033Y017488D01*
X001971Y017501D01*
X001911Y017519D01*
X001852Y017540D01*
X001794Y017565D01*
X001738Y017594D01*
X001684Y017626D01*
X001632Y017661D01*
X001583Y017699D01*
X001535Y017741D01*
X001491Y017785D01*
X001449Y017833D01*
X001411Y017882D01*
X001376Y017934D01*
X001344Y017988D01*
X001315Y018044D01*
X001290Y018102D01*
X001269Y018161D01*
X001251Y018221D01*
X001238Y018283D01*
X001228Y018345D01*
X001222Y018407D01*
X001220Y018470D01*
X001420Y018070D02*
X001620Y018070D01*
X001520Y017970D02*
X001520Y018170D01*
X001220Y016795D02*
X002220Y016795D01*
X002237Y016793D01*
X002254Y016789D01*
X002270Y016782D01*
X002284Y016772D01*
X002297Y016759D01*
X002307Y016745D01*
X002314Y016729D01*
X002318Y016712D01*
X002320Y016695D01*
X002320Y013995D01*
X002318Y013978D01*
X002314Y013961D01*
X002307Y013945D01*
X002297Y013931D01*
X002284Y013918D01*
X002270Y013908D01*
X002254Y013901D01*
X002237Y013897D01*
X002220Y013895D01*
X001220Y013895D01*
X001203Y013897D01*
X001186Y013901D01*
X001170Y013908D01*
X001156Y013918D01*
X001143Y013931D01*
X001133Y013945D01*
X001126Y013961D01*
X001122Y013978D01*
X001120Y013995D01*
X001120Y016695D01*
X001122Y016712D01*
X001126Y016729D01*
X001133Y016745D01*
X001143Y016759D01*
X001156Y016772D01*
X001170Y016782D01*
X001186Y016789D01*
X001203Y016793D01*
X001220Y016795D01*
X001720Y015945D02*
X001720Y015475D01*
X001720Y015225D02*
X001720Y014745D01*
X002470Y014945D02*
X002470Y014195D01*
X010470Y014195D01*
X010470Y016495D01*
X002470Y016495D01*
X002470Y015745D01*
X002509Y015743D01*
X002548Y015737D01*
X002586Y015728D01*
X002623Y015715D01*
X002659Y015698D01*
X002692Y015678D01*
X002724Y015654D01*
X002753Y015628D01*
X002779Y015599D01*
X002803Y015567D01*
X002823Y015534D01*
X002840Y015498D01*
X002853Y015461D01*
X002862Y015423D01*
X002868Y015384D01*
X002870Y015345D01*
X002868Y015306D01*
X002862Y015267D01*
X002853Y015229D01*
X002840Y015192D01*
X002823Y015156D01*
X002803Y015123D01*
X002779Y015091D01*
X002753Y015062D01*
X002724Y015036D01*
X002692Y015012D01*
X002659Y014992D01*
X002623Y014975D01*
X002586Y014962D01*
X002548Y014953D01*
X002509Y014947D01*
X002470Y014945D01*
X002720Y010170D02*
X003720Y010170D01*
X003737Y010168D01*
X003754Y010164D01*
X003770Y010157D01*
X003784Y010147D01*
X003797Y010134D01*
X003807Y010120D01*
X003814Y010104D01*
X003818Y010087D01*
X003820Y010070D01*
X003820Y007370D01*
X003818Y007353D01*
X003814Y007336D01*
X003807Y007320D01*
X003797Y007306D01*
X003784Y007293D01*
X003770Y007283D01*
X003754Y007276D01*
X003737Y007272D01*
X003720Y007270D01*
X002720Y007270D01*
X002703Y007272D01*
X002686Y007276D01*
X002670Y007283D01*
X002656Y007293D01*
X002643Y007306D01*
X002633Y007320D01*
X002626Y007336D01*
X002622Y007353D01*
X002620Y007370D01*
X002620Y010070D01*
X002622Y010087D01*
X002626Y010104D01*
X002633Y010120D01*
X002643Y010134D01*
X002656Y010147D01*
X002670Y010157D01*
X002686Y010164D01*
X002703Y010168D01*
X002720Y010170D01*
X003220Y009320D02*
X003220Y008850D01*
X003220Y008600D02*
X003220Y008120D01*
X004220Y008470D02*
X004220Y007720D01*
X008220Y007720D01*
X008220Y009720D01*
X004220Y009720D01*
X004220Y008970D01*
X004250Y008968D01*
X004280Y008963D01*
X004309Y008954D01*
X004336Y008941D01*
X004362Y008926D01*
X004386Y008907D01*
X004407Y008886D01*
X004426Y008862D01*
X004441Y008836D01*
X004454Y008809D01*
X004463Y008780D01*
X004468Y008750D01*
X004470Y008720D01*
X004468Y008690D01*
X004463Y008660D01*
X004454Y008631D01*
X004441Y008604D01*
X004426Y008578D01*
X004407Y008554D01*
X004386Y008533D01*
X004362Y008514D01*
X004336Y008499D01*
X004309Y008486D01*
X004280Y008477D01*
X004250Y008472D01*
X004220Y008470D01*
X008620Y007370D02*
X008620Y010070D01*
X008622Y010087D01*
X008626Y010104D01*
X008633Y010120D01*
X008643Y010134D01*
X008656Y010147D01*
X008670Y010157D01*
X008686Y010164D01*
X008703Y010168D01*
X008720Y010170D01*
X009720Y010170D01*
X009737Y010168D01*
X009754Y010164D01*
X009770Y010157D01*
X009784Y010147D01*
X009797Y010134D01*
X009807Y010120D01*
X009814Y010104D01*
X009818Y010087D01*
X009820Y010070D01*
X009820Y007370D01*
X009818Y007353D01*
X009814Y007336D01*
X009807Y007320D01*
X009797Y007306D01*
X009784Y007293D01*
X009770Y007283D01*
X009754Y007276D01*
X009737Y007272D01*
X009720Y007270D01*
X008720Y007270D01*
X008703Y007272D01*
X008686Y007276D01*
X008670Y007283D01*
X008656Y007293D01*
X008643Y007306D01*
X008633Y007320D01*
X008626Y007336D01*
X008622Y007353D01*
X008620Y007370D01*
X009220Y008120D02*
X009220Y008590D01*
X009220Y008840D02*
X009220Y009320D01*
X010220Y009120D02*
X010220Y009870D01*
X014220Y009870D01*
X014220Y007570D01*
X010220Y007570D01*
X010220Y008320D01*
X010259Y008322D01*
X010298Y008328D01*
X010336Y008337D01*
X010373Y008350D01*
X010409Y008367D01*
X010442Y008387D01*
X010474Y008411D01*
X010503Y008437D01*
X010529Y008466D01*
X010553Y008498D01*
X010573Y008531D01*
X010590Y008567D01*
X010603Y008604D01*
X010612Y008642D01*
X010618Y008681D01*
X010620Y008720D01*
X010618Y008759D01*
X010612Y008798D01*
X010603Y008836D01*
X010590Y008873D01*
X010573Y008909D01*
X010553Y008942D01*
X010529Y008974D01*
X010503Y009003D01*
X010474Y009029D01*
X010442Y009053D01*
X010409Y009073D01*
X010373Y009090D01*
X010336Y009103D01*
X010298Y009112D01*
X010259Y009118D01*
X010220Y009120D01*
X013070Y005045D02*
X013220Y005045D01*
X013270Y004995D01*
X015170Y004995D01*
X015220Y005045D01*
X015370Y005045D01*
X015387Y005043D01*
X015404Y005039D01*
X015420Y005032D01*
X015434Y005022D01*
X015447Y005009D01*
X015457Y004995D01*
X015464Y004979D01*
X015468Y004962D01*
X015470Y004945D01*
X015470Y004245D01*
X015468Y004228D01*
X015464Y004211D01*
X015457Y004195D01*
X015447Y004181D01*
X015434Y004168D01*
X015420Y004158D01*
X015404Y004151D01*
X015387Y004147D01*
X015370Y004145D01*
X015220Y004145D01*
X015170Y004195D01*
X013270Y004195D01*
X013220Y004145D01*
X013070Y004145D01*
X013053Y004147D01*
X013036Y004151D01*
X013020Y004158D01*
X013006Y004168D01*
X012993Y004181D01*
X012983Y004195D01*
X012976Y004211D01*
X012972Y004228D01*
X012970Y004245D01*
X012970Y004945D01*
X012972Y004962D01*
X012976Y004979D01*
X012983Y004995D01*
X012993Y005009D01*
X013006Y005022D01*
X013020Y005032D01*
X013036Y005039D01*
X013053Y005043D01*
X013070Y005045D01*
X013070Y004045D02*
X013220Y004045D01*
X013270Y003995D01*
X015170Y003995D01*
X015220Y004045D01*
X015370Y004045D01*
X015387Y004043D01*
X015404Y004039D01*
X015420Y004032D01*
X015434Y004022D01*
X015447Y004009D01*
X015457Y003995D01*
X015464Y003979D01*
X015468Y003962D01*
X015470Y003945D01*
X015470Y003245D01*
X015468Y003228D01*
X015464Y003211D01*
X015457Y003195D01*
X015447Y003181D01*
X015434Y003168D01*
X015420Y003158D01*
X015404Y003151D01*
X015387Y003147D01*
X015370Y003145D01*
X015220Y003145D01*
X015170Y003195D01*
X013270Y003195D01*
X013220Y003145D01*
X013070Y003145D01*
X013053Y003147D01*
X013036Y003151D01*
X013020Y003158D01*
X013006Y003168D01*
X012993Y003181D01*
X012983Y003195D01*
X012976Y003211D01*
X012972Y003228D01*
X012970Y003245D01*
X012970Y003945D01*
X012972Y003962D01*
X012976Y003979D01*
X012983Y003995D01*
X012993Y004009D01*
X013006Y004022D01*
X013020Y004032D01*
X013036Y004039D01*
X013053Y004043D01*
X013070Y004045D01*
X013420Y002995D02*
X015020Y002995D01*
X015037Y002993D01*
X015054Y002989D01*
X015070Y002982D01*
X015084Y002972D01*
X015097Y002959D01*
X015107Y002945D01*
X015114Y002929D01*
X015118Y002912D01*
X015120Y002895D01*
X015120Y002295D01*
X015118Y002278D01*
X015114Y002261D01*
X015107Y002245D01*
X015097Y002231D01*
X015084Y002218D01*
X015070Y002208D01*
X015054Y002201D01*
X015037Y002197D01*
X015020Y002195D01*
X013420Y002195D01*
X013403Y002197D01*
X013386Y002201D01*
X013370Y002208D01*
X013356Y002218D01*
X013343Y002231D01*
X013333Y002245D01*
X013326Y002261D01*
X013322Y002278D01*
X013320Y002295D01*
X013320Y002895D01*
X013322Y002912D01*
X013326Y002929D01*
X013333Y002945D01*
X013343Y002959D01*
X013356Y002972D01*
X013370Y002982D01*
X013386Y002989D01*
X013403Y002993D01*
X013420Y002995D01*
X013970Y002595D02*
X014220Y002595D01*
X014220Y002345D01*
X014220Y002595D02*
X014220Y002845D01*
X014220Y002595D02*
X014620Y002845D01*
X014620Y002345D01*
X014220Y002595D01*
X014820Y002595D01*
X015220Y001920D02*
X015370Y001920D01*
X015387Y001918D01*
X015404Y001914D01*
X015420Y001907D01*
X015434Y001897D01*
X015447Y001884D01*
X015457Y001870D01*
X015464Y001854D01*
X015468Y001837D01*
X015470Y001820D01*
X015470Y001120D01*
X015468Y001103D01*
X015464Y001086D01*
X015457Y001070D01*
X015447Y001056D01*
X015434Y001043D01*
X015420Y001033D01*
X015404Y001026D01*
X015387Y001022D01*
X015370Y001020D01*
X015220Y001020D01*
X015170Y001070D01*
X013270Y001070D01*
X013220Y001020D01*
X013070Y001020D01*
X013053Y001022D01*
X013036Y001026D01*
X013020Y001033D01*
X013006Y001043D01*
X012993Y001056D01*
X012983Y001070D01*
X012976Y001086D01*
X012972Y001103D01*
X012970Y001120D01*
X012970Y001820D01*
X012972Y001837D01*
X012976Y001854D01*
X012983Y001870D01*
X012993Y001884D01*
X013006Y001897D01*
X013020Y001907D01*
X013036Y001914D01*
X013053Y001918D01*
X013070Y001920D01*
X013220Y001920D01*
X013270Y001870D01*
X015170Y001870D01*
X015220Y001920D01*
X018395Y001920D02*
X018395Y001720D01*
X018395Y001920D02*
X018595Y001920D01*
X019095Y001920D02*
X019295Y001920D01*
X019295Y001720D01*
X019395Y001720D02*
X019395Y001920D01*
X019595Y001920D01*
X020095Y001920D02*
X020295Y001920D01*
X020295Y001720D01*
X020295Y001220D02*
X020295Y001020D01*
X020095Y001020D01*
X019595Y001020D02*
X019395Y001020D01*
X019395Y001220D01*
X019295Y001220D02*
X019295Y001020D01*
X019095Y001020D01*
X018595Y001020D02*
X018395Y001020D01*
X018395Y001220D01*
X019645Y002770D02*
X019845Y002770D01*
X019645Y002770D02*
X019645Y002970D01*
X019645Y003470D02*
X019645Y003670D01*
X019845Y003670D01*
X020345Y003670D02*
X020545Y003670D01*
X020545Y003470D01*
X020545Y002970D02*
X020545Y002770D01*
X020345Y002770D01*
X017745Y005470D02*
X017747Y005517D01*
X017753Y005565D01*
X017762Y005611D01*
X017775Y005657D01*
X017791Y005701D01*
X017812Y005745D01*
X017835Y005786D01*
X017861Y005825D01*
X017891Y005862D01*
X017924Y005897D01*
X017959Y005929D01*
X017996Y005958D01*
X018945Y005470D02*
X018943Y005425D01*
X018938Y005379D01*
X018930Y005335D01*
X018918Y005291D01*
X018902Y005248D01*
X018884Y005206D01*
X018862Y005166D01*
X018838Y005128D01*
X018811Y005092D01*
X018781Y005057D01*
X018748Y005026D01*
X018713Y004996D01*
X018945Y005470D02*
X018943Y005515D01*
X018938Y005561D01*
X018930Y005605D01*
X018918Y005649D01*
X018902Y005692D01*
X018884Y005734D01*
X018862Y005774D01*
X018838Y005812D01*
X018811Y005848D01*
X018781Y005883D01*
X018748Y005914D01*
X018713Y005944D01*
X017745Y005470D02*
X017747Y005424D01*
X017752Y005378D01*
X017761Y005332D01*
X017773Y005287D01*
X017789Y005244D01*
X017808Y005202D01*
X017831Y005161D01*
X017856Y005122D01*
X017884Y005086D01*
X017915Y005051D01*
X017949Y005019D01*
X017985Y004990D01*
X017895Y006720D02*
X018795Y006720D01*
X019895Y006720D02*
X020145Y006720D01*
X020168Y006722D01*
X020191Y006727D01*
X020213Y006736D01*
X020233Y006749D01*
X020251Y006764D01*
X020266Y006782D01*
X020279Y006802D01*
X020288Y006824D01*
X020293Y006847D01*
X020295Y006870D01*
X020295Y010570D01*
X020293Y010593D01*
X020288Y010616D01*
X020279Y010638D01*
X020266Y010658D01*
X020251Y010676D01*
X020233Y010691D01*
X020213Y010704D01*
X020191Y010713D01*
X020168Y010718D01*
X020145Y010720D01*
X018945Y010720D01*
X019220Y011270D02*
X019170Y011320D01*
X017270Y011320D01*
X017220Y011270D01*
X017070Y011270D01*
X017053Y011272D01*
X017036Y011276D01*
X017020Y011283D01*
X017006Y011293D01*
X016993Y011306D01*
X016983Y011320D01*
X016976Y011336D01*
X016972Y011353D01*
X016970Y011370D01*
X016970Y012070D01*
X016972Y012087D01*
X016976Y012104D01*
X016983Y012120D01*
X016993Y012134D01*
X017006Y012147D01*
X017020Y012157D01*
X017036Y012164D01*
X017053Y012168D01*
X017070Y012170D01*
X017220Y012170D01*
X017270Y012120D01*
X019170Y012120D01*
X019220Y012170D01*
X019370Y012170D01*
X019370Y012145D02*
X019220Y012145D01*
X019170Y012195D01*
X017270Y012195D01*
X017220Y012145D01*
X017070Y012145D01*
X017053Y012147D01*
X017036Y012151D01*
X017020Y012158D01*
X017006Y012168D01*
X016993Y012181D01*
X016983Y012195D01*
X016976Y012211D01*
X016972Y012228D01*
X016970Y012245D01*
X016970Y012945D01*
X016972Y012962D01*
X016976Y012979D01*
X016983Y012995D01*
X016993Y013009D01*
X017006Y013022D01*
X017020Y013032D01*
X017036Y013039D01*
X017053Y013043D01*
X017070Y013045D01*
X017220Y013045D01*
X017270Y012995D01*
X019170Y012995D01*
X019220Y013045D01*
X019370Y013045D01*
X019387Y013043D01*
X019404Y013039D01*
X019420Y013032D01*
X019434Y013022D01*
X019447Y013009D01*
X019457Y012995D01*
X019464Y012979D01*
X019468Y012962D01*
X019470Y012945D01*
X019470Y012245D01*
X019468Y012228D01*
X019464Y012211D01*
X019457Y012195D01*
X019447Y012181D01*
X019434Y012168D01*
X019420Y012158D01*
X019404Y012151D01*
X019387Y012147D01*
X019370Y012145D01*
X019370Y012170D02*
X019387Y012168D01*
X019404Y012164D01*
X019420Y012157D01*
X019434Y012147D01*
X019447Y012134D01*
X019457Y012120D01*
X019464Y012104D01*
X019468Y012087D01*
X019470Y012070D01*
X019470Y011370D01*
X019468Y011353D01*
X019464Y011336D01*
X019457Y011320D01*
X019447Y011306D01*
X019434Y011293D01*
X019420Y011283D01*
X019404Y011276D01*
X019387Y011272D01*
X019370Y011270D01*
X019220Y011270D01*
X018345Y009870D02*
X018345Y009670D01*
X018195Y009370D02*
X018495Y009370D01*
X018495Y008870D01*
X018745Y008670D01*
X018745Y008570D01*
X018495Y008570D01*
X018495Y008070D01*
X018195Y008070D01*
X018195Y008570D01*
X017945Y008570D01*
X017945Y008670D01*
X018195Y008870D01*
X018195Y009370D01*
X017645Y009420D02*
X017545Y009520D01*
X017395Y008720D02*
X017195Y008720D01*
X017745Y008120D02*
X017545Y007920D01*
X017195Y008720D02*
X017197Y008787D01*
X017203Y008855D01*
X017213Y008922D01*
X017227Y008988D01*
X017244Y009053D01*
X017266Y009117D01*
X017291Y009180D01*
X017320Y009241D01*
X017352Y009300D01*
X017388Y009357D01*
X017427Y009412D01*
X017469Y009465D01*
X017514Y009515D01*
X017562Y009562D01*
X017613Y009607D01*
X017666Y009648D01*
X017722Y009687D01*
X017780Y009722D01*
X017840Y009753D01*
X017901Y009781D01*
X017964Y009805D01*
X018028Y009826D01*
X018094Y009842D01*
X018160Y009855D01*
X018227Y009864D01*
X018294Y009869D01*
X018362Y009870D01*
X018429Y009867D01*
X018496Y009860D01*
X018563Y009849D01*
X018629Y009834D01*
X018694Y009816D01*
X018758Y009793D01*
X018820Y009767D01*
X018881Y009738D01*
X018939Y009704D01*
X018996Y009668D01*
X019051Y009628D01*
X019103Y009585D01*
X019152Y009539D01*
X019199Y009490D01*
X019243Y009439D01*
X019283Y009385D01*
X019321Y009329D01*
X019355Y009270D01*
X019385Y009210D01*
X019412Y009148D01*
X019436Y009085D01*
X019455Y009020D01*
X019471Y008955D01*
X019483Y008888D01*
X019491Y008821D01*
X019495Y008754D01*
X019495Y008686D01*
X019491Y008619D01*
X019483Y008552D01*
X019471Y008485D01*
X019455Y008420D01*
X019436Y008355D01*
X019412Y008292D01*
X019385Y008230D01*
X019355Y008170D01*
X019321Y008111D01*
X019283Y008055D01*
X019243Y008001D01*
X019199Y007950D01*
X019152Y007901D01*
X019103Y007855D01*
X019051Y007812D01*
X018996Y007772D01*
X018939Y007736D01*
X018881Y007702D01*
X018820Y007673D01*
X018758Y007647D01*
X018694Y007624D01*
X018629Y007606D01*
X018563Y007591D01*
X018496Y007580D01*
X018429Y007573D01*
X018362Y007570D01*
X018294Y007571D01*
X018227Y007576D01*
X018160Y007585D01*
X018094Y007598D01*
X018028Y007614D01*
X017964Y007635D01*
X017901Y007659D01*
X017840Y007687D01*
X017780Y007718D01*
X017722Y007753D01*
X017666Y007792D01*
X017613Y007833D01*
X017562Y007878D01*
X017514Y007925D01*
X017469Y007975D01*
X017427Y008028D01*
X017388Y008083D01*
X017352Y008140D01*
X017320Y008199D01*
X017291Y008260D01*
X017266Y008323D01*
X017244Y008387D01*
X017227Y008452D01*
X017213Y008518D01*
X017203Y008585D01*
X017197Y008653D01*
X017195Y008720D01*
X016245Y009270D02*
X016245Y008170D01*
X016243Y008153D01*
X016239Y008136D01*
X016232Y008120D01*
X016222Y008106D01*
X016209Y008093D01*
X016195Y008083D01*
X016179Y008076D01*
X016162Y008072D01*
X016145Y008070D01*
X015545Y008070D01*
X015528Y008072D01*
X015511Y008076D01*
X015495Y008083D01*
X015481Y008093D01*
X015468Y008106D01*
X015458Y008120D01*
X015451Y008136D01*
X015447Y008153D01*
X015445Y008170D01*
X015445Y009270D01*
X015447Y009287D01*
X015451Y009304D01*
X015458Y009320D01*
X015468Y009334D01*
X015481Y009347D01*
X015495Y009357D01*
X015511Y009364D01*
X015528Y009368D01*
X015545Y009370D01*
X016145Y009370D01*
X016162Y009368D01*
X016179Y009364D01*
X016195Y009357D01*
X016209Y009347D01*
X016222Y009334D01*
X016232Y009320D01*
X016239Y009304D01*
X016243Y009287D01*
X016245Y009270D01*
X016395Y010570D02*
X016395Y006870D01*
X016397Y006847D01*
X016402Y006824D01*
X016411Y006802D01*
X016424Y006782D01*
X016439Y006764D01*
X016457Y006749D01*
X016477Y006736D01*
X016499Y006727D01*
X016522Y006722D01*
X016545Y006720D01*
X016795Y006720D01*
X017545Y008720D02*
X017547Y008776D01*
X017553Y008833D01*
X017563Y008888D01*
X017577Y008943D01*
X017594Y008997D01*
X017616Y009049D01*
X017641Y009099D01*
X017669Y009148D01*
X017701Y009195D01*
X017736Y009239D01*
X017774Y009281D01*
X017815Y009320D01*
X017859Y009355D01*
X017905Y009388D01*
X017953Y009417D01*
X018003Y009443D01*
X018055Y009466D01*
X018109Y009484D01*
X018163Y009499D01*
X018218Y009510D01*
X018274Y009517D01*
X018331Y009520D01*
X018387Y009519D01*
X018444Y009514D01*
X018499Y009505D01*
X018554Y009492D01*
X018608Y009475D01*
X018661Y009455D01*
X018712Y009431D01*
X018761Y009403D01*
X018808Y009372D01*
X018853Y009338D01*
X018896Y009300D01*
X018935Y009260D01*
X018972Y009217D01*
X019005Y009172D01*
X019035Y009124D01*
X019062Y009074D01*
X019085Y009023D01*
X019105Y008970D01*
X019121Y008916D01*
X019133Y008860D01*
X019141Y008805D01*
X019145Y008748D01*
X019145Y008692D01*
X019141Y008635D01*
X019133Y008580D01*
X019121Y008524D01*
X019105Y008470D01*
X019085Y008417D01*
X019062Y008366D01*
X019035Y008316D01*
X019005Y008268D01*
X018972Y008223D01*
X018935Y008180D01*
X018896Y008140D01*
X018853Y008102D01*
X018808Y008068D01*
X018761Y008037D01*
X018712Y008009D01*
X018661Y007985D01*
X018608Y007965D01*
X018554Y007948D01*
X018499Y007935D01*
X018444Y007926D01*
X018387Y007921D01*
X018331Y007920D01*
X018274Y007923D01*
X018218Y007930D01*
X018163Y007941D01*
X018109Y007956D01*
X018055Y007974D01*
X018003Y007997D01*
X017953Y008023D01*
X017905Y008052D01*
X017859Y008085D01*
X017815Y008120D01*
X017774Y008159D01*
X017736Y008201D01*
X017701Y008245D01*
X017669Y008292D01*
X017641Y008341D01*
X017616Y008391D01*
X017594Y008443D01*
X017577Y008497D01*
X017563Y008552D01*
X017553Y008607D01*
X017547Y008664D01*
X017545Y008720D01*
X018945Y008120D02*
X019145Y007920D01*
X019295Y008720D02*
X019495Y008720D01*
X019045Y009420D02*
X019145Y009520D01*
X017745Y010720D02*
X016545Y010720D01*
X016522Y010718D01*
X016499Y010713D01*
X016477Y010704D01*
X016457Y010691D01*
X016439Y010676D01*
X016424Y010658D01*
X016411Y010638D01*
X016402Y010616D01*
X016397Y010593D01*
X016395Y010570D01*
X014370Y013395D02*
X014220Y013395D01*
X014170Y013445D01*
X012270Y013445D01*
X012220Y013395D01*
X012070Y013395D01*
X012053Y013397D01*
X012036Y013401D01*
X012020Y013408D01*
X012006Y013418D01*
X011993Y013431D01*
X011983Y013445D01*
X011976Y013461D01*
X011972Y013478D01*
X011970Y013495D01*
X011970Y014195D01*
X011972Y014212D01*
X011976Y014229D01*
X011983Y014245D01*
X011993Y014259D01*
X012006Y014272D01*
X012020Y014282D01*
X012036Y014289D01*
X012053Y014293D01*
X012070Y014295D01*
X012220Y014295D01*
X012270Y014245D01*
X014170Y014245D01*
X014220Y014295D01*
X014370Y014295D01*
X014387Y014293D01*
X014404Y014289D01*
X014420Y014282D01*
X014434Y014272D01*
X014447Y014259D01*
X014457Y014245D01*
X014464Y014229D01*
X014468Y014212D01*
X014470Y014195D01*
X014470Y013495D01*
X014468Y013478D01*
X014464Y013461D01*
X014457Y013445D01*
X014447Y013431D01*
X014434Y013418D01*
X014420Y013408D01*
X014404Y013401D01*
X014387Y013397D01*
X014370Y013395D01*
X014720Y014270D02*
X015720Y014270D01*
X015737Y014272D01*
X015754Y014276D01*
X015770Y014283D01*
X015784Y014293D01*
X015797Y014306D01*
X015807Y014320D01*
X015814Y014336D01*
X015818Y014353D01*
X015820Y014370D01*
X015820Y017070D01*
X015818Y017087D01*
X015814Y017104D01*
X015807Y017120D01*
X015797Y017134D01*
X015784Y017147D01*
X015770Y017157D01*
X015754Y017164D01*
X015737Y017168D01*
X015720Y017170D01*
X014720Y017170D01*
X014703Y017168D01*
X014686Y017164D01*
X014670Y017157D01*
X014656Y017147D01*
X014643Y017134D01*
X014633Y017120D01*
X014626Y017104D01*
X014622Y017087D01*
X014620Y017070D01*
X014620Y014370D01*
X014622Y014353D01*
X014626Y014336D01*
X014633Y014320D01*
X014643Y014306D01*
X014656Y014293D01*
X014670Y014283D01*
X014686Y014276D01*
X014703Y014272D01*
X014720Y014270D01*
X015220Y015120D02*
X015220Y015590D01*
X015220Y015840D02*
X015220Y016320D01*
X015920Y015420D02*
X015920Y018470D01*
X015920Y019320D02*
X015920Y021020D01*
X017020Y021020D01*
X019420Y021020D01*
X020520Y021020D01*
X020520Y017470D01*
X020520Y016720D02*
X020520Y015420D01*
X015920Y015420D01*
X016470Y014920D02*
X016670Y014920D01*
X016570Y014820D02*
X016570Y015020D01*
X015970Y014220D02*
X015972Y014283D01*
X015978Y014345D01*
X015988Y014407D01*
X016001Y014469D01*
X016019Y014529D01*
X016040Y014588D01*
X016065Y014646D01*
X016094Y014702D01*
X016126Y014756D01*
X016161Y014808D01*
X016199Y014857D01*
X016241Y014905D01*
X016285Y014949D01*
X016333Y014991D01*
X016382Y015029D01*
X016434Y015064D01*
X016488Y015096D01*
X016544Y015125D01*
X016602Y015150D01*
X016661Y015171D01*
X016721Y015189D01*
X016783Y015202D01*
X016845Y015212D01*
X016907Y015218D01*
X016970Y015220D01*
X017033Y015218D01*
X017095Y015212D01*
X017157Y015202D01*
X017219Y015189D01*
X017279Y015171D01*
X017338Y015150D01*
X017396Y015125D01*
X017452Y015096D01*
X017506Y015064D01*
X017558Y015029D01*
X017607Y014991D01*
X017655Y014949D01*
X017699Y014905D01*
X017741Y014857D01*
X017779Y014808D01*
X017814Y014756D01*
X017846Y014702D01*
X017875Y014646D01*
X017900Y014588D01*
X017921Y014529D01*
X017939Y014469D01*
X017952Y014407D01*
X017962Y014345D01*
X017968Y014283D01*
X017970Y014220D01*
X017968Y014157D01*
X017962Y014095D01*
X017952Y014033D01*
X017939Y013971D01*
X017921Y013911D01*
X017900Y013852D01*
X017875Y013794D01*
X017846Y013738D01*
X017814Y013684D01*
X017779Y013632D01*
X017741Y013583D01*
X017699Y013535D01*
X017655Y013491D01*
X017607Y013449D01*
X017558Y013411D01*
X017506Y013376D01*
X017452Y013344D01*
X017396Y013315D01*
X017338Y013290D01*
X017279Y013269D01*
X017219Y013251D01*
X017157Y013238D01*
X017095Y013228D01*
X017033Y013222D01*
X016970Y013220D01*
X016907Y013222D01*
X016845Y013228D01*
X016783Y013238D01*
X016721Y013251D01*
X016661Y013269D01*
X016602Y013290D01*
X016544Y013315D01*
X016488Y013344D01*
X016434Y013376D01*
X016382Y013411D01*
X016333Y013449D01*
X016285Y013491D01*
X016241Y013535D01*
X016199Y013583D01*
X016161Y013632D01*
X016126Y013684D01*
X016094Y013738D01*
X016065Y013794D01*
X016040Y013852D01*
X016019Y013911D01*
X016001Y013971D01*
X015988Y014033D01*
X015978Y014095D01*
X015972Y014157D01*
X015970Y014220D01*
X013370Y014670D02*
X013070Y014670D01*
X013220Y014520D02*
X013220Y014820D01*
X011870Y015720D02*
X011872Y015793D01*
X011878Y015866D01*
X011888Y015938D01*
X011902Y016010D01*
X011919Y016081D01*
X011941Y016151D01*
X011966Y016220D01*
X011995Y016287D01*
X012027Y016352D01*
X012063Y016416D01*
X012103Y016478D01*
X012145Y016537D01*
X012191Y016594D01*
X012240Y016648D01*
X012292Y016700D01*
X012346Y016749D01*
X012403Y016795D01*
X012462Y016837D01*
X012524Y016877D01*
X012588Y016913D01*
X012653Y016945D01*
X012720Y016974D01*
X012789Y016999D01*
X012859Y017021D01*
X012930Y017038D01*
X013002Y017052D01*
X013074Y017062D01*
X013147Y017068D01*
X013220Y017070D01*
X013293Y017068D01*
X013366Y017062D01*
X013438Y017052D01*
X013510Y017038D01*
X013581Y017021D01*
X013651Y016999D01*
X013720Y016974D01*
X013787Y016945D01*
X013852Y016913D01*
X013916Y016877D01*
X013978Y016837D01*
X014037Y016795D01*
X014094Y016749D01*
X014148Y016700D01*
X014200Y016648D01*
X014249Y016594D01*
X014295Y016537D01*
X014337Y016478D01*
X014377Y016416D01*
X014413Y016352D01*
X014445Y016287D01*
X014474Y016220D01*
X014499Y016151D01*
X014521Y016081D01*
X014538Y016010D01*
X014552Y015938D01*
X014562Y015866D01*
X014568Y015793D01*
X014570Y015720D01*
X014568Y015647D01*
X014562Y015574D01*
X014552Y015502D01*
X014538Y015430D01*
X014521Y015359D01*
X014499Y015289D01*
X014474Y015220D01*
X014445Y015153D01*
X014413Y015088D01*
X014377Y015024D01*
X014337Y014962D01*
X014295Y014903D01*
X014249Y014846D01*
X014200Y014792D01*
X014148Y014740D01*
X014094Y014691D01*
X014037Y014645D01*
X013978Y014603D01*
X013916Y014563D01*
X013852Y014527D01*
X013787Y014495D01*
X013720Y014466D01*
X013651Y014441D01*
X013581Y014419D01*
X013510Y014402D01*
X013438Y014388D01*
X013366Y014378D01*
X013293Y014372D01*
X013220Y014370D01*
X013147Y014372D01*
X013074Y014378D01*
X013002Y014388D01*
X012930Y014402D01*
X012859Y014419D01*
X012789Y014441D01*
X012720Y014466D01*
X012653Y014495D01*
X012588Y014527D01*
X012524Y014563D01*
X012462Y014603D01*
X012403Y014645D01*
X012346Y014691D01*
X012292Y014740D01*
X012240Y014792D01*
X012191Y014846D01*
X012145Y014903D01*
X012103Y014962D01*
X012063Y015024D01*
X012027Y015088D01*
X011995Y015153D01*
X011966Y015220D01*
X011941Y015289D01*
X011919Y015359D01*
X011902Y015430D01*
X011888Y015502D01*
X011878Y015574D01*
X011872Y015647D01*
X011870Y015720D01*
X011220Y015600D02*
X011220Y015120D01*
X011220Y015850D02*
X011220Y016320D01*
X010620Y017070D02*
X010622Y017087D01*
X010626Y017104D01*
X010633Y017120D01*
X010643Y017134D01*
X010656Y017147D01*
X010670Y017157D01*
X010686Y017164D01*
X010703Y017168D01*
X010720Y017170D01*
X011720Y017170D01*
X011737Y017168D01*
X011754Y017164D01*
X011770Y017157D01*
X011784Y017147D01*
X011797Y017134D01*
X011807Y017120D01*
X011814Y017104D01*
X011818Y017087D01*
X011820Y017070D01*
X011820Y014370D01*
X011818Y014353D01*
X011814Y014336D01*
X011807Y014320D01*
X011797Y014306D01*
X011784Y014293D01*
X011770Y014283D01*
X011754Y014276D01*
X011737Y014272D01*
X011720Y014270D01*
X010720Y014270D01*
X010703Y014272D01*
X010686Y014276D01*
X010670Y014283D01*
X010656Y014293D01*
X010643Y014306D01*
X010633Y014320D01*
X010626Y014336D01*
X010622Y014353D01*
X010620Y014370D01*
X010620Y017070D01*
X010720Y017370D02*
X010220Y017370D01*
X010220Y017470D01*
X009720Y017470D01*
X009720Y020970D01*
X011920Y020970D01*
X011920Y020570D01*
X011920Y020470D01*
X010220Y020470D01*
X010220Y017970D01*
X015220Y017970D01*
X015220Y020470D01*
X013520Y020470D01*
X013520Y020570D01*
X013520Y020970D01*
X013720Y020970D01*
X013720Y020920D01*
X014220Y020920D01*
X014220Y020970D01*
X015720Y020970D01*
X015720Y017470D01*
X015220Y017470D01*
X015220Y017370D01*
X014720Y017370D01*
X014720Y017470D01*
X012970Y017470D01*
X012970Y017370D01*
X012470Y017370D01*
X012470Y017470D01*
X010720Y017470D01*
X010720Y017370D01*
X011920Y020170D02*
X013520Y020170D01*
X013520Y020470D01*
X013520Y020970D02*
X011920Y020970D01*
X011920Y020470D02*
X011920Y020170D01*
X017020Y021020D02*
X017020Y022220D01*
X019420Y022220D01*
X019220Y022420D01*
X017220Y022420D01*
X017020Y022220D01*
X019420Y022220D02*
X019420Y021020D01*
X018470Y014220D02*
X018472Y014283D01*
X018478Y014345D01*
X018488Y014407D01*
X018501Y014469D01*
X018519Y014529D01*
X018540Y014588D01*
X018565Y014646D01*
X018594Y014702D01*
X018626Y014756D01*
X018661Y014808D01*
X018699Y014857D01*
X018741Y014905D01*
X018785Y014949D01*
X018833Y014991D01*
X018882Y015029D01*
X018934Y015064D01*
X018988Y015096D01*
X019044Y015125D01*
X019102Y015150D01*
X019161Y015171D01*
X019221Y015189D01*
X019283Y015202D01*
X019345Y015212D01*
X019407Y015218D01*
X019470Y015220D01*
X019533Y015218D01*
X019595Y015212D01*
X019657Y015202D01*
X019719Y015189D01*
X019779Y015171D01*
X019838Y015150D01*
X019896Y015125D01*
X019952Y015096D01*
X020006Y015064D01*
X020058Y015029D01*
X020107Y014991D01*
X020155Y014949D01*
X020199Y014905D01*
X020241Y014857D01*
X020279Y014808D01*
X020314Y014756D01*
X020346Y014702D01*
X020375Y014646D01*
X020400Y014588D01*
X020421Y014529D01*
X020439Y014469D01*
X020452Y014407D01*
X020462Y014345D01*
X020468Y014283D01*
X020470Y014220D01*
X020468Y014157D01*
X020462Y014095D01*
X020452Y014033D01*
X020439Y013971D01*
X020421Y013911D01*
X020400Y013852D01*
X020375Y013794D01*
X020346Y013738D01*
X020314Y013684D01*
X020279Y013632D01*
X020241Y013583D01*
X020199Y013535D01*
X020155Y013491D01*
X020107Y013449D01*
X020058Y013411D01*
X020006Y013376D01*
X019952Y013344D01*
X019896Y013315D01*
X019838Y013290D01*
X019779Y013269D01*
X019719Y013251D01*
X019657Y013238D01*
X019595Y013228D01*
X019533Y013222D01*
X019470Y013220D01*
X019407Y013222D01*
X019345Y013228D01*
X019283Y013238D01*
X019221Y013251D01*
X019161Y013269D01*
X019102Y013290D01*
X019044Y013315D01*
X018988Y013344D01*
X018934Y013376D01*
X018882Y013411D01*
X018833Y013449D01*
X018785Y013491D01*
X018741Y013535D01*
X018699Y013583D01*
X018661Y013632D01*
X018626Y013684D01*
X018594Y013738D01*
X018565Y013794D01*
X018540Y013852D01*
X018519Y013911D01*
X018501Y013971D01*
X018488Y014033D01*
X018478Y014095D01*
X018472Y014157D01*
X018470Y014220D01*
X019770Y013520D02*
X019970Y013520D01*
X019870Y013620D02*
X019870Y013420D01*
X011832Y002757D02*
X007108Y002757D01*
X007108Y001183D01*
X011832Y001183D01*
X011832Y002757D01*
X010415Y002442D02*
X010415Y001498D01*
X008525Y001498D01*
X008525Y002442D01*
X010415Y002442D01*
D13*
X016860Y003547D02*
X016860Y003608D01*
X016983Y003732D01*
X016983Y003794D01*
X016922Y003855D01*
X016860Y003794D01*
X016860Y003732D01*
X017107Y003485D01*
X017107Y003608D02*
X016983Y003485D01*
X016922Y003485D01*
X016860Y003547D01*
X016985Y003275D02*
X017033Y003275D01*
X017033Y002985D01*
X016985Y002985D02*
X017082Y002985D01*
X017181Y003033D02*
X017230Y003082D01*
X017375Y003082D01*
X017375Y003130D02*
X017375Y002985D01*
X017230Y002985D01*
X017181Y003033D01*
X017230Y003178D02*
X017327Y003178D01*
X017375Y003130D01*
X017476Y003178D02*
X017621Y003178D01*
X017670Y003130D01*
X017670Y003033D01*
X017621Y002985D01*
X017476Y002985D01*
X017476Y003275D01*
X017597Y003485D02*
X017597Y003855D01*
X017720Y003732D01*
X017844Y003855D01*
X017844Y003485D01*
X017965Y003547D02*
X018027Y003485D01*
X018150Y003485D01*
X018212Y003547D01*
X018212Y003855D01*
X018333Y003794D02*
X018333Y003732D01*
X018395Y003670D01*
X018518Y003670D01*
X018580Y003608D01*
X018580Y003547D01*
X018518Y003485D01*
X018395Y003485D01*
X018333Y003547D01*
X018333Y003794D02*
X018395Y003855D01*
X018518Y003855D01*
X018580Y003794D01*
X018702Y003855D02*
X018825Y003855D01*
X018763Y003855D02*
X018763Y003485D01*
X018702Y003485D02*
X018825Y003485D01*
X018947Y003547D02*
X018947Y003794D01*
X019009Y003855D01*
X019132Y003855D01*
X019194Y003794D01*
X019194Y003547D02*
X019132Y003485D01*
X019009Y003485D01*
X018947Y003547D01*
X018752Y003324D02*
X018752Y003275D01*
X018752Y003178D02*
X018752Y002985D01*
X018704Y002985D02*
X018801Y002985D01*
X018900Y003033D02*
X018900Y003130D01*
X018949Y003178D01*
X019094Y003178D01*
X019094Y003275D02*
X019094Y002985D01*
X018949Y002985D01*
X018900Y003033D01*
X018752Y003178D02*
X018704Y003178D01*
X018556Y003178D02*
X018556Y002985D01*
X018604Y002985D02*
X018507Y002985D01*
X018406Y002985D02*
X018261Y002985D01*
X018213Y003033D01*
X018213Y003130D01*
X018261Y003178D01*
X018406Y003178D01*
X018507Y003178D02*
X018556Y003178D01*
X018556Y003275D02*
X018556Y003324D01*
X018114Y003033D02*
X018114Y002985D01*
X018065Y002985D01*
X018065Y003033D01*
X018114Y003033D01*
X017964Y003033D02*
X017916Y003082D01*
X017819Y003082D01*
X017771Y003130D01*
X017819Y003178D01*
X017964Y003178D01*
X017964Y003033D02*
X017916Y002985D01*
X017771Y002985D01*
X017965Y003547D02*
X017965Y003855D01*
X018027Y004085D02*
X017965Y004147D01*
X017965Y004394D01*
X018027Y004455D01*
X018150Y004455D01*
X018212Y004394D01*
X018212Y004147D01*
X018150Y004085D01*
X018027Y004085D01*
X018333Y004085D02*
X018333Y004455D01*
X018518Y004455D01*
X018580Y004394D01*
X018580Y004270D01*
X018518Y004208D01*
X018333Y004208D01*
X018457Y004208D02*
X018580Y004085D01*
X018702Y004147D02*
X018763Y004085D01*
X018887Y004085D01*
X018948Y004147D01*
X018948Y004208D01*
X018887Y004270D01*
X018763Y004270D01*
X018702Y004332D01*
X018702Y004394D01*
X018763Y004455D01*
X018887Y004455D01*
X018948Y004394D01*
X017844Y004455D02*
X017597Y004455D01*
X017720Y004455D02*
X017720Y004085D01*
X017475Y004147D02*
X017475Y004394D01*
X017413Y004455D01*
X017290Y004455D01*
X017228Y004394D01*
X017228Y004147D01*
X017290Y004085D01*
X017413Y004085D01*
X017475Y004147D01*
X017107Y004085D02*
X017107Y004455D01*
X016983Y004332D01*
X016860Y004455D01*
X016860Y004085D01*
X019195Y003033D02*
X019243Y003033D01*
X019243Y002985D01*
X019195Y002985D01*
X019195Y003033D01*
X019342Y003033D02*
X019342Y003130D01*
X019391Y003178D01*
X019536Y003178D01*
X019536Y003275D02*
X019536Y002985D01*
X019391Y002985D01*
X019342Y003033D01*
X019637Y002985D02*
X019637Y003275D01*
X019782Y003178D02*
X019637Y003082D01*
X019782Y002985D01*
X015027Y011752D02*
X014758Y011752D01*
X014893Y011752D02*
X014893Y012155D01*
X014758Y012020D01*
D14*
X014640Y013845D03*
X016800Y012595D03*
X016800Y011720D03*
X019640Y011720D03*
X019640Y012595D03*
X015640Y004595D03*
X015640Y003595D03*
X015640Y001470D03*
X012800Y001470D03*
X012800Y003595D03*
X012800Y004595D03*
X011800Y013845D03*
D15*
X012785Y013770D02*
X013010Y013770D01*
X013085Y013845D01*
X013085Y013995D01*
X013010Y014070D01*
X012785Y014070D01*
X012785Y013620D01*
X012935Y013770D02*
X013085Y013620D01*
X013245Y013695D02*
X013320Y013620D01*
X013470Y013620D01*
X013545Y013695D01*
X013545Y013770D01*
X013470Y013845D01*
X013395Y013845D01*
X013470Y013845D02*
X013545Y013920D01*
X013545Y013995D01*
X013470Y014070D01*
X013320Y014070D01*
X013245Y013995D01*
X012495Y015285D02*
X012195Y015285D01*
X012120Y015360D01*
X012120Y015510D01*
X012195Y015585D01*
X012345Y015745D02*
X012195Y015895D01*
X012120Y016045D01*
X012345Y015970D02*
X012345Y015745D01*
X012495Y015745D01*
X012570Y015820D01*
X012570Y015970D01*
X012495Y016045D01*
X012420Y016045D01*
X012345Y015970D01*
X012495Y015585D02*
X012570Y015510D01*
X012570Y015360D01*
X012495Y015285D01*
X012495Y016920D02*
X012345Y016920D01*
X012270Y016995D01*
X012270Y017145D02*
X012420Y017220D01*
X012495Y017220D01*
X012570Y017145D01*
X012570Y016995D01*
X012495Y016920D01*
X012270Y017145D02*
X012270Y017370D01*
X012570Y017370D01*
X012110Y017295D02*
X012035Y017370D01*
X011885Y017370D01*
X011810Y017295D01*
X011810Y016995D01*
X011885Y016920D01*
X012035Y016920D01*
X012110Y016995D01*
X013810Y016995D02*
X013885Y016920D01*
X014035Y016920D01*
X014110Y016995D01*
X014270Y016995D02*
X014270Y016920D01*
X014270Y016995D02*
X014570Y017295D01*
X014570Y017370D01*
X014270Y017370D01*
X014110Y017295D02*
X014035Y017370D01*
X013885Y017370D01*
X013810Y017295D01*
X013810Y016995D01*
X014285Y018495D02*
X014585Y018795D01*
X014585Y018870D01*
X014510Y018945D01*
X014360Y018945D01*
X014285Y018870D01*
X014285Y018495D02*
X014585Y018495D01*
X014585Y019495D02*
X014285Y019495D01*
X014435Y019495D02*
X014435Y019945D01*
X014285Y019795D01*
X012735Y020420D02*
X012735Y020495D01*
X012660Y020570D01*
X012435Y020570D01*
X012435Y020420D01*
X012510Y020345D01*
X012660Y020345D01*
X012735Y020420D01*
X012585Y020720D02*
X012435Y020570D01*
X012585Y020720D02*
X012735Y020795D01*
X008335Y019495D02*
X008035Y019495D01*
X008185Y019495D02*
X008185Y019945D01*
X008035Y019795D01*
X008110Y018945D02*
X008035Y018870D01*
X008110Y018945D02*
X008260Y018945D01*
X008335Y018870D01*
X008335Y018795D01*
X008035Y018495D01*
X008335Y018495D01*
X006485Y020420D02*
X006485Y020495D01*
X006410Y020570D01*
X006185Y020570D01*
X006185Y020420D01*
X006260Y020345D01*
X006410Y020345D01*
X006485Y020420D01*
X006335Y020720D02*
X006185Y020570D01*
X006335Y020720D02*
X006485Y020795D01*
X003335Y019720D02*
X003335Y019645D01*
X003260Y019570D01*
X003110Y019570D01*
X003035Y019645D01*
X003035Y019720D01*
X003110Y019795D01*
X003260Y019795D01*
X003335Y019720D01*
X003260Y019570D02*
X003335Y019495D01*
X003335Y019420D01*
X003260Y019345D01*
X003110Y019345D01*
X003035Y019420D01*
X003035Y019495D01*
X003110Y019570D01*
X002874Y019420D02*
X002799Y019345D01*
X002649Y019345D01*
X002574Y019420D01*
X002574Y019720D01*
X002649Y019795D01*
X002799Y019795D01*
X002874Y019720D01*
X002031Y017320D02*
X001880Y017320D01*
X001805Y017245D01*
X001805Y017170D01*
X001880Y017095D01*
X002106Y017095D01*
X002106Y016945D02*
X002106Y017245D01*
X002031Y017320D01*
X002106Y016945D02*
X002031Y016870D01*
X001880Y016870D01*
X001805Y016945D01*
X001645Y016945D02*
X001570Y016870D01*
X001420Y016870D01*
X001345Y016945D01*
X001345Y017245D01*
X001420Y017320D01*
X001570Y017320D01*
X001645Y017245D01*
X004045Y015495D02*
X004045Y015420D01*
X004120Y015345D01*
X004270Y015345D01*
X004345Y015270D01*
X004345Y015195D01*
X004270Y015120D01*
X004120Y015120D01*
X004045Y015195D01*
X004045Y015495D02*
X004120Y015570D01*
X004270Y015570D01*
X004345Y015495D01*
X004505Y015570D02*
X004505Y015120D01*
X004806Y015120D02*
X004806Y015570D01*
X004966Y015570D02*
X005266Y015570D01*
X005266Y015495D01*
X004966Y015195D01*
X004966Y015120D01*
X004806Y015120D02*
X004505Y015570D01*
X005426Y015570D02*
X005426Y015345D01*
X005576Y015420D01*
X005651Y015420D01*
X005726Y015345D01*
X005726Y015195D01*
X005651Y015120D01*
X005501Y015120D01*
X005426Y015195D01*
X005426Y015570D02*
X005726Y015570D01*
X005887Y015345D02*
X006187Y015345D01*
X006347Y015345D02*
X006647Y015345D01*
X006807Y015420D02*
X006957Y015570D01*
X006957Y015120D01*
X006807Y015120D02*
X007108Y015120D01*
X007268Y015195D02*
X007268Y015495D01*
X007343Y015570D01*
X007493Y015570D01*
X007568Y015495D01*
X007268Y015195D01*
X007343Y015120D01*
X007493Y015120D01*
X007568Y015195D01*
X007568Y015495D01*
X007728Y015570D02*
X007728Y015120D01*
X007728Y015270D02*
X007953Y015270D01*
X008028Y015345D01*
X008028Y015495D01*
X007953Y015570D01*
X007728Y015570D01*
X008189Y015570D02*
X008189Y015120D01*
X008414Y015120D01*
X008489Y015195D01*
X008489Y015495D01*
X008414Y015570D01*
X008189Y015570D01*
X008649Y015570D02*
X008799Y015570D01*
X008724Y015570D02*
X008724Y015120D01*
X008649Y015120D02*
X008799Y015120D01*
X008956Y015120D02*
X008956Y015570D01*
X009181Y015570D01*
X009256Y015495D01*
X009256Y015345D01*
X009181Y015270D01*
X008956Y015270D01*
X006572Y015120D02*
X006572Y015570D01*
X006347Y015345D01*
X006112Y015120D02*
X006112Y015570D01*
X005887Y015345D01*
X003420Y010845D02*
X003420Y010395D01*
X003270Y010395D02*
X003570Y010395D01*
X003270Y010695D02*
X003420Y010845D01*
X003110Y010770D02*
X003035Y010845D01*
X002885Y010845D01*
X002810Y010770D01*
X002810Y010470D01*
X002885Y010395D01*
X003035Y010395D01*
X003110Y010470D01*
X004634Y008945D02*
X004784Y008795D01*
X004934Y008945D01*
X004934Y008495D01*
X005094Y008570D02*
X005169Y008495D01*
X005319Y008495D01*
X005394Y008570D01*
X005554Y008495D02*
X005554Y008945D01*
X005780Y008945D01*
X005855Y008870D01*
X005855Y008720D01*
X005780Y008645D01*
X005554Y008645D01*
X005394Y008870D02*
X005319Y008945D01*
X005169Y008945D01*
X005094Y008870D01*
X005094Y008570D01*
X004634Y008495D02*
X004634Y008945D01*
X006015Y008720D02*
X006315Y008720D01*
X006475Y008795D02*
X006550Y008720D01*
X006775Y008720D01*
X006775Y008570D02*
X006775Y008870D01*
X006700Y008945D01*
X006550Y008945D01*
X006475Y008870D01*
X006475Y008795D01*
X006475Y008570D02*
X006550Y008495D01*
X006700Y008495D01*
X006775Y008570D01*
X006936Y008495D02*
X007236Y008795D01*
X007236Y008870D01*
X007161Y008945D01*
X007011Y008945D01*
X006936Y008870D01*
X006936Y008495D02*
X007236Y008495D01*
X007396Y008495D02*
X007696Y008495D01*
X007546Y008495D02*
X007546Y008945D01*
X007396Y008795D01*
X006240Y008945D02*
X006240Y008495D01*
X006015Y008720D02*
X006240Y008945D01*
X008760Y010420D02*
X008835Y010345D01*
X008985Y010345D01*
X009060Y010420D01*
X009220Y010345D02*
X009520Y010645D01*
X009520Y010720D01*
X009445Y010795D01*
X009295Y010795D01*
X009220Y010720D01*
X009060Y010720D02*
X008985Y010795D01*
X008835Y010795D01*
X008760Y010720D01*
X008760Y010420D01*
X009220Y010345D02*
X009520Y010345D01*
X011094Y008945D02*
X011094Y008495D01*
X011394Y008495D01*
X011554Y008495D02*
X011554Y008945D01*
X011705Y008795D01*
X011855Y008945D01*
X011855Y008495D01*
X012015Y008570D02*
X012090Y008495D01*
X012240Y008495D01*
X012315Y008570D01*
X012315Y008645D01*
X012240Y008720D01*
X012165Y008720D01*
X012240Y008720D02*
X012315Y008795D01*
X012315Y008870D01*
X012240Y008945D01*
X012090Y008945D01*
X012015Y008870D01*
X012475Y008870D02*
X012475Y008795D01*
X012550Y008720D01*
X012700Y008720D01*
X012775Y008645D01*
X012775Y008570D01*
X012700Y008495D01*
X012550Y008495D01*
X012475Y008570D01*
X012475Y008645D01*
X012550Y008720D01*
X012700Y008720D02*
X012775Y008795D01*
X012775Y008870D01*
X012700Y008945D01*
X012550Y008945D01*
X012475Y008870D01*
X012936Y008720D02*
X013161Y008720D01*
X013236Y008645D01*
X013236Y008570D01*
X013161Y008495D01*
X013011Y008495D01*
X012936Y008570D01*
X012936Y008720D01*
X013086Y008870D01*
X013236Y008945D01*
X016535Y010095D02*
X016535Y010545D01*
X016760Y010545D01*
X016835Y010470D01*
X016835Y010320D01*
X016760Y010245D01*
X016535Y010245D01*
X016685Y010245D02*
X016835Y010095D01*
X016995Y010095D02*
X017295Y010095D01*
X017145Y010095D02*
X017145Y010545D01*
X016995Y010395D01*
X017785Y011495D02*
X017785Y011945D01*
X018010Y011945D01*
X018085Y011870D01*
X018085Y011720D01*
X018010Y011645D01*
X017785Y011645D01*
X017935Y011645D02*
X018085Y011495D01*
X018245Y011495D02*
X018545Y011795D01*
X018545Y011870D01*
X018470Y011945D01*
X018320Y011945D01*
X018245Y011870D01*
X018245Y011495D02*
X018545Y011495D01*
X018470Y012370D02*
X018470Y012820D01*
X018245Y012595D01*
X018545Y012595D01*
X018085Y012595D02*
X018010Y012520D01*
X017785Y012520D01*
X017935Y012520D02*
X018085Y012370D01*
X018085Y012595D02*
X018085Y012745D01*
X018010Y012820D01*
X017785Y012820D01*
X017785Y012370D01*
X016170Y013170D02*
X016095Y013095D01*
X015945Y013095D01*
X015870Y013170D01*
X015710Y013170D02*
X015635Y013095D01*
X015485Y013095D01*
X015410Y013170D01*
X015410Y013470D01*
X015485Y013545D01*
X015635Y013545D01*
X015710Y013470D01*
X015870Y013470D02*
X015945Y013545D01*
X016095Y013545D01*
X016170Y013470D01*
X016170Y013395D01*
X016095Y013320D01*
X016170Y013245D01*
X016170Y013170D01*
X016095Y013320D02*
X016020Y013320D01*
X017910Y014945D02*
X017985Y014870D01*
X018135Y014870D01*
X018210Y014945D01*
X018370Y015095D02*
X018670Y015095D01*
X018595Y014870D02*
X018595Y015320D01*
X018370Y015095D01*
X018210Y015245D02*
X018135Y015320D01*
X017985Y015320D01*
X017910Y015245D01*
X017910Y014945D01*
X019820Y018746D02*
X019745Y018822D01*
X019745Y018972D01*
X019820Y019047D01*
X019895Y019047D01*
X019970Y018972D01*
X020045Y019047D01*
X020120Y019047D01*
X020195Y018972D01*
X020195Y018822D01*
X020120Y018746D01*
X019970Y018897D02*
X019970Y018972D01*
X020120Y019282D02*
X020195Y019282D01*
X020195Y019357D01*
X020120Y019357D01*
X020120Y019282D01*
X020195Y019357D02*
X020345Y019207D01*
X020120Y019514D02*
X020195Y019589D01*
X020195Y019739D01*
X020120Y019814D01*
X019970Y019814D01*
X019895Y019739D01*
X019895Y019664D01*
X019970Y019514D01*
X019745Y019514D01*
X019745Y019814D01*
X019895Y019974D02*
X019895Y020049D01*
X019970Y020124D01*
X019895Y020199D01*
X019970Y020274D01*
X020195Y020274D01*
X020195Y020124D02*
X019970Y020124D01*
X019895Y019974D02*
X020195Y019974D01*
X020195Y020435D02*
X019895Y020435D01*
X019895Y020510D01*
X019970Y020585D01*
X019895Y020660D01*
X019970Y020735D01*
X020195Y020735D01*
X020195Y020585D02*
X019970Y020585D01*
X011570Y005045D02*
X007870Y005045D01*
X007770Y004945D01*
X007720Y003795D01*
X011390Y004805D02*
X011392Y004825D01*
X011398Y004843D01*
X011407Y004861D01*
X011419Y004876D01*
X011434Y004888D01*
X011452Y004897D01*
X011470Y004903D01*
X011490Y004905D01*
X011510Y004903D01*
X011528Y004897D01*
X011546Y004888D01*
X011561Y004876D01*
X011573Y004861D01*
X011582Y004843D01*
X011588Y004825D01*
X011590Y004805D01*
X011588Y004785D01*
X011582Y004767D01*
X011573Y004749D01*
X011561Y004734D01*
X011546Y004722D01*
X011528Y004713D01*
X011510Y004707D01*
X011490Y004705D01*
X011470Y004707D01*
X011452Y004713D01*
X011434Y004722D01*
X011419Y004734D01*
X011407Y004749D01*
X011398Y004767D01*
X011392Y004785D01*
X011390Y004805D01*
X011570Y005045D02*
X011670Y004945D01*
X011720Y003795D01*
X013795Y003795D02*
X013795Y003345D01*
X013795Y003495D02*
X014020Y003495D01*
X014095Y003570D01*
X014095Y003720D01*
X014020Y003795D01*
X013795Y003795D01*
X013945Y003495D02*
X014095Y003345D01*
X014255Y003420D02*
X014330Y003345D01*
X014481Y003345D01*
X014556Y003420D01*
X014556Y003495D01*
X014481Y003570D01*
X014255Y003570D01*
X014255Y003420D01*
X014255Y003570D02*
X014406Y003720D01*
X014556Y003795D01*
X014470Y004370D02*
X014320Y004370D01*
X014245Y004445D01*
X014245Y004595D02*
X014395Y004670D01*
X014470Y004670D01*
X014545Y004595D01*
X014545Y004445D01*
X014470Y004370D01*
X014245Y004595D02*
X014245Y004820D01*
X014545Y004820D01*
X014085Y004745D02*
X014085Y004595D01*
X014010Y004520D01*
X013785Y004520D01*
X013935Y004520D02*
X014085Y004370D01*
X013785Y004370D02*
X013785Y004820D01*
X014010Y004820D01*
X014085Y004745D01*
X014020Y001670D02*
X013795Y001670D01*
X013795Y001220D01*
X013795Y001370D02*
X014020Y001370D01*
X014095Y001445D01*
X014095Y001595D01*
X014020Y001670D01*
X014255Y001670D02*
X014556Y001670D01*
X014556Y001595D01*
X014255Y001295D01*
X014255Y001220D01*
X014095Y001220D02*
X013945Y001370D01*
X018420Y002045D02*
X018420Y002495D01*
X018645Y002495D01*
X018720Y002420D01*
X018720Y002270D01*
X018645Y002195D01*
X018420Y002195D01*
X018570Y002195D02*
X018720Y002045D01*
X018880Y002045D02*
X019181Y002495D01*
X019420Y002495D02*
X019720Y002495D01*
X019570Y002495D02*
X019570Y002045D01*
X019880Y002045D02*
X020181Y002495D01*
X019880Y002495D02*
X020181Y002045D01*
X019181Y002045D02*
X018880Y002495D01*
X019670Y003795D02*
X019895Y003795D01*
X019970Y003870D01*
X019970Y004170D01*
X019895Y004245D01*
X019670Y004245D01*
X019670Y003795D01*
X020130Y003870D02*
X020205Y003795D01*
X020356Y003795D01*
X020431Y003870D01*
X020431Y003945D01*
X020356Y004020D01*
X020130Y004020D01*
X020130Y003870D01*
X020130Y004020D02*
X020281Y004170D01*
X020431Y004245D01*
D16*
X015470Y015590D02*
X015220Y015590D01*
X014970Y015590D01*
X014970Y015840D02*
X015220Y015840D01*
X015470Y015840D01*
X011470Y015850D02*
X011220Y015850D01*
X010970Y015850D01*
X010970Y015600D02*
X011220Y015600D01*
X011470Y015600D01*
X009470Y008840D02*
X009220Y008840D01*
X008970Y008840D01*
X008970Y008590D02*
X009220Y008590D01*
X009470Y008590D01*
X003470Y008600D02*
X003220Y008600D01*
X002970Y008600D01*
X002970Y008850D02*
X003220Y008850D01*
X003470Y008850D01*
X001970Y015225D02*
X001720Y015225D01*
X001470Y015225D01*
X001470Y015475D02*
X001720Y015475D01*
X001970Y015475D01*
D17*
X017170Y007470D03*
X019520Y007470D03*
D18*
X019845Y008195D03*
X016845Y008195D03*
D19*
X015345Y005220D02*
X001345Y005220D01*
X001345Y008220D01*
X001845Y008220D01*
X001845Y009220D01*
X001345Y009220D01*
X001345Y012220D01*
X015345Y012220D01*
X015345Y005220D01*
X015396Y012265D02*
X001294Y012265D01*
X001294Y013175D01*
X015396Y013175D01*
X015396Y012265D01*
X006880Y005038D02*
X006880Y004408D01*
X006880Y005038D02*
X001251Y005038D01*
X001251Y001652D01*
X004380Y001652D01*
X006251Y001652D02*
X006880Y001652D01*
X006880Y002282D01*
D20*
X008584Y002364D02*
X008584Y001576D01*
X009372Y001576D01*
X009372Y002364D01*
X008584Y002364D01*
X018742Y004775D02*
X018790Y004805D01*
X018835Y004838D01*
X018878Y004874D01*
X018919Y004912D01*
X018956Y004954D01*
X018991Y004998D01*
X019022Y005044D01*
X019051Y005093D01*
X019075Y005143D01*
X019096Y005195D01*
X019114Y005249D01*
X019127Y005303D01*
X019137Y005358D01*
X019143Y005414D01*
X019145Y005470D01*
X017969Y004764D02*
X017922Y004791D01*
X017877Y004821D01*
X017834Y004854D01*
X017794Y004890D01*
X017756Y004929D01*
X017721Y004970D01*
X017688Y005013D01*
X017659Y005058D01*
X017633Y005106D01*
X017610Y005155D01*
X017590Y005205D01*
X017574Y005256D01*
X017561Y005309D01*
X017552Y005362D01*
X017547Y005416D01*
X017545Y005470D01*
X018862Y006081D02*
X018901Y006045D01*
X018939Y006006D01*
X018973Y005966D01*
X019005Y005923D01*
X019033Y005878D01*
X019059Y005831D01*
X019082Y005782D01*
X019101Y005732D01*
X019117Y005681D01*
X019129Y005629D01*
X019138Y005577D01*
X019143Y005523D01*
X019145Y005470D01*
X017833Y006085D02*
X017793Y006049D01*
X017755Y006010D01*
X017720Y005969D01*
X017688Y005926D01*
X017658Y005881D01*
X017632Y005834D01*
X017610Y005785D01*
X017590Y005734D01*
X017574Y005683D01*
X017561Y005631D01*
X017552Y005577D01*
X017547Y005524D01*
X017545Y005470D01*
D21*
X009720Y003495D03*
D22*
X007995Y003745D03*
X011445Y003745D03*
X012945Y002595D03*
X015495Y002595D03*
D23*
X010220Y003745D03*
X009220Y003745D03*
D24*
X009070Y017870D02*
X003870Y017870D01*
X003870Y020570D01*
X005670Y020570D01*
X007270Y020570D02*
X009070Y020570D01*
X009070Y017870D01*
X010120Y017870D02*
X015320Y017870D01*
X015320Y020570D01*
X013520Y020570D01*
X011920Y020570D02*
X010120Y020570D01*
X010120Y017870D01*
D25*
X013570Y002595D03*
M02*
