G75*
G70*
%OFA0B0*%
%FSLAX24Y24*%
%IPPOS*%
%LPD*%
%AMOC8*
5,1,8,0,0,1.08239X$1,22.5*
%
%ADD10C,0.0160*%
%ADD11C,0.0000*%
%ADD12R,0.0630X0.0460*%
D10*
X000970Y000595D02*
X000970Y021216D01*
X020840Y021216D01*
X020840Y000595D01*
X000970Y000595D01*
D11*
X016840Y002220D02*
X016842Y002270D01*
X016848Y002320D01*
X016858Y002369D01*
X016872Y002417D01*
X016889Y002464D01*
X016910Y002509D01*
X016935Y002553D01*
X016963Y002594D01*
X016995Y002633D01*
X017029Y002670D01*
X017066Y002704D01*
X017106Y002734D01*
X017148Y002761D01*
X017192Y002785D01*
X017238Y002806D01*
X017285Y002822D01*
X017333Y002835D01*
X017383Y002844D01*
X017432Y002849D01*
X017483Y002850D01*
X017533Y002847D01*
X017582Y002840D01*
X017631Y002829D01*
X017679Y002814D01*
X017725Y002796D01*
X017770Y002774D01*
X017813Y002748D01*
X017854Y002719D01*
X017893Y002687D01*
X017929Y002652D01*
X017961Y002614D01*
X017991Y002574D01*
X018018Y002531D01*
X018041Y002487D01*
X018060Y002441D01*
X018076Y002393D01*
X018088Y002344D01*
X018096Y002295D01*
X018100Y002245D01*
X018100Y002195D01*
X018096Y002145D01*
X018088Y002096D01*
X018076Y002047D01*
X018060Y001999D01*
X018041Y001953D01*
X018018Y001909D01*
X017991Y001866D01*
X017961Y001826D01*
X017929Y001788D01*
X017893Y001753D01*
X017854Y001721D01*
X017813Y001692D01*
X017770Y001666D01*
X017725Y001644D01*
X017679Y001626D01*
X017631Y001611D01*
X017582Y001600D01*
X017533Y001593D01*
X017483Y001590D01*
X017432Y001591D01*
X017383Y001596D01*
X017333Y001605D01*
X017285Y001618D01*
X017238Y001634D01*
X017192Y001655D01*
X017148Y001679D01*
X017106Y001706D01*
X017066Y001736D01*
X017029Y001770D01*
X016995Y001807D01*
X016963Y001846D01*
X016935Y001887D01*
X016910Y001931D01*
X016889Y001976D01*
X016872Y002023D01*
X016858Y002071D01*
X016848Y002120D01*
X016842Y002170D01*
X016840Y002220D01*
X001340Y020220D02*
X001342Y020270D01*
X001348Y020320D01*
X001358Y020369D01*
X001372Y020417D01*
X001389Y020464D01*
X001410Y020509D01*
X001435Y020553D01*
X001463Y020594D01*
X001495Y020633D01*
X001529Y020670D01*
X001566Y020704D01*
X001606Y020734D01*
X001648Y020761D01*
X001692Y020785D01*
X001738Y020806D01*
X001785Y020822D01*
X001833Y020835D01*
X001883Y020844D01*
X001932Y020849D01*
X001983Y020850D01*
X002033Y020847D01*
X002082Y020840D01*
X002131Y020829D01*
X002179Y020814D01*
X002225Y020796D01*
X002270Y020774D01*
X002313Y020748D01*
X002354Y020719D01*
X002393Y020687D01*
X002429Y020652D01*
X002461Y020614D01*
X002491Y020574D01*
X002518Y020531D01*
X002541Y020487D01*
X002560Y020441D01*
X002576Y020393D01*
X002588Y020344D01*
X002596Y020295D01*
X002600Y020245D01*
X002600Y020195D01*
X002596Y020145D01*
X002588Y020096D01*
X002576Y020047D01*
X002560Y019999D01*
X002541Y019953D01*
X002518Y019909D01*
X002491Y019866D01*
X002461Y019826D01*
X002429Y019788D01*
X002393Y019753D01*
X002354Y019721D01*
X002313Y019692D01*
X002270Y019666D01*
X002225Y019644D01*
X002179Y019626D01*
X002131Y019611D01*
X002082Y019600D01*
X002033Y019593D01*
X001983Y019590D01*
X001932Y019591D01*
X001883Y019596D01*
X001833Y019605D01*
X001785Y019618D01*
X001738Y019634D01*
X001692Y019655D01*
X001648Y019679D01*
X001606Y019706D01*
X001566Y019736D01*
X001529Y019770D01*
X001495Y019807D01*
X001463Y019846D01*
X001435Y019887D01*
X001410Y019931D01*
X001389Y019976D01*
X001372Y020023D01*
X001358Y020071D01*
X001348Y020120D01*
X001342Y020170D01*
X001340Y020220D01*
D12*
X015845Y009020D03*
X015845Y008420D03*
M02*
