%
M48
M72
T01C0.0236
T02C0.0320
T03C0.0360
T04C0.0380
T05C0.0394
T06C0.0400
T07C0.0520
T08C0.0590
T09C0.1260
%
T01
X5470Y15470
X6470Y16095
X3470Y17970
X10595Y18595
X17595Y13095
T02
X17370Y14220
X16570Y14220
X15220Y13845
X15220Y14720
X15220Y16720
X13220Y16220
X13220Y15220
X11220Y14720
X11220Y13845
X9970Y13845
X8970Y13845
X7970Y13845
X6970Y13845
X5970Y13845
X4970Y13845
X3970Y13845
X2970Y13845
X1720Y14345
X1720Y16345
X2970Y16845
X3970Y16845
X4970Y16845
X5970Y16845
X6970Y16845
X7970Y16845
X8970Y16845
X9970Y16845
X11220Y16720
X16220Y12595
X16220Y11720
X13720Y10220
X12720Y10220
X11720Y10220
X10720Y10220
X9220Y9720
X7720Y10220
X6720Y10220
X5720Y10220
X4720Y10220
X3220Y9720
X3220Y7720
X4720Y7220
X5720Y7220
X6720Y7220
X7720Y7220
X9220Y7720
X10720Y7220
X11720Y7220
X12720Y7220
X13720Y7220
X12220Y4595
X12220Y3595
X12220Y2595
X12220Y1470
X16220Y1470
X16220Y2595
X16220Y3595
X16220Y4595
X18345Y4970
X18345Y5970
X20220Y11720
X20220Y12595
X19870Y14220
X19070Y14220
X2220Y18070
X2220Y18870
T03
X5470Y18720
X5470Y19720
X6470Y19720
X6470Y18720
X7470Y18720
X7470Y19720
X11720Y19720
X11720Y18720
X12720Y18720
X12720Y19720
X13720Y19720
X13720Y18720
T04
X13845Y11720
X12845Y11720
X11845Y11720
X10845Y11720
X9845Y11720
X8845Y11720
X7845Y11720
X6845Y11720
X5845Y11720
X4845Y11720
X3845Y11720
X2845Y11720
X1845Y11720
X1845Y5720
X2845Y5720
X3845Y5720
X4845Y5720
X5845Y5720
X6845Y5720
X7845Y5720
X8845Y5720
X9845Y5720
X10845Y5720
X11845Y5720
X12845Y5720
X13845Y5720
X14845Y5720
X14845Y11720
T05
X4164Y3345
X5345Y1455
X6565Y3345
X8486Y1970
X9470Y1970
X10454Y1970
X10845Y12720
X11845Y12720
X12845Y12720
X13845Y12720
X14845Y12720
X9845Y12720
X8845Y12720
X7845Y12720
X6845Y12720
X5845Y12720
X4845Y12720
X3845Y12720
X2845Y12720
X1845Y12720
T06
X8720Y4345
X9720Y4345
X10720Y4345
X18845Y1470
X19845Y1470
X20095Y3220
T07
X19345Y6720
X17345Y6720
X18345Y10720
T08
X16500Y15960
X16290Y18910
X18140Y20190
X19160Y17650
X20150Y17100
T09
X17470Y2220
X1970Y20220
M30
